%TF.GenerationSoftware,KiCad,Pcbnew,9.0.7*%
%TF.CreationDate,2026-02-04T14:21:25-07:00*%
%TF.ProjectId,Uno_Shield_DSP_Class_v1,556e6f5f-5368-4696-956c-645f4453505f,rev?*%
%TF.SameCoordinates,Original*%
%TF.FileFunction,Legend,Top*%
%TF.FilePolarity,Positive*%
%FSLAX46Y46*%
G04 Gerber Fmt 4.6, Leading zero omitted, Abs format (unit mm)*
G04 Created by KiCad (PCBNEW 9.0.7) date 2026-02-04 14:21:25*
%MOMM*%
%LPD*%
G01*
G04 APERTURE LIST*
%ADD10C,0.150000*%
%ADD11C,0.120000*%
G04 APERTURE END LIST*
D10*
X97677800Y-75289160D02*
X97630180Y-75432017D01*
X97630180Y-75432017D02*
X97630180Y-75670112D01*
X97630180Y-75670112D02*
X97677800Y-75765350D01*
X97677800Y-75765350D02*
X97725419Y-75812969D01*
X97725419Y-75812969D02*
X97820657Y-75860588D01*
X97820657Y-75860588D02*
X97915895Y-75860588D01*
X97915895Y-75860588D02*
X98011133Y-75812969D01*
X98011133Y-75812969D02*
X98058752Y-75765350D01*
X98058752Y-75765350D02*
X98106371Y-75670112D01*
X98106371Y-75670112D02*
X98153990Y-75479636D01*
X98153990Y-75479636D02*
X98201609Y-75384398D01*
X98201609Y-75384398D02*
X98249228Y-75336779D01*
X98249228Y-75336779D02*
X98344466Y-75289160D01*
X98344466Y-75289160D02*
X98439704Y-75289160D01*
X98439704Y-75289160D02*
X98534942Y-75336779D01*
X98534942Y-75336779D02*
X98582561Y-75384398D01*
X98582561Y-75384398D02*
X98630180Y-75479636D01*
X98630180Y-75479636D02*
X98630180Y-75717731D01*
X98630180Y-75717731D02*
X98582561Y-75860588D01*
X97725419Y-76860588D02*
X97677800Y-76812969D01*
X97677800Y-76812969D02*
X97630180Y-76670112D01*
X97630180Y-76670112D02*
X97630180Y-76574874D01*
X97630180Y-76574874D02*
X97677800Y-76432017D01*
X97677800Y-76432017D02*
X97773038Y-76336779D01*
X97773038Y-76336779D02*
X97868276Y-76289160D01*
X97868276Y-76289160D02*
X98058752Y-76241541D01*
X98058752Y-76241541D02*
X98201609Y-76241541D01*
X98201609Y-76241541D02*
X98392085Y-76289160D01*
X98392085Y-76289160D02*
X98487323Y-76336779D01*
X98487323Y-76336779D02*
X98582561Y-76432017D01*
X98582561Y-76432017D02*
X98630180Y-76574874D01*
X98630180Y-76574874D02*
X98630180Y-76670112D01*
X98630180Y-76670112D02*
X98582561Y-76812969D01*
X98582561Y-76812969D02*
X98534942Y-76860588D01*
X97630180Y-77765350D02*
X97630180Y-77289160D01*
X97630180Y-77289160D02*
X98630180Y-77289160D01*
X83336779Y-49869819D02*
X83336779Y-48869819D01*
X83336779Y-48869819D02*
X83574874Y-48869819D01*
X83574874Y-48869819D02*
X83717731Y-48917438D01*
X83717731Y-48917438D02*
X83812969Y-49012676D01*
X83812969Y-49012676D02*
X83860588Y-49107914D01*
X83860588Y-49107914D02*
X83908207Y-49298390D01*
X83908207Y-49298390D02*
X83908207Y-49441247D01*
X83908207Y-49441247D02*
X83860588Y-49631723D01*
X83860588Y-49631723D02*
X83812969Y-49726961D01*
X83812969Y-49726961D02*
X83717731Y-49822200D01*
X83717731Y-49822200D02*
X83574874Y-49869819D01*
X83574874Y-49869819D02*
X83336779Y-49869819D01*
X84289160Y-49822200D02*
X84432017Y-49869819D01*
X84432017Y-49869819D02*
X84670112Y-49869819D01*
X84670112Y-49869819D02*
X84765350Y-49822200D01*
X84765350Y-49822200D02*
X84812969Y-49774580D01*
X84812969Y-49774580D02*
X84860588Y-49679342D01*
X84860588Y-49679342D02*
X84860588Y-49584104D01*
X84860588Y-49584104D02*
X84812969Y-49488866D01*
X84812969Y-49488866D02*
X84765350Y-49441247D01*
X84765350Y-49441247D02*
X84670112Y-49393628D01*
X84670112Y-49393628D02*
X84479636Y-49346009D01*
X84479636Y-49346009D02*
X84384398Y-49298390D01*
X84384398Y-49298390D02*
X84336779Y-49250771D01*
X84336779Y-49250771D02*
X84289160Y-49155533D01*
X84289160Y-49155533D02*
X84289160Y-49060295D01*
X84289160Y-49060295D02*
X84336779Y-48965057D01*
X84336779Y-48965057D02*
X84384398Y-48917438D01*
X84384398Y-48917438D02*
X84479636Y-48869819D01*
X84479636Y-48869819D02*
X84717731Y-48869819D01*
X84717731Y-48869819D02*
X84860588Y-48917438D01*
X85289160Y-49869819D02*
X85289160Y-48869819D01*
X85289160Y-48869819D02*
X85670112Y-48869819D01*
X85670112Y-48869819D02*
X85765350Y-48917438D01*
X85765350Y-48917438D02*
X85812969Y-48965057D01*
X85812969Y-48965057D02*
X85860588Y-49060295D01*
X85860588Y-49060295D02*
X85860588Y-49203152D01*
X85860588Y-49203152D02*
X85812969Y-49298390D01*
X85812969Y-49298390D02*
X85765350Y-49346009D01*
X85765350Y-49346009D02*
X85670112Y-49393628D01*
X85670112Y-49393628D02*
X85289160Y-49393628D01*
X87003446Y-49822200D02*
X87146303Y-49869819D01*
X87146303Y-49869819D02*
X87384398Y-49869819D01*
X87384398Y-49869819D02*
X87479636Y-49822200D01*
X87479636Y-49822200D02*
X87527255Y-49774580D01*
X87527255Y-49774580D02*
X87574874Y-49679342D01*
X87574874Y-49679342D02*
X87574874Y-49584104D01*
X87574874Y-49584104D02*
X87527255Y-49488866D01*
X87527255Y-49488866D02*
X87479636Y-49441247D01*
X87479636Y-49441247D02*
X87384398Y-49393628D01*
X87384398Y-49393628D02*
X87193922Y-49346009D01*
X87193922Y-49346009D02*
X87098684Y-49298390D01*
X87098684Y-49298390D02*
X87051065Y-49250771D01*
X87051065Y-49250771D02*
X87003446Y-49155533D01*
X87003446Y-49155533D02*
X87003446Y-49060295D01*
X87003446Y-49060295D02*
X87051065Y-48965057D01*
X87051065Y-48965057D02*
X87098684Y-48917438D01*
X87098684Y-48917438D02*
X87193922Y-48869819D01*
X87193922Y-48869819D02*
X87432017Y-48869819D01*
X87432017Y-48869819D02*
X87574874Y-48917438D01*
X88003446Y-49869819D02*
X88003446Y-48869819D01*
X88432017Y-49869819D02*
X88432017Y-49346009D01*
X88432017Y-49346009D02*
X88384398Y-49250771D01*
X88384398Y-49250771D02*
X88289160Y-49203152D01*
X88289160Y-49203152D02*
X88146303Y-49203152D01*
X88146303Y-49203152D02*
X88051065Y-49250771D01*
X88051065Y-49250771D02*
X88003446Y-49298390D01*
X88908208Y-49869819D02*
X88908208Y-49203152D01*
X88908208Y-48869819D02*
X88860589Y-48917438D01*
X88860589Y-48917438D02*
X88908208Y-48965057D01*
X88908208Y-48965057D02*
X88955827Y-48917438D01*
X88955827Y-48917438D02*
X88908208Y-48869819D01*
X88908208Y-48869819D02*
X88908208Y-48965057D01*
X89765350Y-49822200D02*
X89670112Y-49869819D01*
X89670112Y-49869819D02*
X89479636Y-49869819D01*
X89479636Y-49869819D02*
X89384398Y-49822200D01*
X89384398Y-49822200D02*
X89336779Y-49726961D01*
X89336779Y-49726961D02*
X89336779Y-49346009D01*
X89336779Y-49346009D02*
X89384398Y-49250771D01*
X89384398Y-49250771D02*
X89479636Y-49203152D01*
X89479636Y-49203152D02*
X89670112Y-49203152D01*
X89670112Y-49203152D02*
X89765350Y-49250771D01*
X89765350Y-49250771D02*
X89812969Y-49346009D01*
X89812969Y-49346009D02*
X89812969Y-49441247D01*
X89812969Y-49441247D02*
X89336779Y-49536485D01*
X90384398Y-49869819D02*
X90289160Y-49822200D01*
X90289160Y-49822200D02*
X90241541Y-49726961D01*
X90241541Y-49726961D02*
X90241541Y-48869819D01*
X91193922Y-49869819D02*
X91193922Y-48869819D01*
X91193922Y-49822200D02*
X91098684Y-49869819D01*
X91098684Y-49869819D02*
X90908208Y-49869819D01*
X90908208Y-49869819D02*
X90812970Y-49822200D01*
X90812970Y-49822200D02*
X90765351Y-49774580D01*
X90765351Y-49774580D02*
X90717732Y-49679342D01*
X90717732Y-49679342D02*
X90717732Y-49393628D01*
X90717732Y-49393628D02*
X90765351Y-49298390D01*
X90765351Y-49298390D02*
X90812970Y-49250771D01*
X90812970Y-49250771D02*
X90908208Y-49203152D01*
X90908208Y-49203152D02*
X91098684Y-49203152D01*
X91098684Y-49203152D02*
X91193922Y-49250771D01*
G36*
X166706344Y-68248669D02*
G01*
X166736751Y-68279076D01*
X166771009Y-68347592D01*
X166771009Y-68588220D01*
X166444819Y-68588220D01*
X166444819Y-68347592D01*
X166479077Y-68279076D01*
X166509484Y-68248669D01*
X166578000Y-68214411D01*
X166637828Y-68214411D01*
X166706344Y-68248669D01*
G37*
G36*
X167230153Y-68201050D02*
G01*
X167260561Y-68231457D01*
X167294819Y-68299973D01*
X167294819Y-68588220D01*
X166921009Y-68588220D01*
X166921009Y-68342057D01*
X166959180Y-68227543D01*
X166985674Y-68201050D01*
X167054190Y-68166792D01*
X167161637Y-68166792D01*
X167230153Y-68201050D01*
G37*
G36*
X167230153Y-65248668D02*
G01*
X167260561Y-65279075D01*
X167294819Y-65347591D01*
X167294819Y-65455038D01*
X167260561Y-65523553D01*
X167230153Y-65553960D01*
X167161637Y-65588219D01*
X166911333Y-65588219D01*
X166842817Y-65553961D01*
X166812410Y-65523554D01*
X166778152Y-65455038D01*
X166778152Y-65347591D01*
X166812410Y-65279075D01*
X166842817Y-65248668D01*
X166911333Y-65214410D01*
X167161637Y-65214410D01*
X167230153Y-65248668D01*
G37*
G36*
X167555930Y-68849331D02*
G01*
X166183708Y-68849331D01*
X166183708Y-68329887D01*
X166294819Y-68329887D01*
X166294819Y-68663220D01*
X166296260Y-68677852D01*
X166307459Y-68704888D01*
X166328151Y-68725580D01*
X166355187Y-68736779D01*
X166369819Y-68738220D01*
X167369819Y-68738220D01*
X167384451Y-68736779D01*
X167411487Y-68725580D01*
X167432179Y-68704888D01*
X167443378Y-68677852D01*
X167444819Y-68663220D01*
X167444819Y-68282268D01*
X167443378Y-68267636D01*
X167442347Y-68265147D01*
X167442156Y-68262458D01*
X167436901Y-68248727D01*
X167389282Y-68153489D01*
X167385317Y-68147189D01*
X167384560Y-68145362D01*
X167382872Y-68143305D01*
X167381450Y-68141046D01*
X167379950Y-68139745D01*
X167375232Y-68133996D01*
X167327612Y-68086377D01*
X167321863Y-68081659D01*
X167320564Y-68080161D01*
X167318305Y-68078739D01*
X167316247Y-68077050D01*
X167314417Y-68076292D01*
X167308121Y-68072329D01*
X167212883Y-68024710D01*
X167199151Y-68019455D01*
X167196463Y-68019264D01*
X167193974Y-68018233D01*
X167179342Y-68016792D01*
X167036485Y-68016792D01*
X167021853Y-68018233D01*
X167019364Y-68019263D01*
X167016675Y-68019455D01*
X167002944Y-68024710D01*
X166907706Y-68072329D01*
X166901406Y-68076293D01*
X166899579Y-68077051D01*
X166897522Y-68078739D01*
X166895263Y-68080161D01*
X166893963Y-68081659D01*
X166888214Y-68086378D01*
X166840595Y-68133997D01*
X166831268Y-68145362D01*
X166830236Y-68147852D01*
X166828471Y-68149888D01*
X166825762Y-68155955D01*
X166803804Y-68133997D01*
X166798054Y-68129278D01*
X166796755Y-68127780D01*
X166794495Y-68126358D01*
X166792439Y-68124670D01*
X166790611Y-68123912D01*
X166784312Y-68119948D01*
X166689074Y-68072329D01*
X166675342Y-68067074D01*
X166672654Y-68066883D01*
X166670165Y-68065852D01*
X166655533Y-68064411D01*
X166560295Y-68064411D01*
X166545663Y-68065852D01*
X166543174Y-68066882D01*
X166540485Y-68067074D01*
X166526754Y-68072329D01*
X166431516Y-68119948D01*
X166425216Y-68123912D01*
X166423389Y-68124670D01*
X166421332Y-68126358D01*
X166419073Y-68127780D01*
X166417773Y-68129278D01*
X166412024Y-68133997D01*
X166364405Y-68181616D01*
X166359686Y-68187365D01*
X166358188Y-68188665D01*
X166356766Y-68190924D01*
X166355078Y-68192981D01*
X166354320Y-68194808D01*
X166350356Y-68201108D01*
X166302737Y-68296346D01*
X166297482Y-68310078D01*
X166297291Y-68312765D01*
X166296260Y-68315255D01*
X166294819Y-68329887D01*
X166183708Y-68329887D01*
X166183708Y-67220017D01*
X166629593Y-67220017D01*
X166629593Y-67249281D01*
X166640792Y-67276317D01*
X166661484Y-67297009D01*
X166688520Y-67308208D01*
X166703152Y-67309649D01*
X167243514Y-67309649D01*
X167260561Y-67326695D01*
X167294819Y-67395211D01*
X167294819Y-67502658D01*
X167266298Y-67559699D01*
X167209256Y-67588220D01*
X166703152Y-67588220D01*
X166688520Y-67589661D01*
X166661484Y-67600860D01*
X166640792Y-67621552D01*
X166629593Y-67648588D01*
X166629593Y-67677852D01*
X166640792Y-67704888D01*
X166661484Y-67725580D01*
X166688520Y-67736779D01*
X166703152Y-67738220D01*
X167226961Y-67738220D01*
X167241593Y-67736779D01*
X167244082Y-67735747D01*
X167246770Y-67735557D01*
X167260502Y-67730302D01*
X167355741Y-67682683D01*
X167358187Y-67681142D01*
X167359342Y-67680758D01*
X167360779Y-67679511D01*
X167368183Y-67674851D01*
X167374342Y-67667748D01*
X167381450Y-67661585D01*
X167386111Y-67654179D01*
X167387357Y-67652743D01*
X167387741Y-67651589D01*
X167389282Y-67649142D01*
X167436901Y-67553904D01*
X167442156Y-67540173D01*
X167442347Y-67537483D01*
X167443378Y-67534995D01*
X167444819Y-67520363D01*
X167444819Y-67377506D01*
X167443378Y-67362874D01*
X167442347Y-67360385D01*
X167442156Y-67357696D01*
X167436901Y-67343965D01*
X167412777Y-67295718D01*
X167432179Y-67276317D01*
X167443378Y-67249281D01*
X167443378Y-67220017D01*
X167432179Y-67192981D01*
X167411487Y-67172289D01*
X167384451Y-67161090D01*
X167369819Y-67159649D01*
X166703152Y-67159649D01*
X166688520Y-67161090D01*
X166661484Y-67172289D01*
X166640792Y-67192981D01*
X166629593Y-67220017D01*
X166183708Y-67220017D01*
X166183708Y-66743826D01*
X166296260Y-66743826D01*
X166296260Y-66773090D01*
X166307459Y-66800126D01*
X166328151Y-66820818D01*
X166355187Y-66832017D01*
X166369819Y-66833458D01*
X166628152Y-66833458D01*
X166628152Y-66901315D01*
X166629593Y-66915947D01*
X166640792Y-66942983D01*
X166661484Y-66963675D01*
X166688520Y-66974874D01*
X166717784Y-66974874D01*
X166744820Y-66963675D01*
X166765512Y-66942983D01*
X166776711Y-66915947D01*
X166778152Y-66901315D01*
X166778152Y-66833458D01*
X167226961Y-66833458D01*
X167241593Y-66832017D01*
X167244082Y-66830985D01*
X167246770Y-66830795D01*
X167260502Y-66825540D01*
X167355741Y-66777921D01*
X167358187Y-66776380D01*
X167359342Y-66775996D01*
X167360779Y-66774749D01*
X167368183Y-66770089D01*
X167374342Y-66762986D01*
X167381450Y-66756823D01*
X167386111Y-66749417D01*
X167387357Y-66747981D01*
X167387741Y-66746827D01*
X167389282Y-66744380D01*
X167436901Y-66649142D01*
X167442156Y-66635411D01*
X167442347Y-66632721D01*
X167443378Y-66630233D01*
X167444819Y-66615601D01*
X167444819Y-66520363D01*
X167443378Y-66505731D01*
X167432179Y-66478695D01*
X167411487Y-66458003D01*
X167384451Y-66446804D01*
X167355187Y-66446804D01*
X167328151Y-66458003D01*
X167307459Y-66478695D01*
X167296260Y-66505731D01*
X167294819Y-66520363D01*
X167294819Y-66597896D01*
X167266298Y-66654937D01*
X167209256Y-66683458D01*
X166778152Y-66683458D01*
X166778152Y-66520363D01*
X166776711Y-66505731D01*
X166765512Y-66478695D01*
X166744820Y-66458003D01*
X166717784Y-66446804D01*
X166688520Y-66446804D01*
X166661484Y-66458003D01*
X166640792Y-66478695D01*
X166629593Y-66505731D01*
X166628152Y-66520363D01*
X166628152Y-66683458D01*
X166369819Y-66683458D01*
X166355187Y-66684899D01*
X166328151Y-66696098D01*
X166307459Y-66716790D01*
X166296260Y-66743826D01*
X166183708Y-66743826D01*
X166183708Y-66172397D01*
X166296260Y-66172397D01*
X166296260Y-66201661D01*
X166307459Y-66228697D01*
X166328151Y-66249389D01*
X166355187Y-66260588D01*
X166369819Y-66262029D01*
X166628152Y-66262029D01*
X166628152Y-66329886D01*
X166629593Y-66344518D01*
X166640792Y-66371554D01*
X166661484Y-66392246D01*
X166688520Y-66403445D01*
X166717784Y-66403445D01*
X166744820Y-66392246D01*
X166765512Y-66371554D01*
X166776711Y-66344518D01*
X166778152Y-66329886D01*
X166778152Y-66262029D01*
X167226961Y-66262029D01*
X167241593Y-66260588D01*
X167244082Y-66259556D01*
X167246770Y-66259366D01*
X167260502Y-66254111D01*
X167355741Y-66206492D01*
X167358187Y-66204951D01*
X167359342Y-66204567D01*
X167360779Y-66203320D01*
X167368183Y-66198660D01*
X167374342Y-66191557D01*
X167381450Y-66185394D01*
X167386111Y-66177988D01*
X167387357Y-66176552D01*
X167387741Y-66175398D01*
X167389282Y-66172951D01*
X167436901Y-66077713D01*
X167442156Y-66063982D01*
X167442347Y-66061292D01*
X167443378Y-66058804D01*
X167444819Y-66044172D01*
X167444819Y-65948934D01*
X167443378Y-65934302D01*
X167432179Y-65907266D01*
X167411487Y-65886574D01*
X167384451Y-65875375D01*
X167355187Y-65875375D01*
X167328151Y-65886574D01*
X167307459Y-65907266D01*
X167296260Y-65934302D01*
X167294819Y-65948934D01*
X167294819Y-66026467D01*
X167266298Y-66083508D01*
X167209256Y-66112029D01*
X166778152Y-66112029D01*
X166778152Y-65948934D01*
X166776711Y-65934302D01*
X166765512Y-65907266D01*
X166744820Y-65886574D01*
X166717784Y-65875375D01*
X166688520Y-65875375D01*
X166661484Y-65886574D01*
X166640792Y-65907266D01*
X166629593Y-65934302D01*
X166628152Y-65948934D01*
X166628152Y-66112029D01*
X166369819Y-66112029D01*
X166355187Y-66113470D01*
X166328151Y-66124669D01*
X166307459Y-66145361D01*
X166296260Y-66172397D01*
X166183708Y-66172397D01*
X166183708Y-65329886D01*
X166628152Y-65329886D01*
X166628152Y-65472743D01*
X166629593Y-65487375D01*
X166630624Y-65489864D01*
X166630815Y-65492552D01*
X166636070Y-65506284D01*
X166683689Y-65601522D01*
X166687653Y-65607821D01*
X166688411Y-65609649D01*
X166690099Y-65611705D01*
X166691521Y-65613965D01*
X166693019Y-65615264D01*
X166697738Y-65621014D01*
X166745357Y-65668633D01*
X166751106Y-65673351D01*
X166752406Y-65674850D01*
X166754665Y-65676271D01*
X166756722Y-65677960D01*
X166758549Y-65678717D01*
X166764849Y-65682682D01*
X166860087Y-65730301D01*
X166873818Y-65735556D01*
X166876507Y-65735747D01*
X166878996Y-65736778D01*
X166893628Y-65738219D01*
X167179342Y-65738219D01*
X167193974Y-65736778D01*
X167196463Y-65735746D01*
X167199151Y-65735556D01*
X167212883Y-65730301D01*
X167308121Y-65682682D01*
X167314417Y-65678718D01*
X167316247Y-65677961D01*
X167318305Y-65676271D01*
X167320564Y-65674850D01*
X167321863Y-65673351D01*
X167327612Y-65668634D01*
X167375232Y-65621015D01*
X167379950Y-65615265D01*
X167381450Y-65613965D01*
X167382872Y-65611705D01*
X167384560Y-65609649D01*
X167385317Y-65607821D01*
X167389282Y-65601522D01*
X167436901Y-65506284D01*
X167442156Y-65492553D01*
X167442347Y-65489863D01*
X167443378Y-65487375D01*
X167444819Y-65472743D01*
X167444819Y-65329886D01*
X167443378Y-65315254D01*
X167442347Y-65312765D01*
X167442156Y-65310076D01*
X167436901Y-65296345D01*
X167389282Y-65201107D01*
X167385317Y-65194807D01*
X167384560Y-65192980D01*
X167382872Y-65190923D01*
X167381450Y-65188664D01*
X167379950Y-65187363D01*
X167375232Y-65181614D01*
X167327612Y-65133995D01*
X167321863Y-65129277D01*
X167320564Y-65127779D01*
X167318305Y-65126357D01*
X167316247Y-65124668D01*
X167314417Y-65123910D01*
X167308121Y-65119947D01*
X167212883Y-65072328D01*
X167199151Y-65067073D01*
X167196463Y-65066882D01*
X167193974Y-65065851D01*
X167179342Y-65064410D01*
X166893628Y-65064410D01*
X166878996Y-65065851D01*
X166876507Y-65066881D01*
X166873818Y-65067073D01*
X166860087Y-65072328D01*
X166764849Y-65119947D01*
X166758549Y-65123911D01*
X166756722Y-65124669D01*
X166754665Y-65126357D01*
X166752406Y-65127779D01*
X166751106Y-65129277D01*
X166745357Y-65133996D01*
X166697738Y-65181615D01*
X166693019Y-65187364D01*
X166691521Y-65188664D01*
X166690099Y-65190923D01*
X166688411Y-65192980D01*
X166687653Y-65194807D01*
X166683689Y-65201107D01*
X166636070Y-65296345D01*
X166630815Y-65310077D01*
X166630624Y-65312764D01*
X166629593Y-65315254D01*
X166628152Y-65329886D01*
X166183708Y-65329886D01*
X166183708Y-64425124D01*
X166628152Y-64425124D01*
X166628152Y-64567981D01*
X166629593Y-64582613D01*
X166630624Y-64585102D01*
X166630815Y-64587790D01*
X166636070Y-64601522D01*
X166660193Y-64649768D01*
X166640792Y-64669170D01*
X166629593Y-64696206D01*
X166629593Y-64725470D01*
X166640792Y-64752506D01*
X166661484Y-64773198D01*
X166688520Y-64784397D01*
X166703152Y-64785838D01*
X167369819Y-64785838D01*
X167384451Y-64784397D01*
X167411487Y-64773198D01*
X167432179Y-64752506D01*
X167443378Y-64725470D01*
X167443378Y-64696206D01*
X167432179Y-64669170D01*
X167411487Y-64648478D01*
X167384451Y-64637279D01*
X167369819Y-64635838D01*
X166829456Y-64635838D01*
X166812410Y-64618792D01*
X166778152Y-64550276D01*
X166778152Y-64442829D01*
X166806672Y-64385787D01*
X166863714Y-64357267D01*
X167369819Y-64357267D01*
X167384451Y-64355826D01*
X167411487Y-64344627D01*
X167432179Y-64323935D01*
X167443378Y-64296899D01*
X167443378Y-64267635D01*
X167432179Y-64240599D01*
X167411487Y-64219907D01*
X167384451Y-64208708D01*
X167369819Y-64207267D01*
X166846009Y-64207267D01*
X166831377Y-64208708D01*
X166828888Y-64209738D01*
X166826199Y-64209930D01*
X166812468Y-64215185D01*
X166717230Y-64262804D01*
X166714782Y-64264344D01*
X166713629Y-64264729D01*
X166712192Y-64265974D01*
X166704787Y-64270636D01*
X166698625Y-64277740D01*
X166691521Y-64283902D01*
X166686859Y-64291307D01*
X166685614Y-64292744D01*
X166685229Y-64293897D01*
X166683689Y-64296345D01*
X166636070Y-64391583D01*
X166630815Y-64405315D01*
X166630624Y-64408002D01*
X166629593Y-64410492D01*
X166628152Y-64425124D01*
X166183708Y-64425124D01*
X166183708Y-62710838D01*
X166294819Y-62710838D01*
X166294819Y-62948933D01*
X166296260Y-62963565D01*
X166297291Y-62966054D01*
X166297482Y-62968742D01*
X166302737Y-62982474D01*
X166350356Y-63077712D01*
X166354320Y-63084011D01*
X166355078Y-63085839D01*
X166356766Y-63087895D01*
X166358188Y-63090155D01*
X166359686Y-63091454D01*
X166364405Y-63097204D01*
X166412024Y-63144823D01*
X166423389Y-63154150D01*
X166450425Y-63165349D01*
X166479688Y-63165349D01*
X166506724Y-63154150D01*
X166527417Y-63133457D01*
X166538616Y-63106421D01*
X166538616Y-63077158D01*
X166527417Y-63050122D01*
X166518090Y-63038757D01*
X166479077Y-62999744D01*
X166444819Y-62931228D01*
X166444819Y-62728543D01*
X166479077Y-62660027D01*
X166509484Y-62629620D01*
X166578000Y-62595362D01*
X166643363Y-62595362D01*
X166757876Y-62633533D01*
X167316786Y-63192442D01*
X167328151Y-63201770D01*
X167347268Y-63209688D01*
X167355187Y-63212968D01*
X167355188Y-63212968D01*
X167384451Y-63212968D01*
X167411487Y-63201769D01*
X167432180Y-63181077D01*
X167440098Y-63161959D01*
X167443378Y-63154041D01*
X167444819Y-63139409D01*
X167444819Y-62520362D01*
X167443378Y-62505730D01*
X167432179Y-62478694D01*
X167411487Y-62458002D01*
X167384451Y-62446803D01*
X167355187Y-62446803D01*
X167328151Y-62458002D01*
X167307459Y-62478694D01*
X167296260Y-62505730D01*
X167294819Y-62520362D01*
X167294819Y-62958343D01*
X166851423Y-62514948D01*
X166840058Y-62505621D01*
X166837567Y-62504589D01*
X166835532Y-62502824D01*
X166822107Y-62496830D01*
X166679250Y-62449211D01*
X166671996Y-62447561D01*
X166670165Y-62446803D01*
X166667510Y-62446541D01*
X166664913Y-62445951D01*
X166662938Y-62446091D01*
X166655533Y-62445362D01*
X166560295Y-62445362D01*
X166545663Y-62446803D01*
X166543174Y-62447833D01*
X166540485Y-62448025D01*
X166526754Y-62453280D01*
X166431516Y-62500899D01*
X166425216Y-62504863D01*
X166423389Y-62505621D01*
X166421332Y-62507309D01*
X166419073Y-62508731D01*
X166417773Y-62510229D01*
X166412024Y-62514948D01*
X166364405Y-62562567D01*
X166359686Y-62568316D01*
X166358188Y-62569616D01*
X166356766Y-62571875D01*
X166355078Y-62573932D01*
X166354320Y-62575759D01*
X166350356Y-62582059D01*
X166302737Y-62677297D01*
X166297482Y-62691029D01*
X166297291Y-62693716D01*
X166296260Y-62696206D01*
X166294819Y-62710838D01*
X166183708Y-62710838D01*
X166183708Y-62334251D01*
X167555930Y-62334251D01*
X167555930Y-68849331D01*
G37*
G36*
X166706344Y-59248669D02*
G01*
X166736751Y-59279076D01*
X166771009Y-59347592D01*
X166771009Y-59588220D01*
X166444819Y-59588220D01*
X166444819Y-59347592D01*
X166479077Y-59279076D01*
X166509484Y-59248669D01*
X166578000Y-59214411D01*
X166637828Y-59214411D01*
X166706344Y-59248669D01*
G37*
G36*
X167230153Y-59201050D02*
G01*
X167260561Y-59231457D01*
X167294819Y-59299973D01*
X167294819Y-59588220D01*
X166921009Y-59588220D01*
X166921009Y-59342057D01*
X166959180Y-59227543D01*
X166985674Y-59201050D01*
X167054190Y-59166792D01*
X167161637Y-59166792D01*
X167230153Y-59201050D01*
G37*
G36*
X167230153Y-56248668D02*
G01*
X167260561Y-56279075D01*
X167294819Y-56347591D01*
X167294819Y-56455038D01*
X167260561Y-56523553D01*
X167230153Y-56553960D01*
X167161637Y-56588219D01*
X166911333Y-56588219D01*
X166842817Y-56553961D01*
X166812410Y-56523554D01*
X166778152Y-56455038D01*
X166778152Y-56347591D01*
X166812410Y-56279075D01*
X166842817Y-56248668D01*
X166911333Y-56214410D01*
X167161637Y-56214410D01*
X167230153Y-56248668D01*
G37*
G36*
X167555930Y-59849331D02*
G01*
X166183708Y-59849331D01*
X166183708Y-59329887D01*
X166294819Y-59329887D01*
X166294819Y-59663220D01*
X166296260Y-59677852D01*
X166307459Y-59704888D01*
X166328151Y-59725580D01*
X166355187Y-59736779D01*
X166369819Y-59738220D01*
X167369819Y-59738220D01*
X167384451Y-59736779D01*
X167411487Y-59725580D01*
X167432179Y-59704888D01*
X167443378Y-59677852D01*
X167444819Y-59663220D01*
X167444819Y-59282268D01*
X167443378Y-59267636D01*
X167442347Y-59265147D01*
X167442156Y-59262458D01*
X167436901Y-59248727D01*
X167389282Y-59153489D01*
X167385317Y-59147189D01*
X167384560Y-59145362D01*
X167382872Y-59143305D01*
X167381450Y-59141046D01*
X167379950Y-59139745D01*
X167375232Y-59133996D01*
X167327612Y-59086377D01*
X167321863Y-59081659D01*
X167320564Y-59080161D01*
X167318305Y-59078739D01*
X167316247Y-59077050D01*
X167314417Y-59076292D01*
X167308121Y-59072329D01*
X167212883Y-59024710D01*
X167199151Y-59019455D01*
X167196463Y-59019264D01*
X167193974Y-59018233D01*
X167179342Y-59016792D01*
X167036485Y-59016792D01*
X167021853Y-59018233D01*
X167019364Y-59019263D01*
X167016675Y-59019455D01*
X167002944Y-59024710D01*
X166907706Y-59072329D01*
X166901406Y-59076293D01*
X166899579Y-59077051D01*
X166897522Y-59078739D01*
X166895263Y-59080161D01*
X166893963Y-59081659D01*
X166888214Y-59086378D01*
X166840595Y-59133997D01*
X166831268Y-59145362D01*
X166830236Y-59147852D01*
X166828471Y-59149888D01*
X166825762Y-59155955D01*
X166803804Y-59133997D01*
X166798054Y-59129278D01*
X166796755Y-59127780D01*
X166794495Y-59126358D01*
X166792439Y-59124670D01*
X166790611Y-59123912D01*
X166784312Y-59119948D01*
X166689074Y-59072329D01*
X166675342Y-59067074D01*
X166672654Y-59066883D01*
X166670165Y-59065852D01*
X166655533Y-59064411D01*
X166560295Y-59064411D01*
X166545663Y-59065852D01*
X166543174Y-59066882D01*
X166540485Y-59067074D01*
X166526754Y-59072329D01*
X166431516Y-59119948D01*
X166425216Y-59123912D01*
X166423389Y-59124670D01*
X166421332Y-59126358D01*
X166419073Y-59127780D01*
X166417773Y-59129278D01*
X166412024Y-59133997D01*
X166364405Y-59181616D01*
X166359686Y-59187365D01*
X166358188Y-59188665D01*
X166356766Y-59190924D01*
X166355078Y-59192981D01*
X166354320Y-59194808D01*
X166350356Y-59201108D01*
X166302737Y-59296346D01*
X166297482Y-59310078D01*
X166297291Y-59312765D01*
X166296260Y-59315255D01*
X166294819Y-59329887D01*
X166183708Y-59329887D01*
X166183708Y-58220017D01*
X166629593Y-58220017D01*
X166629593Y-58249281D01*
X166640792Y-58276317D01*
X166661484Y-58297009D01*
X166688520Y-58308208D01*
X166703152Y-58309649D01*
X167243514Y-58309649D01*
X167260561Y-58326695D01*
X167294819Y-58395211D01*
X167294819Y-58502658D01*
X167266298Y-58559699D01*
X167209256Y-58588220D01*
X166703152Y-58588220D01*
X166688520Y-58589661D01*
X166661484Y-58600860D01*
X166640792Y-58621552D01*
X166629593Y-58648588D01*
X166629593Y-58677852D01*
X166640792Y-58704888D01*
X166661484Y-58725580D01*
X166688520Y-58736779D01*
X166703152Y-58738220D01*
X167226961Y-58738220D01*
X167241593Y-58736779D01*
X167244082Y-58735747D01*
X167246770Y-58735557D01*
X167260502Y-58730302D01*
X167355741Y-58682683D01*
X167358187Y-58681142D01*
X167359342Y-58680758D01*
X167360779Y-58679511D01*
X167368183Y-58674851D01*
X167374342Y-58667748D01*
X167381450Y-58661585D01*
X167386111Y-58654179D01*
X167387357Y-58652743D01*
X167387741Y-58651589D01*
X167389282Y-58649142D01*
X167436901Y-58553904D01*
X167442156Y-58540173D01*
X167442347Y-58537483D01*
X167443378Y-58534995D01*
X167444819Y-58520363D01*
X167444819Y-58377506D01*
X167443378Y-58362874D01*
X167442347Y-58360385D01*
X167442156Y-58357696D01*
X167436901Y-58343965D01*
X167412777Y-58295718D01*
X167432179Y-58276317D01*
X167443378Y-58249281D01*
X167443378Y-58220017D01*
X167432179Y-58192981D01*
X167411487Y-58172289D01*
X167384451Y-58161090D01*
X167369819Y-58159649D01*
X166703152Y-58159649D01*
X166688520Y-58161090D01*
X166661484Y-58172289D01*
X166640792Y-58192981D01*
X166629593Y-58220017D01*
X166183708Y-58220017D01*
X166183708Y-57743826D01*
X166296260Y-57743826D01*
X166296260Y-57773090D01*
X166307459Y-57800126D01*
X166328151Y-57820818D01*
X166355187Y-57832017D01*
X166369819Y-57833458D01*
X166628152Y-57833458D01*
X166628152Y-57901315D01*
X166629593Y-57915947D01*
X166640792Y-57942983D01*
X166661484Y-57963675D01*
X166688520Y-57974874D01*
X166717784Y-57974874D01*
X166744820Y-57963675D01*
X166765512Y-57942983D01*
X166776711Y-57915947D01*
X166778152Y-57901315D01*
X166778152Y-57833458D01*
X167226961Y-57833458D01*
X167241593Y-57832017D01*
X167244082Y-57830985D01*
X167246770Y-57830795D01*
X167260502Y-57825540D01*
X167355741Y-57777921D01*
X167358187Y-57776380D01*
X167359342Y-57775996D01*
X167360779Y-57774749D01*
X167368183Y-57770089D01*
X167374342Y-57762986D01*
X167381450Y-57756823D01*
X167386111Y-57749417D01*
X167387357Y-57747981D01*
X167387741Y-57746827D01*
X167389282Y-57744380D01*
X167436901Y-57649142D01*
X167442156Y-57635411D01*
X167442347Y-57632721D01*
X167443378Y-57630233D01*
X167444819Y-57615601D01*
X167444819Y-57520363D01*
X167443378Y-57505731D01*
X167432179Y-57478695D01*
X167411487Y-57458003D01*
X167384451Y-57446804D01*
X167355187Y-57446804D01*
X167328151Y-57458003D01*
X167307459Y-57478695D01*
X167296260Y-57505731D01*
X167294819Y-57520363D01*
X167294819Y-57597896D01*
X167266298Y-57654937D01*
X167209256Y-57683458D01*
X166778152Y-57683458D01*
X166778152Y-57520363D01*
X166776711Y-57505731D01*
X166765512Y-57478695D01*
X166744820Y-57458003D01*
X166717784Y-57446804D01*
X166688520Y-57446804D01*
X166661484Y-57458003D01*
X166640792Y-57478695D01*
X166629593Y-57505731D01*
X166628152Y-57520363D01*
X166628152Y-57683458D01*
X166369819Y-57683458D01*
X166355187Y-57684899D01*
X166328151Y-57696098D01*
X166307459Y-57716790D01*
X166296260Y-57743826D01*
X166183708Y-57743826D01*
X166183708Y-57172397D01*
X166296260Y-57172397D01*
X166296260Y-57201661D01*
X166307459Y-57228697D01*
X166328151Y-57249389D01*
X166355187Y-57260588D01*
X166369819Y-57262029D01*
X166628152Y-57262029D01*
X166628152Y-57329886D01*
X166629593Y-57344518D01*
X166640792Y-57371554D01*
X166661484Y-57392246D01*
X166688520Y-57403445D01*
X166717784Y-57403445D01*
X166744820Y-57392246D01*
X166765512Y-57371554D01*
X166776711Y-57344518D01*
X166778152Y-57329886D01*
X166778152Y-57262029D01*
X167226961Y-57262029D01*
X167241593Y-57260588D01*
X167244082Y-57259556D01*
X167246770Y-57259366D01*
X167260502Y-57254111D01*
X167355741Y-57206492D01*
X167358187Y-57204951D01*
X167359342Y-57204567D01*
X167360779Y-57203320D01*
X167368183Y-57198660D01*
X167374342Y-57191557D01*
X167381450Y-57185394D01*
X167386111Y-57177988D01*
X167387357Y-57176552D01*
X167387741Y-57175398D01*
X167389282Y-57172951D01*
X167436901Y-57077713D01*
X167442156Y-57063982D01*
X167442347Y-57061292D01*
X167443378Y-57058804D01*
X167444819Y-57044172D01*
X167444819Y-56948934D01*
X167443378Y-56934302D01*
X167432179Y-56907266D01*
X167411487Y-56886574D01*
X167384451Y-56875375D01*
X167355187Y-56875375D01*
X167328151Y-56886574D01*
X167307459Y-56907266D01*
X167296260Y-56934302D01*
X167294819Y-56948934D01*
X167294819Y-57026467D01*
X167266298Y-57083508D01*
X167209256Y-57112029D01*
X166778152Y-57112029D01*
X166778152Y-56948934D01*
X166776711Y-56934302D01*
X166765512Y-56907266D01*
X166744820Y-56886574D01*
X166717784Y-56875375D01*
X166688520Y-56875375D01*
X166661484Y-56886574D01*
X166640792Y-56907266D01*
X166629593Y-56934302D01*
X166628152Y-56948934D01*
X166628152Y-57112029D01*
X166369819Y-57112029D01*
X166355187Y-57113470D01*
X166328151Y-57124669D01*
X166307459Y-57145361D01*
X166296260Y-57172397D01*
X166183708Y-57172397D01*
X166183708Y-56329886D01*
X166628152Y-56329886D01*
X166628152Y-56472743D01*
X166629593Y-56487375D01*
X166630624Y-56489864D01*
X166630815Y-56492552D01*
X166636070Y-56506284D01*
X166683689Y-56601522D01*
X166687653Y-56607821D01*
X166688411Y-56609649D01*
X166690099Y-56611705D01*
X166691521Y-56613965D01*
X166693019Y-56615264D01*
X166697738Y-56621014D01*
X166745357Y-56668633D01*
X166751106Y-56673351D01*
X166752406Y-56674850D01*
X166754665Y-56676271D01*
X166756722Y-56677960D01*
X166758549Y-56678717D01*
X166764849Y-56682682D01*
X166860087Y-56730301D01*
X166873818Y-56735556D01*
X166876507Y-56735747D01*
X166878996Y-56736778D01*
X166893628Y-56738219D01*
X167179342Y-56738219D01*
X167193974Y-56736778D01*
X167196463Y-56735746D01*
X167199151Y-56735556D01*
X167212883Y-56730301D01*
X167308121Y-56682682D01*
X167314417Y-56678718D01*
X167316247Y-56677961D01*
X167318305Y-56676271D01*
X167320564Y-56674850D01*
X167321863Y-56673351D01*
X167327612Y-56668634D01*
X167375232Y-56621015D01*
X167379950Y-56615265D01*
X167381450Y-56613965D01*
X167382872Y-56611705D01*
X167384560Y-56609649D01*
X167385317Y-56607821D01*
X167389282Y-56601522D01*
X167436901Y-56506284D01*
X167442156Y-56492553D01*
X167442347Y-56489863D01*
X167443378Y-56487375D01*
X167444819Y-56472743D01*
X167444819Y-56329886D01*
X167443378Y-56315254D01*
X167442347Y-56312765D01*
X167442156Y-56310076D01*
X167436901Y-56296345D01*
X167389282Y-56201107D01*
X167385317Y-56194807D01*
X167384560Y-56192980D01*
X167382872Y-56190923D01*
X167381450Y-56188664D01*
X167379950Y-56187363D01*
X167375232Y-56181614D01*
X167327612Y-56133995D01*
X167321863Y-56129277D01*
X167320564Y-56127779D01*
X167318305Y-56126357D01*
X167316247Y-56124668D01*
X167314417Y-56123910D01*
X167308121Y-56119947D01*
X167212883Y-56072328D01*
X167199151Y-56067073D01*
X167196463Y-56066882D01*
X167193974Y-56065851D01*
X167179342Y-56064410D01*
X166893628Y-56064410D01*
X166878996Y-56065851D01*
X166876507Y-56066881D01*
X166873818Y-56067073D01*
X166860087Y-56072328D01*
X166764849Y-56119947D01*
X166758549Y-56123911D01*
X166756722Y-56124669D01*
X166754665Y-56126357D01*
X166752406Y-56127779D01*
X166751106Y-56129277D01*
X166745357Y-56133996D01*
X166697738Y-56181615D01*
X166693019Y-56187364D01*
X166691521Y-56188664D01*
X166690099Y-56190923D01*
X166688411Y-56192980D01*
X166687653Y-56194807D01*
X166683689Y-56201107D01*
X166636070Y-56296345D01*
X166630815Y-56310077D01*
X166630624Y-56312764D01*
X166629593Y-56315254D01*
X166628152Y-56329886D01*
X166183708Y-56329886D01*
X166183708Y-55425124D01*
X166628152Y-55425124D01*
X166628152Y-55567981D01*
X166629593Y-55582613D01*
X166630624Y-55585102D01*
X166630815Y-55587790D01*
X166636070Y-55601522D01*
X166660193Y-55649768D01*
X166640792Y-55669170D01*
X166629593Y-55696206D01*
X166629593Y-55725470D01*
X166640792Y-55752506D01*
X166661484Y-55773198D01*
X166688520Y-55784397D01*
X166703152Y-55785838D01*
X167369819Y-55785838D01*
X167384451Y-55784397D01*
X167411487Y-55773198D01*
X167432179Y-55752506D01*
X167443378Y-55725470D01*
X167443378Y-55696206D01*
X167432179Y-55669170D01*
X167411487Y-55648478D01*
X167384451Y-55637279D01*
X167369819Y-55635838D01*
X166829456Y-55635838D01*
X166812410Y-55618792D01*
X166778152Y-55550276D01*
X166778152Y-55442829D01*
X166806672Y-55385787D01*
X166863714Y-55357267D01*
X167369819Y-55357267D01*
X167384451Y-55355826D01*
X167411487Y-55344627D01*
X167432179Y-55323935D01*
X167443378Y-55296899D01*
X167443378Y-55267635D01*
X167432179Y-55240599D01*
X167411487Y-55219907D01*
X167384451Y-55208708D01*
X167369819Y-55207267D01*
X166846009Y-55207267D01*
X166831377Y-55208708D01*
X166828888Y-55209738D01*
X166826199Y-55209930D01*
X166812468Y-55215185D01*
X166717230Y-55262804D01*
X166714782Y-55264344D01*
X166713629Y-55264729D01*
X166712192Y-55265974D01*
X166704787Y-55270636D01*
X166698625Y-55277740D01*
X166691521Y-55283902D01*
X166686859Y-55291307D01*
X166685614Y-55292744D01*
X166685229Y-55293897D01*
X166683689Y-55296345D01*
X166636070Y-55391583D01*
X166630815Y-55405315D01*
X166630624Y-55408002D01*
X166629593Y-55410492D01*
X166628152Y-55425124D01*
X166183708Y-55425124D01*
X166183708Y-53806155D01*
X166294819Y-53806155D01*
X166296260Y-53813359D01*
X166296260Y-53820708D01*
X166299101Y-53827568D01*
X166300558Y-53834849D01*
X166304646Y-53840954D01*
X166307459Y-53847744D01*
X166312709Y-53852994D01*
X166316841Y-53859164D01*
X166328099Y-53868384D01*
X166328151Y-53868436D01*
X166328173Y-53868445D01*
X166328216Y-53868480D01*
X166464894Y-53959598D01*
X166546275Y-54040979D01*
X166588451Y-54125331D01*
X166596283Y-54137774D01*
X166618391Y-54156947D01*
X166646152Y-54166201D01*
X166675342Y-54164127D01*
X166701517Y-54151039D01*
X166720690Y-54128932D01*
X166729944Y-54101170D01*
X166727870Y-54071980D01*
X166722615Y-54058249D01*
X166674996Y-53963011D01*
X166671033Y-53956716D01*
X166670275Y-53954884D01*
X166668583Y-53952822D01*
X166667164Y-53950568D01*
X166665667Y-53949269D01*
X166660947Y-53943519D01*
X166598504Y-53881076D01*
X167294819Y-53881076D01*
X167294819Y-54091790D01*
X167296260Y-54106422D01*
X167307459Y-54133458D01*
X167328151Y-54154150D01*
X167355187Y-54165349D01*
X167384451Y-54165349D01*
X167411487Y-54154150D01*
X167432179Y-54133458D01*
X167443378Y-54106422D01*
X167444819Y-54091790D01*
X167444819Y-53520362D01*
X167443378Y-53505730D01*
X167432179Y-53478694D01*
X167411487Y-53458002D01*
X167384451Y-53446803D01*
X167355187Y-53446803D01*
X167328151Y-53458002D01*
X167307459Y-53478694D01*
X167296260Y-53505730D01*
X167294819Y-53520362D01*
X167294819Y-53731076D01*
X166369819Y-53731076D01*
X166369766Y-53731081D01*
X166369740Y-53731076D01*
X166369663Y-53731091D01*
X166355187Y-53732517D01*
X166348326Y-53735358D01*
X166341046Y-53736815D01*
X166334940Y-53740903D01*
X166328151Y-53743716D01*
X166322900Y-53748966D01*
X166316731Y-53753098D01*
X166312654Y-53759212D01*
X166307459Y-53764408D01*
X166304617Y-53771268D01*
X166300498Y-53777447D01*
X166299072Y-53784655D01*
X166296260Y-53791444D01*
X166296260Y-53798870D01*
X166294819Y-53806155D01*
X166183708Y-53806155D01*
X166183708Y-53335692D01*
X167555930Y-53335692D01*
X167555930Y-59849331D01*
G37*
X100177800Y-75289160D02*
X100130180Y-75432017D01*
X100130180Y-75432017D02*
X100130180Y-75670112D01*
X100130180Y-75670112D02*
X100177800Y-75765350D01*
X100177800Y-75765350D02*
X100225419Y-75812969D01*
X100225419Y-75812969D02*
X100320657Y-75860588D01*
X100320657Y-75860588D02*
X100415895Y-75860588D01*
X100415895Y-75860588D02*
X100511133Y-75812969D01*
X100511133Y-75812969D02*
X100558752Y-75765350D01*
X100558752Y-75765350D02*
X100606371Y-75670112D01*
X100606371Y-75670112D02*
X100653990Y-75479636D01*
X100653990Y-75479636D02*
X100701609Y-75384398D01*
X100701609Y-75384398D02*
X100749228Y-75336779D01*
X100749228Y-75336779D02*
X100844466Y-75289160D01*
X100844466Y-75289160D02*
X100939704Y-75289160D01*
X100939704Y-75289160D02*
X101034942Y-75336779D01*
X101034942Y-75336779D02*
X101082561Y-75384398D01*
X101082561Y-75384398D02*
X101130180Y-75479636D01*
X101130180Y-75479636D02*
X101130180Y-75717731D01*
X101130180Y-75717731D02*
X101082561Y-75860588D01*
X100130180Y-76289160D02*
X101130180Y-76289160D01*
X101130180Y-76289160D02*
X101130180Y-76527255D01*
X101130180Y-76527255D02*
X101082561Y-76670112D01*
X101082561Y-76670112D02*
X100987323Y-76765350D01*
X100987323Y-76765350D02*
X100892085Y-76812969D01*
X100892085Y-76812969D02*
X100701609Y-76860588D01*
X100701609Y-76860588D02*
X100558752Y-76860588D01*
X100558752Y-76860588D02*
X100368276Y-76812969D01*
X100368276Y-76812969D02*
X100273038Y-76765350D01*
X100273038Y-76765350D02*
X100177800Y-76670112D01*
X100177800Y-76670112D02*
X100130180Y-76527255D01*
X100130180Y-76527255D02*
X100130180Y-76289160D01*
X100415895Y-77241541D02*
X100415895Y-77717731D01*
X100130180Y-77146303D02*
X101130180Y-77479636D01*
X101130180Y-77479636D02*
X100130180Y-77812969D01*
X89917438Y-61639411D02*
X89869819Y-61734649D01*
X89869819Y-61734649D02*
X89869819Y-61877506D01*
X89869819Y-61877506D02*
X89917438Y-62020363D01*
X89917438Y-62020363D02*
X90012676Y-62115601D01*
X90012676Y-62115601D02*
X90107914Y-62163220D01*
X90107914Y-62163220D02*
X90298390Y-62210839D01*
X90298390Y-62210839D02*
X90441247Y-62210839D01*
X90441247Y-62210839D02*
X90631723Y-62163220D01*
X90631723Y-62163220D02*
X90726961Y-62115601D01*
X90726961Y-62115601D02*
X90822200Y-62020363D01*
X90822200Y-62020363D02*
X90869819Y-61877506D01*
X90869819Y-61877506D02*
X90869819Y-61782268D01*
X90869819Y-61782268D02*
X90822200Y-61639411D01*
X90822200Y-61639411D02*
X90774580Y-61591792D01*
X90774580Y-61591792D02*
X90441247Y-61591792D01*
X90441247Y-61591792D02*
X90441247Y-61782268D01*
X90869819Y-61163220D02*
X89869819Y-61163220D01*
X89869819Y-61163220D02*
X90869819Y-60591792D01*
X90869819Y-60591792D02*
X89869819Y-60591792D01*
X90869819Y-60115601D02*
X89869819Y-60115601D01*
X89869819Y-60115601D02*
X89869819Y-59877506D01*
X89869819Y-59877506D02*
X89917438Y-59734649D01*
X89917438Y-59734649D02*
X90012676Y-59639411D01*
X90012676Y-59639411D02*
X90107914Y-59591792D01*
X90107914Y-59591792D02*
X90298390Y-59544173D01*
X90298390Y-59544173D02*
X90441247Y-59544173D01*
X90441247Y-59544173D02*
X90631723Y-59591792D01*
X90631723Y-59591792D02*
X90726961Y-59639411D01*
X90726961Y-59639411D02*
X90822200Y-59734649D01*
X90822200Y-59734649D02*
X90869819Y-59877506D01*
X90869819Y-59877506D02*
X90869819Y-60115601D01*
X89027255Y-91369819D02*
X89217731Y-91369819D01*
X89217731Y-91369819D02*
X89312969Y-91417438D01*
X89312969Y-91417438D02*
X89408207Y-91512676D01*
X89408207Y-91512676D02*
X89455826Y-91703152D01*
X89455826Y-91703152D02*
X89455826Y-92036485D01*
X89455826Y-92036485D02*
X89408207Y-92226961D01*
X89408207Y-92226961D02*
X89312969Y-92322200D01*
X89312969Y-92322200D02*
X89217731Y-92369819D01*
X89217731Y-92369819D02*
X89027255Y-92369819D01*
X89027255Y-92369819D02*
X88932017Y-92322200D01*
X88932017Y-92322200D02*
X88836779Y-92226961D01*
X88836779Y-92226961D02*
X88789160Y-92036485D01*
X88789160Y-92036485D02*
X88789160Y-91703152D01*
X88789160Y-91703152D02*
X88836779Y-91512676D01*
X88836779Y-91512676D02*
X88932017Y-91417438D01*
X88932017Y-91417438D02*
X89027255Y-91369819D01*
X90360588Y-92369819D02*
X89884398Y-92369819D01*
X89884398Y-92369819D02*
X89884398Y-91369819D01*
X90693922Y-91846009D02*
X91027255Y-91846009D01*
X91170112Y-92369819D02*
X90693922Y-92369819D01*
X90693922Y-92369819D02*
X90693922Y-91369819D01*
X90693922Y-91369819D02*
X91170112Y-91369819D01*
X91598684Y-92369819D02*
X91598684Y-91369819D01*
X91598684Y-91369819D02*
X91836779Y-91369819D01*
X91836779Y-91369819D02*
X91979636Y-91417438D01*
X91979636Y-91417438D02*
X92074874Y-91512676D01*
X92074874Y-91512676D02*
X92122493Y-91607914D01*
X92122493Y-91607914D02*
X92170112Y-91798390D01*
X92170112Y-91798390D02*
X92170112Y-91941247D01*
X92170112Y-91941247D02*
X92122493Y-92131723D01*
X92122493Y-92131723D02*
X92074874Y-92226961D01*
X92074874Y-92226961D02*
X91979636Y-92322200D01*
X91979636Y-92322200D02*
X91836779Y-92369819D01*
X91836779Y-92369819D02*
X91598684Y-92369819D01*
X93884398Y-92369819D02*
X93312970Y-92369819D01*
X93598684Y-92369819D02*
X93598684Y-91369819D01*
X93598684Y-91369819D02*
X93503446Y-91512676D01*
X93503446Y-91512676D02*
X93408208Y-91607914D01*
X93408208Y-91607914D02*
X93312970Y-91655533D01*
X94265351Y-91465057D02*
X94312970Y-91417438D01*
X94312970Y-91417438D02*
X94408208Y-91369819D01*
X94408208Y-91369819D02*
X94646303Y-91369819D01*
X94646303Y-91369819D02*
X94741541Y-91417438D01*
X94741541Y-91417438D02*
X94789160Y-91465057D01*
X94789160Y-91465057D02*
X94836779Y-91560295D01*
X94836779Y-91560295D02*
X94836779Y-91655533D01*
X94836779Y-91655533D02*
X94789160Y-91798390D01*
X94789160Y-91798390D02*
X94217732Y-92369819D01*
X94217732Y-92369819D02*
X94836779Y-92369819D01*
X95408208Y-91798390D02*
X95312970Y-91750771D01*
X95312970Y-91750771D02*
X95265351Y-91703152D01*
X95265351Y-91703152D02*
X95217732Y-91607914D01*
X95217732Y-91607914D02*
X95217732Y-91560295D01*
X95217732Y-91560295D02*
X95265351Y-91465057D01*
X95265351Y-91465057D02*
X95312970Y-91417438D01*
X95312970Y-91417438D02*
X95408208Y-91369819D01*
X95408208Y-91369819D02*
X95598684Y-91369819D01*
X95598684Y-91369819D02*
X95693922Y-91417438D01*
X95693922Y-91417438D02*
X95741541Y-91465057D01*
X95741541Y-91465057D02*
X95789160Y-91560295D01*
X95789160Y-91560295D02*
X95789160Y-91607914D01*
X95789160Y-91607914D02*
X95741541Y-91703152D01*
X95741541Y-91703152D02*
X95693922Y-91750771D01*
X95693922Y-91750771D02*
X95598684Y-91798390D01*
X95598684Y-91798390D02*
X95408208Y-91798390D01*
X95408208Y-91798390D02*
X95312970Y-91846009D01*
X95312970Y-91846009D02*
X95265351Y-91893628D01*
X95265351Y-91893628D02*
X95217732Y-91988866D01*
X95217732Y-91988866D02*
X95217732Y-92179342D01*
X95217732Y-92179342D02*
X95265351Y-92274580D01*
X95265351Y-92274580D02*
X95312970Y-92322200D01*
X95312970Y-92322200D02*
X95408208Y-92369819D01*
X95408208Y-92369819D02*
X95598684Y-92369819D01*
X95598684Y-92369819D02*
X95693922Y-92322200D01*
X95693922Y-92322200D02*
X95741541Y-92274580D01*
X95741541Y-92274580D02*
X95789160Y-92179342D01*
X95789160Y-92179342D02*
X95789160Y-91988866D01*
X95789160Y-91988866D02*
X95741541Y-91893628D01*
X95741541Y-91893628D02*
X95693922Y-91846009D01*
X95693922Y-91846009D02*
X95598684Y-91798390D01*
X96122494Y-92369819D02*
X96646303Y-91703152D01*
X96122494Y-91703152D02*
X96646303Y-92369819D01*
X96932018Y-91369819D02*
X97551065Y-91369819D01*
X97551065Y-91369819D02*
X97217732Y-91750771D01*
X97217732Y-91750771D02*
X97360589Y-91750771D01*
X97360589Y-91750771D02*
X97455827Y-91798390D01*
X97455827Y-91798390D02*
X97503446Y-91846009D01*
X97503446Y-91846009D02*
X97551065Y-91941247D01*
X97551065Y-91941247D02*
X97551065Y-92179342D01*
X97551065Y-92179342D02*
X97503446Y-92274580D01*
X97503446Y-92274580D02*
X97455827Y-92322200D01*
X97455827Y-92322200D02*
X97360589Y-92369819D01*
X97360589Y-92369819D02*
X97074875Y-92369819D01*
X97074875Y-92369819D02*
X96979637Y-92322200D01*
X96979637Y-92322200D02*
X96932018Y-92274580D01*
X97932018Y-91465057D02*
X97979637Y-91417438D01*
X97979637Y-91417438D02*
X98074875Y-91369819D01*
X98074875Y-91369819D02*
X98312970Y-91369819D01*
X98312970Y-91369819D02*
X98408208Y-91417438D01*
X98408208Y-91417438D02*
X98455827Y-91465057D01*
X98455827Y-91465057D02*
X98503446Y-91560295D01*
X98503446Y-91560295D02*
X98503446Y-91655533D01*
X98503446Y-91655533D02*
X98455827Y-91798390D01*
X98455827Y-91798390D02*
X97884399Y-92369819D01*
X97884399Y-92369819D02*
X98503446Y-92369819D01*
X92582561Y-75360588D02*
X92630180Y-75265350D01*
X92630180Y-75265350D02*
X92630180Y-75122493D01*
X92630180Y-75122493D02*
X92582561Y-74979636D01*
X92582561Y-74979636D02*
X92487323Y-74884398D01*
X92487323Y-74884398D02*
X92392085Y-74836779D01*
X92392085Y-74836779D02*
X92201609Y-74789160D01*
X92201609Y-74789160D02*
X92058752Y-74789160D01*
X92058752Y-74789160D02*
X91868276Y-74836779D01*
X91868276Y-74836779D02*
X91773038Y-74884398D01*
X91773038Y-74884398D02*
X91677800Y-74979636D01*
X91677800Y-74979636D02*
X91630180Y-75122493D01*
X91630180Y-75122493D02*
X91630180Y-75217731D01*
X91630180Y-75217731D02*
X91677800Y-75360588D01*
X91677800Y-75360588D02*
X91725419Y-75408207D01*
X91725419Y-75408207D02*
X92058752Y-75408207D01*
X92058752Y-75408207D02*
X92058752Y-75217731D01*
X91630180Y-75836779D02*
X92630180Y-75836779D01*
X92630180Y-75836779D02*
X91630180Y-76408207D01*
X91630180Y-76408207D02*
X92630180Y-76408207D01*
X91630180Y-76884398D02*
X92630180Y-76884398D01*
X92630180Y-76884398D02*
X92630180Y-77122493D01*
X92630180Y-77122493D02*
X92582561Y-77265350D01*
X92582561Y-77265350D02*
X92487323Y-77360588D01*
X92487323Y-77360588D02*
X92392085Y-77408207D01*
X92392085Y-77408207D02*
X92201609Y-77455826D01*
X92201609Y-77455826D02*
X92058752Y-77455826D01*
X92058752Y-77455826D02*
X91868276Y-77408207D01*
X91868276Y-77408207D02*
X91773038Y-77360588D01*
X91773038Y-77360588D02*
X91677800Y-77265350D01*
X91677800Y-77265350D02*
X91630180Y-77122493D01*
X91630180Y-77122493D02*
X91630180Y-76884398D01*
X96130180Y-75812969D02*
X96130180Y-75336779D01*
X96130180Y-75336779D02*
X95653990Y-75289160D01*
X95653990Y-75289160D02*
X95701609Y-75336779D01*
X95701609Y-75336779D02*
X95749228Y-75432017D01*
X95749228Y-75432017D02*
X95749228Y-75670112D01*
X95749228Y-75670112D02*
X95701609Y-75765350D01*
X95701609Y-75765350D02*
X95653990Y-75812969D01*
X95653990Y-75812969D02*
X95558752Y-75860588D01*
X95558752Y-75860588D02*
X95320657Y-75860588D01*
X95320657Y-75860588D02*
X95225419Y-75812969D01*
X95225419Y-75812969D02*
X95177800Y-75765350D01*
X95177800Y-75765350D02*
X95130180Y-75670112D01*
X95130180Y-75670112D02*
X95130180Y-75432017D01*
X95130180Y-75432017D02*
X95177800Y-75336779D01*
X95177800Y-75336779D02*
X95225419Y-75289160D01*
X96130180Y-76146303D02*
X95130180Y-76479636D01*
X95130180Y-76479636D02*
X96130180Y-76812969D01*
X137333333Y-65954819D02*
X137000000Y-65478628D01*
X136761905Y-65954819D02*
X136761905Y-64954819D01*
X136761905Y-64954819D02*
X137142857Y-64954819D01*
X137142857Y-64954819D02*
X137238095Y-65002438D01*
X137238095Y-65002438D02*
X137285714Y-65050057D01*
X137285714Y-65050057D02*
X137333333Y-65145295D01*
X137333333Y-65145295D02*
X137333333Y-65288152D01*
X137333333Y-65288152D02*
X137285714Y-65383390D01*
X137285714Y-65383390D02*
X137238095Y-65431009D01*
X137238095Y-65431009D02*
X137142857Y-65478628D01*
X137142857Y-65478628D02*
X136761905Y-65478628D01*
X137809524Y-65954819D02*
X138000000Y-65954819D01*
X138000000Y-65954819D02*
X138095238Y-65907200D01*
X138095238Y-65907200D02*
X138142857Y-65859580D01*
X138142857Y-65859580D02*
X138238095Y-65716723D01*
X138238095Y-65716723D02*
X138285714Y-65526247D01*
X138285714Y-65526247D02*
X138285714Y-65145295D01*
X138285714Y-65145295D02*
X138238095Y-65050057D01*
X138238095Y-65050057D02*
X138190476Y-65002438D01*
X138190476Y-65002438D02*
X138095238Y-64954819D01*
X138095238Y-64954819D02*
X137904762Y-64954819D01*
X137904762Y-64954819D02*
X137809524Y-65002438D01*
X137809524Y-65002438D02*
X137761905Y-65050057D01*
X137761905Y-65050057D02*
X137714286Y-65145295D01*
X137714286Y-65145295D02*
X137714286Y-65383390D01*
X137714286Y-65383390D02*
X137761905Y-65478628D01*
X137761905Y-65478628D02*
X137809524Y-65526247D01*
X137809524Y-65526247D02*
X137904762Y-65573866D01*
X137904762Y-65573866D02*
X138095238Y-65573866D01*
X138095238Y-65573866D02*
X138190476Y-65526247D01*
X138190476Y-65526247D02*
X138238095Y-65478628D01*
X138238095Y-65478628D02*
X138285714Y-65383390D01*
X128857142Y-65954819D02*
X128523809Y-65478628D01*
X128285714Y-65954819D02*
X128285714Y-64954819D01*
X128285714Y-64954819D02*
X128666666Y-64954819D01*
X128666666Y-64954819D02*
X128761904Y-65002438D01*
X128761904Y-65002438D02*
X128809523Y-65050057D01*
X128809523Y-65050057D02*
X128857142Y-65145295D01*
X128857142Y-65145295D02*
X128857142Y-65288152D01*
X128857142Y-65288152D02*
X128809523Y-65383390D01*
X128809523Y-65383390D02*
X128761904Y-65431009D01*
X128761904Y-65431009D02*
X128666666Y-65478628D01*
X128666666Y-65478628D02*
X128285714Y-65478628D01*
X129809523Y-65954819D02*
X129238095Y-65954819D01*
X129523809Y-65954819D02*
X129523809Y-64954819D01*
X129523809Y-64954819D02*
X129428571Y-65097676D01*
X129428571Y-65097676D02*
X129333333Y-65192914D01*
X129333333Y-65192914D02*
X129238095Y-65240533D01*
X130142857Y-64954819D02*
X130761904Y-64954819D01*
X130761904Y-64954819D02*
X130428571Y-65335771D01*
X130428571Y-65335771D02*
X130571428Y-65335771D01*
X130571428Y-65335771D02*
X130666666Y-65383390D01*
X130666666Y-65383390D02*
X130714285Y-65431009D01*
X130714285Y-65431009D02*
X130761904Y-65526247D01*
X130761904Y-65526247D02*
X130761904Y-65764342D01*
X130761904Y-65764342D02*
X130714285Y-65859580D01*
X130714285Y-65859580D02*
X130666666Y-65907200D01*
X130666666Y-65907200D02*
X130571428Y-65954819D01*
X130571428Y-65954819D02*
X130285714Y-65954819D01*
X130285714Y-65954819D02*
X130190476Y-65907200D01*
X130190476Y-65907200D02*
X130142857Y-65859580D01*
X128857142Y-52914819D02*
X128523809Y-52438628D01*
X128285714Y-52914819D02*
X128285714Y-51914819D01*
X128285714Y-51914819D02*
X128666666Y-51914819D01*
X128666666Y-51914819D02*
X128761904Y-51962438D01*
X128761904Y-51962438D02*
X128809523Y-52010057D01*
X128809523Y-52010057D02*
X128857142Y-52105295D01*
X128857142Y-52105295D02*
X128857142Y-52248152D01*
X128857142Y-52248152D02*
X128809523Y-52343390D01*
X128809523Y-52343390D02*
X128761904Y-52391009D01*
X128761904Y-52391009D02*
X128666666Y-52438628D01*
X128666666Y-52438628D02*
X128285714Y-52438628D01*
X129809523Y-52914819D02*
X129238095Y-52914819D01*
X129523809Y-52914819D02*
X129523809Y-51914819D01*
X129523809Y-51914819D02*
X129428571Y-52057676D01*
X129428571Y-52057676D02*
X129333333Y-52152914D01*
X129333333Y-52152914D02*
X129238095Y-52200533D01*
X130666666Y-52248152D02*
X130666666Y-52914819D01*
X130428571Y-51867200D02*
X130190476Y-52581485D01*
X130190476Y-52581485D02*
X130809523Y-52581485D01*
X120857142Y-52914819D02*
X120523809Y-52438628D01*
X120285714Y-52914819D02*
X120285714Y-51914819D01*
X120285714Y-51914819D02*
X120666666Y-51914819D01*
X120666666Y-51914819D02*
X120761904Y-51962438D01*
X120761904Y-51962438D02*
X120809523Y-52010057D01*
X120809523Y-52010057D02*
X120857142Y-52105295D01*
X120857142Y-52105295D02*
X120857142Y-52248152D01*
X120857142Y-52248152D02*
X120809523Y-52343390D01*
X120809523Y-52343390D02*
X120761904Y-52391009D01*
X120761904Y-52391009D02*
X120666666Y-52438628D01*
X120666666Y-52438628D02*
X120285714Y-52438628D01*
X121809523Y-52914819D02*
X121238095Y-52914819D01*
X121523809Y-52914819D02*
X121523809Y-51914819D01*
X121523809Y-51914819D02*
X121428571Y-52057676D01*
X121428571Y-52057676D02*
X121333333Y-52152914D01*
X121333333Y-52152914D02*
X121238095Y-52200533D01*
X122380952Y-52343390D02*
X122285714Y-52295771D01*
X122285714Y-52295771D02*
X122238095Y-52248152D01*
X122238095Y-52248152D02*
X122190476Y-52152914D01*
X122190476Y-52152914D02*
X122190476Y-52105295D01*
X122190476Y-52105295D02*
X122238095Y-52010057D01*
X122238095Y-52010057D02*
X122285714Y-51962438D01*
X122285714Y-51962438D02*
X122380952Y-51914819D01*
X122380952Y-51914819D02*
X122571428Y-51914819D01*
X122571428Y-51914819D02*
X122666666Y-51962438D01*
X122666666Y-51962438D02*
X122714285Y-52010057D01*
X122714285Y-52010057D02*
X122761904Y-52105295D01*
X122761904Y-52105295D02*
X122761904Y-52152914D01*
X122761904Y-52152914D02*
X122714285Y-52248152D01*
X122714285Y-52248152D02*
X122666666Y-52295771D01*
X122666666Y-52295771D02*
X122571428Y-52343390D01*
X122571428Y-52343390D02*
X122380952Y-52343390D01*
X122380952Y-52343390D02*
X122285714Y-52391009D01*
X122285714Y-52391009D02*
X122238095Y-52438628D01*
X122238095Y-52438628D02*
X122190476Y-52533866D01*
X122190476Y-52533866D02*
X122190476Y-52724342D01*
X122190476Y-52724342D02*
X122238095Y-52819580D01*
X122238095Y-52819580D02*
X122285714Y-52867200D01*
X122285714Y-52867200D02*
X122380952Y-52914819D01*
X122380952Y-52914819D02*
X122571428Y-52914819D01*
X122571428Y-52914819D02*
X122666666Y-52867200D01*
X122666666Y-52867200D02*
X122714285Y-52819580D01*
X122714285Y-52819580D02*
X122761904Y-52724342D01*
X122761904Y-52724342D02*
X122761904Y-52533866D01*
X122761904Y-52533866D02*
X122714285Y-52438628D01*
X122714285Y-52438628D02*
X122666666Y-52391009D01*
X122666666Y-52391009D02*
X122571428Y-52343390D01*
X149333333Y-52954819D02*
X149000000Y-52478628D01*
X148761905Y-52954819D02*
X148761905Y-51954819D01*
X148761905Y-51954819D02*
X149142857Y-51954819D01*
X149142857Y-51954819D02*
X149238095Y-52002438D01*
X149238095Y-52002438D02*
X149285714Y-52050057D01*
X149285714Y-52050057D02*
X149333333Y-52145295D01*
X149333333Y-52145295D02*
X149333333Y-52288152D01*
X149333333Y-52288152D02*
X149285714Y-52383390D01*
X149285714Y-52383390D02*
X149238095Y-52431009D01*
X149238095Y-52431009D02*
X149142857Y-52478628D01*
X149142857Y-52478628D02*
X148761905Y-52478628D01*
X150190476Y-52288152D02*
X150190476Y-52954819D01*
X149952381Y-51907200D02*
X149714286Y-52621485D01*
X149714286Y-52621485D02*
X150333333Y-52621485D01*
X124857142Y-65954819D02*
X124523809Y-65478628D01*
X124285714Y-65954819D02*
X124285714Y-64954819D01*
X124285714Y-64954819D02*
X124666666Y-64954819D01*
X124666666Y-64954819D02*
X124761904Y-65002438D01*
X124761904Y-65002438D02*
X124809523Y-65050057D01*
X124809523Y-65050057D02*
X124857142Y-65145295D01*
X124857142Y-65145295D02*
X124857142Y-65288152D01*
X124857142Y-65288152D02*
X124809523Y-65383390D01*
X124809523Y-65383390D02*
X124761904Y-65431009D01*
X124761904Y-65431009D02*
X124666666Y-65478628D01*
X124666666Y-65478628D02*
X124285714Y-65478628D01*
X125809523Y-65954819D02*
X125238095Y-65954819D01*
X125523809Y-65954819D02*
X125523809Y-64954819D01*
X125523809Y-64954819D02*
X125428571Y-65097676D01*
X125428571Y-65097676D02*
X125333333Y-65192914D01*
X125333333Y-65192914D02*
X125238095Y-65240533D01*
X126714285Y-64954819D02*
X126238095Y-64954819D01*
X126238095Y-64954819D02*
X126190476Y-65431009D01*
X126190476Y-65431009D02*
X126238095Y-65383390D01*
X126238095Y-65383390D02*
X126333333Y-65335771D01*
X126333333Y-65335771D02*
X126571428Y-65335771D01*
X126571428Y-65335771D02*
X126666666Y-65383390D01*
X126666666Y-65383390D02*
X126714285Y-65431009D01*
X126714285Y-65431009D02*
X126761904Y-65526247D01*
X126761904Y-65526247D02*
X126761904Y-65764342D01*
X126761904Y-65764342D02*
X126714285Y-65859580D01*
X126714285Y-65859580D02*
X126666666Y-65907200D01*
X126666666Y-65907200D02*
X126571428Y-65954819D01*
X126571428Y-65954819D02*
X126333333Y-65954819D01*
X126333333Y-65954819D02*
X126238095Y-65907200D01*
X126238095Y-65907200D02*
X126190476Y-65859580D01*
X116857142Y-65954819D02*
X116523809Y-65478628D01*
X116285714Y-65954819D02*
X116285714Y-64954819D01*
X116285714Y-64954819D02*
X116666666Y-64954819D01*
X116666666Y-64954819D02*
X116761904Y-65002438D01*
X116761904Y-65002438D02*
X116809523Y-65050057D01*
X116809523Y-65050057D02*
X116857142Y-65145295D01*
X116857142Y-65145295D02*
X116857142Y-65288152D01*
X116857142Y-65288152D02*
X116809523Y-65383390D01*
X116809523Y-65383390D02*
X116761904Y-65431009D01*
X116761904Y-65431009D02*
X116666666Y-65478628D01*
X116666666Y-65478628D02*
X116285714Y-65478628D01*
X117809523Y-65954819D02*
X117238095Y-65954819D01*
X117523809Y-65954819D02*
X117523809Y-64954819D01*
X117523809Y-64954819D02*
X117428571Y-65097676D01*
X117428571Y-65097676D02*
X117333333Y-65192914D01*
X117333333Y-65192914D02*
X117238095Y-65240533D01*
X118285714Y-65954819D02*
X118476190Y-65954819D01*
X118476190Y-65954819D02*
X118571428Y-65907200D01*
X118571428Y-65907200D02*
X118619047Y-65859580D01*
X118619047Y-65859580D02*
X118714285Y-65716723D01*
X118714285Y-65716723D02*
X118761904Y-65526247D01*
X118761904Y-65526247D02*
X118761904Y-65145295D01*
X118761904Y-65145295D02*
X118714285Y-65050057D01*
X118714285Y-65050057D02*
X118666666Y-65002438D01*
X118666666Y-65002438D02*
X118571428Y-64954819D01*
X118571428Y-64954819D02*
X118380952Y-64954819D01*
X118380952Y-64954819D02*
X118285714Y-65002438D01*
X118285714Y-65002438D02*
X118238095Y-65050057D01*
X118238095Y-65050057D02*
X118190476Y-65145295D01*
X118190476Y-65145295D02*
X118190476Y-65383390D01*
X118190476Y-65383390D02*
X118238095Y-65478628D01*
X118238095Y-65478628D02*
X118285714Y-65526247D01*
X118285714Y-65526247D02*
X118380952Y-65573866D01*
X118380952Y-65573866D02*
X118571428Y-65573866D01*
X118571428Y-65573866D02*
X118666666Y-65526247D01*
X118666666Y-65526247D02*
X118714285Y-65478628D01*
X118714285Y-65478628D02*
X118761904Y-65383390D01*
X127213333Y-78819580D02*
X127165714Y-78867200D01*
X127165714Y-78867200D02*
X127022857Y-78914819D01*
X127022857Y-78914819D02*
X126927619Y-78914819D01*
X126927619Y-78914819D02*
X126784762Y-78867200D01*
X126784762Y-78867200D02*
X126689524Y-78771961D01*
X126689524Y-78771961D02*
X126641905Y-78676723D01*
X126641905Y-78676723D02*
X126594286Y-78486247D01*
X126594286Y-78486247D02*
X126594286Y-78343390D01*
X126594286Y-78343390D02*
X126641905Y-78152914D01*
X126641905Y-78152914D02*
X126689524Y-78057676D01*
X126689524Y-78057676D02*
X126784762Y-77962438D01*
X126784762Y-77962438D02*
X126927619Y-77914819D01*
X126927619Y-77914819D02*
X127022857Y-77914819D01*
X127022857Y-77914819D02*
X127165714Y-77962438D01*
X127165714Y-77962438D02*
X127213333Y-78010057D01*
X127594286Y-78010057D02*
X127641905Y-77962438D01*
X127641905Y-77962438D02*
X127737143Y-77914819D01*
X127737143Y-77914819D02*
X127975238Y-77914819D01*
X127975238Y-77914819D02*
X128070476Y-77962438D01*
X128070476Y-77962438D02*
X128118095Y-78010057D01*
X128118095Y-78010057D02*
X128165714Y-78105295D01*
X128165714Y-78105295D02*
X128165714Y-78200533D01*
X128165714Y-78200533D02*
X128118095Y-78343390D01*
X128118095Y-78343390D02*
X127546667Y-78914819D01*
X127546667Y-78914819D02*
X128165714Y-78914819D01*
X141333333Y-66454819D02*
X141000000Y-65978628D01*
X140761905Y-66454819D02*
X140761905Y-65454819D01*
X140761905Y-65454819D02*
X141142857Y-65454819D01*
X141142857Y-65454819D02*
X141238095Y-65502438D01*
X141238095Y-65502438D02*
X141285714Y-65550057D01*
X141285714Y-65550057D02*
X141333333Y-65645295D01*
X141333333Y-65645295D02*
X141333333Y-65788152D01*
X141333333Y-65788152D02*
X141285714Y-65883390D01*
X141285714Y-65883390D02*
X141238095Y-65931009D01*
X141238095Y-65931009D02*
X141142857Y-65978628D01*
X141142857Y-65978628D02*
X140761905Y-65978628D01*
X141666667Y-65454819D02*
X142333333Y-65454819D01*
X142333333Y-65454819D02*
X141904762Y-66454819D01*
X112857142Y-65954819D02*
X112523809Y-65478628D01*
X112285714Y-65954819D02*
X112285714Y-64954819D01*
X112285714Y-64954819D02*
X112666666Y-64954819D01*
X112666666Y-64954819D02*
X112761904Y-65002438D01*
X112761904Y-65002438D02*
X112809523Y-65050057D01*
X112809523Y-65050057D02*
X112857142Y-65145295D01*
X112857142Y-65145295D02*
X112857142Y-65288152D01*
X112857142Y-65288152D02*
X112809523Y-65383390D01*
X112809523Y-65383390D02*
X112761904Y-65431009D01*
X112761904Y-65431009D02*
X112666666Y-65478628D01*
X112666666Y-65478628D02*
X112285714Y-65478628D01*
X113238095Y-65050057D02*
X113285714Y-65002438D01*
X113285714Y-65002438D02*
X113380952Y-64954819D01*
X113380952Y-64954819D02*
X113619047Y-64954819D01*
X113619047Y-64954819D02*
X113714285Y-65002438D01*
X113714285Y-65002438D02*
X113761904Y-65050057D01*
X113761904Y-65050057D02*
X113809523Y-65145295D01*
X113809523Y-65145295D02*
X113809523Y-65240533D01*
X113809523Y-65240533D02*
X113761904Y-65383390D01*
X113761904Y-65383390D02*
X113190476Y-65954819D01*
X113190476Y-65954819D02*
X113809523Y-65954819D01*
X114761904Y-65954819D02*
X114190476Y-65954819D01*
X114476190Y-65954819D02*
X114476190Y-64954819D01*
X114476190Y-64954819D02*
X114380952Y-65097676D01*
X114380952Y-65097676D02*
X114285714Y-65192914D01*
X114285714Y-65192914D02*
X114190476Y-65240533D01*
X159416667Y-65657200D02*
X159559524Y-65704819D01*
X159559524Y-65704819D02*
X159797619Y-65704819D01*
X159797619Y-65704819D02*
X159892857Y-65657200D01*
X159892857Y-65657200D02*
X159940476Y-65609580D01*
X159940476Y-65609580D02*
X159988095Y-65514342D01*
X159988095Y-65514342D02*
X159988095Y-65419104D01*
X159988095Y-65419104D02*
X159940476Y-65323866D01*
X159940476Y-65323866D02*
X159892857Y-65276247D01*
X159892857Y-65276247D02*
X159797619Y-65228628D01*
X159797619Y-65228628D02*
X159607143Y-65181009D01*
X159607143Y-65181009D02*
X159511905Y-65133390D01*
X159511905Y-65133390D02*
X159464286Y-65085771D01*
X159464286Y-65085771D02*
X159416667Y-64990533D01*
X159416667Y-64990533D02*
X159416667Y-64895295D01*
X159416667Y-64895295D02*
X159464286Y-64800057D01*
X159464286Y-64800057D02*
X159511905Y-64752438D01*
X159511905Y-64752438D02*
X159607143Y-64704819D01*
X159607143Y-64704819D02*
X159845238Y-64704819D01*
X159845238Y-64704819D02*
X159988095Y-64752438D01*
X160321429Y-64704819D02*
X160559524Y-65704819D01*
X160559524Y-65704819D02*
X160750000Y-64990533D01*
X160750000Y-64990533D02*
X160940476Y-65704819D01*
X160940476Y-65704819D02*
X161178572Y-64704819D01*
X161511905Y-64800057D02*
X161559524Y-64752438D01*
X161559524Y-64752438D02*
X161654762Y-64704819D01*
X161654762Y-64704819D02*
X161892857Y-64704819D01*
X161892857Y-64704819D02*
X161988095Y-64752438D01*
X161988095Y-64752438D02*
X162035714Y-64800057D01*
X162035714Y-64800057D02*
X162083333Y-64895295D01*
X162083333Y-64895295D02*
X162083333Y-64990533D01*
X162083333Y-64990533D02*
X162035714Y-65133390D01*
X162035714Y-65133390D02*
X161464286Y-65704819D01*
X161464286Y-65704819D02*
X162083333Y-65704819D01*
X116857142Y-52914819D02*
X116523809Y-52438628D01*
X116285714Y-52914819D02*
X116285714Y-51914819D01*
X116285714Y-51914819D02*
X116666666Y-51914819D01*
X116666666Y-51914819D02*
X116761904Y-51962438D01*
X116761904Y-51962438D02*
X116809523Y-52010057D01*
X116809523Y-52010057D02*
X116857142Y-52105295D01*
X116857142Y-52105295D02*
X116857142Y-52248152D01*
X116857142Y-52248152D02*
X116809523Y-52343390D01*
X116809523Y-52343390D02*
X116761904Y-52391009D01*
X116761904Y-52391009D02*
X116666666Y-52438628D01*
X116666666Y-52438628D02*
X116285714Y-52438628D01*
X117238095Y-52010057D02*
X117285714Y-51962438D01*
X117285714Y-51962438D02*
X117380952Y-51914819D01*
X117380952Y-51914819D02*
X117619047Y-51914819D01*
X117619047Y-51914819D02*
X117714285Y-51962438D01*
X117714285Y-51962438D02*
X117761904Y-52010057D01*
X117761904Y-52010057D02*
X117809523Y-52105295D01*
X117809523Y-52105295D02*
X117809523Y-52200533D01*
X117809523Y-52200533D02*
X117761904Y-52343390D01*
X117761904Y-52343390D02*
X117190476Y-52914819D01*
X117190476Y-52914819D02*
X117809523Y-52914819D01*
X118428571Y-51914819D02*
X118523809Y-51914819D01*
X118523809Y-51914819D02*
X118619047Y-51962438D01*
X118619047Y-51962438D02*
X118666666Y-52010057D01*
X118666666Y-52010057D02*
X118714285Y-52105295D01*
X118714285Y-52105295D02*
X118761904Y-52295771D01*
X118761904Y-52295771D02*
X118761904Y-52533866D01*
X118761904Y-52533866D02*
X118714285Y-52724342D01*
X118714285Y-52724342D02*
X118666666Y-52819580D01*
X118666666Y-52819580D02*
X118619047Y-52867200D01*
X118619047Y-52867200D02*
X118523809Y-52914819D01*
X118523809Y-52914819D02*
X118428571Y-52914819D01*
X118428571Y-52914819D02*
X118333333Y-52867200D01*
X118333333Y-52867200D02*
X118285714Y-52819580D01*
X118285714Y-52819580D02*
X118238095Y-52724342D01*
X118238095Y-52724342D02*
X118190476Y-52533866D01*
X118190476Y-52533866D02*
X118190476Y-52295771D01*
X118190476Y-52295771D02*
X118238095Y-52105295D01*
X118238095Y-52105295D02*
X118285714Y-52010057D01*
X118285714Y-52010057D02*
X118333333Y-51962438D01*
X118333333Y-51962438D02*
X118428571Y-51914819D01*
X145333333Y-52914819D02*
X145000000Y-52438628D01*
X144761905Y-52914819D02*
X144761905Y-51914819D01*
X144761905Y-51914819D02*
X145142857Y-51914819D01*
X145142857Y-51914819D02*
X145238095Y-51962438D01*
X145238095Y-51962438D02*
X145285714Y-52010057D01*
X145285714Y-52010057D02*
X145333333Y-52105295D01*
X145333333Y-52105295D02*
X145333333Y-52248152D01*
X145333333Y-52248152D02*
X145285714Y-52343390D01*
X145285714Y-52343390D02*
X145238095Y-52391009D01*
X145238095Y-52391009D02*
X145142857Y-52438628D01*
X145142857Y-52438628D02*
X144761905Y-52438628D01*
X146190476Y-51914819D02*
X146000000Y-51914819D01*
X146000000Y-51914819D02*
X145904762Y-51962438D01*
X145904762Y-51962438D02*
X145857143Y-52010057D01*
X145857143Y-52010057D02*
X145761905Y-52152914D01*
X145761905Y-52152914D02*
X145714286Y-52343390D01*
X145714286Y-52343390D02*
X145714286Y-52724342D01*
X145714286Y-52724342D02*
X145761905Y-52819580D01*
X145761905Y-52819580D02*
X145809524Y-52867200D01*
X145809524Y-52867200D02*
X145904762Y-52914819D01*
X145904762Y-52914819D02*
X146095238Y-52914819D01*
X146095238Y-52914819D02*
X146190476Y-52867200D01*
X146190476Y-52867200D02*
X146238095Y-52819580D01*
X146238095Y-52819580D02*
X146285714Y-52724342D01*
X146285714Y-52724342D02*
X146285714Y-52486247D01*
X146285714Y-52486247D02*
X146238095Y-52391009D01*
X146238095Y-52391009D02*
X146190476Y-52343390D01*
X146190476Y-52343390D02*
X146095238Y-52295771D01*
X146095238Y-52295771D02*
X145904762Y-52295771D01*
X145904762Y-52295771D02*
X145809524Y-52343390D01*
X145809524Y-52343390D02*
X145761905Y-52391009D01*
X145761905Y-52391009D02*
X145714286Y-52486247D01*
X122546666Y-87374819D02*
X122546666Y-88089104D01*
X122546666Y-88089104D02*
X122499047Y-88231961D01*
X122499047Y-88231961D02*
X122403809Y-88327200D01*
X122403809Y-88327200D02*
X122260952Y-88374819D01*
X122260952Y-88374819D02*
X122165714Y-88374819D01*
X122927619Y-87374819D02*
X123594285Y-87374819D01*
X123594285Y-87374819D02*
X123165714Y-88374819D01*
X136857142Y-52914819D02*
X136523809Y-52438628D01*
X136285714Y-52914819D02*
X136285714Y-51914819D01*
X136285714Y-51914819D02*
X136666666Y-51914819D01*
X136666666Y-51914819D02*
X136761904Y-51962438D01*
X136761904Y-51962438D02*
X136809523Y-52010057D01*
X136809523Y-52010057D02*
X136857142Y-52105295D01*
X136857142Y-52105295D02*
X136857142Y-52248152D01*
X136857142Y-52248152D02*
X136809523Y-52343390D01*
X136809523Y-52343390D02*
X136761904Y-52391009D01*
X136761904Y-52391009D02*
X136666666Y-52438628D01*
X136666666Y-52438628D02*
X136285714Y-52438628D01*
X137809523Y-52914819D02*
X137238095Y-52914819D01*
X137523809Y-52914819D02*
X137523809Y-51914819D01*
X137523809Y-51914819D02*
X137428571Y-52057676D01*
X137428571Y-52057676D02*
X137333333Y-52152914D01*
X137333333Y-52152914D02*
X137238095Y-52200533D01*
X138428571Y-51914819D02*
X138523809Y-51914819D01*
X138523809Y-51914819D02*
X138619047Y-51962438D01*
X138619047Y-51962438D02*
X138666666Y-52010057D01*
X138666666Y-52010057D02*
X138714285Y-52105295D01*
X138714285Y-52105295D02*
X138761904Y-52295771D01*
X138761904Y-52295771D02*
X138761904Y-52533866D01*
X138761904Y-52533866D02*
X138714285Y-52724342D01*
X138714285Y-52724342D02*
X138666666Y-52819580D01*
X138666666Y-52819580D02*
X138619047Y-52867200D01*
X138619047Y-52867200D02*
X138523809Y-52914819D01*
X138523809Y-52914819D02*
X138428571Y-52914819D01*
X138428571Y-52914819D02*
X138333333Y-52867200D01*
X138333333Y-52867200D02*
X138285714Y-52819580D01*
X138285714Y-52819580D02*
X138238095Y-52724342D01*
X138238095Y-52724342D02*
X138190476Y-52533866D01*
X138190476Y-52533866D02*
X138190476Y-52295771D01*
X138190476Y-52295771D02*
X138238095Y-52105295D01*
X138238095Y-52105295D02*
X138285714Y-52010057D01*
X138285714Y-52010057D02*
X138333333Y-51962438D01*
X138333333Y-51962438D02*
X138428571Y-51914819D01*
X107804819Y-65333333D02*
X108519104Y-65333333D01*
X108519104Y-65333333D02*
X108661961Y-65380952D01*
X108661961Y-65380952D02*
X108757200Y-65476190D01*
X108757200Y-65476190D02*
X108804819Y-65619047D01*
X108804819Y-65619047D02*
X108804819Y-65714285D01*
X107804819Y-64380952D02*
X107804819Y-64857142D01*
X107804819Y-64857142D02*
X108281009Y-64904761D01*
X108281009Y-64904761D02*
X108233390Y-64857142D01*
X108233390Y-64857142D02*
X108185771Y-64761904D01*
X108185771Y-64761904D02*
X108185771Y-64523809D01*
X108185771Y-64523809D02*
X108233390Y-64428571D01*
X108233390Y-64428571D02*
X108281009Y-64380952D01*
X108281009Y-64380952D02*
X108376247Y-64333333D01*
X108376247Y-64333333D02*
X108614342Y-64333333D01*
X108614342Y-64333333D02*
X108709580Y-64380952D01*
X108709580Y-64380952D02*
X108757200Y-64428571D01*
X108757200Y-64428571D02*
X108804819Y-64523809D01*
X108804819Y-64523809D02*
X108804819Y-64761904D01*
X108804819Y-64761904D02*
X108757200Y-64857142D01*
X108757200Y-64857142D02*
X108709580Y-64904761D01*
X119454819Y-91642857D02*
X118978628Y-91976190D01*
X119454819Y-92214285D02*
X118454819Y-92214285D01*
X118454819Y-92214285D02*
X118454819Y-91833333D01*
X118454819Y-91833333D02*
X118502438Y-91738095D01*
X118502438Y-91738095D02*
X118550057Y-91690476D01*
X118550057Y-91690476D02*
X118645295Y-91642857D01*
X118645295Y-91642857D02*
X118788152Y-91642857D01*
X118788152Y-91642857D02*
X118883390Y-91690476D01*
X118883390Y-91690476D02*
X118931009Y-91738095D01*
X118931009Y-91738095D02*
X118978628Y-91833333D01*
X118978628Y-91833333D02*
X118978628Y-92214285D01*
X118550057Y-91261904D02*
X118502438Y-91214285D01*
X118502438Y-91214285D02*
X118454819Y-91119047D01*
X118454819Y-91119047D02*
X118454819Y-90880952D01*
X118454819Y-90880952D02*
X118502438Y-90785714D01*
X118502438Y-90785714D02*
X118550057Y-90738095D01*
X118550057Y-90738095D02*
X118645295Y-90690476D01*
X118645295Y-90690476D02*
X118740533Y-90690476D01*
X118740533Y-90690476D02*
X118883390Y-90738095D01*
X118883390Y-90738095D02*
X119454819Y-91309523D01*
X119454819Y-91309523D02*
X119454819Y-90690476D01*
X118454819Y-89833333D02*
X118454819Y-90023809D01*
X118454819Y-90023809D02*
X118502438Y-90119047D01*
X118502438Y-90119047D02*
X118550057Y-90166666D01*
X118550057Y-90166666D02*
X118692914Y-90261904D01*
X118692914Y-90261904D02*
X118883390Y-90309523D01*
X118883390Y-90309523D02*
X119264342Y-90309523D01*
X119264342Y-90309523D02*
X119359580Y-90261904D01*
X119359580Y-90261904D02*
X119407200Y-90214285D01*
X119407200Y-90214285D02*
X119454819Y-90119047D01*
X119454819Y-90119047D02*
X119454819Y-89928571D01*
X119454819Y-89928571D02*
X119407200Y-89833333D01*
X119407200Y-89833333D02*
X119359580Y-89785714D01*
X119359580Y-89785714D02*
X119264342Y-89738095D01*
X119264342Y-89738095D02*
X119026247Y-89738095D01*
X119026247Y-89738095D02*
X118931009Y-89785714D01*
X118931009Y-89785714D02*
X118883390Y-89833333D01*
X118883390Y-89833333D02*
X118835771Y-89928571D01*
X118835771Y-89928571D02*
X118835771Y-90119047D01*
X118835771Y-90119047D02*
X118883390Y-90214285D01*
X118883390Y-90214285D02*
X118931009Y-90261904D01*
X118931009Y-90261904D02*
X119026247Y-90309523D01*
X161454819Y-76809523D02*
X162169104Y-76809523D01*
X162169104Y-76809523D02*
X162311961Y-76857142D01*
X162311961Y-76857142D02*
X162407200Y-76952380D01*
X162407200Y-76952380D02*
X162454819Y-77095237D01*
X162454819Y-77095237D02*
X162454819Y-77190475D01*
X162454819Y-75809523D02*
X162454819Y-76380951D01*
X162454819Y-76095237D02*
X161454819Y-76095237D01*
X161454819Y-76095237D02*
X161597676Y-76190475D01*
X161597676Y-76190475D02*
X161692914Y-76285713D01*
X161692914Y-76285713D02*
X161740533Y-76380951D01*
X162454819Y-74857142D02*
X162454819Y-75428570D01*
X162454819Y-75142856D02*
X161454819Y-75142856D01*
X161454819Y-75142856D02*
X161597676Y-75238094D01*
X161597676Y-75238094D02*
X161692914Y-75333332D01*
X161692914Y-75333332D02*
X161740533Y-75428570D01*
X145833333Y-66084819D02*
X145500000Y-65608628D01*
X145261905Y-66084819D02*
X145261905Y-65084819D01*
X145261905Y-65084819D02*
X145642857Y-65084819D01*
X145642857Y-65084819D02*
X145738095Y-65132438D01*
X145738095Y-65132438D02*
X145785714Y-65180057D01*
X145785714Y-65180057D02*
X145833333Y-65275295D01*
X145833333Y-65275295D02*
X145833333Y-65418152D01*
X145833333Y-65418152D02*
X145785714Y-65513390D01*
X145785714Y-65513390D02*
X145738095Y-65561009D01*
X145738095Y-65561009D02*
X145642857Y-65608628D01*
X145642857Y-65608628D02*
X145261905Y-65608628D01*
X146738095Y-65084819D02*
X146261905Y-65084819D01*
X146261905Y-65084819D02*
X146214286Y-65561009D01*
X146214286Y-65561009D02*
X146261905Y-65513390D01*
X146261905Y-65513390D02*
X146357143Y-65465771D01*
X146357143Y-65465771D02*
X146595238Y-65465771D01*
X146595238Y-65465771D02*
X146690476Y-65513390D01*
X146690476Y-65513390D02*
X146738095Y-65561009D01*
X146738095Y-65561009D02*
X146785714Y-65656247D01*
X146785714Y-65656247D02*
X146785714Y-65894342D01*
X146785714Y-65894342D02*
X146738095Y-65989580D01*
X146738095Y-65989580D02*
X146690476Y-66037200D01*
X146690476Y-66037200D02*
X146595238Y-66084819D01*
X146595238Y-66084819D02*
X146357143Y-66084819D01*
X146357143Y-66084819D02*
X146261905Y-66037200D01*
X146261905Y-66037200D02*
X146214286Y-65989580D01*
X147359580Y-77166666D02*
X147407200Y-77214285D01*
X147407200Y-77214285D02*
X147454819Y-77357142D01*
X147454819Y-77357142D02*
X147454819Y-77452380D01*
X147454819Y-77452380D02*
X147407200Y-77595237D01*
X147407200Y-77595237D02*
X147311961Y-77690475D01*
X147311961Y-77690475D02*
X147216723Y-77738094D01*
X147216723Y-77738094D02*
X147026247Y-77785713D01*
X147026247Y-77785713D02*
X146883390Y-77785713D01*
X146883390Y-77785713D02*
X146692914Y-77738094D01*
X146692914Y-77738094D02*
X146597676Y-77690475D01*
X146597676Y-77690475D02*
X146502438Y-77595237D01*
X146502438Y-77595237D02*
X146454819Y-77452380D01*
X146454819Y-77452380D02*
X146454819Y-77357142D01*
X146454819Y-77357142D02*
X146502438Y-77214285D01*
X146502438Y-77214285D02*
X146550057Y-77166666D01*
X147454819Y-76214285D02*
X147454819Y-76785713D01*
X147454819Y-76499999D02*
X146454819Y-76499999D01*
X146454819Y-76499999D02*
X146597676Y-76595237D01*
X146597676Y-76595237D02*
X146692914Y-76690475D01*
X146692914Y-76690475D02*
X146740533Y-76785713D01*
X122737142Y-78414819D02*
X122403809Y-77938628D01*
X122165714Y-78414819D02*
X122165714Y-77414819D01*
X122165714Y-77414819D02*
X122546666Y-77414819D01*
X122546666Y-77414819D02*
X122641904Y-77462438D01*
X122641904Y-77462438D02*
X122689523Y-77510057D01*
X122689523Y-77510057D02*
X122737142Y-77605295D01*
X122737142Y-77605295D02*
X122737142Y-77748152D01*
X122737142Y-77748152D02*
X122689523Y-77843390D01*
X122689523Y-77843390D02*
X122641904Y-77891009D01*
X122641904Y-77891009D02*
X122546666Y-77938628D01*
X122546666Y-77938628D02*
X122165714Y-77938628D01*
X123118095Y-77510057D02*
X123165714Y-77462438D01*
X123165714Y-77462438D02*
X123260952Y-77414819D01*
X123260952Y-77414819D02*
X123499047Y-77414819D01*
X123499047Y-77414819D02*
X123594285Y-77462438D01*
X123594285Y-77462438D02*
X123641904Y-77510057D01*
X123641904Y-77510057D02*
X123689523Y-77605295D01*
X123689523Y-77605295D02*
X123689523Y-77700533D01*
X123689523Y-77700533D02*
X123641904Y-77843390D01*
X123641904Y-77843390D02*
X123070476Y-78414819D01*
X123070476Y-78414819D02*
X123689523Y-78414819D01*
X124546666Y-77748152D02*
X124546666Y-78414819D01*
X124308571Y-77367200D02*
X124070476Y-78081485D01*
X124070476Y-78081485D02*
X124689523Y-78081485D01*
X132857142Y-52914819D02*
X132523809Y-52438628D01*
X132285714Y-52914819D02*
X132285714Y-51914819D01*
X132285714Y-51914819D02*
X132666666Y-51914819D01*
X132666666Y-51914819D02*
X132761904Y-51962438D01*
X132761904Y-51962438D02*
X132809523Y-52010057D01*
X132809523Y-52010057D02*
X132857142Y-52105295D01*
X132857142Y-52105295D02*
X132857142Y-52248152D01*
X132857142Y-52248152D02*
X132809523Y-52343390D01*
X132809523Y-52343390D02*
X132761904Y-52391009D01*
X132761904Y-52391009D02*
X132666666Y-52438628D01*
X132666666Y-52438628D02*
X132285714Y-52438628D01*
X133809523Y-52914819D02*
X133238095Y-52914819D01*
X133523809Y-52914819D02*
X133523809Y-51914819D01*
X133523809Y-51914819D02*
X133428571Y-52057676D01*
X133428571Y-52057676D02*
X133333333Y-52152914D01*
X133333333Y-52152914D02*
X133238095Y-52200533D01*
X134190476Y-52010057D02*
X134238095Y-51962438D01*
X134238095Y-51962438D02*
X134333333Y-51914819D01*
X134333333Y-51914819D02*
X134571428Y-51914819D01*
X134571428Y-51914819D02*
X134666666Y-51962438D01*
X134666666Y-51962438D02*
X134714285Y-52010057D01*
X134714285Y-52010057D02*
X134761904Y-52105295D01*
X134761904Y-52105295D02*
X134761904Y-52200533D01*
X134761904Y-52200533D02*
X134714285Y-52343390D01*
X134714285Y-52343390D02*
X134142857Y-52914819D01*
X134142857Y-52914819D02*
X134761904Y-52914819D01*
X159416667Y-57157200D02*
X159559524Y-57204819D01*
X159559524Y-57204819D02*
X159797619Y-57204819D01*
X159797619Y-57204819D02*
X159892857Y-57157200D01*
X159892857Y-57157200D02*
X159940476Y-57109580D01*
X159940476Y-57109580D02*
X159988095Y-57014342D01*
X159988095Y-57014342D02*
X159988095Y-56919104D01*
X159988095Y-56919104D02*
X159940476Y-56823866D01*
X159940476Y-56823866D02*
X159892857Y-56776247D01*
X159892857Y-56776247D02*
X159797619Y-56728628D01*
X159797619Y-56728628D02*
X159607143Y-56681009D01*
X159607143Y-56681009D02*
X159511905Y-56633390D01*
X159511905Y-56633390D02*
X159464286Y-56585771D01*
X159464286Y-56585771D02*
X159416667Y-56490533D01*
X159416667Y-56490533D02*
X159416667Y-56395295D01*
X159416667Y-56395295D02*
X159464286Y-56300057D01*
X159464286Y-56300057D02*
X159511905Y-56252438D01*
X159511905Y-56252438D02*
X159607143Y-56204819D01*
X159607143Y-56204819D02*
X159845238Y-56204819D01*
X159845238Y-56204819D02*
X159988095Y-56252438D01*
X160321429Y-56204819D02*
X160559524Y-57204819D01*
X160559524Y-57204819D02*
X160750000Y-56490533D01*
X160750000Y-56490533D02*
X160940476Y-57204819D01*
X160940476Y-57204819D02*
X161178572Y-56204819D01*
X162083333Y-57204819D02*
X161511905Y-57204819D01*
X161797619Y-57204819D02*
X161797619Y-56204819D01*
X161797619Y-56204819D02*
X161702381Y-56347676D01*
X161702381Y-56347676D02*
X161607143Y-56442914D01*
X161607143Y-56442914D02*
X161511905Y-56490533D01*
X133357142Y-65954819D02*
X133023809Y-65478628D01*
X132785714Y-65954819D02*
X132785714Y-64954819D01*
X132785714Y-64954819D02*
X133166666Y-64954819D01*
X133166666Y-64954819D02*
X133261904Y-65002438D01*
X133261904Y-65002438D02*
X133309523Y-65050057D01*
X133309523Y-65050057D02*
X133357142Y-65145295D01*
X133357142Y-65145295D02*
X133357142Y-65288152D01*
X133357142Y-65288152D02*
X133309523Y-65383390D01*
X133309523Y-65383390D02*
X133261904Y-65431009D01*
X133261904Y-65431009D02*
X133166666Y-65478628D01*
X133166666Y-65478628D02*
X132785714Y-65478628D01*
X134309523Y-65954819D02*
X133738095Y-65954819D01*
X134023809Y-65954819D02*
X134023809Y-64954819D01*
X134023809Y-64954819D02*
X133928571Y-65097676D01*
X133928571Y-65097676D02*
X133833333Y-65192914D01*
X133833333Y-65192914D02*
X133738095Y-65240533D01*
X135261904Y-65954819D02*
X134690476Y-65954819D01*
X134976190Y-65954819D02*
X134976190Y-64954819D01*
X134976190Y-64954819D02*
X134880952Y-65097676D01*
X134880952Y-65097676D02*
X134785714Y-65192914D01*
X134785714Y-65192914D02*
X134690476Y-65240533D01*
X112857142Y-52914819D02*
X112523809Y-52438628D01*
X112285714Y-52914819D02*
X112285714Y-51914819D01*
X112285714Y-51914819D02*
X112666666Y-51914819D01*
X112666666Y-51914819D02*
X112761904Y-51962438D01*
X112761904Y-51962438D02*
X112809523Y-52010057D01*
X112809523Y-52010057D02*
X112857142Y-52105295D01*
X112857142Y-52105295D02*
X112857142Y-52248152D01*
X112857142Y-52248152D02*
X112809523Y-52343390D01*
X112809523Y-52343390D02*
X112761904Y-52391009D01*
X112761904Y-52391009D02*
X112666666Y-52438628D01*
X112666666Y-52438628D02*
X112285714Y-52438628D01*
X113238095Y-52010057D02*
X113285714Y-51962438D01*
X113285714Y-51962438D02*
X113380952Y-51914819D01*
X113380952Y-51914819D02*
X113619047Y-51914819D01*
X113619047Y-51914819D02*
X113714285Y-51962438D01*
X113714285Y-51962438D02*
X113761904Y-52010057D01*
X113761904Y-52010057D02*
X113809523Y-52105295D01*
X113809523Y-52105295D02*
X113809523Y-52200533D01*
X113809523Y-52200533D02*
X113761904Y-52343390D01*
X113761904Y-52343390D02*
X113190476Y-52914819D01*
X113190476Y-52914819D02*
X113809523Y-52914819D01*
X114190476Y-52010057D02*
X114238095Y-51962438D01*
X114238095Y-51962438D02*
X114333333Y-51914819D01*
X114333333Y-51914819D02*
X114571428Y-51914819D01*
X114571428Y-51914819D02*
X114666666Y-51962438D01*
X114666666Y-51962438D02*
X114714285Y-52010057D01*
X114714285Y-52010057D02*
X114761904Y-52105295D01*
X114761904Y-52105295D02*
X114761904Y-52200533D01*
X114761904Y-52200533D02*
X114714285Y-52343390D01*
X114714285Y-52343390D02*
X114142857Y-52914819D01*
X114142857Y-52914819D02*
X114761904Y-52914819D01*
X152690476Y-93834819D02*
X152690476Y-94549104D01*
X152690476Y-94549104D02*
X152642857Y-94691961D01*
X152642857Y-94691961D02*
X152547619Y-94787200D01*
X152547619Y-94787200D02*
X152404762Y-94834819D01*
X152404762Y-94834819D02*
X152309524Y-94834819D01*
X153690476Y-94834819D02*
X153119048Y-94834819D01*
X153404762Y-94834819D02*
X153404762Y-93834819D01*
X153404762Y-93834819D02*
X153309524Y-93977676D01*
X153309524Y-93977676D02*
X153214286Y-94072914D01*
X153214286Y-94072914D02*
X153119048Y-94120533D01*
X154071429Y-93930057D02*
X154119048Y-93882438D01*
X154119048Y-93882438D02*
X154214286Y-93834819D01*
X154214286Y-93834819D02*
X154452381Y-93834819D01*
X154452381Y-93834819D02*
X154547619Y-93882438D01*
X154547619Y-93882438D02*
X154595238Y-93930057D01*
X154595238Y-93930057D02*
X154642857Y-94025295D01*
X154642857Y-94025295D02*
X154642857Y-94120533D01*
X154642857Y-94120533D02*
X154595238Y-94263390D01*
X154595238Y-94263390D02*
X154023810Y-94834819D01*
X154023810Y-94834819D02*
X154642857Y-94834819D01*
X153333333Y-53454819D02*
X153000000Y-52978628D01*
X152761905Y-53454819D02*
X152761905Y-52454819D01*
X152761905Y-52454819D02*
X153142857Y-52454819D01*
X153142857Y-52454819D02*
X153238095Y-52502438D01*
X153238095Y-52502438D02*
X153285714Y-52550057D01*
X153285714Y-52550057D02*
X153333333Y-52645295D01*
X153333333Y-52645295D02*
X153333333Y-52788152D01*
X153333333Y-52788152D02*
X153285714Y-52883390D01*
X153285714Y-52883390D02*
X153238095Y-52931009D01*
X153238095Y-52931009D02*
X153142857Y-52978628D01*
X153142857Y-52978628D02*
X152761905Y-52978628D01*
X154285714Y-53454819D02*
X153714286Y-53454819D01*
X154000000Y-53454819D02*
X154000000Y-52454819D01*
X154000000Y-52454819D02*
X153904762Y-52597676D01*
X153904762Y-52597676D02*
X153809524Y-52692914D01*
X153809524Y-52692914D02*
X153714286Y-52740533D01*
X138857142Y-69454819D02*
X138523809Y-68978628D01*
X138285714Y-69454819D02*
X138285714Y-68454819D01*
X138285714Y-68454819D02*
X138666666Y-68454819D01*
X138666666Y-68454819D02*
X138761904Y-68502438D01*
X138761904Y-68502438D02*
X138809523Y-68550057D01*
X138809523Y-68550057D02*
X138857142Y-68645295D01*
X138857142Y-68645295D02*
X138857142Y-68788152D01*
X138857142Y-68788152D02*
X138809523Y-68883390D01*
X138809523Y-68883390D02*
X138761904Y-68931009D01*
X138761904Y-68931009D02*
X138666666Y-68978628D01*
X138666666Y-68978628D02*
X138285714Y-68978628D01*
X139238095Y-68550057D02*
X139285714Y-68502438D01*
X139285714Y-68502438D02*
X139380952Y-68454819D01*
X139380952Y-68454819D02*
X139619047Y-68454819D01*
X139619047Y-68454819D02*
X139714285Y-68502438D01*
X139714285Y-68502438D02*
X139761904Y-68550057D01*
X139761904Y-68550057D02*
X139809523Y-68645295D01*
X139809523Y-68645295D02*
X139809523Y-68740533D01*
X139809523Y-68740533D02*
X139761904Y-68883390D01*
X139761904Y-68883390D02*
X139190476Y-69454819D01*
X139190476Y-69454819D02*
X139809523Y-69454819D01*
X140142857Y-68454819D02*
X140809523Y-68454819D01*
X140809523Y-68454819D02*
X140380952Y-69454819D01*
X120857142Y-65954819D02*
X120523809Y-65478628D01*
X120285714Y-65954819D02*
X120285714Y-64954819D01*
X120285714Y-64954819D02*
X120666666Y-64954819D01*
X120666666Y-64954819D02*
X120761904Y-65002438D01*
X120761904Y-65002438D02*
X120809523Y-65050057D01*
X120809523Y-65050057D02*
X120857142Y-65145295D01*
X120857142Y-65145295D02*
X120857142Y-65288152D01*
X120857142Y-65288152D02*
X120809523Y-65383390D01*
X120809523Y-65383390D02*
X120761904Y-65431009D01*
X120761904Y-65431009D02*
X120666666Y-65478628D01*
X120666666Y-65478628D02*
X120285714Y-65478628D01*
X121809523Y-65954819D02*
X121238095Y-65954819D01*
X121523809Y-65954819D02*
X121523809Y-64954819D01*
X121523809Y-64954819D02*
X121428571Y-65097676D01*
X121428571Y-65097676D02*
X121333333Y-65192914D01*
X121333333Y-65192914D02*
X121238095Y-65240533D01*
X122142857Y-64954819D02*
X122809523Y-64954819D01*
X122809523Y-64954819D02*
X122380952Y-65954819D01*
X113857142Y-72954819D02*
X113523809Y-72478628D01*
X113285714Y-72954819D02*
X113285714Y-71954819D01*
X113285714Y-71954819D02*
X113666666Y-71954819D01*
X113666666Y-71954819D02*
X113761904Y-72002438D01*
X113761904Y-72002438D02*
X113809523Y-72050057D01*
X113809523Y-72050057D02*
X113857142Y-72145295D01*
X113857142Y-72145295D02*
X113857142Y-72288152D01*
X113857142Y-72288152D02*
X113809523Y-72383390D01*
X113809523Y-72383390D02*
X113761904Y-72431009D01*
X113761904Y-72431009D02*
X113666666Y-72478628D01*
X113666666Y-72478628D02*
X113285714Y-72478628D01*
X114238095Y-72050057D02*
X114285714Y-72002438D01*
X114285714Y-72002438D02*
X114380952Y-71954819D01*
X114380952Y-71954819D02*
X114619047Y-71954819D01*
X114619047Y-71954819D02*
X114714285Y-72002438D01*
X114714285Y-72002438D02*
X114761904Y-72050057D01*
X114761904Y-72050057D02*
X114809523Y-72145295D01*
X114809523Y-72145295D02*
X114809523Y-72240533D01*
X114809523Y-72240533D02*
X114761904Y-72383390D01*
X114761904Y-72383390D02*
X114190476Y-72954819D01*
X114190476Y-72954819D02*
X114809523Y-72954819D01*
X115714285Y-71954819D02*
X115238095Y-71954819D01*
X115238095Y-71954819D02*
X115190476Y-72431009D01*
X115190476Y-72431009D02*
X115238095Y-72383390D01*
X115238095Y-72383390D02*
X115333333Y-72335771D01*
X115333333Y-72335771D02*
X115571428Y-72335771D01*
X115571428Y-72335771D02*
X115666666Y-72383390D01*
X115666666Y-72383390D02*
X115714285Y-72431009D01*
X115714285Y-72431009D02*
X115761904Y-72526247D01*
X115761904Y-72526247D02*
X115761904Y-72764342D01*
X115761904Y-72764342D02*
X115714285Y-72859580D01*
X115714285Y-72859580D02*
X115666666Y-72907200D01*
X115666666Y-72907200D02*
X115571428Y-72954819D01*
X115571428Y-72954819D02*
X115333333Y-72954819D01*
X115333333Y-72954819D02*
X115238095Y-72907200D01*
X115238095Y-72907200D02*
X115190476Y-72859580D01*
X124857142Y-52914819D02*
X124523809Y-52438628D01*
X124285714Y-52914819D02*
X124285714Y-51914819D01*
X124285714Y-51914819D02*
X124666666Y-51914819D01*
X124666666Y-51914819D02*
X124761904Y-51962438D01*
X124761904Y-51962438D02*
X124809523Y-52010057D01*
X124809523Y-52010057D02*
X124857142Y-52105295D01*
X124857142Y-52105295D02*
X124857142Y-52248152D01*
X124857142Y-52248152D02*
X124809523Y-52343390D01*
X124809523Y-52343390D02*
X124761904Y-52391009D01*
X124761904Y-52391009D02*
X124666666Y-52438628D01*
X124666666Y-52438628D02*
X124285714Y-52438628D01*
X125809523Y-52914819D02*
X125238095Y-52914819D01*
X125523809Y-52914819D02*
X125523809Y-51914819D01*
X125523809Y-51914819D02*
X125428571Y-52057676D01*
X125428571Y-52057676D02*
X125333333Y-52152914D01*
X125333333Y-52152914D02*
X125238095Y-52200533D01*
X126666666Y-51914819D02*
X126476190Y-51914819D01*
X126476190Y-51914819D02*
X126380952Y-51962438D01*
X126380952Y-51962438D02*
X126333333Y-52010057D01*
X126333333Y-52010057D02*
X126238095Y-52152914D01*
X126238095Y-52152914D02*
X126190476Y-52343390D01*
X126190476Y-52343390D02*
X126190476Y-52724342D01*
X126190476Y-52724342D02*
X126238095Y-52819580D01*
X126238095Y-52819580D02*
X126285714Y-52867200D01*
X126285714Y-52867200D02*
X126380952Y-52914819D01*
X126380952Y-52914819D02*
X126571428Y-52914819D01*
X126571428Y-52914819D02*
X126666666Y-52867200D01*
X126666666Y-52867200D02*
X126714285Y-52819580D01*
X126714285Y-52819580D02*
X126761904Y-52724342D01*
X126761904Y-52724342D02*
X126761904Y-52486247D01*
X126761904Y-52486247D02*
X126714285Y-52391009D01*
X126714285Y-52391009D02*
X126666666Y-52343390D01*
X126666666Y-52343390D02*
X126571428Y-52295771D01*
X126571428Y-52295771D02*
X126380952Y-52295771D01*
X126380952Y-52295771D02*
X126285714Y-52343390D01*
X126285714Y-52343390D02*
X126238095Y-52391009D01*
X126238095Y-52391009D02*
X126190476Y-52486247D01*
X134889761Y-84399819D02*
X134556428Y-83923628D01*
X134318333Y-84399819D02*
X134318333Y-83399819D01*
X134318333Y-83399819D02*
X134699285Y-83399819D01*
X134699285Y-83399819D02*
X134794523Y-83447438D01*
X134794523Y-83447438D02*
X134842142Y-83495057D01*
X134842142Y-83495057D02*
X134889761Y-83590295D01*
X134889761Y-83590295D02*
X134889761Y-83733152D01*
X134889761Y-83733152D02*
X134842142Y-83828390D01*
X134842142Y-83828390D02*
X134794523Y-83876009D01*
X134794523Y-83876009D02*
X134699285Y-83923628D01*
X134699285Y-83923628D02*
X134318333Y-83923628D01*
X135175476Y-83399819D02*
X135508809Y-84399819D01*
X135508809Y-84399819D02*
X135842142Y-83399819D01*
X136699285Y-84399819D02*
X136127857Y-84399819D01*
X136413571Y-84399819D02*
X136413571Y-83399819D01*
X136413571Y-83399819D02*
X136318333Y-83542676D01*
X136318333Y-83542676D02*
X136223095Y-83637914D01*
X136223095Y-83637914D02*
X136127857Y-83685533D01*
X153833333Y-62454819D02*
X153500000Y-61978628D01*
X153261905Y-62454819D02*
X153261905Y-61454819D01*
X153261905Y-61454819D02*
X153642857Y-61454819D01*
X153642857Y-61454819D02*
X153738095Y-61502438D01*
X153738095Y-61502438D02*
X153785714Y-61550057D01*
X153785714Y-61550057D02*
X153833333Y-61645295D01*
X153833333Y-61645295D02*
X153833333Y-61788152D01*
X153833333Y-61788152D02*
X153785714Y-61883390D01*
X153785714Y-61883390D02*
X153738095Y-61931009D01*
X153738095Y-61931009D02*
X153642857Y-61978628D01*
X153642857Y-61978628D02*
X153261905Y-61978628D01*
X154214286Y-61550057D02*
X154261905Y-61502438D01*
X154261905Y-61502438D02*
X154357143Y-61454819D01*
X154357143Y-61454819D02*
X154595238Y-61454819D01*
X154595238Y-61454819D02*
X154690476Y-61502438D01*
X154690476Y-61502438D02*
X154738095Y-61550057D01*
X154738095Y-61550057D02*
X154785714Y-61645295D01*
X154785714Y-61645295D02*
X154785714Y-61740533D01*
X154785714Y-61740533D02*
X154738095Y-61883390D01*
X154738095Y-61883390D02*
X154166667Y-62454819D01*
X154166667Y-62454819D02*
X154785714Y-62454819D01*
X130238095Y-68454819D02*
X130238095Y-69264342D01*
X130238095Y-69264342D02*
X130285714Y-69359580D01*
X130285714Y-69359580D02*
X130333333Y-69407200D01*
X130333333Y-69407200D02*
X130428571Y-69454819D01*
X130428571Y-69454819D02*
X130619047Y-69454819D01*
X130619047Y-69454819D02*
X130714285Y-69407200D01*
X130714285Y-69407200D02*
X130761904Y-69359580D01*
X130761904Y-69359580D02*
X130809523Y-69264342D01*
X130809523Y-69264342D02*
X130809523Y-68454819D01*
X131809523Y-69454819D02*
X131238095Y-69454819D01*
X131523809Y-69454819D02*
X131523809Y-68454819D01*
X131523809Y-68454819D02*
X131428571Y-68597676D01*
X131428571Y-68597676D02*
X131333333Y-68692914D01*
X131333333Y-68692914D02*
X131238095Y-68740533D01*
X153166666Y-70574819D02*
X153166666Y-71289104D01*
X153166666Y-71289104D02*
X153119047Y-71431961D01*
X153119047Y-71431961D02*
X153023809Y-71527200D01*
X153023809Y-71527200D02*
X152880952Y-71574819D01*
X152880952Y-71574819D02*
X152785714Y-71574819D01*
X153690476Y-71574819D02*
X153880952Y-71574819D01*
X153880952Y-71574819D02*
X153976190Y-71527200D01*
X153976190Y-71527200D02*
X154023809Y-71479580D01*
X154023809Y-71479580D02*
X154119047Y-71336723D01*
X154119047Y-71336723D02*
X154166666Y-71146247D01*
X154166666Y-71146247D02*
X154166666Y-70765295D01*
X154166666Y-70765295D02*
X154119047Y-70670057D01*
X154119047Y-70670057D02*
X154071428Y-70622438D01*
X154071428Y-70622438D02*
X153976190Y-70574819D01*
X153976190Y-70574819D02*
X153785714Y-70574819D01*
X153785714Y-70574819D02*
X153690476Y-70622438D01*
X153690476Y-70622438D02*
X153642857Y-70670057D01*
X153642857Y-70670057D02*
X153595238Y-70765295D01*
X153595238Y-70765295D02*
X153595238Y-71003390D01*
X153595238Y-71003390D02*
X153642857Y-71098628D01*
X153642857Y-71098628D02*
X153690476Y-71146247D01*
X153690476Y-71146247D02*
X153785714Y-71193866D01*
X153785714Y-71193866D02*
X153976190Y-71193866D01*
X153976190Y-71193866D02*
X154071428Y-71146247D01*
X154071428Y-71146247D02*
X154119047Y-71098628D01*
X154119047Y-71098628D02*
X154166666Y-71003390D01*
X149333333Y-66164819D02*
X149000000Y-65688628D01*
X148761905Y-66164819D02*
X148761905Y-65164819D01*
X148761905Y-65164819D02*
X149142857Y-65164819D01*
X149142857Y-65164819D02*
X149238095Y-65212438D01*
X149238095Y-65212438D02*
X149285714Y-65260057D01*
X149285714Y-65260057D02*
X149333333Y-65355295D01*
X149333333Y-65355295D02*
X149333333Y-65498152D01*
X149333333Y-65498152D02*
X149285714Y-65593390D01*
X149285714Y-65593390D02*
X149238095Y-65641009D01*
X149238095Y-65641009D02*
X149142857Y-65688628D01*
X149142857Y-65688628D02*
X148761905Y-65688628D01*
X149666667Y-65164819D02*
X150285714Y-65164819D01*
X150285714Y-65164819D02*
X149952381Y-65545771D01*
X149952381Y-65545771D02*
X150095238Y-65545771D01*
X150095238Y-65545771D02*
X150190476Y-65593390D01*
X150190476Y-65593390D02*
X150238095Y-65641009D01*
X150238095Y-65641009D02*
X150285714Y-65736247D01*
X150285714Y-65736247D02*
X150285714Y-65974342D01*
X150285714Y-65974342D02*
X150238095Y-66069580D01*
X150238095Y-66069580D02*
X150190476Y-66117200D01*
X150190476Y-66117200D02*
X150095238Y-66164819D01*
X150095238Y-66164819D02*
X149809524Y-66164819D01*
X149809524Y-66164819D02*
X149714286Y-66117200D01*
X149714286Y-66117200D02*
X149666667Y-66069580D01*
X161454819Y-89809523D02*
X162169104Y-89809523D01*
X162169104Y-89809523D02*
X162311961Y-89857142D01*
X162311961Y-89857142D02*
X162407200Y-89952380D01*
X162407200Y-89952380D02*
X162454819Y-90095237D01*
X162454819Y-90095237D02*
X162454819Y-90190475D01*
X162454819Y-88809523D02*
X162454819Y-89380951D01*
X162454819Y-89095237D02*
X161454819Y-89095237D01*
X161454819Y-89095237D02*
X161597676Y-89190475D01*
X161597676Y-89190475D02*
X161692914Y-89285713D01*
X161692914Y-89285713D02*
X161740533Y-89380951D01*
X161454819Y-88190475D02*
X161454819Y-88095237D01*
X161454819Y-88095237D02*
X161502438Y-87999999D01*
X161502438Y-87999999D02*
X161550057Y-87952380D01*
X161550057Y-87952380D02*
X161645295Y-87904761D01*
X161645295Y-87904761D02*
X161835771Y-87857142D01*
X161835771Y-87857142D02*
X162073866Y-87857142D01*
X162073866Y-87857142D02*
X162264342Y-87904761D01*
X162264342Y-87904761D02*
X162359580Y-87952380D01*
X162359580Y-87952380D02*
X162407200Y-87999999D01*
X162407200Y-87999999D02*
X162454819Y-88095237D01*
X162454819Y-88095237D02*
X162454819Y-88190475D01*
X162454819Y-88190475D02*
X162407200Y-88285713D01*
X162407200Y-88285713D02*
X162359580Y-88333332D01*
X162359580Y-88333332D02*
X162264342Y-88380951D01*
X162264342Y-88380951D02*
X162073866Y-88428570D01*
X162073866Y-88428570D02*
X161835771Y-88428570D01*
X161835771Y-88428570D02*
X161645295Y-88380951D01*
X161645295Y-88380951D02*
X161550057Y-88333332D01*
X161550057Y-88333332D02*
X161502438Y-88285713D01*
X161502438Y-88285713D02*
X161454819Y-88190475D01*
X114839761Y-88614819D02*
X114506428Y-88138628D01*
X114268333Y-88614819D02*
X114268333Y-87614819D01*
X114268333Y-87614819D02*
X114649285Y-87614819D01*
X114649285Y-87614819D02*
X114744523Y-87662438D01*
X114744523Y-87662438D02*
X114792142Y-87710057D01*
X114792142Y-87710057D02*
X114839761Y-87805295D01*
X114839761Y-87805295D02*
X114839761Y-87948152D01*
X114839761Y-87948152D02*
X114792142Y-88043390D01*
X114792142Y-88043390D02*
X114744523Y-88091009D01*
X114744523Y-88091009D02*
X114649285Y-88138628D01*
X114649285Y-88138628D02*
X114268333Y-88138628D01*
X115125476Y-87614819D02*
X115458809Y-88614819D01*
X115458809Y-88614819D02*
X115792142Y-87614819D01*
X116030238Y-87614819D02*
X116649285Y-87614819D01*
X116649285Y-87614819D02*
X116315952Y-87995771D01*
X116315952Y-87995771D02*
X116458809Y-87995771D01*
X116458809Y-87995771D02*
X116554047Y-88043390D01*
X116554047Y-88043390D02*
X116601666Y-88091009D01*
X116601666Y-88091009D02*
X116649285Y-88186247D01*
X116649285Y-88186247D02*
X116649285Y-88424342D01*
X116649285Y-88424342D02*
X116601666Y-88519580D01*
X116601666Y-88519580D02*
X116554047Y-88567200D01*
X116554047Y-88567200D02*
X116458809Y-88614819D01*
X116458809Y-88614819D02*
X116173095Y-88614819D01*
X116173095Y-88614819D02*
X116077857Y-88567200D01*
X116077857Y-88567200D02*
X116030238Y-88519580D01*
X145444761Y-84914819D02*
X145111428Y-84438628D01*
X144873333Y-84914819D02*
X144873333Y-83914819D01*
X144873333Y-83914819D02*
X145254285Y-83914819D01*
X145254285Y-83914819D02*
X145349523Y-83962438D01*
X145349523Y-83962438D02*
X145397142Y-84010057D01*
X145397142Y-84010057D02*
X145444761Y-84105295D01*
X145444761Y-84105295D02*
X145444761Y-84248152D01*
X145444761Y-84248152D02*
X145397142Y-84343390D01*
X145397142Y-84343390D02*
X145349523Y-84391009D01*
X145349523Y-84391009D02*
X145254285Y-84438628D01*
X145254285Y-84438628D02*
X144873333Y-84438628D01*
X145730476Y-83914819D02*
X146063809Y-84914819D01*
X146063809Y-84914819D02*
X146397142Y-83914819D01*
X146682857Y-84010057D02*
X146730476Y-83962438D01*
X146730476Y-83962438D02*
X146825714Y-83914819D01*
X146825714Y-83914819D02*
X147063809Y-83914819D01*
X147063809Y-83914819D02*
X147159047Y-83962438D01*
X147159047Y-83962438D02*
X147206666Y-84010057D01*
X147206666Y-84010057D02*
X147254285Y-84105295D01*
X147254285Y-84105295D02*
X147254285Y-84200533D01*
X147254285Y-84200533D02*
X147206666Y-84343390D01*
X147206666Y-84343390D02*
X146635238Y-84914819D01*
X146635238Y-84914819D02*
X147254285Y-84914819D01*
X141333333Y-52914819D02*
X141000000Y-52438628D01*
X140761905Y-52914819D02*
X140761905Y-51914819D01*
X140761905Y-51914819D02*
X141142857Y-51914819D01*
X141142857Y-51914819D02*
X141238095Y-51962438D01*
X141238095Y-51962438D02*
X141285714Y-52010057D01*
X141285714Y-52010057D02*
X141333333Y-52105295D01*
X141333333Y-52105295D02*
X141333333Y-52248152D01*
X141333333Y-52248152D02*
X141285714Y-52343390D01*
X141285714Y-52343390D02*
X141238095Y-52391009D01*
X141238095Y-52391009D02*
X141142857Y-52438628D01*
X141142857Y-52438628D02*
X140761905Y-52438628D01*
X141904762Y-52343390D02*
X141809524Y-52295771D01*
X141809524Y-52295771D02*
X141761905Y-52248152D01*
X141761905Y-52248152D02*
X141714286Y-52152914D01*
X141714286Y-52152914D02*
X141714286Y-52105295D01*
X141714286Y-52105295D02*
X141761905Y-52010057D01*
X141761905Y-52010057D02*
X141809524Y-51962438D01*
X141809524Y-51962438D02*
X141904762Y-51914819D01*
X141904762Y-51914819D02*
X142095238Y-51914819D01*
X142095238Y-51914819D02*
X142190476Y-51962438D01*
X142190476Y-51962438D02*
X142238095Y-52010057D01*
X142238095Y-52010057D02*
X142285714Y-52105295D01*
X142285714Y-52105295D02*
X142285714Y-52152914D01*
X142285714Y-52152914D02*
X142238095Y-52248152D01*
X142238095Y-52248152D02*
X142190476Y-52295771D01*
X142190476Y-52295771D02*
X142095238Y-52343390D01*
X142095238Y-52343390D02*
X141904762Y-52343390D01*
X141904762Y-52343390D02*
X141809524Y-52391009D01*
X141809524Y-52391009D02*
X141761905Y-52438628D01*
X141761905Y-52438628D02*
X141714286Y-52533866D01*
X141714286Y-52533866D02*
X141714286Y-52724342D01*
X141714286Y-52724342D02*
X141761905Y-52819580D01*
X141761905Y-52819580D02*
X141809524Y-52867200D01*
X141809524Y-52867200D02*
X141904762Y-52914819D01*
X141904762Y-52914819D02*
X142095238Y-52914819D01*
X142095238Y-52914819D02*
X142190476Y-52867200D01*
X142190476Y-52867200D02*
X142238095Y-52819580D01*
X142238095Y-52819580D02*
X142285714Y-52724342D01*
X142285714Y-52724342D02*
X142285714Y-52533866D01*
X142285714Y-52533866D02*
X142238095Y-52438628D01*
X142238095Y-52438628D02*
X142190476Y-52391009D01*
X142190476Y-52391009D02*
X142095238Y-52343390D01*
X89384819Y-72833333D02*
X90099104Y-72833333D01*
X90099104Y-72833333D02*
X90241961Y-72880952D01*
X90241961Y-72880952D02*
X90337200Y-72976190D01*
X90337200Y-72976190D02*
X90384819Y-73119047D01*
X90384819Y-73119047D02*
X90384819Y-73214285D01*
X89384819Y-71928571D02*
X89384819Y-72119047D01*
X89384819Y-72119047D02*
X89432438Y-72214285D01*
X89432438Y-72214285D02*
X89480057Y-72261904D01*
X89480057Y-72261904D02*
X89622914Y-72357142D01*
X89622914Y-72357142D02*
X89813390Y-72404761D01*
X89813390Y-72404761D02*
X90194342Y-72404761D01*
X90194342Y-72404761D02*
X90289580Y-72357142D01*
X90289580Y-72357142D02*
X90337200Y-72309523D01*
X90337200Y-72309523D02*
X90384819Y-72214285D01*
X90384819Y-72214285D02*
X90384819Y-72023809D01*
X90384819Y-72023809D02*
X90337200Y-71928571D01*
X90337200Y-71928571D02*
X90289580Y-71880952D01*
X90289580Y-71880952D02*
X90194342Y-71833333D01*
X90194342Y-71833333D02*
X89956247Y-71833333D01*
X89956247Y-71833333D02*
X89861009Y-71880952D01*
X89861009Y-71880952D02*
X89813390Y-71928571D01*
X89813390Y-71928571D02*
X89765771Y-72023809D01*
X89765771Y-72023809D02*
X89765771Y-72214285D01*
X89765771Y-72214285D02*
X89813390Y-72309523D01*
X89813390Y-72309523D02*
X89861009Y-72357142D01*
X89861009Y-72357142D02*
X89956247Y-72404761D01*
X124357142Y-68454819D02*
X124023809Y-67978628D01*
X123785714Y-68454819D02*
X123785714Y-67454819D01*
X123785714Y-67454819D02*
X124166666Y-67454819D01*
X124166666Y-67454819D02*
X124261904Y-67502438D01*
X124261904Y-67502438D02*
X124309523Y-67550057D01*
X124309523Y-67550057D02*
X124357142Y-67645295D01*
X124357142Y-67645295D02*
X124357142Y-67788152D01*
X124357142Y-67788152D02*
X124309523Y-67883390D01*
X124309523Y-67883390D02*
X124261904Y-67931009D01*
X124261904Y-67931009D02*
X124166666Y-67978628D01*
X124166666Y-67978628D02*
X123785714Y-67978628D01*
X124738095Y-67550057D02*
X124785714Y-67502438D01*
X124785714Y-67502438D02*
X124880952Y-67454819D01*
X124880952Y-67454819D02*
X125119047Y-67454819D01*
X125119047Y-67454819D02*
X125214285Y-67502438D01*
X125214285Y-67502438D02*
X125261904Y-67550057D01*
X125261904Y-67550057D02*
X125309523Y-67645295D01*
X125309523Y-67645295D02*
X125309523Y-67740533D01*
X125309523Y-67740533D02*
X125261904Y-67883390D01*
X125261904Y-67883390D02*
X124690476Y-68454819D01*
X124690476Y-68454819D02*
X125309523Y-68454819D01*
X125642857Y-67454819D02*
X126261904Y-67454819D01*
X126261904Y-67454819D02*
X125928571Y-67835771D01*
X125928571Y-67835771D02*
X126071428Y-67835771D01*
X126071428Y-67835771D02*
X126166666Y-67883390D01*
X126166666Y-67883390D02*
X126214285Y-67931009D01*
X126214285Y-67931009D02*
X126261904Y-68026247D01*
X126261904Y-68026247D02*
X126261904Y-68264342D01*
X126261904Y-68264342D02*
X126214285Y-68359580D01*
X126214285Y-68359580D02*
X126166666Y-68407200D01*
X126166666Y-68407200D02*
X126071428Y-68454819D01*
X126071428Y-68454819D02*
X125785714Y-68454819D01*
X125785714Y-68454819D02*
X125690476Y-68407200D01*
X125690476Y-68407200D02*
X125642857Y-68359580D01*
D11*
%TO.C,J1*%
X126610000Y-96130000D02*
X127940000Y-96130000D01*
X126610000Y-97460000D02*
X126610000Y-96130000D01*
X129210000Y-96130000D02*
X147050000Y-96130000D01*
X129210000Y-98790000D02*
X129210000Y-96130000D01*
X129210000Y-98790000D02*
X147050000Y-98790000D01*
X147050000Y-98790000D02*
X147050000Y-96130000D01*
%TO.C,J3*%
X149470000Y-96130000D02*
X150800000Y-96130000D01*
X149470000Y-97460000D02*
X149470000Y-96130000D01*
X152070000Y-96130000D02*
X164830000Y-96130000D01*
X152070000Y-98790000D02*
X152070000Y-96130000D01*
X152070000Y-98790000D02*
X164830000Y-98790000D01*
X164830000Y-98790000D02*
X164830000Y-96130000D01*
%TO.C,J2*%
X117466000Y-47870000D02*
X118796000Y-47870000D01*
X117466000Y-49200000D02*
X117466000Y-47870000D01*
X120066000Y-47870000D02*
X142986000Y-47870000D01*
X120066000Y-50530000D02*
X120066000Y-47870000D01*
X120066000Y-50530000D02*
X142986000Y-50530000D01*
X142986000Y-50530000D02*
X142986000Y-47870000D01*
%TO.C,J4*%
X144390000Y-47870000D02*
X145720000Y-47870000D01*
X144390000Y-49200000D02*
X144390000Y-47870000D01*
X146990000Y-47870000D02*
X164830000Y-47870000D01*
X146990000Y-50530000D02*
X146990000Y-47870000D01*
X146990000Y-50530000D02*
X164830000Y-50530000D01*
X164830000Y-50530000D02*
X164830000Y-47870000D01*
%TO.C,R9*%
X136580000Y-62583272D02*
G75*
G02*
X138420000Y-62583272I920000J1453272D01*
G01*
%TO.C,R13*%
X128580000Y-62453272D02*
G75*
G02*
X130420000Y-62453272I920000J1453272D01*
G01*
%TO.C,R14*%
X130420000Y-55546728D02*
G75*
G02*
X128580000Y-55546728I-920000J-1453272D01*
G01*
%TO.C,R18*%
X122420000Y-55506728D02*
G75*
G02*
X120580000Y-55506728I-920000J-1453272D01*
G01*
%TO.C,R4*%
X150420000Y-55546728D02*
G75*
G02*
X148580000Y-55546728I-920000J-1453272D01*
G01*
%TO.C,R15*%
X124580000Y-62453272D02*
G75*
G02*
X126420000Y-62453272I920000J1453272D01*
G01*
%TO.C,R19*%
X116580000Y-62453272D02*
G75*
G02*
X118420000Y-62453272I920000J1453272D01*
G01*
%TO.C,C2*%
X126010000Y-71840000D02*
X128750000Y-71840000D01*
X126010000Y-77080000D02*
X126010000Y-71840000D01*
X128750000Y-71840000D02*
X128750000Y-77080000D01*
X128750000Y-77080000D02*
X126010000Y-77080000D01*
%TO.C,R7*%
X140580000Y-62543272D02*
G75*
G02*
X142420000Y-62543272I920000J1453272D01*
G01*
%TO.C,R21*%
X112580000Y-62413272D02*
G75*
G02*
X114420000Y-62413272I920000J1453272D01*
G01*
%TO.C,SW2*%
X157250000Y-64500000D02*
X157250000Y-66000000D01*
X158500000Y-68500000D02*
X163000000Y-68500000D01*
X163000000Y-62000000D02*
X158500000Y-62000000D01*
X164250000Y-66000000D02*
X164250000Y-64500000D01*
%TO.C,R20*%
X118420000Y-55546728D02*
G75*
G02*
X116580000Y-55546728I-920000J-1453272D01*
G01*
%TO.C,R6*%
X146420000Y-55546728D02*
G75*
G02*
X144580000Y-55546728I-920000J-1453272D01*
G01*
%TO.C,J7*%
X121500000Y-84270000D02*
X121500000Y-79080000D01*
X124260000Y-79080000D02*
X121500000Y-79080000D01*
X124260000Y-84270000D02*
X121500000Y-84270000D01*
X124260000Y-84270000D02*
X124260000Y-79080000D01*
X124260000Y-85540000D02*
X124260000Y-86920000D01*
X124260000Y-86920000D02*
X122880000Y-86920000D01*
%TO.C,R10*%
X138420000Y-55506728D02*
G75*
G02*
X136580000Y-55506728I-920000J-1453272D01*
G01*
%TO.C,J5*%
X86470000Y-63670000D02*
X86470000Y-66330000D01*
X104310000Y-63670000D02*
X86470000Y-63670000D01*
X104310000Y-63670000D02*
X104310000Y-66330000D01*
X104310000Y-66330000D02*
X86470000Y-66330000D01*
X106910000Y-65000000D02*
X106910000Y-66330000D01*
X106910000Y-66330000D02*
X105580000Y-66330000D01*
%TO.C,R26*%
X115953272Y-91920000D02*
G75*
G02*
X115953272Y-90080000I-1453272J920000D01*
G01*
%TO.C,J11*%
X156300000Y-70000000D02*
X167300000Y-70000000D01*
X156300000Y-82000000D02*
X156300000Y-70000000D01*
X167300000Y-70000000D02*
X167300000Y-71500000D01*
X167300000Y-71500000D02*
X168500000Y-71500000D01*
X167300000Y-74000000D02*
X167300000Y-78000000D01*
X167300000Y-78000000D02*
X170300000Y-78000000D01*
X167300000Y-80500000D02*
X167300000Y-82000000D01*
X167300000Y-82000000D02*
X156300000Y-82000000D01*
X168500000Y-71500000D02*
X168500000Y-73000000D01*
X168500000Y-73000000D02*
X170300000Y-73000000D01*
X168500000Y-79000000D02*
X168500000Y-80500000D01*
X168500000Y-80500000D02*
X167300000Y-80500000D01*
X170300000Y-73000000D02*
X170300000Y-79000000D01*
X170300000Y-74000000D02*
X167300000Y-74000000D01*
X170300000Y-79000000D02*
X168500000Y-79000000D01*
%TO.C,R5*%
X144580000Y-62543272D02*
G75*
G02*
X146420000Y-62543272I920000J1453272D01*
G01*
%TO.C,C1*%
X142920000Y-71580000D02*
X151080000Y-71580000D01*
X142920000Y-71620000D02*
X151080000Y-71620000D01*
X142921000Y-71540000D02*
X151079000Y-71540000D01*
X142922000Y-71500000D02*
X151078000Y-71500000D01*
X142923000Y-71460000D02*
X151077000Y-71460000D01*
X142925000Y-71420000D02*
X151075000Y-71420000D01*
X142927000Y-71380000D02*
X145960000Y-71380000D01*
X142930000Y-71340000D02*
X145960000Y-71340000D01*
X142932000Y-71300000D02*
X145960000Y-71300000D01*
X142936000Y-71260000D02*
X145960000Y-71260000D01*
X142939000Y-71220000D02*
X145960000Y-71220000D01*
X142944000Y-71180000D02*
X145960000Y-71180000D01*
X142948000Y-71140000D02*
X145960000Y-71140000D01*
X142953000Y-71100000D02*
X145960000Y-71100000D01*
X142958000Y-71060000D02*
X145960000Y-71060000D01*
X142964000Y-71020000D02*
X145960000Y-71020000D01*
X142970000Y-70980000D02*
X145960000Y-70980000D01*
X142977000Y-70940000D02*
X145960000Y-70940000D01*
X142983000Y-70900000D02*
X145960000Y-70900000D01*
X142991000Y-70860000D02*
X145960000Y-70860000D01*
X142998000Y-70820000D02*
X145960000Y-70820000D01*
X143007000Y-70780000D02*
X145960000Y-70780000D01*
X143015000Y-70740000D02*
X145960000Y-70740000D01*
X143024000Y-70700000D02*
X145960000Y-70700000D01*
X143033000Y-70660000D02*
X145960000Y-70660000D01*
X143043000Y-70620000D02*
X145960000Y-70620000D01*
X143053000Y-70580000D02*
X145960000Y-70580000D01*
X143064000Y-70540000D02*
X145960000Y-70540000D01*
X143075000Y-70500000D02*
X145960000Y-70500000D01*
X143087000Y-70460000D02*
X145960000Y-70460000D01*
X143099000Y-70420000D02*
X145960000Y-70420000D01*
X143111000Y-70380000D02*
X145960000Y-70380000D01*
X143124000Y-70340000D02*
X145960000Y-70340000D01*
X143137000Y-70300000D02*
X145960000Y-70300000D01*
X143151000Y-70260000D02*
X145960000Y-70260000D01*
X143165000Y-70220000D02*
X145960000Y-70220000D01*
X143180000Y-70180000D02*
X145960000Y-70180000D01*
X143195000Y-70140000D02*
X145960000Y-70140000D01*
X143211000Y-70100000D02*
X145960000Y-70100000D01*
X143227000Y-70060000D02*
X145960000Y-70060000D01*
X143243000Y-70020000D02*
X145960000Y-70020000D01*
X143260000Y-69980000D02*
X145960000Y-69980000D01*
X143278000Y-69940000D02*
X145960000Y-69940000D01*
X143296000Y-69900000D02*
X145960000Y-69900000D01*
X143315000Y-69860000D02*
X145960000Y-69860000D01*
X143334000Y-69820000D02*
X145960000Y-69820000D01*
X143354000Y-69780000D02*
X145960000Y-69780000D01*
X143374000Y-69740000D02*
X145960000Y-69740000D01*
X143395000Y-69700000D02*
X145960000Y-69700000D01*
X143416000Y-69660000D02*
X145960000Y-69660000D01*
X143438000Y-69620000D02*
X145960000Y-69620000D01*
X143461000Y-69580000D02*
X145960000Y-69580000D01*
X143484000Y-69540000D02*
X145960000Y-69540000D01*
X143507000Y-69500000D02*
X145960000Y-69500000D01*
X143532000Y-69460000D02*
X145960000Y-69460000D01*
X143557000Y-69420000D02*
X145960000Y-69420000D01*
X143582000Y-69380000D02*
X145960000Y-69380000D01*
X143608000Y-69340000D02*
X145960000Y-69340000D01*
X143635000Y-69300000D02*
X150365000Y-69300000D01*
X143663000Y-69260000D02*
X150337000Y-69260000D01*
X143691000Y-69220000D02*
X150309000Y-69220000D01*
X143720000Y-69180000D02*
X150280000Y-69180000D01*
X143750000Y-69140000D02*
X150250000Y-69140000D01*
X143781000Y-69100000D02*
X150219000Y-69100000D01*
X143812000Y-69060000D02*
X150188000Y-69060000D01*
X143844000Y-69020000D02*
X150156000Y-69020000D01*
X143877000Y-68980000D02*
X150123000Y-68980000D01*
X143911000Y-68940000D02*
X150089000Y-68940000D01*
X143945000Y-68900000D02*
X150055000Y-68900000D01*
X143981000Y-68860000D02*
X150019000Y-68860000D01*
X144018000Y-68820000D02*
X149982000Y-68820000D01*
X144055000Y-68780000D02*
X149945000Y-68780000D01*
X144094000Y-68740000D02*
X149906000Y-68740000D01*
X144133000Y-68700000D02*
X149867000Y-68700000D01*
X144174000Y-68660000D02*
X149826000Y-68660000D01*
X144216000Y-68620000D02*
X149784000Y-68620000D01*
X144259000Y-68580000D02*
X149741000Y-68580000D01*
X144285000Y-75629698D02*
X145085000Y-75629698D01*
X144304000Y-68540000D02*
X149696000Y-68540000D01*
X144349000Y-68500000D02*
X149651000Y-68500000D01*
X144396000Y-68460000D02*
X149604000Y-68460000D01*
X144445000Y-68420000D02*
X149555000Y-68420000D01*
X144495000Y-68380000D02*
X149505000Y-68380000D01*
X144547000Y-68340000D02*
X149453000Y-68340000D01*
X144600000Y-68300000D02*
X149400000Y-68300000D01*
X144656000Y-68260000D02*
X149344000Y-68260000D01*
X144685000Y-76029698D02*
X144685000Y-75229698D01*
X144713000Y-68220000D02*
X149287000Y-68220000D01*
X144773000Y-68180000D02*
X149227000Y-68180000D01*
X144835000Y-68140000D02*
X149165000Y-68140000D01*
X144899000Y-68100000D02*
X149101000Y-68100000D01*
X144966000Y-68060000D02*
X149034000Y-68060000D01*
X145036000Y-68020000D02*
X148964000Y-68020000D01*
X145110000Y-67980000D02*
X148890000Y-67980000D01*
X145187000Y-67940000D02*
X148813000Y-67940000D01*
X145269000Y-67900000D02*
X148731000Y-67900000D01*
X145356000Y-67860000D02*
X148644000Y-67860000D01*
X145448000Y-67820000D02*
X148552000Y-67820000D01*
X145547000Y-67780000D02*
X148453000Y-67780000D01*
X145654000Y-67740000D02*
X148346000Y-67740000D01*
X145772000Y-67700000D02*
X148228000Y-67700000D01*
X145903000Y-67660000D02*
X148097000Y-67660000D01*
X146053000Y-67620000D02*
X147947000Y-67620000D01*
X146232000Y-67580000D02*
X147768000Y-67580000D01*
X146467000Y-67540000D02*
X147533000Y-67540000D01*
X148040000Y-69340000D02*
X150392000Y-69340000D01*
X148040000Y-69380000D02*
X150418000Y-69380000D01*
X148040000Y-69420000D02*
X150443000Y-69420000D01*
X148040000Y-69460000D02*
X150468000Y-69460000D01*
X148040000Y-69500000D02*
X150493000Y-69500000D01*
X148040000Y-69540000D02*
X150516000Y-69540000D01*
X148040000Y-69580000D02*
X150539000Y-69580000D01*
X148040000Y-69620000D02*
X150562000Y-69620000D01*
X148040000Y-69660000D02*
X150584000Y-69660000D01*
X148040000Y-69700000D02*
X150605000Y-69700000D01*
X148040000Y-69740000D02*
X150626000Y-69740000D01*
X148040000Y-69780000D02*
X150646000Y-69780000D01*
X148040000Y-69820000D02*
X150666000Y-69820000D01*
X148040000Y-69860000D02*
X150685000Y-69860000D01*
X148040000Y-69900000D02*
X150704000Y-69900000D01*
X148040000Y-69940000D02*
X150722000Y-69940000D01*
X148040000Y-69980000D02*
X150740000Y-69980000D01*
X148040000Y-70020000D02*
X150757000Y-70020000D01*
X148040000Y-70060000D02*
X150773000Y-70060000D01*
X148040000Y-70100000D02*
X150789000Y-70100000D01*
X148040000Y-70140000D02*
X150805000Y-70140000D01*
X148040000Y-70180000D02*
X150820000Y-70180000D01*
X148040000Y-70220000D02*
X150835000Y-70220000D01*
X148040000Y-70260000D02*
X150849000Y-70260000D01*
X148040000Y-70300000D02*
X150863000Y-70300000D01*
X148040000Y-70340000D02*
X150876000Y-70340000D01*
X148040000Y-70380000D02*
X150889000Y-70380000D01*
X148040000Y-70420000D02*
X150901000Y-70420000D01*
X148040000Y-70460000D02*
X150913000Y-70460000D01*
X148040000Y-70500000D02*
X150925000Y-70500000D01*
X148040000Y-70540000D02*
X150936000Y-70540000D01*
X148040000Y-70580000D02*
X150947000Y-70580000D01*
X148040000Y-70620000D02*
X150957000Y-70620000D01*
X148040000Y-70660000D02*
X150967000Y-70660000D01*
X148040000Y-70700000D02*
X150976000Y-70700000D01*
X148040000Y-70740000D02*
X150985000Y-70740000D01*
X148040000Y-70780000D02*
X150993000Y-70780000D01*
X148040000Y-70820000D02*
X151002000Y-70820000D01*
X148040000Y-70860000D02*
X151009000Y-70860000D01*
X148040000Y-70900000D02*
X151017000Y-70900000D01*
X148040000Y-70940000D02*
X151023000Y-70940000D01*
X148040000Y-70980000D02*
X151030000Y-70980000D01*
X148040000Y-71020000D02*
X151036000Y-71020000D01*
X148040000Y-71060000D02*
X151042000Y-71060000D01*
X148040000Y-71100000D02*
X151047000Y-71100000D01*
X148040000Y-71140000D02*
X151052000Y-71140000D01*
X148040000Y-71180000D02*
X151056000Y-71180000D01*
X148040000Y-71220000D02*
X151061000Y-71220000D01*
X148040000Y-71260000D02*
X151064000Y-71260000D01*
X148040000Y-71300000D02*
X151068000Y-71300000D01*
X148040000Y-71340000D02*
X151070000Y-71340000D01*
X148040000Y-71380000D02*
X151073000Y-71380000D01*
X151120000Y-71620000D02*
G75*
G02*
X142880000Y-71620000I-4120000J0D01*
G01*
X142880000Y-71620000D02*
G75*
G02*
X151120000Y-71620000I4120000J0D01*
G01*
%TO.C,R24*%
X122460000Y-74913272D02*
G75*
G02*
X124300000Y-74913272I920000J1453272D01*
G01*
%TO.C,R12*%
X134420000Y-55506728D02*
G75*
G02*
X132580000Y-55506728I-920000J-1453272D01*
G01*
%TO.C,SW1*%
X157250000Y-56000000D02*
X157250000Y-57500000D01*
X158500000Y-60000000D02*
X163000000Y-60000000D01*
X163000000Y-53500000D02*
X158500000Y-53500000D01*
X164250000Y-57500000D02*
X164250000Y-56000000D01*
%TO.C,R11*%
X132580000Y-62583272D02*
G75*
G02*
X134420000Y-62583272I920000J1453272D01*
G01*
%TO.C,R22*%
X114420000Y-55506728D02*
G75*
G02*
X112580000Y-55506728I-920000J-1453272D01*
G01*
%TO.C,J12*%
X152120000Y-90730000D02*
X152120000Y-85540000D01*
X154880000Y-85540000D02*
X152120000Y-85540000D01*
X154880000Y-90730000D02*
X152120000Y-90730000D01*
X154880000Y-90730000D02*
X154880000Y-85540000D01*
X154880000Y-92000000D02*
X154880000Y-93380000D01*
X154880000Y-93380000D02*
X153500000Y-93380000D01*
%TO.C,R1*%
X152580000Y-57083272D02*
G75*
G02*
X154420000Y-57083272I920000J1453272D01*
G01*
%TO.C,R27*%
X134546728Y-68080000D02*
G75*
G02*
X134546728Y-69920000I1453272J-920000D01*
G01*
%TO.C,R17*%
X120580000Y-62413272D02*
G75*
G02*
X122420000Y-62413272I920000J1453272D01*
G01*
%TO.C,R25*%
X116333272Y-75880000D02*
G75*
G02*
X116333272Y-74040000I-1453272J920000D01*
G01*
%TO.C,R16*%
X126420000Y-55546728D02*
G75*
G02*
X124580000Y-55546728I-920000J-1453272D01*
G01*
%TO.C,RV1*%
X130610000Y-85085000D02*
X140360000Y-85085000D01*
X130610000Y-94835000D02*
X130610000Y-85085000D01*
X140360000Y-85085000D02*
X140360000Y-94835000D01*
X140360000Y-94835000D02*
X130610000Y-94835000D01*
%TO.C,R2*%
X152580000Y-65913272D02*
G75*
G02*
X154420000Y-65913272I920000J1453272D01*
G01*
%TO.C,U1*%
X132940000Y-72090000D02*
X132940000Y-82370000D01*
X132940000Y-82370000D02*
X137440000Y-82370000D01*
X134190000Y-72090000D02*
X132940000Y-72090000D01*
X137440000Y-72090000D02*
X136190000Y-72090000D01*
X137440000Y-82370000D02*
X137440000Y-72090000D01*
X129940000Y-72030000D02*
X140440000Y-72030000D01*
X140440000Y-82430000D01*
X129940000Y-82430000D01*
X129940000Y-72030000D01*
X136190000Y-72090000D02*
G75*
G02*
X134190000Y-72090000I-1000000J0D01*
G01*
%TO.C,J9*%
X152120000Y-72120000D02*
X153500000Y-72120000D01*
X152120000Y-73500000D02*
X152120000Y-72120000D01*
X152120000Y-74770000D02*
X152120000Y-79960000D01*
X152120000Y-74770000D02*
X154880000Y-74770000D01*
X152120000Y-79960000D02*
X154880000Y-79960000D01*
X154880000Y-74770000D02*
X154880000Y-79960000D01*
%TO.C,R3*%
X148580000Y-62623272D02*
G75*
G02*
X150420000Y-62623272I920000J1453272D01*
G01*
%TO.C,J10*%
X156300000Y-83000000D02*
X167300000Y-83000000D01*
X156300000Y-95000000D02*
X156300000Y-83000000D01*
X167300000Y-83000000D02*
X167300000Y-84500000D01*
X167300000Y-84500000D02*
X168500000Y-84500000D01*
X167300000Y-87000000D02*
X167300000Y-91000000D01*
X167300000Y-91000000D02*
X170300000Y-91000000D01*
X167300000Y-93500000D02*
X167300000Y-95000000D01*
X167300000Y-95000000D02*
X156300000Y-95000000D01*
X168500000Y-84500000D02*
X168500000Y-86000000D01*
X168500000Y-86000000D02*
X170300000Y-86000000D01*
X168500000Y-92000000D02*
X168500000Y-93500000D01*
X168500000Y-93500000D02*
X167300000Y-93500000D01*
X170300000Y-86000000D02*
X170300000Y-92000000D01*
X170300000Y-87000000D02*
X167300000Y-87000000D01*
X170300000Y-92000000D02*
X168500000Y-92000000D01*
%TO.C,RV3*%
X110560000Y-77585000D02*
X120310000Y-77585000D01*
X110560000Y-87335000D02*
X110560000Y-77585000D01*
X120310000Y-77585000D02*
X120310000Y-87335000D01*
X120310000Y-87335000D02*
X110560000Y-87335000D01*
%TO.C,RV2*%
X141110000Y-85085000D02*
X150860000Y-85085000D01*
X141110000Y-94835000D02*
X141110000Y-85085000D01*
X150860000Y-85085000D02*
X150860000Y-94835000D01*
X150860000Y-94835000D02*
X141110000Y-94835000D01*
%TO.C,R8*%
X142420000Y-55506728D02*
G75*
G02*
X140580000Y-55506728I-920000J-1453272D01*
G01*
%TO.C,J6*%
X91500000Y-73880000D02*
X91500000Y-72500000D01*
X92880000Y-73880000D02*
X91500000Y-73880000D01*
X94150000Y-71120000D02*
X101880000Y-71120000D01*
X94150000Y-73880000D02*
X94150000Y-71120000D01*
X94150000Y-73880000D02*
X101880000Y-73880000D01*
X101880000Y-73880000D02*
X101880000Y-71120000D01*
%TO.C,R23*%
X120046728Y-67080000D02*
G75*
G02*
X120046728Y-68920000I1453272J-920000D01*
G01*
%TD*%
M02*
