%TF.GenerationSoftware,KiCad,Pcbnew,9.0.7*%
%TF.CreationDate,2026-02-04T14:21:25-07:00*%
%TF.ProjectId,Uno_Shield_DSP_Class_v1,556e6f5f-5368-4696-956c-645f4453505f,rev?*%
%TF.SameCoordinates,Original*%
%TF.FileFunction,Soldermask,Top*%
%TF.FilePolarity,Negative*%
%FSLAX46Y46*%
G04 Gerber Fmt 4.6, Leading zero omitted, Abs format (unit mm)*
G04 Created by KiCad (PCBNEW 9.0.7) date 2026-02-04 14:21:25*
%MOMM*%
%LPD*%
G01*
G04 APERTURE LIST*
G04 Aperture macros list*
%AMRoundRect*
0 Rectangle with rounded corners*
0 $1 Rounding radius*
0 $2 $3 $4 $5 $6 $7 $8 $9 X,Y pos of 4 corners*
0 Add a 4 corners polygon primitive as box body*
4,1,4,$2,$3,$4,$5,$6,$7,$8,$9,$2,$3,0*
0 Add four circle primitives for the rounded corners*
1,1,$1+$1,$2,$3*
1,1,$1+$1,$4,$5*
1,1,$1+$1,$6,$7*
1,1,$1+$1,$8,$9*
0 Add four rect primitives between the rounded corners*
20,1,$1+$1,$2,$3,$4,$5,0*
20,1,$1+$1,$4,$5,$6,$7,0*
20,1,$1+$1,$6,$7,$8,$9,0*
20,1,$1+$1,$8,$9,$2,$3,0*%
G04 Aperture macros list end*
%ADD10R,1.700000X1.700000*%
%ADD11O,1.700000X1.700000*%
%ADD12C,1.600000*%
%ADD13C,2.000000*%
%ADD14C,1.700000*%
%ADD15C,1.200000*%
%ADD16O,2.200000X1.200000*%
%ADD17O,2.300000X1.600000*%
%ADD18O,1.200000X2.200000*%
%ADD19O,2.500000X1.600000*%
%ADD20RoundRect,0.250000X0.550000X-0.550000X0.550000X0.550000X-0.550000X0.550000X-0.550000X-0.550000X0*%
%ADD21C,1.440000*%
%ADD22RoundRect,0.250000X-0.950000X-0.550000X0.950000X-0.550000X0.950000X0.550000X-0.950000X0.550000X0*%
%ADD23O,2.400000X1.600000*%
G04 APERTURE END LIST*
D10*
%TO.C,J1*%
X127940000Y-97460000D03*
D11*
X130480000Y-97460000D03*
X133020000Y-97460000D03*
X135560000Y-97460000D03*
X138100000Y-97460000D03*
X140640000Y-97460000D03*
X143180000Y-97460000D03*
X145720000Y-97460000D03*
%TD*%
D10*
%TO.C,J3*%
X150800000Y-97460000D03*
D11*
X153340000Y-97460000D03*
X155880000Y-97460000D03*
X158420000Y-97460000D03*
X160960000Y-97460000D03*
X163500000Y-97460000D03*
%TD*%
D10*
%TO.C,J2*%
X118796000Y-49200000D03*
D11*
X121336000Y-49200000D03*
X123876000Y-49200000D03*
X126416000Y-49200000D03*
X128956000Y-49200000D03*
X131496000Y-49200000D03*
X134036000Y-49200000D03*
X136576000Y-49200000D03*
X139116000Y-49200000D03*
X141656000Y-49200000D03*
%TD*%
D10*
%TO.C,J4*%
X145720000Y-49200000D03*
D11*
X148260000Y-49200000D03*
X150800000Y-49200000D03*
X153340000Y-49200000D03*
X155880000Y-49200000D03*
X158420000Y-49200000D03*
X160960000Y-49200000D03*
X163500000Y-49200000D03*
%TD*%
D12*
%TO.C,R9*%
X137500000Y-61130000D03*
X137500000Y-63670000D03*
%TD*%
%TO.C,R13*%
X129500000Y-61000000D03*
X129500000Y-63540000D03*
%TD*%
%TO.C,R14*%
X129500000Y-57000000D03*
X129500000Y-54460000D03*
%TD*%
%TO.C,R18*%
X121500000Y-56960000D03*
X121500000Y-54420000D03*
%TD*%
%TO.C,R4*%
X149500000Y-57000000D03*
X149500000Y-54460000D03*
%TD*%
%TO.C,R15*%
X125500000Y-61000000D03*
X125500000Y-63540000D03*
%TD*%
%TO.C,R19*%
X117500000Y-61000000D03*
X117500000Y-63540000D03*
%TD*%
%TO.C,C2*%
X127380000Y-75710000D03*
X127380000Y-73210000D03*
%TD*%
%TO.C,R7*%
X141500000Y-61090000D03*
X141500000Y-63630000D03*
%TD*%
%TO.C,R21*%
X113500000Y-60960000D03*
X113500000Y-63500000D03*
%TD*%
D13*
%TO.C,SW2*%
X164000000Y-67500000D03*
X157500000Y-67500000D03*
X164000000Y-63000000D03*
X157500000Y-63000000D03*
%TD*%
D12*
%TO.C,R20*%
X117500000Y-57000000D03*
X117500000Y-54460000D03*
%TD*%
%TO.C,R6*%
X145500000Y-57000000D03*
X145500000Y-54460000D03*
%TD*%
D10*
%TO.C,J7*%
X122880000Y-85540000D03*
D14*
X122880000Y-83000000D03*
X122880000Y-80460000D03*
%TD*%
D12*
%TO.C,R10*%
X137500000Y-56960000D03*
X137500000Y-54420000D03*
%TD*%
D10*
%TO.C,J5*%
X105580000Y-65000000D03*
D14*
X103040000Y-65000000D03*
X100500000Y-65000000D03*
X97960000Y-65000000D03*
X95420000Y-65000000D03*
X92880000Y-65000000D03*
X90340000Y-65000000D03*
X87800000Y-65000000D03*
%TD*%
D12*
%TO.C,R26*%
X114500000Y-91000000D03*
X117040000Y-91000000D03*
%TD*%
D15*
%TO.C,J11*%
X164000000Y-81000000D03*
X166500000Y-81000000D03*
X159000000Y-76000000D03*
X164000000Y-71000000D03*
X166500000Y-71000000D03*
D16*
X159000000Y-81000000D03*
D17*
X159000000Y-78500000D03*
D18*
X164000000Y-76000000D03*
D16*
X159000000Y-71000000D03*
D19*
X159000000Y-73500000D03*
%TD*%
D12*
%TO.C,R5*%
X145500000Y-61090000D03*
X145500000Y-63630000D03*
%TD*%
D20*
%TO.C,C1*%
X147000000Y-72870000D03*
D12*
X147000000Y-70370000D03*
%TD*%
%TO.C,R24*%
X123380000Y-73460000D03*
X123380000Y-76000000D03*
%TD*%
%TO.C,R12*%
X133500000Y-56960000D03*
X133500000Y-54420000D03*
%TD*%
D13*
%TO.C,SW1*%
X164000000Y-59000000D03*
X157500000Y-59000000D03*
X164000000Y-54500000D03*
X157500000Y-54500000D03*
%TD*%
D12*
%TO.C,R11*%
X133500000Y-61130000D03*
X133500000Y-63670000D03*
%TD*%
%TO.C,R22*%
X113500000Y-56960000D03*
X113500000Y-54420000D03*
%TD*%
D10*
%TO.C,J12*%
X153500000Y-92000000D03*
D14*
X153500000Y-89460000D03*
X153500000Y-86920000D03*
%TD*%
D12*
%TO.C,R1*%
X153500000Y-55630000D03*
X153500000Y-58170000D03*
%TD*%
%TO.C,R27*%
X136000000Y-69000000D03*
X133460000Y-69000000D03*
%TD*%
%TO.C,R17*%
X121500000Y-60960000D03*
X121500000Y-63500000D03*
%TD*%
%TO.C,R25*%
X114880000Y-74960000D03*
X117420000Y-74960000D03*
%TD*%
%TO.C,R16*%
X125500000Y-57000000D03*
X125500000Y-54460000D03*
%TD*%
D21*
%TO.C,RV1*%
X135500000Y-92500000D03*
X138040000Y-89960000D03*
X135500000Y-87420000D03*
%TD*%
D12*
%TO.C,R2*%
X153500000Y-64460000D03*
X153500000Y-67000000D03*
%TD*%
D22*
%TO.C,U1*%
X131380000Y-73420000D03*
D23*
X131380000Y-75960000D03*
X131380000Y-78500000D03*
X131380000Y-81040000D03*
X139000000Y-81040000D03*
X139000000Y-78500000D03*
X139000000Y-75960000D03*
X139000000Y-73420000D03*
%TD*%
D10*
%TO.C,J9*%
X153500000Y-73500000D03*
D14*
X153500000Y-76040000D03*
X153500000Y-78580000D03*
%TD*%
D12*
%TO.C,R3*%
X149500000Y-61170000D03*
X149500000Y-63710000D03*
%TD*%
D15*
%TO.C,J10*%
X164000000Y-94000000D03*
X166500000Y-94000000D03*
X159000000Y-89000000D03*
X164000000Y-84000000D03*
X166500000Y-84000000D03*
D16*
X159000000Y-94000000D03*
D17*
X159000000Y-91500000D03*
D18*
X164000000Y-89000000D03*
D16*
X159000000Y-84000000D03*
D19*
X159000000Y-86500000D03*
%TD*%
D21*
%TO.C,RV3*%
X115420000Y-79920000D03*
X112880000Y-82460000D03*
X115420000Y-85000000D03*
%TD*%
%TO.C,RV2*%
X146000000Y-92500000D03*
X148540000Y-89960000D03*
X146000000Y-87420000D03*
%TD*%
D12*
%TO.C,R8*%
X141500000Y-56960000D03*
X141500000Y-54420000D03*
%TD*%
D10*
%TO.C,J6*%
X92880000Y-72500000D03*
D14*
X95420000Y-72500000D03*
X97960000Y-72500000D03*
X100500000Y-72500000D03*
%TD*%
D12*
%TO.C,R23*%
X121500000Y-68000000D03*
X118960000Y-68000000D03*
%TD*%
M02*
