%TF.GenerationSoftware,KiCad,Pcbnew,9.0.7*%
%TF.CreationDate,2026-02-04T14:21:24-07:00*%
%TF.ProjectId,Uno_Shield_DSP_Class_v1,556e6f5f-5368-4696-956c-645f4453505f,rev?*%
%TF.SameCoordinates,Original*%
%TF.FileFunction,Copper,L1,Top*%
%TF.FilePolarity,Positive*%
%FSLAX46Y46*%
G04 Gerber Fmt 4.6, Leading zero omitted, Abs format (unit mm)*
G04 Created by KiCad (PCBNEW 9.0.7) date 2026-02-04 14:21:24*
%MOMM*%
%LPD*%
G01*
G04 APERTURE LIST*
G04 Aperture macros list*
%AMRoundRect*
0 Rectangle with rounded corners*
0 $1 Rounding radius*
0 $2 $3 $4 $5 $6 $7 $8 $9 X,Y pos of 4 corners*
0 Add a 4 corners polygon primitive as box body*
4,1,4,$2,$3,$4,$5,$6,$7,$8,$9,$2,$3,0*
0 Add four circle primitives for the rounded corners*
1,1,$1+$1,$2,$3*
1,1,$1+$1,$4,$5*
1,1,$1+$1,$6,$7*
1,1,$1+$1,$8,$9*
0 Add four rect primitives between the rounded corners*
20,1,$1+$1,$2,$3,$4,$5,0*
20,1,$1+$1,$4,$5,$6,$7,0*
20,1,$1+$1,$6,$7,$8,$9,0*
20,1,$1+$1,$8,$9,$2,$3,0*%
G04 Aperture macros list end*
%TA.AperFunction,ComponentPad*%
%ADD10R,1.700000X1.700000*%
%TD*%
%TA.AperFunction,ComponentPad*%
%ADD11O,1.700000X1.700000*%
%TD*%
%TA.AperFunction,ComponentPad*%
%ADD12C,1.600000*%
%TD*%
%TA.AperFunction,ComponentPad*%
%ADD13C,2.000000*%
%TD*%
%TA.AperFunction,ComponentPad*%
%ADD14C,1.700000*%
%TD*%
%TA.AperFunction,ComponentPad*%
%ADD15O,2.200000X1.200000*%
%TD*%
%TA.AperFunction,ComponentPad*%
%ADD16O,2.300000X1.600000*%
%TD*%
%TA.AperFunction,ComponentPad*%
%ADD17O,1.200000X2.200000*%
%TD*%
%TA.AperFunction,ComponentPad*%
%ADD18O,2.500000X1.600000*%
%TD*%
%TA.AperFunction,ComponentPad*%
%ADD19RoundRect,0.250000X0.550000X-0.550000X0.550000X0.550000X-0.550000X0.550000X-0.550000X-0.550000X0*%
%TD*%
%TA.AperFunction,ComponentPad*%
%ADD20C,1.440000*%
%TD*%
%TA.AperFunction,ComponentPad*%
%ADD21RoundRect,0.250000X-0.950000X-0.550000X0.950000X-0.550000X0.950000X0.550000X-0.950000X0.550000X0*%
%TD*%
%TA.AperFunction,ComponentPad*%
%ADD22O,2.400000X1.600000*%
%TD*%
%TA.AperFunction,Conductor*%
%ADD23C,0.250000*%
%TD*%
G04 APERTURE END LIST*
D10*
%TO.P,J1,1,Pin_1*%
%TO.N,unconnected-(J1-Pin_1-Pad1)*%
X127940000Y-97460000D03*
D11*
%TO.P,J1,2,Pin_2*%
%TO.N,/IOREF*%
X130480000Y-97460000D03*
%TO.P,J1,3,Pin_3*%
%TO.N,/~{RESET}*%
X133020000Y-97460000D03*
%TO.P,J1,4,Pin_4*%
%TO.N,+3V3*%
X135560000Y-97460000D03*
%TO.P,J1,5,Pin_5*%
%TO.N,+5V*%
X138100000Y-97460000D03*
%TO.P,J1,6,Pin_6*%
%TO.N,GND*%
X140640000Y-97460000D03*
%TO.P,J1,7,Pin_7*%
X143180000Y-97460000D03*
%TO.P,J1,8,Pin_8*%
%TO.N,VCC*%
X145720000Y-97460000D03*
%TD*%
D10*
%TO.P,J3,1,Pin_1*%
%TO.N,/A0*%
X150800000Y-97460000D03*
D11*
%TO.P,J3,2,Pin_2*%
%TO.N,/A1*%
X153340000Y-97460000D03*
%TO.P,J3,3,Pin_3*%
%TO.N,/IN_RIGHT*%
X155880000Y-97460000D03*
%TO.P,J3,4,Pin_4*%
%TO.N,/IN_LEFT*%
X158420000Y-97460000D03*
%TO.P,J3,5,Pin_5*%
%TO.N,/SDA{slash}A4*%
X160960000Y-97460000D03*
%TO.P,J3,6,Pin_6*%
%TO.N,/SCL{slash}A5*%
X163500000Y-97460000D03*
%TD*%
D10*
%TO.P,J2,1,Pin_1*%
%TO.N,/SCL*%
X118796000Y-49200000D03*
D11*
%TO.P,J2,2,Pin_2*%
%TO.N,/SDA*%
X121336000Y-49200000D03*
%TO.P,J2,3,Pin_3*%
%TO.N,/AREF*%
X123876000Y-49200000D03*
%TO.P,J2,4,Pin_4*%
%TO.N,GND*%
X126416000Y-49200000D03*
%TO.P,J2,5,Pin_5*%
%TO.N,/D9*%
X128956000Y-49200000D03*
%TO.P,J2,6,Pin_6*%
%TO.N,/D8*%
X131496000Y-49200000D03*
%TO.P,J2,7,Pin_7*%
%TO.N,/D7*%
X134036000Y-49200000D03*
%TO.P,J2,8,Pin_8*%
%TO.N,/D6*%
X136576000Y-49200000D03*
%TO.P,J2,9,Pin_9*%
%TO.N,/D5*%
X139116000Y-49200000D03*
%TO.P,J2,10,Pin_10*%
%TO.N,/D4*%
X141656000Y-49200000D03*
%TD*%
D10*
%TO.P,J4,1,Pin_1*%
%TO.N,/D3*%
X145720000Y-49200000D03*
D11*
%TO.P,J4,2,Pin_2*%
%TO.N,/D2*%
X148260000Y-49200000D03*
%TO.P,J4,3,Pin_3*%
%TO.N,/D1*%
X150800000Y-49200000D03*
%TO.P,J4,4,Pin_4*%
%TO.N,/D0*%
X153340000Y-49200000D03*
%TO.P,J4,5,Pin_5*%
%TO.N,/BT2*%
X155880000Y-49200000D03*
%TO.P,J4,6,Pin_6*%
%TO.N,/BT1*%
X158420000Y-49200000D03*
%TO.P,J4,7,Pin_7*%
%TO.N,/TX{slash}1*%
X160960000Y-49200000D03*
%TO.P,J4,8,Pin_8*%
%TO.N,/RX{slash}0*%
X163500000Y-49200000D03*
%TD*%
D12*
%TO.P,R9,1*%
%TO.N,Net-(R10-Pad1)*%
X137500000Y-61130000D03*
%TO.P,R9,2*%
%TO.N,Net-(R7-Pad1)*%
X137500000Y-63670000D03*
%TD*%
%TO.P,R13,1*%
%TO.N,Net-(R13-Pad1)*%
X129500000Y-61000000D03*
%TO.P,R13,2*%
%TO.N,Net-(R11-Pad1)*%
X129500000Y-63540000D03*
%TD*%
%TO.P,R14,1*%
%TO.N,Net-(R13-Pad1)*%
X129500000Y-57000000D03*
%TO.P,R14,2*%
%TO.N,/D5*%
X129500000Y-54460000D03*
%TD*%
%TO.P,R18,1*%
%TO.N,Net-(R17-Pad1)*%
X121500000Y-56960000D03*
%TO.P,R18,2*%
%TO.N,/D7*%
X121500000Y-54420000D03*
%TD*%
%TO.P,R4,1*%
%TO.N,Net-(R3-Pad2)*%
X149500000Y-57000000D03*
%TO.P,R4,2*%
%TO.N,/D0*%
X149500000Y-54460000D03*
%TD*%
%TO.P,R15,1*%
%TO.N,Net-(R15-Pad1)*%
X125500000Y-61000000D03*
%TO.P,R15,2*%
%TO.N,Net-(R13-Pad1)*%
X125500000Y-63540000D03*
%TD*%
%TO.P,R19,1*%
%TO.N,Net-(R19-Pad1)*%
X117500000Y-61000000D03*
%TO.P,R19,2*%
%TO.N,Net-(R17-Pad1)*%
X117500000Y-63540000D03*
%TD*%
%TO.P,C2,1*%
%TO.N,Net-(U1A--)*%
X127380000Y-75710000D03*
%TO.P,C2,2*%
%TO.N,Net-(C2-Pad2)*%
X127380000Y-73210000D03*
%TD*%
%TO.P,R7,1*%
%TO.N,Net-(R7-Pad1)*%
X141500000Y-61090000D03*
%TO.P,R7,2*%
%TO.N,Net-(R5-Pad1)*%
X141500000Y-63630000D03*
%TD*%
%TO.P,R21,1*%
%TO.N,Net-(R21-Pad1)*%
X113500000Y-60960000D03*
%TO.P,R21,2*%
%TO.N,Net-(R19-Pad1)*%
X113500000Y-63500000D03*
%TD*%
D13*
%TO.P,SW2,1,1*%
%TO.N,+5V*%
X164000000Y-67500000D03*
X157500000Y-67500000D03*
%TO.P,SW2,2,2*%
%TO.N,/BT2*%
X164000000Y-63000000D03*
X157500000Y-63000000D03*
%TD*%
D12*
%TO.P,R20,1*%
%TO.N,Net-(R19-Pad1)*%
X117500000Y-57000000D03*
%TO.P,R20,2*%
%TO.N,/D8*%
X117500000Y-54460000D03*
%TD*%
%TO.P,R6,1*%
%TO.N,Net-(R5-Pad1)*%
X145500000Y-57000000D03*
%TO.P,R6,2*%
%TO.N,/D1*%
X145500000Y-54460000D03*
%TD*%
D10*
%TO.P,J7,1,Pin_1*%
%TO.N,/AUDIO_OUT*%
X122880000Y-85540000D03*
D14*
%TO.P,J7,2,Pin_2*%
X122880000Y-83000000D03*
%TO.P,J7,3,Pin_3*%
%TO.N,GND*%
X122880000Y-80460000D03*
%TD*%
D12*
%TO.P,R10,1*%
%TO.N,Net-(R10-Pad1)*%
X137500000Y-56960000D03*
%TO.P,R10,2*%
%TO.N,/D3*%
X137500000Y-54420000D03*
%TD*%
D10*
%TO.P,J5,1,Pin_1*%
%TO.N,unconnected-(J5-Pin_1-Pad1)*%
X105580000Y-65000000D03*
D14*
%TO.P,J5,2,Pin_2*%
%TO.N,unconnected-(J5-Pin_2-Pad2)*%
X103040000Y-65000000D03*
%TO.P,J5,3,Pin_3*%
%TO.N,unconnected-(J5-Pin_3-Pad3)*%
X100500000Y-65000000D03*
%TO.P,J5,4,Pin_4*%
%TO.N,unconnected-(J5-Pin_4-Pad4)*%
X97960000Y-65000000D03*
%TO.P,J5,5,Pin_5*%
%TO.N,/SDA*%
X95420000Y-65000000D03*
%TO.P,J5,6,Pin_6*%
%TO.N,/SCL*%
X92880000Y-65000000D03*
%TO.P,J5,7,Pin_7*%
%TO.N,GND*%
X90340000Y-65000000D03*
%TO.P,J5,8,Pin_8*%
%TO.N,+5V*%
X87800000Y-65000000D03*
%TD*%
D12*
%TO.P,R26,1*%
%TO.N,Net-(R26-Pad1)*%
X114500000Y-91000000D03*
%TO.P,R26,2*%
%TO.N,GND*%
X117040000Y-91000000D03*
%TD*%
D15*
%TO.P,J11,R*%
%TO.N,/AUDIO_OUT*%
X159000000Y-81000000D03*
D16*
%TO.P,J11,RN*%
X159000000Y-78500000D03*
D17*
%TO.P,J11,S*%
%TO.N,GND*%
X164000000Y-76000000D03*
D15*
%TO.P,J11,T*%
%TO.N,/AUDIO_OUT*%
X159000000Y-71000000D03*
D18*
%TO.P,J11,TN*%
X159000000Y-73500000D03*
%TD*%
D12*
%TO.P,R5,1*%
%TO.N,Net-(R5-Pad1)*%
X145500000Y-61090000D03*
%TO.P,R5,2*%
%TO.N,Net-(R3-Pad2)*%
X145500000Y-63630000D03*
%TD*%
D19*
%TO.P,C1,1*%
%TO.N,+5V*%
X147000000Y-72870000D03*
D12*
%TO.P,C1,2*%
%TO.N,GND*%
X147000000Y-70370000D03*
%TD*%
%TO.P,R24,1*%
%TO.N,Net-(C2-Pad2)*%
X123380000Y-73460000D03*
%TO.P,R24,2*%
%TO.N,Net-(U1A--)*%
X123380000Y-76000000D03*
%TD*%
%TO.P,R12,1*%
%TO.N,Net-(R11-Pad1)*%
X133500000Y-56960000D03*
%TO.P,R12,2*%
%TO.N,/D4*%
X133500000Y-54420000D03*
%TD*%
D13*
%TO.P,SW1,1,1*%
%TO.N,+5V*%
X164000000Y-59000000D03*
X157500000Y-59000000D03*
%TO.P,SW1,2,2*%
%TO.N,/BT1*%
X164000000Y-54500000D03*
X157500000Y-54500000D03*
%TD*%
D12*
%TO.P,R11,1*%
%TO.N,Net-(R11-Pad1)*%
X133500000Y-61130000D03*
%TO.P,R11,2*%
%TO.N,Net-(R10-Pad1)*%
X133500000Y-63670000D03*
%TD*%
%TO.P,R22,1*%
%TO.N,Net-(R21-Pad1)*%
X113500000Y-56960000D03*
%TO.P,R22,2*%
%TO.N,/D9*%
X113500000Y-54420000D03*
%TD*%
D10*
%TO.P,J12,1,Pin_1*%
%TO.N,GND*%
X153500000Y-92000000D03*
D14*
%TO.P,J12,2,Pin_2*%
%TO.N,/IN_RIGHT*%
X153500000Y-89460000D03*
%TO.P,J12,3,Pin_3*%
%TO.N,/IN_LEFT*%
X153500000Y-86920000D03*
%TD*%
D12*
%TO.P,R1,1*%
%TO.N,/BT1*%
X153500000Y-55630000D03*
%TO.P,R1,2*%
%TO.N,GND*%
X153500000Y-58170000D03*
%TD*%
%TO.P,R27,1*%
%TO.N,/AUDIO_OUT*%
X136000000Y-69000000D03*
%TO.P,R27,2*%
%TO.N,Net-(C2-Pad2)*%
X133460000Y-69000000D03*
%TD*%
%TO.P,R17,1*%
%TO.N,Net-(R17-Pad1)*%
X121500000Y-60960000D03*
%TO.P,R17,2*%
%TO.N,Net-(R15-Pad1)*%
X121500000Y-63500000D03*
%TD*%
%TO.P,R25,1*%
%TO.N,+5V*%
X114880000Y-74960000D03*
%TO.P,R25,2*%
%TO.N,Net-(R25-Pad2)*%
X117420000Y-74960000D03*
%TD*%
%TO.P,R16,1*%
%TO.N,Net-(R15-Pad1)*%
X125500000Y-57000000D03*
%TO.P,R16,2*%
%TO.N,/D6*%
X125500000Y-54460000D03*
%TD*%
D20*
%TO.P,RV1,1,1*%
%TO.N,+5V*%
X135500000Y-92500000D03*
%TO.P,RV1,2,2*%
%TO.N,/A0*%
X138040000Y-89960000D03*
%TO.P,RV1,3,3*%
%TO.N,GND*%
X135500000Y-87420000D03*
%TD*%
D12*
%TO.P,R2,1*%
%TO.N,/BT2*%
X153500000Y-64460000D03*
%TO.P,R2,2*%
%TO.N,GND*%
X153500000Y-67000000D03*
%TD*%
D21*
%TO.P,U1,1*%
%TO.N,Net-(C2-Pad2)*%
X131380000Y-73420000D03*
D22*
%TO.P,U1,2,-*%
%TO.N,Net-(U1A--)*%
X131380000Y-75960000D03*
%TO.P,U1,3,+*%
%TO.N,Net-(J9-Pin_2)*%
X131380000Y-78500000D03*
%TO.P,U1,4,V-*%
%TO.N,GND*%
X131380000Y-81040000D03*
%TO.P,U1,5,+*%
X139000000Y-81040000D03*
%TO.P,U1,6,-*%
%TO.N,Net-(U1B--)*%
X139000000Y-78500000D03*
%TO.P,U1,7*%
X139000000Y-75960000D03*
%TO.P,U1,8,V+*%
%TO.N,+5V*%
X139000000Y-73420000D03*
%TD*%
D10*
%TO.P,J9,1,Pin_1*%
%TO.N,GND*%
X153500000Y-73500000D03*
D14*
%TO.P,J9,2,Pin_2*%
%TO.N,Net-(J9-Pin_2)*%
X153500000Y-76040000D03*
%TO.P,J9,3,Pin_3*%
%TO.N,Net-(J9-Pin_3)*%
X153500000Y-78580000D03*
%TD*%
D12*
%TO.P,R3,1*%
%TO.N,GND*%
X149500000Y-61170000D03*
%TO.P,R3,2*%
%TO.N,Net-(R3-Pad2)*%
X149500000Y-63710000D03*
%TD*%
D15*
%TO.P,J10,R*%
%TO.N,/IN_RIGHT*%
X159000000Y-94000000D03*
D16*
%TO.P,J10,RN*%
X159000000Y-91500000D03*
D17*
%TO.P,J10,S*%
%TO.N,GND*%
X164000000Y-89000000D03*
D15*
%TO.P,J10,T*%
%TO.N,/IN_LEFT*%
X159000000Y-84000000D03*
D18*
%TO.P,J10,TN*%
X159000000Y-86500000D03*
%TD*%
D20*
%TO.P,RV3,1,1*%
%TO.N,Net-(R25-Pad2)*%
X115420000Y-79920000D03*
%TO.P,RV3,2,2*%
%TO.N,Net-(J9-Pin_3)*%
X112880000Y-82460000D03*
%TO.P,RV3,3,3*%
%TO.N,Net-(R26-Pad1)*%
X115420000Y-85000000D03*
%TD*%
%TO.P,RV2,1,1*%
%TO.N,+5V*%
X146000000Y-92500000D03*
%TO.P,RV2,2,2*%
%TO.N,/A1*%
X148540000Y-89960000D03*
%TO.P,RV2,3,3*%
%TO.N,GND*%
X146000000Y-87420000D03*
%TD*%
D12*
%TO.P,R8,1*%
%TO.N,Net-(R7-Pad1)*%
X141500000Y-56960000D03*
%TO.P,R8,2*%
%TO.N,/D2*%
X141500000Y-54420000D03*
%TD*%
D10*
%TO.P,J6,1,Pin_1*%
%TO.N,GND*%
X92880000Y-72500000D03*
D14*
%TO.P,J6,2,Pin_2*%
%TO.N,+5V*%
X95420000Y-72500000D03*
%TO.P,J6,3,Pin_3*%
%TO.N,/SCL*%
X97960000Y-72500000D03*
%TO.P,J6,4,Pin_4*%
%TO.N,/SDA*%
X100500000Y-72500000D03*
%TD*%
D12*
%TO.P,R23,1*%
%TO.N,Net-(U1A--)*%
X121500000Y-68000000D03*
%TO.P,R23,2*%
%TO.N,Net-(R21-Pad1)*%
X118960000Y-68000000D03*
%TD*%
D23*
%TO.N,/D9*%
X128956000Y-50956000D02*
X128956000Y-49200000D01*
X128431905Y-51480095D02*
X128956000Y-50956000D01*
X121519905Y-51480095D02*
X128431905Y-51480095D01*
X120500000Y-52500000D02*
X121519905Y-51480095D01*
X115420000Y-52500000D02*
X120500000Y-52500000D01*
X113500000Y-54420000D02*
X115420000Y-52500000D01*
%TO.N,/D8*%
X130564905Y-51931095D02*
X131496000Y-51000000D01*
X122068905Y-51931095D02*
X130564905Y-51931095D01*
X131496000Y-51000000D02*
X131496000Y-49200000D01*
X119540000Y-54460000D02*
X122068905Y-51931095D01*
X117500000Y-54460000D02*
X119540000Y-54460000D01*
%TO.N,/D7*%
X133500000Y-51000000D02*
X134000000Y-50500000D01*
%TO.N,/D6*%
X136000000Y-51500000D02*
X136576000Y-50924000D01*
%TO.N,/D5*%
X139116000Y-51000000D02*
X139116000Y-49200000D01*
X138116000Y-52000000D02*
X139116000Y-51000000D01*
X134000000Y-52000000D02*
X138116000Y-52000000D01*
X131540000Y-54460000D02*
X134000000Y-52000000D01*
X129500000Y-54460000D02*
X131540000Y-54460000D01*
%TO.N,/D4*%
X140500000Y-52500000D02*
X141656000Y-51344000D01*
%TO.N,/D3*%
X145000000Y-49920000D02*
X145720000Y-49200000D01*
X145000000Y-50500000D02*
X145000000Y-49920000D01*
X145500000Y-51000000D02*
X145000000Y-50500000D01*
%TO.N,+5V*%
X130500000Y-92500000D02*
X135500000Y-92500000D01*
X125000000Y-98000000D02*
X130500000Y-92500000D01*
X91000000Y-98000000D02*
X125000000Y-98000000D01*
X87800000Y-94800000D02*
X91000000Y-98000000D01*
X87800000Y-79000000D02*
X87800000Y-94800000D01*
X94500000Y-77500000D02*
X93000000Y-79000000D01*
%TO.N,GND*%
X153500000Y-92000000D02*
X154126000Y-92626000D01*
%TO.N,+5V*%
X139550000Y-72870000D02*
X139000000Y-73420000D01*
X93000000Y-79000000D02*
X87800000Y-79000000D01*
X138100000Y-97460000D02*
X143060000Y-92500000D01*
X156500000Y-68500000D02*
X151370000Y-68500000D01*
X157500000Y-67500000D02*
X156500000Y-68500000D01*
X87800000Y-74500000D02*
X87800000Y-79000000D01*
X151370000Y-68500000D02*
X147000000Y-72870000D01*
X165326000Y-66174000D02*
X164000000Y-67500000D01*
X114880000Y-74960000D02*
X97880000Y-74960000D01*
X95420000Y-72500000D02*
X94500000Y-73420000D01*
X164000000Y-59000000D02*
X165326000Y-60326000D01*
X147000000Y-72870000D02*
X139550000Y-72870000D01*
X135500000Y-94860000D02*
X138100000Y-97460000D01*
X87800000Y-65000000D02*
X87800000Y-74500000D01*
X143060000Y-92500000D02*
X146000000Y-92500000D01*
X135500000Y-92500000D02*
X135500000Y-94860000D01*
X165326000Y-60326000D02*
X165326000Y-66174000D01*
X157500000Y-59000000D02*
X164000000Y-59000000D01*
X97880000Y-74960000D02*
X95420000Y-72500000D01*
X164000000Y-67500000D02*
X157500000Y-67500000D01*
X94500000Y-73420000D02*
X94500000Y-77500000D01*
%TO.N,/A0*%
X150800000Y-95800000D02*
X150800000Y-97460000D01*
X138040000Y-89960000D02*
X144960000Y-89960000D01*
X144960000Y-89960000D02*
X150800000Y-95800000D01*
%TO.N,/A1*%
X148540000Y-89960000D02*
X148540000Y-92660000D01*
X148540000Y-92660000D02*
X153340000Y-97460000D01*
%TO.N,/SCL*%
X118796000Y-49200000D02*
X108680000Y-49200000D01*
X92880000Y-67420000D02*
X92880000Y-65000000D01*
X108680000Y-49200000D02*
X92880000Y-65000000D01*
X97960000Y-72500000D02*
X92880000Y-67420000D01*
%TO.N,/SDA*%
X121336000Y-49200000D02*
X118487000Y-52049000D01*
X118487000Y-52049000D02*
X108371000Y-52049000D01*
X95420000Y-67420000D02*
X100500000Y-72500000D01*
X108371000Y-52049000D02*
X95420000Y-65000000D01*
X95420000Y-65000000D02*
X95420000Y-67420000D01*
%TO.N,/BT1*%
X153500000Y-55630000D02*
X156370000Y-55630000D01*
X157500000Y-54500000D02*
X157500000Y-50120000D01*
X156370000Y-55630000D02*
X157500000Y-54500000D01*
X157500000Y-54500000D02*
X164000000Y-54500000D01*
X157500000Y-50120000D02*
X158420000Y-49200000D01*
%TO.N,/BT2*%
X152374000Y-63334000D02*
X152374000Y-52706000D01*
X157500000Y-63000000D02*
X164000000Y-63000000D01*
X156040000Y-64460000D02*
X153500000Y-64460000D01*
X152374000Y-52706000D02*
X155880000Y-49200000D01*
X153500000Y-64460000D02*
X152374000Y-63334000D01*
X157500000Y-63000000D02*
X156040000Y-64460000D01*
%TO.N,Net-(C2-Pad2)*%
X127130000Y-73460000D02*
X127380000Y-73210000D01*
X131170000Y-73210000D02*
X131380000Y-73420000D01*
X133460000Y-71340000D02*
X133460000Y-69000000D01*
X123380000Y-73460000D02*
X127130000Y-73460000D01*
X131380000Y-73420000D02*
X133460000Y-71340000D01*
X127380000Y-73210000D02*
X131170000Y-73210000D01*
%TO.N,Net-(U1A--)*%
X131130000Y-75710000D02*
X131380000Y-75960000D01*
X127090000Y-76000000D02*
X127380000Y-75710000D01*
X123380000Y-76000000D02*
X121500000Y-74120000D01*
X121500000Y-74120000D02*
X121500000Y-68000000D01*
X123380000Y-76000000D02*
X127090000Y-76000000D01*
X127380000Y-75710000D02*
X131130000Y-75710000D01*
%TO.N,/D7*%
X134000000Y-49236000D02*
X134036000Y-49200000D01*
X123080000Y-54420000D02*
X125000000Y-52500000D01*
X121500000Y-54420000D02*
X123080000Y-54420000D01*
X125000000Y-52500000D02*
X131500000Y-52500000D01*
X134000000Y-50500000D02*
X134000000Y-49236000D01*
X133000000Y-51000000D02*
X133500000Y-51000000D01*
X131500000Y-52500000D02*
X133000000Y-51000000D01*
%TO.N,/D6*%
X132000000Y-53000000D02*
X133500000Y-51500000D01*
X133500000Y-51500000D02*
X136000000Y-51500000D01*
X128500000Y-53000000D02*
X132000000Y-53000000D01*
X127040000Y-54460000D02*
X128500000Y-53000000D01*
X125500000Y-54460000D02*
X127040000Y-54460000D01*
X136576000Y-50924000D02*
X136576000Y-49200000D01*
%TO.N,/D4*%
X137000000Y-52500000D02*
X140500000Y-52500000D01*
X135080000Y-54420000D02*
X137000000Y-52500000D01*
X141656000Y-51344000D02*
X141656000Y-49200000D01*
X133500000Y-54420000D02*
X135080000Y-54420000D01*
%TO.N,/IN_RIGHT*%
X155540000Y-91500000D02*
X159000000Y-91500000D01*
X155880000Y-97460000D02*
X159000000Y-94340000D01*
X159000000Y-94340000D02*
X159000000Y-94000000D01*
X153500000Y-89460000D02*
X155540000Y-91500000D01*
%TO.N,/IN_LEFT*%
X159000000Y-86500000D02*
X159000000Y-84000000D01*
X159000000Y-86500000D02*
X153920000Y-86500000D01*
X153920000Y-86500000D02*
X153500000Y-86920000D01*
%TO.N,/D3*%
X143500000Y-53000000D02*
X145500000Y-51000000D01*
X138920000Y-53000000D02*
X143500000Y-53000000D01*
X137500000Y-54420000D02*
X138920000Y-53000000D01*
%TO.N,/D2*%
X141500000Y-54420000D02*
X143040000Y-54420000D01*
X143040000Y-54420000D02*
X148260000Y-49200000D01*
%TO.N,/D0*%
X149500000Y-54460000D02*
X149500000Y-53040000D01*
X149500000Y-53040000D02*
X153340000Y-49200000D01*
%TO.N,/D1*%
X150760000Y-49200000D02*
X150800000Y-49200000D01*
X145500000Y-54460000D02*
X150760000Y-49200000D01*
%TO.N,/AUDIO_OUT*%
X136000000Y-72412404D02*
X136000000Y-69000000D01*
X120374000Y-67533595D02*
X121033595Y-66874000D01*
X163309562Y-78500000D02*
X164926000Y-76883562D01*
X159000000Y-71000000D02*
X150791514Y-71000000D01*
X147245514Y-74546000D02*
X138133596Y-74546000D01*
X164926000Y-75116438D02*
X163309562Y-73500000D01*
X159000000Y-73500000D02*
X159000000Y-71000000D01*
X122880000Y-83000000D02*
X120374000Y-80494000D01*
X133874000Y-66874000D02*
X136000000Y-69000000D01*
X138133596Y-74546000D02*
X136000000Y-72412404D01*
X159000000Y-78500000D02*
X159000000Y-81000000D01*
X120374000Y-80494000D02*
X120374000Y-67533595D01*
X150791514Y-71000000D02*
X147245514Y-74546000D01*
X121033595Y-66874000D02*
X133874000Y-66874000D01*
X122880000Y-85540000D02*
X122880000Y-83000000D01*
X164926000Y-76883562D02*
X164926000Y-75116438D01*
X163309562Y-73500000D02*
X159000000Y-73500000D01*
X159000000Y-78500000D02*
X163309562Y-78500000D01*
%TO.N,Net-(J9-Pin_3)*%
X112880000Y-82460000D02*
X112880000Y-92120000D01*
X112886000Y-92126000D02*
X125374000Y-92126000D01*
X148580000Y-83500000D02*
X153500000Y-78580000D01*
X112880000Y-92120000D02*
X112886000Y-92126000D01*
X125374000Y-92126000D02*
X134000000Y-83500000D01*
X134000000Y-83500000D02*
X148580000Y-83500000D01*
%TO.N,Net-(J9-Pin_2)*%
X132794000Y-79914000D02*
X149626000Y-79914000D01*
X131380000Y-78500000D02*
X132794000Y-79914000D01*
X149626000Y-79914000D02*
X153500000Y-76040000D01*
%TO.N,Net-(R3-Pad2)*%
X148374000Y-58126000D02*
X148374000Y-62584000D01*
X149500000Y-57000000D02*
X148374000Y-58126000D01*
X148374000Y-62584000D02*
X149500000Y-63710000D01*
X145500000Y-63630000D02*
X149420000Y-63630000D01*
X149420000Y-63630000D02*
X149500000Y-63710000D01*
%TO.N,Net-(R5-Pad1)*%
X145500000Y-61090000D02*
X145500000Y-57000000D01*
X145500000Y-61090000D02*
X144040000Y-61090000D01*
X144040000Y-61090000D02*
X141500000Y-63630000D01*
%TO.N,Net-(R7-Pad1)*%
X141500000Y-61090000D02*
X140080000Y-61090000D01*
X140080000Y-61090000D02*
X137500000Y-63670000D01*
X141500000Y-61090000D02*
X141500000Y-56960000D01*
%TO.N,Net-(R10-Pad1)*%
X137500000Y-61130000D02*
X137500000Y-56960000D01*
X136040000Y-61130000D02*
X133500000Y-63670000D01*
X137500000Y-61130000D02*
X136040000Y-61130000D01*
%TO.N,Net-(R11-Pad1)*%
X133500000Y-61130000D02*
X133500000Y-56960000D01*
X131910000Y-61130000D02*
X129500000Y-63540000D01*
X133500000Y-61130000D02*
X131910000Y-61130000D01*
%TO.N,Net-(R13-Pad1)*%
X129500000Y-61000000D02*
X128040000Y-61000000D01*
X129500000Y-61000000D02*
X129500000Y-57000000D01*
X128040000Y-61000000D02*
X125500000Y-63540000D01*
%TO.N,Net-(R15-Pad1)*%
X125500000Y-61000000D02*
X125500000Y-57000000D01*
X124000000Y-61000000D02*
X121500000Y-63500000D01*
X125500000Y-61000000D02*
X124000000Y-61000000D01*
%TO.N,Net-(R17-Pad1)*%
X120080000Y-60960000D02*
X117500000Y-63540000D01*
X121500000Y-60960000D02*
X120080000Y-60960000D01*
X121500000Y-60960000D02*
X121500000Y-56960000D01*
%TO.N,Net-(R19-Pad1)*%
X117500000Y-61000000D02*
X116000000Y-61000000D01*
X117500000Y-61000000D02*
X117500000Y-57000000D01*
X116000000Y-61000000D02*
X113500000Y-63500000D01*
%TO.N,Net-(R21-Pad1)*%
X113500000Y-60960000D02*
X113500000Y-56960000D01*
X112374000Y-63966405D02*
X116407595Y-68000000D01*
X113500000Y-60960000D02*
X112374000Y-62086000D01*
X112374000Y-62086000D02*
X112374000Y-63966405D01*
X116407595Y-68000000D02*
X118960000Y-68000000D01*
%TO.N,Net-(R25-Pad2)*%
X115420000Y-79920000D02*
X115420000Y-76960000D01*
X115420000Y-76960000D02*
X117420000Y-74960000D01*
%TO.N,Net-(R26-Pad1)*%
X114500000Y-85920000D02*
X115420000Y-85000000D01*
X114500000Y-91000000D02*
X114500000Y-85920000D01*
%TO.N,Net-(U1B--)*%
X139000000Y-75960000D02*
X139000000Y-78500000D01*
%TD*%
M02*
