%TF.GenerationSoftware,KiCad,Pcbnew,9.0.7*%
%TF.CreationDate,2026-02-04T14:21:25-07:00*%
%TF.ProjectId,Uno_Shield_DSP_Class_v1,556e6f5f-5368-4696-956c-645f4453505f,rev?*%
%TF.SameCoordinates,Original*%
%TF.FileFunction,Profile,NP*%
%FSLAX46Y46*%
G04 Gerber Fmt 4.6, Leading zero omitted, Abs format (unit mm)*
G04 Created by KiCad (PCBNEW 9.0.7) date 2026-02-04 14:21:25*
%MOMM*%
%LPD*%
G01*
G04 APERTURE LIST*
%ADD10C,0.150000*%
%TA.AperFunction,Profile*%
%ADD11C,0.150000*%
%TD*%
%TA.AperFunction,Profile*%
%ADD12C,0.120000*%
%TD*%
G04 APERTURE END LIST*
D10*
X72304819Y-77425237D02*
X72304819Y-77901427D01*
X72304819Y-77901427D02*
X72781009Y-77949046D01*
X72781009Y-77949046D02*
X72733390Y-77901427D01*
X72733390Y-77901427D02*
X72685771Y-77806189D01*
X72685771Y-77806189D02*
X72685771Y-77568094D01*
X72685771Y-77568094D02*
X72733390Y-77472856D01*
X72733390Y-77472856D02*
X72781009Y-77425237D01*
X72781009Y-77425237D02*
X72876247Y-77377618D01*
X72876247Y-77377618D02*
X73114342Y-77377618D01*
X73114342Y-77377618D02*
X73209580Y-77425237D01*
X73209580Y-77425237D02*
X73257200Y-77472856D01*
X73257200Y-77472856D02*
X73304819Y-77568094D01*
X73304819Y-77568094D02*
X73304819Y-77806189D01*
X73304819Y-77806189D02*
X73257200Y-77901427D01*
X73257200Y-77901427D02*
X73209580Y-77949046D01*
X72304819Y-77044284D02*
X72304819Y-76425237D01*
X72304819Y-76425237D02*
X72685771Y-76758570D01*
X72685771Y-76758570D02*
X72685771Y-76615713D01*
X72685771Y-76615713D02*
X72733390Y-76520475D01*
X72733390Y-76520475D02*
X72781009Y-76472856D01*
X72781009Y-76472856D02*
X72876247Y-76425237D01*
X72876247Y-76425237D02*
X73114342Y-76425237D01*
X73114342Y-76425237D02*
X73209580Y-76472856D01*
X73209580Y-76472856D02*
X73257200Y-76520475D01*
X73257200Y-76520475D02*
X73304819Y-76615713D01*
X73304819Y-76615713D02*
X73304819Y-76901427D01*
X73304819Y-76901427D02*
X73257200Y-76996665D01*
X73257200Y-76996665D02*
X73209580Y-77044284D01*
X73209580Y-75996665D02*
X73257200Y-75949046D01*
X73257200Y-75949046D02*
X73304819Y-75996665D01*
X73304819Y-75996665D02*
X73257200Y-76044284D01*
X73257200Y-76044284D02*
X73209580Y-75996665D01*
X73209580Y-75996665D02*
X73304819Y-75996665D01*
X72304819Y-75615713D02*
X72304819Y-74996666D01*
X72304819Y-74996666D02*
X72685771Y-75329999D01*
X72685771Y-75329999D02*
X72685771Y-75187142D01*
X72685771Y-75187142D02*
X72733390Y-75091904D01*
X72733390Y-75091904D02*
X72781009Y-75044285D01*
X72781009Y-75044285D02*
X72876247Y-74996666D01*
X72876247Y-74996666D02*
X73114342Y-74996666D01*
X73114342Y-74996666D02*
X73209580Y-75044285D01*
X73209580Y-75044285D02*
X73257200Y-75091904D01*
X73257200Y-75091904D02*
X73304819Y-75187142D01*
X73304819Y-75187142D02*
X73304819Y-75472856D01*
X73304819Y-75472856D02*
X73257200Y-75568094D01*
X73257200Y-75568094D02*
X73209580Y-75615713D01*
X72638152Y-74139523D02*
X73304819Y-74139523D01*
X72257200Y-74377618D02*
X72971485Y-74615713D01*
X72971485Y-74615713D02*
X72971485Y-73996666D01*
X72304819Y-73425237D02*
X72304819Y-73329999D01*
X72304819Y-73329999D02*
X72352438Y-73234761D01*
X72352438Y-73234761D02*
X72400057Y-73187142D01*
X72400057Y-73187142D02*
X72495295Y-73139523D01*
X72495295Y-73139523D02*
X72685771Y-73091904D01*
X72685771Y-73091904D02*
X72923866Y-73091904D01*
X72923866Y-73091904D02*
X73114342Y-73139523D01*
X73114342Y-73139523D02*
X73209580Y-73187142D01*
X73209580Y-73187142D02*
X73257200Y-73234761D01*
X73257200Y-73234761D02*
X73304819Y-73329999D01*
X73304819Y-73329999D02*
X73304819Y-73425237D01*
X73304819Y-73425237D02*
X73257200Y-73520475D01*
X73257200Y-73520475D02*
X73209580Y-73568094D01*
X73209580Y-73568094D02*
X73114342Y-73615713D01*
X73114342Y-73615713D02*
X72923866Y-73663332D01*
X72923866Y-73663332D02*
X72685771Y-73663332D01*
X72685771Y-73663332D02*
X72495295Y-73615713D01*
X72495295Y-73615713D02*
X72400057Y-73568094D01*
X72400057Y-73568094D02*
X72352438Y-73520475D01*
X72352438Y-73520475D02*
X72304819Y-73425237D01*
X72304819Y-72472856D02*
X72304819Y-72377618D01*
X72304819Y-72377618D02*
X72352438Y-72282380D01*
X72352438Y-72282380D02*
X72400057Y-72234761D01*
X72400057Y-72234761D02*
X72495295Y-72187142D01*
X72495295Y-72187142D02*
X72685771Y-72139523D01*
X72685771Y-72139523D02*
X72923866Y-72139523D01*
X72923866Y-72139523D02*
X73114342Y-72187142D01*
X73114342Y-72187142D02*
X73209580Y-72234761D01*
X73209580Y-72234761D02*
X73257200Y-72282380D01*
X73257200Y-72282380D02*
X73304819Y-72377618D01*
X73304819Y-72377618D02*
X73304819Y-72472856D01*
X73304819Y-72472856D02*
X73257200Y-72568094D01*
X73257200Y-72568094D02*
X73209580Y-72615713D01*
X73209580Y-72615713D02*
X73114342Y-72663332D01*
X73114342Y-72663332D02*
X72923866Y-72710951D01*
X72923866Y-72710951D02*
X72685771Y-72710951D01*
X72685771Y-72710951D02*
X72495295Y-72663332D01*
X72495295Y-72663332D02*
X72400057Y-72615713D01*
X72400057Y-72615713D02*
X72352438Y-72568094D01*
X72352438Y-72568094D02*
X72304819Y-72472856D01*
X73304819Y-70949046D02*
X72638152Y-70949046D01*
X72733390Y-70949046D02*
X72685771Y-70901427D01*
X72685771Y-70901427D02*
X72638152Y-70806189D01*
X72638152Y-70806189D02*
X72638152Y-70663332D01*
X72638152Y-70663332D02*
X72685771Y-70568094D01*
X72685771Y-70568094D02*
X72781009Y-70520475D01*
X72781009Y-70520475D02*
X73304819Y-70520475D01*
X72781009Y-70520475D02*
X72685771Y-70472856D01*
X72685771Y-70472856D02*
X72638152Y-70377618D01*
X72638152Y-70377618D02*
X72638152Y-70234761D01*
X72638152Y-70234761D02*
X72685771Y-70139522D01*
X72685771Y-70139522D02*
X72781009Y-70091903D01*
X72781009Y-70091903D02*
X73304819Y-70091903D01*
X73304819Y-69615713D02*
X72638152Y-69615713D01*
X72733390Y-69615713D02*
X72685771Y-69568094D01*
X72685771Y-69568094D02*
X72638152Y-69472856D01*
X72638152Y-69472856D02*
X72638152Y-69329999D01*
X72638152Y-69329999D02*
X72685771Y-69234761D01*
X72685771Y-69234761D02*
X72781009Y-69187142D01*
X72781009Y-69187142D02*
X73304819Y-69187142D01*
X72781009Y-69187142D02*
X72685771Y-69139523D01*
X72685771Y-69139523D02*
X72638152Y-69044285D01*
X72638152Y-69044285D02*
X72638152Y-68901428D01*
X72638152Y-68901428D02*
X72685771Y-68806189D01*
X72685771Y-68806189D02*
X72781009Y-68758570D01*
X72781009Y-68758570D02*
X73304819Y-68758570D01*
D11*
X80000000Y-46660000D02*
X73413580Y-46660000D01*
X73413580Y-100000000D02*
X80000000Y-100000000D01*
X74000000Y-46660000D02*
X74000000Y-100000000D01*
X74000000Y-46660000D02*
X74586421Y-47786504D01*
X74000000Y-46660000D02*
X73413579Y-47786504D01*
X74000000Y-100000000D02*
X73413579Y-98873496D01*
X74000000Y-100000000D02*
X74586421Y-98873496D01*
D10*
X120111429Y-38733390D02*
X120016191Y-38685771D01*
X120016191Y-38685771D02*
X119968572Y-38638152D01*
X119968572Y-38638152D02*
X119920953Y-38542914D01*
X119920953Y-38542914D02*
X119920953Y-38495295D01*
X119920953Y-38495295D02*
X119968572Y-38400057D01*
X119968572Y-38400057D02*
X120016191Y-38352438D01*
X120016191Y-38352438D02*
X120111429Y-38304819D01*
X120111429Y-38304819D02*
X120301905Y-38304819D01*
X120301905Y-38304819D02*
X120397143Y-38352438D01*
X120397143Y-38352438D02*
X120444762Y-38400057D01*
X120444762Y-38400057D02*
X120492381Y-38495295D01*
X120492381Y-38495295D02*
X120492381Y-38542914D01*
X120492381Y-38542914D02*
X120444762Y-38638152D01*
X120444762Y-38638152D02*
X120397143Y-38685771D01*
X120397143Y-38685771D02*
X120301905Y-38733390D01*
X120301905Y-38733390D02*
X120111429Y-38733390D01*
X120111429Y-38733390D02*
X120016191Y-38781009D01*
X120016191Y-38781009D02*
X119968572Y-38828628D01*
X119968572Y-38828628D02*
X119920953Y-38923866D01*
X119920953Y-38923866D02*
X119920953Y-39114342D01*
X119920953Y-39114342D02*
X119968572Y-39209580D01*
X119968572Y-39209580D02*
X120016191Y-39257200D01*
X120016191Y-39257200D02*
X120111429Y-39304819D01*
X120111429Y-39304819D02*
X120301905Y-39304819D01*
X120301905Y-39304819D02*
X120397143Y-39257200D01*
X120397143Y-39257200D02*
X120444762Y-39209580D01*
X120444762Y-39209580D02*
X120492381Y-39114342D01*
X120492381Y-39114342D02*
X120492381Y-38923866D01*
X120492381Y-38923866D02*
X120444762Y-38828628D01*
X120444762Y-38828628D02*
X120397143Y-38781009D01*
X120397143Y-38781009D02*
X120301905Y-38733390D01*
X121063810Y-38733390D02*
X120968572Y-38685771D01*
X120968572Y-38685771D02*
X120920953Y-38638152D01*
X120920953Y-38638152D02*
X120873334Y-38542914D01*
X120873334Y-38542914D02*
X120873334Y-38495295D01*
X120873334Y-38495295D02*
X120920953Y-38400057D01*
X120920953Y-38400057D02*
X120968572Y-38352438D01*
X120968572Y-38352438D02*
X121063810Y-38304819D01*
X121063810Y-38304819D02*
X121254286Y-38304819D01*
X121254286Y-38304819D02*
X121349524Y-38352438D01*
X121349524Y-38352438D02*
X121397143Y-38400057D01*
X121397143Y-38400057D02*
X121444762Y-38495295D01*
X121444762Y-38495295D02*
X121444762Y-38542914D01*
X121444762Y-38542914D02*
X121397143Y-38638152D01*
X121397143Y-38638152D02*
X121349524Y-38685771D01*
X121349524Y-38685771D02*
X121254286Y-38733390D01*
X121254286Y-38733390D02*
X121063810Y-38733390D01*
X121063810Y-38733390D02*
X120968572Y-38781009D01*
X120968572Y-38781009D02*
X120920953Y-38828628D01*
X120920953Y-38828628D02*
X120873334Y-38923866D01*
X120873334Y-38923866D02*
X120873334Y-39114342D01*
X120873334Y-39114342D02*
X120920953Y-39209580D01*
X120920953Y-39209580D02*
X120968572Y-39257200D01*
X120968572Y-39257200D02*
X121063810Y-39304819D01*
X121063810Y-39304819D02*
X121254286Y-39304819D01*
X121254286Y-39304819D02*
X121349524Y-39257200D01*
X121349524Y-39257200D02*
X121397143Y-39209580D01*
X121397143Y-39209580D02*
X121444762Y-39114342D01*
X121444762Y-39114342D02*
X121444762Y-38923866D01*
X121444762Y-38923866D02*
X121397143Y-38828628D01*
X121397143Y-38828628D02*
X121349524Y-38781009D01*
X121349524Y-38781009D02*
X121254286Y-38733390D01*
X121873334Y-39209580D02*
X121920953Y-39257200D01*
X121920953Y-39257200D02*
X121873334Y-39304819D01*
X121873334Y-39304819D02*
X121825715Y-39257200D01*
X121825715Y-39257200D02*
X121873334Y-39209580D01*
X121873334Y-39209580D02*
X121873334Y-39304819D01*
X122540000Y-38304819D02*
X122635238Y-38304819D01*
X122635238Y-38304819D02*
X122730476Y-38352438D01*
X122730476Y-38352438D02*
X122778095Y-38400057D01*
X122778095Y-38400057D02*
X122825714Y-38495295D01*
X122825714Y-38495295D02*
X122873333Y-38685771D01*
X122873333Y-38685771D02*
X122873333Y-38923866D01*
X122873333Y-38923866D02*
X122825714Y-39114342D01*
X122825714Y-39114342D02*
X122778095Y-39209580D01*
X122778095Y-39209580D02*
X122730476Y-39257200D01*
X122730476Y-39257200D02*
X122635238Y-39304819D01*
X122635238Y-39304819D02*
X122540000Y-39304819D01*
X122540000Y-39304819D02*
X122444762Y-39257200D01*
X122444762Y-39257200D02*
X122397143Y-39209580D01*
X122397143Y-39209580D02*
X122349524Y-39114342D01*
X122349524Y-39114342D02*
X122301905Y-38923866D01*
X122301905Y-38923866D02*
X122301905Y-38685771D01*
X122301905Y-38685771D02*
X122349524Y-38495295D01*
X122349524Y-38495295D02*
X122397143Y-38400057D01*
X122397143Y-38400057D02*
X122444762Y-38352438D01*
X122444762Y-38352438D02*
X122540000Y-38304819D01*
X123444762Y-38733390D02*
X123349524Y-38685771D01*
X123349524Y-38685771D02*
X123301905Y-38638152D01*
X123301905Y-38638152D02*
X123254286Y-38542914D01*
X123254286Y-38542914D02*
X123254286Y-38495295D01*
X123254286Y-38495295D02*
X123301905Y-38400057D01*
X123301905Y-38400057D02*
X123349524Y-38352438D01*
X123349524Y-38352438D02*
X123444762Y-38304819D01*
X123444762Y-38304819D02*
X123635238Y-38304819D01*
X123635238Y-38304819D02*
X123730476Y-38352438D01*
X123730476Y-38352438D02*
X123778095Y-38400057D01*
X123778095Y-38400057D02*
X123825714Y-38495295D01*
X123825714Y-38495295D02*
X123825714Y-38542914D01*
X123825714Y-38542914D02*
X123778095Y-38638152D01*
X123778095Y-38638152D02*
X123730476Y-38685771D01*
X123730476Y-38685771D02*
X123635238Y-38733390D01*
X123635238Y-38733390D02*
X123444762Y-38733390D01*
X123444762Y-38733390D02*
X123349524Y-38781009D01*
X123349524Y-38781009D02*
X123301905Y-38828628D01*
X123301905Y-38828628D02*
X123254286Y-38923866D01*
X123254286Y-38923866D02*
X123254286Y-39114342D01*
X123254286Y-39114342D02*
X123301905Y-39209580D01*
X123301905Y-39209580D02*
X123349524Y-39257200D01*
X123349524Y-39257200D02*
X123444762Y-39304819D01*
X123444762Y-39304819D02*
X123635238Y-39304819D01*
X123635238Y-39304819D02*
X123730476Y-39257200D01*
X123730476Y-39257200D02*
X123778095Y-39209580D01*
X123778095Y-39209580D02*
X123825714Y-39114342D01*
X123825714Y-39114342D02*
X123825714Y-38923866D01*
X123825714Y-38923866D02*
X123778095Y-38828628D01*
X123778095Y-38828628D02*
X123730476Y-38781009D01*
X123730476Y-38781009D02*
X123635238Y-38733390D01*
X124444762Y-38304819D02*
X124540000Y-38304819D01*
X124540000Y-38304819D02*
X124635238Y-38352438D01*
X124635238Y-38352438D02*
X124682857Y-38400057D01*
X124682857Y-38400057D02*
X124730476Y-38495295D01*
X124730476Y-38495295D02*
X124778095Y-38685771D01*
X124778095Y-38685771D02*
X124778095Y-38923866D01*
X124778095Y-38923866D02*
X124730476Y-39114342D01*
X124730476Y-39114342D02*
X124682857Y-39209580D01*
X124682857Y-39209580D02*
X124635238Y-39257200D01*
X124635238Y-39257200D02*
X124540000Y-39304819D01*
X124540000Y-39304819D02*
X124444762Y-39304819D01*
X124444762Y-39304819D02*
X124349524Y-39257200D01*
X124349524Y-39257200D02*
X124301905Y-39209580D01*
X124301905Y-39209580D02*
X124254286Y-39114342D01*
X124254286Y-39114342D02*
X124206667Y-38923866D01*
X124206667Y-38923866D02*
X124206667Y-38685771D01*
X124206667Y-38685771D02*
X124254286Y-38495295D01*
X124254286Y-38495295D02*
X124301905Y-38400057D01*
X124301905Y-38400057D02*
X124349524Y-38352438D01*
X124349524Y-38352438D02*
X124444762Y-38304819D01*
X125397143Y-38304819D02*
X125492381Y-38304819D01*
X125492381Y-38304819D02*
X125587619Y-38352438D01*
X125587619Y-38352438D02*
X125635238Y-38400057D01*
X125635238Y-38400057D02*
X125682857Y-38495295D01*
X125682857Y-38495295D02*
X125730476Y-38685771D01*
X125730476Y-38685771D02*
X125730476Y-38923866D01*
X125730476Y-38923866D02*
X125682857Y-39114342D01*
X125682857Y-39114342D02*
X125635238Y-39209580D01*
X125635238Y-39209580D02*
X125587619Y-39257200D01*
X125587619Y-39257200D02*
X125492381Y-39304819D01*
X125492381Y-39304819D02*
X125397143Y-39304819D01*
X125397143Y-39304819D02*
X125301905Y-39257200D01*
X125301905Y-39257200D02*
X125254286Y-39209580D01*
X125254286Y-39209580D02*
X125206667Y-39114342D01*
X125206667Y-39114342D02*
X125159048Y-38923866D01*
X125159048Y-38923866D02*
X125159048Y-38685771D01*
X125159048Y-38685771D02*
X125206667Y-38495295D01*
X125206667Y-38495295D02*
X125254286Y-38400057D01*
X125254286Y-38400057D02*
X125301905Y-38352438D01*
X125301905Y-38352438D02*
X125397143Y-38304819D01*
X126920953Y-39304819D02*
X126920953Y-38638152D01*
X126920953Y-38733390D02*
X126968572Y-38685771D01*
X126968572Y-38685771D02*
X127063810Y-38638152D01*
X127063810Y-38638152D02*
X127206667Y-38638152D01*
X127206667Y-38638152D02*
X127301905Y-38685771D01*
X127301905Y-38685771D02*
X127349524Y-38781009D01*
X127349524Y-38781009D02*
X127349524Y-39304819D01*
X127349524Y-38781009D02*
X127397143Y-38685771D01*
X127397143Y-38685771D02*
X127492381Y-38638152D01*
X127492381Y-38638152D02*
X127635238Y-38638152D01*
X127635238Y-38638152D02*
X127730477Y-38685771D01*
X127730477Y-38685771D02*
X127778096Y-38781009D01*
X127778096Y-38781009D02*
X127778096Y-39304819D01*
X128254286Y-39304819D02*
X128254286Y-38638152D01*
X128254286Y-38733390D02*
X128301905Y-38685771D01*
X128301905Y-38685771D02*
X128397143Y-38638152D01*
X128397143Y-38638152D02*
X128540000Y-38638152D01*
X128540000Y-38638152D02*
X128635238Y-38685771D01*
X128635238Y-38685771D02*
X128682857Y-38781009D01*
X128682857Y-38781009D02*
X128682857Y-39304819D01*
X128682857Y-38781009D02*
X128730476Y-38685771D01*
X128730476Y-38685771D02*
X128825714Y-38638152D01*
X128825714Y-38638152D02*
X128968571Y-38638152D01*
X128968571Y-38638152D02*
X129063810Y-38685771D01*
X129063810Y-38685771D02*
X129111429Y-38781009D01*
X129111429Y-38781009D02*
X129111429Y-39304819D01*
D11*
X168580000Y-46330000D02*
X168580000Y-39413580D01*
X80500000Y-39413580D02*
X80500000Y-46160000D01*
X168580000Y-40000000D02*
X80500000Y-40000000D01*
X168580000Y-40000000D02*
X167453496Y-40586421D01*
X168580000Y-40000000D02*
X167453496Y-39413579D01*
X80500000Y-40000000D02*
X81626504Y-39413579D01*
X80500000Y-40000000D02*
X81626504Y-40586421D01*
X168500000Y-46660000D02*
X168580000Y-46660000D01*
X100492593Y-100000000D02*
X165278000Y-100000000D01*
X168500000Y-95500000D02*
X168500000Y-100000000D01*
X100762000Y-46660000D02*
X163500000Y-46660000D01*
X168580000Y-61900000D02*
X168580000Y-47000000D01*
X80500000Y-100000000D02*
X100223185Y-100000000D01*
X163500000Y-46660000D02*
X168500000Y-46660000D01*
X168580000Y-61900000D02*
X168500000Y-69500000D01*
X100223185Y-100000000D02*
X100492593Y-100000000D01*
X168500000Y-100000000D02*
X165278000Y-100000000D01*
X168580000Y-47000000D02*
X168580000Y-46660000D01*
X80500000Y-100000000D02*
X80500000Y-46660000D01*
X100762000Y-46660000D02*
X80500000Y-46660000D01*
D12*
%TO.C,J11*%
X167100000Y-74200000D02*
X167100000Y-77800000D01*
X167500000Y-73800000D02*
X168500000Y-73800000D01*
X167500000Y-78200000D02*
X168500000Y-78200000D01*
X168500000Y-73800000D02*
X168500000Y-69500000D01*
X168500000Y-78200000D02*
X168500000Y-82500000D01*
X167100000Y-74200000D02*
G75*
G02*
X167500000Y-73800000I400000J0D01*
G01*
X167500000Y-78200000D02*
G75*
G02*
X167100000Y-77800000I2J400002D01*
G01*
%TO.C,J10*%
X167100000Y-87200000D02*
X167100000Y-90800000D01*
X167500000Y-86800000D02*
X168500000Y-86800000D01*
X167500000Y-91200000D02*
X168500000Y-91200000D01*
X168500000Y-86800000D02*
X168500000Y-82500000D01*
X168500000Y-91200000D02*
X168500000Y-95500000D01*
X167100000Y-87200000D02*
G75*
G02*
X167500000Y-86800000I400000J0D01*
G01*
X167500000Y-91200000D02*
G75*
G02*
X167100000Y-90800000I2J400002D01*
G01*
%TD*%
M02*
