M48
; DRILL file {KiCad 9.0.7} date 2026-02-04T14:21:03-0700
; FORMAT={-:-/ absolute / metric / decimal}
; #@! TF.CreationDate,2026-02-04T14:21:03-07:00
; #@! TF.GenerationSoftware,Kicad,Pcbnew,9.0.7
; #@! TF.FileFunction,Plated,1,2,PTH
FMAT,2
METRIC
; #@! TA.AperFunction,Plated,PTH,ComponentDrill
T1C0.400
; #@! TA.AperFunction,Plated,PTH,ComponentDrill
T2C0.800
; #@! TA.AperFunction,Plated,PTH,ComponentDrill
T3C1.000
; #@! TA.AperFunction,Plated,PTH,ComponentDrill
T4C1.100
%
G90
G05
T2
X112.88Y-82.46
X113.5Y-54.42
X113.5Y-56.96
X113.5Y-60.96
X113.5Y-63.5
X114.5Y-91.0
X114.88Y-74.96
X115.42Y-79.92
X115.42Y-85.0
X117.04Y-91.0
X117.42Y-74.96
X117.5Y-54.46
X117.5Y-57.0
X117.5Y-61.0
X117.5Y-63.54
X118.96Y-68.0
X121.5Y-54.42
X121.5Y-56.96
X121.5Y-60.96
X121.5Y-63.5
X121.5Y-68.0
X123.38Y-73.46
X123.38Y-76.0
X125.5Y-54.46
X125.5Y-57.0
X125.5Y-61.0
X125.5Y-63.54
X127.38Y-73.21
X127.38Y-75.71
X129.5Y-54.46
X129.5Y-57.0
X129.5Y-61.0
X129.5Y-63.54
X131.38Y-73.42
X131.38Y-75.96
X131.38Y-78.5
X131.38Y-81.04
X133.46Y-69.0
X133.5Y-54.42
X133.5Y-56.96
X133.5Y-61.13
X133.5Y-63.67
X135.5Y-87.42
X135.5Y-92.5
X136.0Y-69.0
X137.5Y-54.42
X137.5Y-56.96
X137.5Y-61.13
X137.5Y-63.67
X138.04Y-89.96
X139.0Y-73.42
X139.0Y-75.96
X139.0Y-78.5
X139.0Y-81.04
X141.5Y-54.42
X141.5Y-56.96
X141.5Y-61.09
X141.5Y-63.63
X145.5Y-54.46
X145.5Y-57.0
X145.5Y-61.09
X145.5Y-63.63
X146.0Y-87.42
X146.0Y-92.5
X147.0Y-70.37
X147.0Y-72.87
X148.54Y-89.96
X149.5Y-54.46
X149.5Y-57.0
X149.5Y-61.17
X149.5Y-63.71
X153.5Y-55.63
X153.5Y-58.17
X153.5Y-64.46
X153.5Y-67.0
T3
X87.8Y-65.0
X90.34Y-65.0
X92.88Y-65.0
X92.88Y-72.5
X95.42Y-65.0
X95.42Y-72.5
X97.96Y-65.0
X97.96Y-72.5
X100.5Y-65.0
X100.5Y-72.5
X103.04Y-65.0
X105.58Y-65.0
X118.796Y-49.2
X121.336Y-49.2
X122.88Y-80.46
X122.88Y-83.0
X122.88Y-85.54
X123.876Y-49.2
X126.416Y-49.2
X127.94Y-97.46
X128.956Y-49.2
X130.48Y-97.46
X131.496Y-49.2
X133.02Y-97.46
X134.036Y-49.2
X135.56Y-97.46
X136.576Y-49.2
X138.1Y-97.46
X139.116Y-49.2
X140.64Y-97.46
X141.656Y-49.2
X143.18Y-97.46
X145.72Y-49.2
X145.72Y-97.46
X148.26Y-49.2
X150.8Y-49.2
X150.8Y-97.46
X153.34Y-49.2
X153.34Y-97.46
X153.5Y-73.5
X153.5Y-76.04
X153.5Y-78.58
X153.5Y-86.92
X153.5Y-89.46
X153.5Y-92.0
X155.88Y-49.2
X155.88Y-97.46
X158.42Y-49.2
X158.42Y-97.46
X160.96Y-49.2
X160.96Y-97.46
X163.5Y-49.2
X163.5Y-97.46
T4
X157.5Y-54.5
X157.5Y-59.0
X157.5Y-63.0
X157.5Y-67.5
X164.0Y-54.5
X164.0Y-59.0
X164.0Y-63.0
X164.0Y-67.5
T1
G00X159.5Y-71.0
M15
G01X158.5Y-71.0
M16
G05
G00X158.5Y-81.0
M15
G01X159.5Y-81.0
M16
G05
G00X159.5Y-84.0
M15
G01X158.5Y-84.0
M16
G05
G00X158.5Y-94.0
M15
G01X159.5Y-94.0
M16
G05
G00X164.0Y-76.5
M15
G01X164.0Y-75.5
M16
G05
G00X164.0Y-89.5
M15
G01X164.0Y-88.5
M16
G05
T2
G00X159.35Y-73.5
M15
G01X158.65Y-73.5
M16
G05
G00X158.65Y-78.5
M15
G01X159.35Y-78.5
M16
G05
G00X159.35Y-86.5
M15
G01X158.65Y-86.5
M16
G05
G00X158.65Y-91.5
M15
G01X159.35Y-91.5
M16
G05
M30
