M48
; DRILL file {KiCad 9.0.6} date 2026-03-12T17:33:09-0600
; FORMAT={-:-/ absolute / metric / decimal}
; #@! TF.CreationDate,2026-03-12T17:33:09-06:00
; #@! TF.GenerationSoftware,Kicad,Pcbnew,9.0.6
; #@! TF.FileFunction,Plated,1,2,PTH
FMAT,2
METRIC
; #@! TA.AperFunction,Plated,PTH,ComponentDrill
T1C0.700
; #@! TA.AperFunction,Plated,PTH,ComponentDrill
T2C0.800
; #@! TA.AperFunction,Plated,PTH,ComponentDrill
T3C0.900
; #@! TA.AperFunction,Plated,PTH,ComponentDrill
T4C1.000
%
G90
G05
T1
X120.0Y-97.0
X121.9Y-97.0
X125.0Y-55.0
X125.0Y-56.9
X131.5Y-55.0
X131.5Y-56.9
X139.0Y-55.0
X139.0Y-56.9
X147.0Y-55.1
X147.0Y-57.0
X154.5Y-55.1
X154.5Y-57.0
X161.0Y-55.0
X161.0Y-56.9
T2
X110.11Y-95.5
X112.65Y-95.5
X115.19Y-95.5
T3
X125.06Y-61.41
X125.06Y-63.95
X132.0Y-61.36
X132.0Y-63.9
X139.5Y-61.46
X139.5Y-64.0
X147.0Y-61.46
X147.0Y-64.0
X154.65Y-61.46
X154.65Y-64.0
X162.0Y-61.46
X162.0Y-64.0
T4
X102.5Y-73.0
X103.5Y-78.46
X103.5Y-81.0
X103.5Y-83.54
X105.04Y-73.0
X105.3Y-93.975
X105.3Y-96.515
X107.58Y-73.0
X110.12Y-73.0
X112.66Y-73.0
X115.2Y-73.0
X117.74Y-73.0
X118.796Y-49.2
X121.336Y-49.2
X123.876Y-49.2
X124.0Y-91.5
X126.416Y-49.2
X126.54Y-91.5
X127.94Y-97.46
X128.956Y-49.2
X129.08Y-91.5
X130.48Y-97.46
X131.496Y-49.2
X131.62Y-91.5
X133.02Y-97.46
X134.036Y-49.2
X134.16Y-91.5
X135.56Y-97.46
X136.576Y-49.2
X136.7Y-91.5
X138.1Y-97.46
X139.116Y-49.2
X139.24Y-91.5
X140.64Y-97.46
X141.656Y-49.2
X141.78Y-91.5
X143.18Y-97.46
X145.72Y-49.2
X145.72Y-97.46
X147.5Y-91.5
X148.26Y-49.2
X150.0Y-91.5
X150.8Y-49.2
X150.8Y-97.46
X152.5Y-91.5
X153.34Y-49.2
X153.34Y-97.46
X155.12Y-91.5
X155.88Y-49.2
X155.88Y-97.46
X157.66Y-91.5
X158.42Y-49.2
X158.42Y-97.46
X160.2Y-91.5
X160.96Y-49.2
X160.96Y-97.46
X162.74Y-91.5
X163.5Y-49.2
X163.5Y-97.46
M30
