G04 #@! TF.GenerationSoftware,KiCad,Pcbnew,9.0.6*
G04 #@! TF.CreationDate,2026-03-12T17:34:17-06:00*
G04 #@! TF.ProjectId,Weather Balloon Arduino,57656174-6865-4722-9042-616c6c6f6f6e,rev?*
G04 #@! TF.SameCoordinates,Original*
G04 #@! TF.FileFunction,Copper,L2,Bot*
G04 #@! TF.FilePolarity,Positive*
%FSLAX46Y46*%
G04 Gerber Fmt 4.6, Leading zero omitted, Abs format (unit mm)*
G04 Created by KiCad (PCBNEW 9.0.6) date 2026-03-12 17:34:17*
%MOMM*%
%LPD*%
G01*
G04 APERTURE LIST*
G04 #@! TA.AperFunction,ComponentPad*
%ADD10R,1.700000X1.700000*%
G04 #@! TD*
G04 #@! TA.AperFunction,ComponentPad*
%ADD11O,1.700000X1.700000*%
G04 #@! TD*
G04 #@! TA.AperFunction,ComponentPad*
%ADD12R,1.800000X1.800000*%
G04 #@! TD*
G04 #@! TA.AperFunction,ComponentPad*
%ADD13C,1.800000*%
G04 #@! TD*
G04 #@! TA.AperFunction,ComponentPad*
%ADD14C,1.400000*%
G04 #@! TD*
G04 #@! TA.AperFunction,ComponentPad*
%ADD15C,1.700000*%
G04 #@! TD*
G04 #@! TA.AperFunction,ComponentPad*
%ADD16R,1.500000X1.500000*%
G04 #@! TD*
G04 #@! TA.AperFunction,ComponentPad*
%ADD17C,1.600000*%
G04 #@! TD*
G04 APERTURE END LIST*
D10*
X127940000Y-97460000D03*
D11*
X130480000Y-97460000D03*
X133020000Y-97460000D03*
X135560000Y-97460000D03*
X138100000Y-97460000D03*
X140640000Y-97460000D03*
X143180000Y-97460000D03*
X145720000Y-97460000D03*
D10*
X150800000Y-97460000D03*
D11*
X153340000Y-97460000D03*
X155880000Y-97460000D03*
X158420000Y-97460000D03*
X160960000Y-97460000D03*
X163500000Y-97460000D03*
D10*
X118796000Y-49200000D03*
D11*
X121336000Y-49200000D03*
X123876000Y-49200000D03*
X126416000Y-49200000D03*
X128956000Y-49200000D03*
X131496000Y-49200000D03*
X134036000Y-49200000D03*
X136576000Y-49200000D03*
X139116000Y-49200000D03*
X141656000Y-49200000D03*
D10*
X145720000Y-49200000D03*
D11*
X148260000Y-49200000D03*
X150800000Y-49200000D03*
X153340000Y-49200000D03*
X155880000Y-49200000D03*
X158420000Y-49200000D03*
X160960000Y-49200000D03*
X163500000Y-49200000D03*
D12*
X125060000Y-63950000D03*
D13*
X125060000Y-61410000D03*
D14*
X147000000Y-55100000D03*
X147000000Y-57000000D03*
X139000000Y-55000000D03*
X139000000Y-56900000D03*
X120000000Y-97000000D03*
X121900000Y-97000000D03*
D10*
X105300000Y-93975000D03*
D15*
X105300000Y-96515000D03*
D16*
X112650000Y-95500000D03*
D17*
X115190000Y-95500000D03*
X110110000Y-95500000D03*
D12*
X154650000Y-64000000D03*
D13*
X154650000Y-61460000D03*
D12*
X147000000Y-64000000D03*
D13*
X147000000Y-61460000D03*
D10*
X117740000Y-73000000D03*
D15*
X115200000Y-73000000D03*
X112660000Y-73000000D03*
X110120000Y-73000000D03*
X107580000Y-73000000D03*
X105040000Y-73000000D03*
X102500000Y-73000000D03*
D12*
X132000000Y-63900000D03*
D13*
X132000000Y-61360000D03*
D12*
X139500000Y-64000000D03*
D13*
X139500000Y-61460000D03*
D14*
X131500000Y-55000000D03*
X131500000Y-56900000D03*
X154500000Y-55100000D03*
X154500000Y-57000000D03*
X161000000Y-55000000D03*
X161000000Y-56900000D03*
D10*
X103500000Y-78460000D03*
D15*
X103500000Y-81000000D03*
X103500000Y-83540000D03*
D10*
X124000000Y-91500000D03*
D15*
X126540000Y-91500000D03*
X129080000Y-91500000D03*
X131620000Y-91500000D03*
X134160000Y-91500000D03*
X136700000Y-91500000D03*
X139240000Y-91500000D03*
X141780000Y-91500000D03*
X147500000Y-91500000D03*
X150000000Y-91500000D03*
D10*
X152500000Y-91500000D03*
D15*
X155120000Y-91500000D03*
X157660000Y-91500000D03*
X160200000Y-91500000D03*
X162740000Y-91500000D03*
D12*
X162000000Y-64000000D03*
D13*
X162000000Y-61460000D03*
D14*
X125000000Y-55000000D03*
X125000000Y-56900000D03*
G04 #@! TA.AperFunction,Conductor*
G36*
X142714075Y-97267007D02*
G01*
X142680000Y-97394174D01*
X142680000Y-97525826D01*
X142714075Y-97652993D01*
X142746988Y-97710000D01*
X141073012Y-97710000D01*
X141105925Y-97652993D01*
X141140000Y-97525826D01*
X141140000Y-97394174D01*
X141105925Y-97267007D01*
X141073012Y-97210000D01*
X142746988Y-97210000D01*
X142714075Y-97267007D01*
G37*
G04 #@! TD.AperFunction*
G04 #@! TA.AperFunction,Conductor*
G36*
X165870656Y-46755185D02*
G01*
X165916411Y-46807989D01*
X165927601Y-46857546D01*
X165936491Y-47422000D01*
X165964485Y-49199631D01*
X165964500Y-49201584D01*
X165964500Y-99231907D01*
X165963903Y-99244061D01*
X165963903Y-99244062D01*
X165952505Y-99359778D01*
X165947763Y-99383618D01*
X165917832Y-99482290D01*
X165915789Y-99489024D01*
X165906486Y-99511482D01*
X165854561Y-99608627D01*
X165841056Y-99628839D01*
X165771176Y-99713988D01*
X165753988Y-99731176D01*
X165668839Y-99801056D01*
X165648627Y-99814561D01*
X165551482Y-99866486D01*
X165529028Y-99875787D01*
X165487028Y-99888528D01*
X165423618Y-99907763D01*
X165399778Y-99912505D01*
X165291162Y-99923203D01*
X165284060Y-99923903D01*
X165271907Y-99924500D01*
X100768093Y-99924500D01*
X100755939Y-99923903D01*
X100747995Y-99923120D01*
X100640221Y-99912505D01*
X100616381Y-99907763D01*
X100599445Y-99902625D01*
X100510968Y-99875786D01*
X100488517Y-99866486D01*
X100391372Y-99814561D01*
X100371160Y-99801056D01*
X100286011Y-99731176D01*
X100268823Y-99713988D01*
X100198943Y-99628839D01*
X100185438Y-99608627D01*
X100133510Y-99511476D01*
X100124215Y-99489037D01*
X100092234Y-99383612D01*
X100087494Y-99359777D01*
X100076097Y-99244061D01*
X100075500Y-99231907D01*
X100075500Y-96408084D01*
X103941500Y-96408084D01*
X103941500Y-96621916D01*
X103955868Y-96712632D01*
X103974951Y-96833117D01*
X104041026Y-97036480D01*
X104041027Y-97036483D01*
X104100393Y-97152993D01*
X104138106Y-97227009D01*
X104263794Y-97400004D01*
X104414996Y-97551206D01*
X104587991Y-97676894D01*
X104652965Y-97710000D01*
X104778516Y-97773972D01*
X104778519Y-97773973D01*
X104880200Y-97807010D01*
X104981884Y-97840049D01*
X105193084Y-97873500D01*
X105193085Y-97873500D01*
X105406915Y-97873500D01*
X105406916Y-97873500D01*
X105618116Y-97840049D01*
X105821483Y-97773972D01*
X106012009Y-97676894D01*
X106185004Y-97551206D01*
X106336206Y-97400004D01*
X106461894Y-97227009D01*
X106558972Y-97036483D01*
X106601731Y-96904883D01*
X118791500Y-96904883D01*
X118791500Y-97095116D01*
X118821256Y-97282991D01*
X118880040Y-97463907D01*
X118966398Y-97633392D01*
X119078208Y-97787285D01*
X119212715Y-97921792D01*
X119366608Y-98033602D01*
X119446683Y-98074402D01*
X119536092Y-98119959D01*
X119536094Y-98119959D01*
X119536097Y-98119961D01*
X119633070Y-98151469D01*
X119717008Y-98178743D01*
X119904884Y-98208500D01*
X119904889Y-98208500D01*
X120095116Y-98208500D01*
X120282991Y-98178743D01*
X120315648Y-98168132D01*
X120463903Y-98119961D01*
X120633392Y-98033602D01*
X120787285Y-97921792D01*
X120862319Y-97846758D01*
X120923642Y-97813273D01*
X120993334Y-97818257D01*
X121037681Y-97846758D01*
X121112715Y-97921792D01*
X121266608Y-98033602D01*
X121346683Y-98074402D01*
X121436092Y-98119959D01*
X121436094Y-98119959D01*
X121436097Y-98119961D01*
X121533070Y-98151469D01*
X121617008Y-98178743D01*
X121804884Y-98208500D01*
X121804889Y-98208500D01*
X121995116Y-98208500D01*
X122182991Y-98178743D01*
X122215648Y-98168132D01*
X122363903Y-98119961D01*
X122533392Y-98033602D01*
X122687285Y-97921792D01*
X122821792Y-97787285D01*
X122933602Y-97633392D01*
X123019961Y-97463903D01*
X123078743Y-97282991D01*
X123090304Y-97210000D01*
X123108500Y-97095116D01*
X123108500Y-96904883D01*
X123078743Y-96717008D01*
X123066045Y-96677931D01*
X123028164Y-96561345D01*
X126581500Y-96561345D01*
X126581500Y-98358654D01*
X126588011Y-98419202D01*
X126588011Y-98419204D01*
X126639111Y-98556204D01*
X126726739Y-98673261D01*
X126843796Y-98760889D01*
X126980799Y-98811989D01*
X127008050Y-98814918D01*
X127041345Y-98818499D01*
X127041362Y-98818500D01*
X128838638Y-98818500D01*
X128838654Y-98818499D01*
X128865692Y-98815591D01*
X128899201Y-98811989D01*
X129036204Y-98760889D01*
X129153261Y-98673261D01*
X129240889Y-98556204D01*
X129285957Y-98435371D01*
X129327827Y-98379442D01*
X129393291Y-98355025D01*
X129461564Y-98369877D01*
X129489818Y-98391028D01*
X129594996Y-98496206D01*
X129767991Y-98621894D01*
X129861438Y-98669507D01*
X129958516Y-98718972D01*
X129958519Y-98718973D01*
X130060200Y-98752010D01*
X130161884Y-98785049D01*
X130373084Y-98818500D01*
X130373085Y-98818500D01*
X130586915Y-98818500D01*
X130586916Y-98818500D01*
X130798116Y-98785049D01*
X131001483Y-98718972D01*
X131192009Y-98621894D01*
X131365004Y-98496206D01*
X131516206Y-98345004D01*
X131641894Y-98172009D01*
X131641896Y-98172004D01*
X131644270Y-98168132D01*
X131696080Y-98121254D01*
X131765009Y-98109829D01*
X131829173Y-98137483D01*
X131855730Y-98168132D01*
X131858103Y-98172005D01*
X131876510Y-98197340D01*
X131983794Y-98345004D01*
X132134996Y-98496206D01*
X132307991Y-98621894D01*
X132401438Y-98669507D01*
X132498516Y-98718972D01*
X132498519Y-98718973D01*
X132600200Y-98752010D01*
X132701884Y-98785049D01*
X132913084Y-98818500D01*
X132913085Y-98818500D01*
X133126915Y-98818500D01*
X133126916Y-98818500D01*
X133338116Y-98785049D01*
X133541483Y-98718972D01*
X133732009Y-98621894D01*
X133905004Y-98496206D01*
X134056206Y-98345004D01*
X134181894Y-98172009D01*
X134181896Y-98172004D01*
X134184270Y-98168132D01*
X134236080Y-98121254D01*
X134305009Y-98109829D01*
X134369173Y-98137483D01*
X134395730Y-98168132D01*
X134398103Y-98172005D01*
X134416510Y-98197340D01*
X134523794Y-98345004D01*
X134674996Y-98496206D01*
X134847991Y-98621894D01*
X134941438Y-98669507D01*
X135038516Y-98718972D01*
X135038519Y-98718973D01*
X135140200Y-98752010D01*
X135241884Y-98785049D01*
X135453084Y-98818500D01*
X135453085Y-98818500D01*
X135666915Y-98818500D01*
X135666916Y-98818500D01*
X135878116Y-98785049D01*
X136081483Y-98718972D01*
X136272009Y-98621894D01*
X136445004Y-98496206D01*
X136596206Y-98345004D01*
X136721894Y-98172009D01*
X136721896Y-98172004D01*
X136724270Y-98168132D01*
X136776080Y-98121254D01*
X136845009Y-98109829D01*
X136909173Y-98137483D01*
X136935730Y-98168132D01*
X136938103Y-98172005D01*
X136956510Y-98197340D01*
X137063794Y-98345004D01*
X137214996Y-98496206D01*
X137387991Y-98621894D01*
X137481438Y-98669507D01*
X137578516Y-98718972D01*
X137578519Y-98718973D01*
X137680200Y-98752010D01*
X137781884Y-98785049D01*
X137993084Y-98818500D01*
X137993085Y-98818500D01*
X138206915Y-98818500D01*
X138206916Y-98818500D01*
X138418116Y-98785049D01*
X138621483Y-98718972D01*
X138812009Y-98621894D01*
X138985004Y-98496206D01*
X139136206Y-98345004D01*
X139261894Y-98172009D01*
X139264283Y-98167319D01*
X139312254Y-98116522D01*
X139380074Y-98099724D01*
X139446210Y-98122258D01*
X139482201Y-98163788D01*
X139482832Y-98163402D01*
X139485164Y-98167207D01*
X139485251Y-98167308D01*
X139485376Y-98167554D01*
X139610272Y-98339459D01*
X139610276Y-98339464D01*
X139760535Y-98489723D01*
X139760540Y-98489727D01*
X139932442Y-98614620D01*
X140121782Y-98711095D01*
X140323871Y-98776757D01*
X140390000Y-98787231D01*
X140390000Y-97893012D01*
X140447007Y-97925925D01*
X140574174Y-97960000D01*
X140705826Y-97960000D01*
X140832993Y-97925925D01*
X140890000Y-97893012D01*
X140890000Y-98787230D01*
X140956126Y-98776757D01*
X140956129Y-98776757D01*
X141158217Y-98711095D01*
X141347557Y-98614620D01*
X141519459Y-98489727D01*
X141519464Y-98489723D01*
X141669723Y-98339464D01*
X141669727Y-98339459D01*
X141794620Y-98167558D01*
X141799514Y-98157954D01*
X141847488Y-98107157D01*
X141915308Y-98090361D01*
X141981444Y-98112897D01*
X142020486Y-98157954D01*
X142025379Y-98167558D01*
X142150272Y-98339459D01*
X142150276Y-98339464D01*
X142300535Y-98489723D01*
X142300540Y-98489727D01*
X142472442Y-98614620D01*
X142661782Y-98711095D01*
X142863871Y-98776757D01*
X142930000Y-98787231D01*
X142930000Y-97893012D01*
X142987007Y-97925925D01*
X143114174Y-97960000D01*
X143245826Y-97960000D01*
X143372993Y-97925925D01*
X143430000Y-97893012D01*
X143430000Y-98787230D01*
X143496126Y-98776757D01*
X143496129Y-98776757D01*
X143698217Y-98711095D01*
X143887557Y-98614620D01*
X144059459Y-98489727D01*
X144059464Y-98489723D01*
X144209723Y-98339464D01*
X144209727Y-98339459D01*
X144334619Y-98167560D01*
X144334738Y-98167327D01*
X144334808Y-98167252D01*
X144337168Y-98163402D01*
X144337976Y-98163897D01*
X144382707Y-98116526D01*
X144450526Y-98099723D01*
X144516663Y-98122254D01*
X144555712Y-98167311D01*
X144558105Y-98172008D01*
X144584618Y-98208500D01*
X144683794Y-98345004D01*
X144834996Y-98496206D01*
X145007991Y-98621894D01*
X145101438Y-98669507D01*
X145198516Y-98718972D01*
X145198519Y-98718973D01*
X145300200Y-98752010D01*
X145401884Y-98785049D01*
X145613084Y-98818500D01*
X145613085Y-98818500D01*
X145826915Y-98818500D01*
X145826916Y-98818500D01*
X146038116Y-98785049D01*
X146241483Y-98718972D01*
X146432009Y-98621894D01*
X146605004Y-98496206D01*
X146756206Y-98345004D01*
X146881894Y-98172009D01*
X146978972Y-97981483D01*
X147045049Y-97778116D01*
X147078500Y-97566916D01*
X147078500Y-97353084D01*
X147045049Y-97141884D01*
X146978972Y-96938517D01*
X146978972Y-96938516D01*
X146923495Y-96829638D01*
X146881894Y-96747991D01*
X146850481Y-96704755D01*
X146796844Y-96630929D01*
X146796842Y-96630927D01*
X146790295Y-96621916D01*
X146756206Y-96574996D01*
X146742555Y-96561345D01*
X149441500Y-96561345D01*
X149441500Y-98358654D01*
X149448011Y-98419202D01*
X149448011Y-98419204D01*
X149499111Y-98556204D01*
X149586739Y-98673261D01*
X149703796Y-98760889D01*
X149840799Y-98811989D01*
X149868050Y-98814918D01*
X149901345Y-98818499D01*
X149901362Y-98818500D01*
X151698638Y-98818500D01*
X151698654Y-98818499D01*
X151725692Y-98815591D01*
X151759201Y-98811989D01*
X151896204Y-98760889D01*
X152013261Y-98673261D01*
X152100889Y-98556204D01*
X152145957Y-98435371D01*
X152187827Y-98379442D01*
X152253291Y-98355025D01*
X152321564Y-98369877D01*
X152349818Y-98391028D01*
X152454996Y-98496206D01*
X152627991Y-98621894D01*
X152721438Y-98669507D01*
X152818516Y-98718972D01*
X152818519Y-98718973D01*
X152920200Y-98752010D01*
X153021884Y-98785049D01*
X153233084Y-98818500D01*
X153233085Y-98818500D01*
X153446915Y-98818500D01*
X153446916Y-98818500D01*
X153658116Y-98785049D01*
X153861483Y-98718972D01*
X154052009Y-98621894D01*
X154225004Y-98496206D01*
X154376206Y-98345004D01*
X154501894Y-98172009D01*
X154501896Y-98172004D01*
X154504270Y-98168132D01*
X154556080Y-98121254D01*
X154625009Y-98109829D01*
X154689173Y-98137483D01*
X154715730Y-98168132D01*
X154718103Y-98172005D01*
X154736510Y-98197340D01*
X154843794Y-98345004D01*
X154994996Y-98496206D01*
X155167991Y-98621894D01*
X155261438Y-98669507D01*
X155358516Y-98718972D01*
X155358519Y-98718973D01*
X155460200Y-98752010D01*
X155561884Y-98785049D01*
X155773084Y-98818500D01*
X155773085Y-98818500D01*
X155986915Y-98818500D01*
X155986916Y-98818500D01*
X156198116Y-98785049D01*
X156401483Y-98718972D01*
X156592009Y-98621894D01*
X156765004Y-98496206D01*
X156916206Y-98345004D01*
X157041894Y-98172009D01*
X157041896Y-98172004D01*
X157044270Y-98168132D01*
X157096080Y-98121254D01*
X157165009Y-98109829D01*
X157229173Y-98137483D01*
X157255730Y-98168132D01*
X157258103Y-98172005D01*
X157276510Y-98197340D01*
X157383794Y-98345004D01*
X157534996Y-98496206D01*
X157707991Y-98621894D01*
X157801438Y-98669507D01*
X157898516Y-98718972D01*
X157898519Y-98718973D01*
X158000200Y-98752010D01*
X158101884Y-98785049D01*
X158313084Y-98818500D01*
X158313085Y-98818500D01*
X158526915Y-98818500D01*
X158526916Y-98818500D01*
X158738116Y-98785049D01*
X158941483Y-98718972D01*
X159132009Y-98621894D01*
X159305004Y-98496206D01*
X159456206Y-98345004D01*
X159581894Y-98172009D01*
X159581896Y-98172004D01*
X159584270Y-98168132D01*
X159636080Y-98121254D01*
X159705009Y-98109829D01*
X159769173Y-98137483D01*
X159795730Y-98168132D01*
X159798103Y-98172005D01*
X159816510Y-98197340D01*
X159923794Y-98345004D01*
X160074996Y-98496206D01*
X160247991Y-98621894D01*
X160341438Y-98669507D01*
X160438516Y-98718972D01*
X160438519Y-98718973D01*
X160540200Y-98752010D01*
X160641884Y-98785049D01*
X160853084Y-98818500D01*
X160853085Y-98818500D01*
X161066915Y-98818500D01*
X161066916Y-98818500D01*
X161278116Y-98785049D01*
X161481483Y-98718972D01*
X161672009Y-98621894D01*
X161845004Y-98496206D01*
X161996206Y-98345004D01*
X162121894Y-98172009D01*
X162121896Y-98172004D01*
X162124270Y-98168132D01*
X162176080Y-98121254D01*
X162245009Y-98109829D01*
X162309173Y-98137483D01*
X162335730Y-98168132D01*
X162338103Y-98172005D01*
X162356510Y-98197340D01*
X162463794Y-98345004D01*
X162614996Y-98496206D01*
X162787991Y-98621894D01*
X162881438Y-98669507D01*
X162978516Y-98718972D01*
X162978519Y-98718973D01*
X163080200Y-98752010D01*
X163181884Y-98785049D01*
X163393084Y-98818500D01*
X163393085Y-98818500D01*
X163606915Y-98818500D01*
X163606916Y-98818500D01*
X163818116Y-98785049D01*
X164021483Y-98718972D01*
X164212009Y-98621894D01*
X164385004Y-98496206D01*
X164536206Y-98345004D01*
X164661894Y-98172009D01*
X164758972Y-97981483D01*
X164825049Y-97778116D01*
X164858500Y-97566916D01*
X164858500Y-97353084D01*
X164825049Y-97141884D01*
X164758972Y-96938517D01*
X164758972Y-96938516D01*
X164703495Y-96829638D01*
X164661894Y-96747991D01*
X164536206Y-96574996D01*
X164385004Y-96423794D01*
X164212009Y-96298106D01*
X164021483Y-96201027D01*
X164021480Y-96201026D01*
X163818117Y-96134951D01*
X163712516Y-96118225D01*
X163606916Y-96101500D01*
X163393084Y-96101500D01*
X163322684Y-96112650D01*
X163181882Y-96134951D01*
X162978519Y-96201026D01*
X162978516Y-96201027D01*
X162787990Y-96298106D01*
X162614993Y-96423796D01*
X162463796Y-96574993D01*
X162338105Y-96747991D01*
X162335727Y-96751873D01*
X162283914Y-96798748D01*
X162214984Y-96810169D01*
X162150822Y-96782512D01*
X162124273Y-96751873D01*
X162121894Y-96747991D01*
X162099384Y-96717009D01*
X161996206Y-96574996D01*
X161845004Y-96423794D01*
X161672009Y-96298106D01*
X161481483Y-96201027D01*
X161481480Y-96201026D01*
X161278117Y-96134951D01*
X161172516Y-96118225D01*
X161066916Y-96101500D01*
X160853084Y-96101500D01*
X160782684Y-96112650D01*
X160641882Y-96134951D01*
X160438519Y-96201026D01*
X160438516Y-96201027D01*
X160247990Y-96298106D01*
X160074993Y-96423796D01*
X159923796Y-96574993D01*
X159798105Y-96747991D01*
X159795727Y-96751873D01*
X159743914Y-96798748D01*
X159674984Y-96810169D01*
X159610822Y-96782512D01*
X159584273Y-96751873D01*
X159581894Y-96747991D01*
X159559384Y-96717009D01*
X159456206Y-96574996D01*
X159305004Y-96423794D01*
X159132009Y-96298106D01*
X158941483Y-96201027D01*
X158941480Y-96201026D01*
X158738117Y-96134951D01*
X158632516Y-96118225D01*
X158526916Y-96101500D01*
X158313084Y-96101500D01*
X158242684Y-96112650D01*
X158101882Y-96134951D01*
X157898519Y-96201026D01*
X157898516Y-96201027D01*
X157707990Y-96298106D01*
X157534993Y-96423796D01*
X157383796Y-96574993D01*
X157258105Y-96747991D01*
X157255727Y-96751873D01*
X157203914Y-96798748D01*
X157134984Y-96810169D01*
X157070822Y-96782512D01*
X157044273Y-96751873D01*
X157041894Y-96747991D01*
X157019384Y-96717009D01*
X156916206Y-96574996D01*
X156765004Y-96423794D01*
X156592009Y-96298106D01*
X156401483Y-96201027D01*
X156401480Y-96201026D01*
X156198117Y-96134951D01*
X156092516Y-96118225D01*
X155986916Y-96101500D01*
X155773084Y-96101500D01*
X155702684Y-96112650D01*
X155561882Y-96134951D01*
X155358519Y-96201026D01*
X155358516Y-96201027D01*
X155167990Y-96298106D01*
X154994993Y-96423796D01*
X154843796Y-96574993D01*
X154718105Y-96747991D01*
X154715727Y-96751873D01*
X154663914Y-96798748D01*
X154594984Y-96810169D01*
X154530822Y-96782512D01*
X154504273Y-96751873D01*
X154501894Y-96747991D01*
X154479384Y-96717009D01*
X154376206Y-96574996D01*
X154225004Y-96423794D01*
X154052009Y-96298106D01*
X153861483Y-96201027D01*
X153861480Y-96201026D01*
X153658117Y-96134951D01*
X153552516Y-96118225D01*
X153446916Y-96101500D01*
X153233084Y-96101500D01*
X153162684Y-96112650D01*
X153021882Y-96134951D01*
X152818519Y-96201026D01*
X152818516Y-96201027D01*
X152627990Y-96298106D01*
X152454997Y-96423793D01*
X152349818Y-96528972D01*
X152288495Y-96562456D01*
X152218803Y-96557472D01*
X152162870Y-96515600D01*
X152145958Y-96484629D01*
X152100889Y-96363796D01*
X152097451Y-96359204D01*
X152051714Y-96298106D01*
X152013261Y-96246739D01*
X151896204Y-96159111D01*
X151880469Y-96153242D01*
X151759203Y-96108011D01*
X151698654Y-96101500D01*
X151698638Y-96101500D01*
X149901362Y-96101500D01*
X149901345Y-96101500D01*
X149840797Y-96108011D01*
X149840795Y-96108011D01*
X149703795Y-96159111D01*
X149586739Y-96246739D01*
X149499111Y-96363795D01*
X149448011Y-96500795D01*
X149448011Y-96500797D01*
X149441500Y-96561345D01*
X146742555Y-96561345D01*
X146605004Y-96423794D01*
X146432009Y-96298106D01*
X146241483Y-96201027D01*
X146241480Y-96201026D01*
X146038117Y-96134951D01*
X145932516Y-96118225D01*
X145826916Y-96101500D01*
X145613084Y-96101500D01*
X145542684Y-96112650D01*
X145401882Y-96134951D01*
X145198519Y-96201026D01*
X145198516Y-96201027D01*
X145007990Y-96298106D01*
X144834993Y-96423796D01*
X144683796Y-96574993D01*
X144558103Y-96747994D01*
X144555709Y-96752693D01*
X144507731Y-96803485D01*
X144439908Y-96820275D01*
X144373775Y-96797732D01*
X144337800Y-96756210D01*
X144337168Y-96756598D01*
X144334829Y-96752781D01*
X144334743Y-96752682D01*
X144334620Y-96752441D01*
X144209727Y-96580540D01*
X144209723Y-96580535D01*
X144059464Y-96430276D01*
X144059459Y-96430272D01*
X143887557Y-96305379D01*
X143698215Y-96208903D01*
X143496124Y-96143241D01*
X143430000Y-96132768D01*
X143430000Y-97026988D01*
X143372993Y-96994075D01*
X143245826Y-96960000D01*
X143114174Y-96960000D01*
X142987007Y-96994075D01*
X142930000Y-97026988D01*
X142930000Y-96132768D01*
X142929999Y-96132768D01*
X142863875Y-96143241D01*
X142661784Y-96208903D01*
X142472442Y-96305379D01*
X142300540Y-96430272D01*
X142300535Y-96430276D01*
X142150276Y-96580535D01*
X142150272Y-96580540D01*
X142025377Y-96752444D01*
X142020484Y-96762048D01*
X141972509Y-96812844D01*
X141904688Y-96829638D01*
X141838553Y-96807100D01*
X141799516Y-96762048D01*
X141794622Y-96752444D01*
X141669727Y-96580540D01*
X141669723Y-96580535D01*
X141519464Y-96430276D01*
X141519459Y-96430272D01*
X141347557Y-96305379D01*
X141158215Y-96208903D01*
X140956124Y-96143241D01*
X140890000Y-96132768D01*
X140890000Y-97026988D01*
X140832993Y-96994075D01*
X140705826Y-96960000D01*
X140574174Y-96960000D01*
X140447007Y-96994075D01*
X140390000Y-97026988D01*
X140390000Y-96132768D01*
X140389999Y-96132768D01*
X140323875Y-96143241D01*
X140121784Y-96208903D01*
X139932442Y-96305379D01*
X139760540Y-96430272D01*
X139760535Y-96430276D01*
X139610276Y-96580535D01*
X139610272Y-96580540D01*
X139485376Y-96752446D01*
X139485374Y-96752448D01*
X139485246Y-96752701D01*
X139485172Y-96752779D01*
X139482832Y-96756598D01*
X139482029Y-96756106D01*
X139437264Y-96803489D01*
X139369441Y-96820274D01*
X139303309Y-96797727D01*
X139264285Y-96752683D01*
X139261895Y-96747992D01*
X139227672Y-96700888D01*
X139136206Y-96574996D01*
X138985004Y-96423794D01*
X138812009Y-96298106D01*
X138621483Y-96201027D01*
X138621480Y-96201026D01*
X138418117Y-96134951D01*
X138312516Y-96118225D01*
X138206916Y-96101500D01*
X137993084Y-96101500D01*
X137922684Y-96112650D01*
X137781882Y-96134951D01*
X137578519Y-96201026D01*
X137578516Y-96201027D01*
X137387990Y-96298106D01*
X137214993Y-96423796D01*
X137063796Y-96574993D01*
X136938105Y-96747991D01*
X136935727Y-96751873D01*
X136883914Y-96798748D01*
X136814984Y-96810169D01*
X136750822Y-96782512D01*
X136724273Y-96751873D01*
X136721894Y-96747991D01*
X136699384Y-96717009D01*
X136596206Y-96574996D01*
X136445004Y-96423794D01*
X136272009Y-96298106D01*
X136081483Y-96201027D01*
X136081480Y-96201026D01*
X135878117Y-96134951D01*
X135772516Y-96118225D01*
X135666916Y-96101500D01*
X135453084Y-96101500D01*
X135382684Y-96112650D01*
X135241882Y-96134951D01*
X135038519Y-96201026D01*
X135038516Y-96201027D01*
X134847990Y-96298106D01*
X134674993Y-96423796D01*
X134523796Y-96574993D01*
X134398105Y-96747991D01*
X134395727Y-96751873D01*
X134343914Y-96798748D01*
X134274984Y-96810169D01*
X134210822Y-96782512D01*
X134184273Y-96751873D01*
X134181894Y-96747991D01*
X134159384Y-96717009D01*
X134056206Y-96574996D01*
X133905004Y-96423794D01*
X133732009Y-96298106D01*
X133541483Y-96201027D01*
X133541480Y-96201026D01*
X133338117Y-96134951D01*
X133232516Y-96118225D01*
X133126916Y-96101500D01*
X132913084Y-96101500D01*
X132842684Y-96112650D01*
X132701882Y-96134951D01*
X132498519Y-96201026D01*
X132498516Y-96201027D01*
X132307990Y-96298106D01*
X132134993Y-96423796D01*
X131983796Y-96574993D01*
X131858105Y-96747991D01*
X131855727Y-96751873D01*
X131803914Y-96798748D01*
X131734984Y-96810169D01*
X131670822Y-96782512D01*
X131644273Y-96751873D01*
X131641894Y-96747991D01*
X131619384Y-96717009D01*
X131516206Y-96574996D01*
X131365004Y-96423794D01*
X131192009Y-96298106D01*
X131001483Y-96201027D01*
X131001480Y-96201026D01*
X130798117Y-96134951D01*
X130692516Y-96118225D01*
X130586916Y-96101500D01*
X130373084Y-96101500D01*
X130302684Y-96112650D01*
X130161882Y-96134951D01*
X129958519Y-96201026D01*
X129958516Y-96201027D01*
X129767990Y-96298106D01*
X129594997Y-96423793D01*
X129489818Y-96528972D01*
X129428495Y-96562456D01*
X129358803Y-96557472D01*
X129302870Y-96515600D01*
X129285958Y-96484629D01*
X129240889Y-96363796D01*
X129237451Y-96359204D01*
X129191714Y-96298106D01*
X129153261Y-96246739D01*
X129036204Y-96159111D01*
X129020469Y-96153242D01*
X128899203Y-96108011D01*
X128838654Y-96101500D01*
X128838638Y-96101500D01*
X127041362Y-96101500D01*
X127041345Y-96101500D01*
X126980797Y-96108011D01*
X126980795Y-96108011D01*
X126843795Y-96159111D01*
X126726739Y-96246739D01*
X126639111Y-96363795D01*
X126588011Y-96500795D01*
X126588011Y-96500797D01*
X126581500Y-96561345D01*
X123028164Y-96561345D01*
X123019961Y-96536097D01*
X122933602Y-96366608D01*
X122821792Y-96212715D01*
X122687285Y-96078208D01*
X122533392Y-95966398D01*
X122363907Y-95880040D01*
X122182991Y-95821256D01*
X121995116Y-95791500D01*
X121995111Y-95791500D01*
X121804889Y-95791500D01*
X121804884Y-95791500D01*
X121617008Y-95821256D01*
X121436092Y-95880040D01*
X121266607Y-95966398D01*
X121217207Y-96002290D01*
X121112715Y-96078208D01*
X121112713Y-96078210D01*
X121112712Y-96078210D01*
X121037681Y-96153242D01*
X120976358Y-96186727D01*
X120906666Y-96181743D01*
X120862319Y-96153242D01*
X120787287Y-96078210D01*
X120787285Y-96078208D01*
X120633392Y-95966398D01*
X120463907Y-95880040D01*
X120282991Y-95821256D01*
X120095116Y-95791500D01*
X120095111Y-95791500D01*
X119904889Y-95791500D01*
X119904884Y-95791500D01*
X119717008Y-95821256D01*
X119536092Y-95880040D01*
X119366607Y-95966398D01*
X119317207Y-96002290D01*
X119212715Y-96078208D01*
X119212713Y-96078210D01*
X119212712Y-96078210D01*
X119078210Y-96212712D01*
X119078210Y-96212713D01*
X119078208Y-96212715D01*
X119039435Y-96266082D01*
X118966398Y-96366607D01*
X118880040Y-96536092D01*
X118821256Y-96717008D01*
X118791500Y-96904883D01*
X106601731Y-96904883D01*
X106625049Y-96833116D01*
X106658500Y-96621916D01*
X106658500Y-96408084D01*
X106625049Y-96196884D01*
X106561824Y-96002294D01*
X106558973Y-95993519D01*
X106558972Y-95993516D01*
X106497433Y-95872741D01*
X106461894Y-95802991D01*
X106336206Y-95629996D01*
X106224421Y-95518211D01*
X106190936Y-95456888D01*
X106195170Y-95397682D01*
X108810000Y-95397682D01*
X108810000Y-95602317D01*
X108842009Y-95804417D01*
X108905244Y-95999031D01*
X108998141Y-96181350D01*
X108998147Y-96181359D01*
X109030523Y-96225921D01*
X109030524Y-96225922D01*
X109710000Y-95546446D01*
X109710000Y-95552661D01*
X109737259Y-95654394D01*
X109789920Y-95745606D01*
X109864394Y-95820080D01*
X109955606Y-95872741D01*
X110057339Y-95900000D01*
X110063553Y-95900000D01*
X109384076Y-96579474D01*
X109428650Y-96611859D01*
X109610968Y-96704755D01*
X109805582Y-96767990D01*
X110007683Y-96800000D01*
X110212317Y-96800000D01*
X110414417Y-96767990D01*
X110609031Y-96704755D01*
X110791349Y-96611859D01*
X110835921Y-96579474D01*
X110156447Y-95900000D01*
X110162661Y-95900000D01*
X110264394Y-95872741D01*
X110355606Y-95820080D01*
X110430080Y-95745606D01*
X110482741Y-95654394D01*
X110510000Y-95552661D01*
X110510000Y-95546448D01*
X111189474Y-96225922D01*
X111206978Y-96224544D01*
X111224776Y-96210820D01*
X111294389Y-96204839D01*
X111356185Y-96237444D01*
X111390543Y-96298283D01*
X111393055Y-96313112D01*
X111398011Y-96359203D01*
X111398011Y-96359204D01*
X111444792Y-96484624D01*
X111449111Y-96496204D01*
X111536739Y-96613261D01*
X111653796Y-96700889D01*
X111790799Y-96751989D01*
X111818050Y-96754918D01*
X111851345Y-96758499D01*
X111851362Y-96758500D01*
X113448638Y-96758500D01*
X113448654Y-96758499D01*
X113475692Y-96755591D01*
X113509201Y-96751989D01*
X113646204Y-96700889D01*
X113763261Y-96613261D01*
X113850889Y-96496204D01*
X113901989Y-96359201D01*
X113905589Y-96325710D01*
X113932326Y-96261163D01*
X113989718Y-96221314D01*
X114059543Y-96218819D01*
X114119632Y-96254471D01*
X114129196Y-96266082D01*
X114191930Y-96352428D01*
X114337571Y-96498069D01*
X114337576Y-96498073D01*
X114472855Y-96596358D01*
X114504197Y-96619129D01*
X114621128Y-96678709D01*
X114687705Y-96712632D01*
X114687707Y-96712632D01*
X114687710Y-96712634D01*
X114792707Y-96746749D01*
X114883591Y-96776280D01*
X114947922Y-96786469D01*
X115087019Y-96808500D01*
X115087020Y-96808500D01*
X115292980Y-96808500D01*
X115292981Y-96808500D01*
X115457061Y-96782512D01*
X115488428Y-96777544D01*
X115488428Y-96777543D01*
X115496408Y-96776280D01*
X115692290Y-96712634D01*
X115875803Y-96619129D01*
X116042430Y-96498068D01*
X116188068Y-96352430D01*
X116309129Y-96185803D01*
X116402634Y-96002290D01*
X116466280Y-95806408D01*
X116498500Y-95602981D01*
X116498500Y-95397019D01*
X116479433Y-95276634D01*
X116466280Y-95193591D01*
X116425176Y-95067086D01*
X116402634Y-94997710D01*
X116402632Y-94997707D01*
X116402632Y-94997705D01*
X116339011Y-94872844D01*
X116309129Y-94814197D01*
X116262455Y-94749955D01*
X116188073Y-94647576D01*
X116188069Y-94647571D01*
X116042428Y-94501930D01*
X116042423Y-94501926D01*
X115875806Y-94380873D01*
X115875805Y-94380872D01*
X115875803Y-94380871D01*
X115818496Y-94351671D01*
X115692294Y-94287367D01*
X115496408Y-94223719D01*
X115320794Y-94195905D01*
X115292981Y-94191500D01*
X115087019Y-94191500D01*
X115062550Y-94195375D01*
X114883591Y-94223719D01*
X114687705Y-94287367D01*
X114504193Y-94380873D01*
X114337576Y-94501926D01*
X114337571Y-94501930D01*
X114191930Y-94647571D01*
X114129196Y-94733917D01*
X114073865Y-94776582D01*
X114004252Y-94782561D01*
X113942457Y-94749955D01*
X113908100Y-94689116D01*
X113905590Y-94674301D01*
X113901989Y-94640799D01*
X113850889Y-94503796D01*
X113763261Y-94386739D01*
X113646204Y-94299111D01*
X113635836Y-94295244D01*
X113509203Y-94248011D01*
X113448654Y-94241500D01*
X113448638Y-94241500D01*
X111851362Y-94241500D01*
X111851345Y-94241500D01*
X111790797Y-94248011D01*
X111790795Y-94248011D01*
X111653795Y-94299111D01*
X111536739Y-94386739D01*
X111449111Y-94503795D01*
X111398011Y-94640795D01*
X111398011Y-94640796D01*
X111393055Y-94686885D01*
X111366315Y-94751436D01*
X111308922Y-94791282D01*
X111239097Y-94793774D01*
X111208413Y-94775567D01*
X111189474Y-94774076D01*
X110510000Y-95453551D01*
X110510000Y-95447339D01*
X110482741Y-95345606D01*
X110430080Y-95254394D01*
X110355606Y-95179920D01*
X110264394Y-95127259D01*
X110162661Y-95100000D01*
X110156446Y-95100000D01*
X110835922Y-94420524D01*
X110835921Y-94420523D01*
X110791359Y-94388147D01*
X110791350Y-94388141D01*
X110609031Y-94295244D01*
X110414417Y-94232009D01*
X110212317Y-94200000D01*
X110007683Y-94200000D01*
X109805582Y-94232009D01*
X109610968Y-94295244D01*
X109428644Y-94388143D01*
X109384077Y-94420523D01*
X109384077Y-94420524D01*
X110063554Y-95100000D01*
X110057339Y-95100000D01*
X109955606Y-95127259D01*
X109864394Y-95179920D01*
X109789920Y-95254394D01*
X109737259Y-95345606D01*
X109710000Y-95447339D01*
X109710000Y-95453553D01*
X109030524Y-94774077D01*
X109030523Y-94774077D01*
X108998143Y-94818644D01*
X108905244Y-95000968D01*
X108842009Y-95195582D01*
X108810000Y-95397682D01*
X106195170Y-95397682D01*
X106195920Y-95387196D01*
X106211444Y-95366459D01*
X106237792Y-95331262D01*
X106268770Y-95314348D01*
X106369888Y-95276634D01*
X106392084Y-95268355D01*
X106392093Y-95268350D01*
X106507187Y-95182190D01*
X106507190Y-95182187D01*
X106593350Y-95067093D01*
X106593354Y-95067086D01*
X106643596Y-94932379D01*
X106643598Y-94932372D01*
X106649999Y-94872844D01*
X106650000Y-94872827D01*
X106650000Y-94225000D01*
X105733012Y-94225000D01*
X105765925Y-94167993D01*
X105800000Y-94040826D01*
X105800000Y-93909174D01*
X105765925Y-93782007D01*
X105733012Y-93725000D01*
X106650000Y-93725000D01*
X106650000Y-93077172D01*
X106649999Y-93077155D01*
X106643598Y-93017627D01*
X106643596Y-93017620D01*
X106593354Y-92882913D01*
X106593350Y-92882906D01*
X106507190Y-92767812D01*
X106507187Y-92767809D01*
X106392093Y-92681649D01*
X106392086Y-92681645D01*
X106257379Y-92631403D01*
X106257372Y-92631401D01*
X106197844Y-92625000D01*
X105550000Y-92625000D01*
X105550000Y-93541988D01*
X105492993Y-93509075D01*
X105365826Y-93475000D01*
X105234174Y-93475000D01*
X105107007Y-93509075D01*
X105050000Y-93541988D01*
X105050000Y-92625000D01*
X104402155Y-92625000D01*
X104342627Y-92631401D01*
X104342620Y-92631403D01*
X104207913Y-92681645D01*
X104207906Y-92681649D01*
X104092812Y-92767809D01*
X104092809Y-92767812D01*
X104006649Y-92882906D01*
X104006645Y-92882913D01*
X103956403Y-93017620D01*
X103956401Y-93017627D01*
X103950000Y-93077155D01*
X103950000Y-93725000D01*
X104866988Y-93725000D01*
X104834075Y-93782007D01*
X104800000Y-93909174D01*
X104800000Y-94040826D01*
X104834075Y-94167993D01*
X104866988Y-94225000D01*
X103950000Y-94225000D01*
X103950000Y-94872844D01*
X103956401Y-94932372D01*
X103956403Y-94932379D01*
X104006645Y-95067086D01*
X104006649Y-95067093D01*
X104092809Y-95182187D01*
X104092812Y-95182190D01*
X104207906Y-95268350D01*
X104207913Y-95268354D01*
X104331230Y-95314348D01*
X104387164Y-95356219D01*
X104411581Y-95421683D01*
X104396730Y-95489956D01*
X104375579Y-95518211D01*
X104263793Y-95629997D01*
X104138106Y-95802990D01*
X104041027Y-95993516D01*
X104041026Y-95993519D01*
X103974951Y-96196882D01*
X103948515Y-96363793D01*
X103941500Y-96408084D01*
X100075500Y-96408084D01*
X100075500Y-90602155D01*
X122650000Y-90602155D01*
X122650000Y-91250000D01*
X123566988Y-91250000D01*
X123534075Y-91307007D01*
X123500000Y-91434174D01*
X123500000Y-91565826D01*
X123534075Y-91692993D01*
X123566988Y-91750000D01*
X122650000Y-91750000D01*
X122650000Y-92397844D01*
X122656401Y-92457372D01*
X122656403Y-92457379D01*
X122706645Y-92592086D01*
X122706649Y-92592093D01*
X122792809Y-92707187D01*
X122792812Y-92707190D01*
X122907906Y-92793350D01*
X122907913Y-92793354D01*
X123042620Y-92843596D01*
X123042627Y-92843598D01*
X123102155Y-92849999D01*
X123102172Y-92850000D01*
X123750000Y-92850000D01*
X123750000Y-91933012D01*
X123807007Y-91965925D01*
X123934174Y-92000000D01*
X124065826Y-92000000D01*
X124192993Y-91965925D01*
X124250000Y-91933012D01*
X124250000Y-92850000D01*
X124897828Y-92850000D01*
X124897844Y-92849999D01*
X124957372Y-92843598D01*
X124957379Y-92843596D01*
X125092086Y-92793354D01*
X125092093Y-92793350D01*
X125207187Y-92707190D01*
X125207190Y-92707187D01*
X125293350Y-92592093D01*
X125293355Y-92592084D01*
X125339348Y-92468770D01*
X125381219Y-92412836D01*
X125446683Y-92388418D01*
X125514956Y-92403269D01*
X125543211Y-92424421D01*
X125654996Y-92536206D01*
X125827991Y-92661894D01*
X125916883Y-92707187D01*
X126018516Y-92758972D01*
X126018519Y-92758973D01*
X126120200Y-92792010D01*
X126221884Y-92825049D01*
X126433084Y-92858500D01*
X126433085Y-92858500D01*
X126646915Y-92858500D01*
X126646916Y-92858500D01*
X126858116Y-92825049D01*
X127061483Y-92758972D01*
X127252009Y-92661894D01*
X127425004Y-92536206D01*
X127576206Y-92385004D01*
X127701894Y-92212009D01*
X127701896Y-92212004D01*
X127704270Y-92208132D01*
X127756080Y-92161254D01*
X127825009Y-92149829D01*
X127889173Y-92177483D01*
X127915730Y-92208132D01*
X127918103Y-92212005D01*
X127918105Y-92212008D01*
X127918106Y-92212009D01*
X128043794Y-92385004D01*
X128194996Y-92536206D01*
X128367991Y-92661894D01*
X128456883Y-92707187D01*
X128558516Y-92758972D01*
X128558519Y-92758973D01*
X128660200Y-92792010D01*
X128761884Y-92825049D01*
X128973084Y-92858500D01*
X128973085Y-92858500D01*
X129186915Y-92858500D01*
X129186916Y-92858500D01*
X129398116Y-92825049D01*
X129601483Y-92758972D01*
X129792009Y-92661894D01*
X129965004Y-92536206D01*
X130116206Y-92385004D01*
X130241894Y-92212009D01*
X130241896Y-92212004D01*
X130244270Y-92208132D01*
X130296080Y-92161254D01*
X130365009Y-92149829D01*
X130429173Y-92177483D01*
X130455730Y-92208132D01*
X130458103Y-92212005D01*
X130458105Y-92212008D01*
X130458106Y-92212009D01*
X130583794Y-92385004D01*
X130734996Y-92536206D01*
X130907991Y-92661894D01*
X130996883Y-92707187D01*
X131098516Y-92758972D01*
X131098519Y-92758973D01*
X131200200Y-92792010D01*
X131301884Y-92825049D01*
X131513084Y-92858500D01*
X131513085Y-92858500D01*
X131726915Y-92858500D01*
X131726916Y-92858500D01*
X131938116Y-92825049D01*
X132141483Y-92758972D01*
X132332009Y-92661894D01*
X132505004Y-92536206D01*
X132656206Y-92385004D01*
X132781894Y-92212009D01*
X132781896Y-92212004D01*
X132784270Y-92208132D01*
X132836080Y-92161254D01*
X132905009Y-92149829D01*
X132969173Y-92177483D01*
X132995730Y-92208132D01*
X132998103Y-92212005D01*
X132998105Y-92212008D01*
X132998106Y-92212009D01*
X133123794Y-92385004D01*
X133274996Y-92536206D01*
X133447991Y-92661894D01*
X133536883Y-92707187D01*
X133638516Y-92758972D01*
X133638519Y-92758973D01*
X133740200Y-92792010D01*
X133841884Y-92825049D01*
X134053084Y-92858500D01*
X134053085Y-92858500D01*
X134266915Y-92858500D01*
X134266916Y-92858500D01*
X134478116Y-92825049D01*
X134681483Y-92758972D01*
X134872009Y-92661894D01*
X135045004Y-92536206D01*
X135196206Y-92385004D01*
X135321894Y-92212009D01*
X135324283Y-92207319D01*
X135372254Y-92156522D01*
X135440074Y-92139724D01*
X135506210Y-92162258D01*
X135542196Y-92203783D01*
X135542829Y-92203396D01*
X135545167Y-92207211D01*
X135545251Y-92207308D01*
X135545371Y-92207545D01*
X135545373Y-92207547D01*
X135584728Y-92261716D01*
X136217037Y-91629408D01*
X136234075Y-91692993D01*
X136299901Y-91807007D01*
X136392993Y-91900099D01*
X136507007Y-91965925D01*
X136570590Y-91982962D01*
X135938282Y-92615269D01*
X135938282Y-92615270D01*
X135992449Y-92654624D01*
X136181782Y-92751095D01*
X136383870Y-92816757D01*
X136593754Y-92850000D01*
X136806246Y-92850000D01*
X137016127Y-92816757D01*
X137016130Y-92816757D01*
X137218217Y-92751095D01*
X137407554Y-92654622D01*
X137461716Y-92615270D01*
X137461717Y-92615270D01*
X136829408Y-91982962D01*
X136892993Y-91965925D01*
X137007007Y-91900099D01*
X137100099Y-91807007D01*
X137165925Y-91692993D01*
X137182962Y-91629408D01*
X137815270Y-92261717D01*
X137815270Y-92261716D01*
X137854621Y-92207556D01*
X137854738Y-92207327D01*
X137854808Y-92207252D01*
X137857168Y-92203402D01*
X137857976Y-92203897D01*
X137902707Y-92156526D01*
X137970526Y-92139723D01*
X138036663Y-92162254D01*
X138075712Y-92207311D01*
X138078105Y-92212008D01*
X138078665Y-92212779D01*
X138203794Y-92385004D01*
X138354996Y-92536206D01*
X138527991Y-92661894D01*
X138616883Y-92707187D01*
X138718516Y-92758972D01*
X138718519Y-92758973D01*
X138820200Y-92792010D01*
X138921884Y-92825049D01*
X139133084Y-92858500D01*
X139133085Y-92858500D01*
X139346915Y-92858500D01*
X139346916Y-92858500D01*
X139558116Y-92825049D01*
X139761483Y-92758972D01*
X139952009Y-92661894D01*
X140125004Y-92536206D01*
X140276206Y-92385004D01*
X140401894Y-92212009D01*
X140401896Y-92212004D01*
X140404270Y-92208132D01*
X140456080Y-92161254D01*
X140525009Y-92149829D01*
X140589173Y-92177483D01*
X140615730Y-92208132D01*
X140618103Y-92212005D01*
X140618105Y-92212008D01*
X140618106Y-92212009D01*
X140743794Y-92385004D01*
X140894996Y-92536206D01*
X141067991Y-92661894D01*
X141156883Y-92707187D01*
X141258516Y-92758972D01*
X141258519Y-92758973D01*
X141360200Y-92792010D01*
X141461884Y-92825049D01*
X141673084Y-92858500D01*
X141673085Y-92858500D01*
X141886915Y-92858500D01*
X141886916Y-92858500D01*
X142098116Y-92825049D01*
X142301483Y-92758972D01*
X142492009Y-92661894D01*
X142665004Y-92536206D01*
X142816206Y-92385004D01*
X142941894Y-92212009D01*
X143038972Y-92021483D01*
X143105049Y-91818116D01*
X143138500Y-91606916D01*
X143138500Y-91393084D01*
X146141500Y-91393084D01*
X146141500Y-91606915D01*
X146174951Y-91818117D01*
X146241026Y-92021480D01*
X146241027Y-92021483D01*
X146333915Y-92203783D01*
X146338106Y-92212009D01*
X146463794Y-92385004D01*
X146614996Y-92536206D01*
X146787991Y-92661894D01*
X146876883Y-92707187D01*
X146978516Y-92758972D01*
X146978519Y-92758973D01*
X147080200Y-92792010D01*
X147181884Y-92825049D01*
X147393084Y-92858500D01*
X147393085Y-92858500D01*
X147606915Y-92858500D01*
X147606916Y-92858500D01*
X147818116Y-92825049D01*
X148021483Y-92758972D01*
X148212009Y-92661894D01*
X148385004Y-92536206D01*
X148536206Y-92385004D01*
X148649682Y-92228818D01*
X148705012Y-92186152D01*
X148774625Y-92180173D01*
X148836420Y-92212779D01*
X148850318Y-92228818D01*
X148942102Y-92355147D01*
X148963794Y-92385004D01*
X149114996Y-92536206D01*
X149287991Y-92661894D01*
X149376883Y-92707187D01*
X149478516Y-92758972D01*
X149478519Y-92758973D01*
X149580200Y-92792010D01*
X149681884Y-92825049D01*
X149893084Y-92858500D01*
X149893085Y-92858500D01*
X150106915Y-92858500D01*
X150106916Y-92858500D01*
X150318116Y-92825049D01*
X150521483Y-92758972D01*
X150712009Y-92661894D01*
X150885004Y-92536206D01*
X150967657Y-92453552D01*
X151028976Y-92420070D01*
X151098668Y-92425054D01*
X151154602Y-92466925D01*
X151171517Y-92497902D01*
X151206646Y-92592088D01*
X151206649Y-92592093D01*
X151292809Y-92707187D01*
X151292812Y-92707190D01*
X151407906Y-92793350D01*
X151407913Y-92793354D01*
X151542620Y-92843596D01*
X151542627Y-92843598D01*
X151602155Y-92849999D01*
X151602172Y-92850000D01*
X152250000Y-92850000D01*
X152250000Y-91933012D01*
X152307007Y-91965925D01*
X152434174Y-92000000D01*
X152565826Y-92000000D01*
X152692993Y-91965925D01*
X152750000Y-91933012D01*
X152750000Y-92850000D01*
X153397828Y-92850000D01*
X153397844Y-92849999D01*
X153457372Y-92843598D01*
X153457379Y-92843596D01*
X153592086Y-92793354D01*
X153592093Y-92793350D01*
X153707187Y-92707190D01*
X153707190Y-92707187D01*
X153793350Y-92592093D01*
X153793354Y-92592086D01*
X153843596Y-92457379D01*
X153843598Y-92457373D01*
X153846930Y-92426386D01*
X153873668Y-92361835D01*
X153931060Y-92321987D01*
X154000886Y-92319494D01*
X154060974Y-92355147D01*
X154070527Y-92366744D01*
X154083794Y-92385004D01*
X154234996Y-92536206D01*
X154407991Y-92661894D01*
X154496883Y-92707187D01*
X154598516Y-92758972D01*
X154598519Y-92758973D01*
X154700200Y-92792010D01*
X154801884Y-92825049D01*
X155013084Y-92858500D01*
X155013085Y-92858500D01*
X155226915Y-92858500D01*
X155226916Y-92858500D01*
X155438116Y-92825049D01*
X155641483Y-92758972D01*
X155832009Y-92661894D01*
X156005004Y-92536206D01*
X156156206Y-92385004D01*
X156281894Y-92212009D01*
X156284283Y-92207319D01*
X156332254Y-92156522D01*
X156400074Y-92139724D01*
X156466210Y-92162258D01*
X156502196Y-92203783D01*
X156502829Y-92203396D01*
X156505167Y-92207211D01*
X156505251Y-92207308D01*
X156505371Y-92207545D01*
X156505373Y-92207547D01*
X156544728Y-92261716D01*
X157177037Y-91629408D01*
X157194075Y-91692993D01*
X157259901Y-91807007D01*
X157352993Y-91900099D01*
X157467007Y-91965925D01*
X157530590Y-91982962D01*
X156898282Y-92615269D01*
X156898282Y-92615270D01*
X156952449Y-92654624D01*
X157141782Y-92751095D01*
X157343870Y-92816757D01*
X157553754Y-92850000D01*
X157766246Y-92850000D01*
X157976127Y-92816757D01*
X157976130Y-92816757D01*
X158178217Y-92751095D01*
X158367554Y-92654622D01*
X158421716Y-92615270D01*
X158421717Y-92615270D01*
X157789408Y-91982962D01*
X157852993Y-91965925D01*
X157967007Y-91900099D01*
X158060099Y-91807007D01*
X158125925Y-91692993D01*
X158142962Y-91629408D01*
X158775270Y-92261717D01*
X158775270Y-92261716D01*
X158814621Y-92207556D01*
X158814738Y-92207327D01*
X158814808Y-92207252D01*
X158817168Y-92203402D01*
X158817976Y-92203897D01*
X158862707Y-92156526D01*
X158930526Y-92139723D01*
X158996663Y-92162254D01*
X159035712Y-92207311D01*
X159038105Y-92212008D01*
X159038665Y-92212779D01*
X159163794Y-92385004D01*
X159314996Y-92536206D01*
X159487991Y-92661894D01*
X159576883Y-92707187D01*
X159678516Y-92758972D01*
X159678519Y-92758973D01*
X159780200Y-92792010D01*
X159881884Y-92825049D01*
X160093084Y-92858500D01*
X160093085Y-92858500D01*
X160306915Y-92858500D01*
X160306916Y-92858500D01*
X160518116Y-92825049D01*
X160721483Y-92758972D01*
X160912009Y-92661894D01*
X161085004Y-92536206D01*
X161236206Y-92385004D01*
X161361894Y-92212009D01*
X161361896Y-92212004D01*
X161364270Y-92208132D01*
X161416080Y-92161254D01*
X161485009Y-92149829D01*
X161549173Y-92177483D01*
X161575730Y-92208132D01*
X161578103Y-92212005D01*
X161578105Y-92212008D01*
X161578106Y-92212009D01*
X161703794Y-92385004D01*
X161854996Y-92536206D01*
X162027991Y-92661894D01*
X162116883Y-92707187D01*
X162218516Y-92758972D01*
X162218519Y-92758973D01*
X162320200Y-92792010D01*
X162421884Y-92825049D01*
X162633084Y-92858500D01*
X162633085Y-92858500D01*
X162846915Y-92858500D01*
X162846916Y-92858500D01*
X163058116Y-92825049D01*
X163261483Y-92758972D01*
X163452009Y-92661894D01*
X163625004Y-92536206D01*
X163776206Y-92385004D01*
X163901894Y-92212009D01*
X163998972Y-92021483D01*
X164065049Y-91818116D01*
X164098500Y-91606916D01*
X164098500Y-91393084D01*
X164065049Y-91181884D01*
X163998972Y-90978517D01*
X163998972Y-90978516D01*
X163949507Y-90881438D01*
X163901894Y-90787991D01*
X163776206Y-90614996D01*
X163625004Y-90463794D01*
X163452009Y-90338106D01*
X163261483Y-90241027D01*
X163261480Y-90241026D01*
X163058117Y-90174951D01*
X162940997Y-90156401D01*
X162846916Y-90141500D01*
X162633084Y-90141500D01*
X162562684Y-90152650D01*
X162421882Y-90174951D01*
X162218519Y-90241026D01*
X162218516Y-90241027D01*
X162027990Y-90338106D01*
X161854993Y-90463796D01*
X161703796Y-90614993D01*
X161578105Y-90787991D01*
X161575727Y-90791873D01*
X161523914Y-90838748D01*
X161454984Y-90850169D01*
X161390822Y-90822512D01*
X161364273Y-90791873D01*
X161361894Y-90787991D01*
X161361334Y-90787220D01*
X161236206Y-90614996D01*
X161085004Y-90463794D01*
X160912009Y-90338106D01*
X160721483Y-90241027D01*
X160721480Y-90241026D01*
X160518117Y-90174951D01*
X160400997Y-90156401D01*
X160306916Y-90141500D01*
X160093084Y-90141500D01*
X160022684Y-90152650D01*
X159881882Y-90174951D01*
X159678519Y-90241026D01*
X159678516Y-90241027D01*
X159487990Y-90338106D01*
X159314993Y-90463796D01*
X159163796Y-90614993D01*
X159038103Y-90787994D01*
X159035709Y-90792693D01*
X158987731Y-90843485D01*
X158919908Y-90860275D01*
X158853775Y-90837732D01*
X158817804Y-90796215D01*
X158817171Y-90796604D01*
X158814826Y-90792778D01*
X158814743Y-90792682D01*
X158814624Y-90792449D01*
X158775270Y-90738282D01*
X158775269Y-90738282D01*
X158142962Y-91370590D01*
X158125925Y-91307007D01*
X158060099Y-91192993D01*
X157967007Y-91099901D01*
X157852993Y-91034075D01*
X157789409Y-91017037D01*
X158421716Y-90384728D01*
X158367550Y-90345375D01*
X158178217Y-90248904D01*
X157976129Y-90183242D01*
X157766246Y-90150000D01*
X157553754Y-90150000D01*
X157343872Y-90183242D01*
X157343869Y-90183242D01*
X157141782Y-90248904D01*
X156952439Y-90345380D01*
X156898282Y-90384727D01*
X156898282Y-90384728D01*
X157530591Y-91017037D01*
X157467007Y-91034075D01*
X157352993Y-91099901D01*
X157259901Y-91192993D01*
X157194075Y-91307007D01*
X157177037Y-91370591D01*
X156544728Y-90738282D01*
X156544727Y-90738282D01*
X156505380Y-90792440D01*
X156505374Y-90792449D01*
X156505246Y-90792702D01*
X156505172Y-90792780D01*
X156502838Y-90796590D01*
X156502036Y-90796099D01*
X156457264Y-90843490D01*
X156389441Y-90860275D01*
X156323309Y-90837728D01*
X156284283Y-90792680D01*
X156281894Y-90787991D01*
X156156206Y-90614996D01*
X156005004Y-90463794D01*
X155832009Y-90338106D01*
X155641483Y-90241027D01*
X155641480Y-90241026D01*
X155438117Y-90174951D01*
X155320997Y-90156401D01*
X155226916Y-90141500D01*
X155013084Y-90141500D01*
X154942684Y-90152650D01*
X154801882Y-90174951D01*
X154598519Y-90241026D01*
X154598516Y-90241027D01*
X154407990Y-90338106D01*
X154234993Y-90463796D01*
X154083793Y-90614996D01*
X154070536Y-90633244D01*
X154015206Y-90675909D01*
X153945592Y-90681887D01*
X153883797Y-90649280D01*
X153849441Y-90588441D01*
X153846930Y-90573613D01*
X153843598Y-90542627D01*
X153843596Y-90542620D01*
X153793354Y-90407913D01*
X153793350Y-90407906D01*
X153707190Y-90292812D01*
X153707187Y-90292809D01*
X153592093Y-90206649D01*
X153592086Y-90206645D01*
X153457379Y-90156403D01*
X153457372Y-90156401D01*
X153397844Y-90150000D01*
X152750000Y-90150000D01*
X152750000Y-91066988D01*
X152692993Y-91034075D01*
X152565826Y-91000000D01*
X152434174Y-91000000D01*
X152307007Y-91034075D01*
X152250000Y-91066988D01*
X152250000Y-90150000D01*
X151602155Y-90150000D01*
X151542627Y-90156401D01*
X151542620Y-90156403D01*
X151407913Y-90206645D01*
X151407906Y-90206649D01*
X151292812Y-90292809D01*
X151292809Y-90292812D01*
X151206649Y-90407906D01*
X151206646Y-90407911D01*
X151171517Y-90502097D01*
X151129645Y-90558030D01*
X151064181Y-90582447D01*
X150995908Y-90567595D01*
X150967654Y-90546444D01*
X150885006Y-90463796D01*
X150885004Y-90463794D01*
X150712009Y-90338106D01*
X150521483Y-90241027D01*
X150521480Y-90241026D01*
X150318117Y-90174951D01*
X150200997Y-90156401D01*
X150106916Y-90141500D01*
X149893084Y-90141500D01*
X149822684Y-90152650D01*
X149681882Y-90174951D01*
X149478519Y-90241026D01*
X149478516Y-90241027D01*
X149287990Y-90338106D01*
X149114993Y-90463796D01*
X148963796Y-90614993D01*
X148963796Y-90614994D01*
X148963794Y-90614996D01*
X148919538Y-90675909D01*
X148850318Y-90771182D01*
X148794988Y-90813847D01*
X148725374Y-90819826D01*
X148663579Y-90787220D01*
X148649682Y-90771182D01*
X148624930Y-90737115D01*
X148536206Y-90614996D01*
X148385004Y-90463794D01*
X148212009Y-90338106D01*
X148021483Y-90241027D01*
X148021480Y-90241026D01*
X147818117Y-90174951D01*
X147700997Y-90156401D01*
X147606916Y-90141500D01*
X147393084Y-90141500D01*
X147322684Y-90152650D01*
X147181882Y-90174951D01*
X146978519Y-90241026D01*
X146978516Y-90241027D01*
X146787990Y-90338106D01*
X146614993Y-90463796D01*
X146463796Y-90614993D01*
X146338106Y-90787990D01*
X146241027Y-90978516D01*
X146241026Y-90978519D01*
X146174951Y-91181882D01*
X146141500Y-91393084D01*
X143138500Y-91393084D01*
X143105049Y-91181884D01*
X143038972Y-90978517D01*
X143038972Y-90978516D01*
X142989507Y-90881438D01*
X142941894Y-90787991D01*
X142816206Y-90614996D01*
X142665004Y-90463794D01*
X142492009Y-90338106D01*
X142301483Y-90241027D01*
X142301480Y-90241026D01*
X142098117Y-90174951D01*
X141980997Y-90156401D01*
X141886916Y-90141500D01*
X141673084Y-90141500D01*
X141602684Y-90152650D01*
X141461882Y-90174951D01*
X141258519Y-90241026D01*
X141258516Y-90241027D01*
X141067990Y-90338106D01*
X140894993Y-90463796D01*
X140743796Y-90614993D01*
X140618105Y-90787991D01*
X140615727Y-90791873D01*
X140563914Y-90838748D01*
X140494984Y-90850169D01*
X140430822Y-90822512D01*
X140404273Y-90791873D01*
X140401894Y-90787991D01*
X140401334Y-90787220D01*
X140276206Y-90614996D01*
X140125004Y-90463794D01*
X139952009Y-90338106D01*
X139761483Y-90241027D01*
X139761480Y-90241026D01*
X139558117Y-90174951D01*
X139440997Y-90156401D01*
X139346916Y-90141500D01*
X139133084Y-90141500D01*
X139062684Y-90152650D01*
X138921882Y-90174951D01*
X138718519Y-90241026D01*
X138718516Y-90241027D01*
X138527990Y-90338106D01*
X138354993Y-90463796D01*
X138203796Y-90614993D01*
X138078103Y-90787994D01*
X138075709Y-90792693D01*
X138027731Y-90843485D01*
X137959908Y-90860275D01*
X137893775Y-90837732D01*
X137857804Y-90796215D01*
X137857171Y-90796604D01*
X137854826Y-90792778D01*
X137854743Y-90792682D01*
X137854624Y-90792449D01*
X137815270Y-90738282D01*
X137815269Y-90738282D01*
X137182962Y-91370590D01*
X137165925Y-91307007D01*
X137100099Y-91192993D01*
X137007007Y-91099901D01*
X136892993Y-91034075D01*
X136829409Y-91017037D01*
X137461716Y-90384728D01*
X137407550Y-90345375D01*
X137218217Y-90248904D01*
X137016129Y-90183242D01*
X136806246Y-90150000D01*
X136593754Y-90150000D01*
X136383872Y-90183242D01*
X136383869Y-90183242D01*
X136181782Y-90248904D01*
X135992439Y-90345380D01*
X135938282Y-90384727D01*
X135938282Y-90384728D01*
X136570591Y-91017037D01*
X136507007Y-91034075D01*
X136392993Y-91099901D01*
X136299901Y-91192993D01*
X136234075Y-91307007D01*
X136217037Y-91370591D01*
X135584728Y-90738282D01*
X135584727Y-90738282D01*
X135545380Y-90792440D01*
X135545374Y-90792449D01*
X135545246Y-90792702D01*
X135545172Y-90792780D01*
X135542838Y-90796590D01*
X135542036Y-90796099D01*
X135497264Y-90843490D01*
X135429441Y-90860275D01*
X135363309Y-90837728D01*
X135324283Y-90792680D01*
X135321894Y-90787991D01*
X135196206Y-90614996D01*
X135045004Y-90463794D01*
X134872009Y-90338106D01*
X134681483Y-90241027D01*
X134681480Y-90241026D01*
X134478117Y-90174951D01*
X134360997Y-90156401D01*
X134266916Y-90141500D01*
X134053084Y-90141500D01*
X133982684Y-90152650D01*
X133841882Y-90174951D01*
X133638519Y-90241026D01*
X133638516Y-90241027D01*
X133447990Y-90338106D01*
X133274993Y-90463796D01*
X133123796Y-90614993D01*
X132998105Y-90787991D01*
X132995727Y-90791873D01*
X132943914Y-90838748D01*
X132874984Y-90850169D01*
X132810822Y-90822512D01*
X132784273Y-90791873D01*
X132781894Y-90787991D01*
X132781334Y-90787220D01*
X132656206Y-90614996D01*
X132505004Y-90463794D01*
X132332009Y-90338106D01*
X132141483Y-90241027D01*
X132141480Y-90241026D01*
X131938117Y-90174951D01*
X131820997Y-90156401D01*
X131726916Y-90141500D01*
X131513084Y-90141500D01*
X131442684Y-90152650D01*
X131301882Y-90174951D01*
X131098519Y-90241026D01*
X131098516Y-90241027D01*
X130907990Y-90338106D01*
X130734993Y-90463796D01*
X130583796Y-90614993D01*
X130458105Y-90787991D01*
X130455727Y-90791873D01*
X130403914Y-90838748D01*
X130334984Y-90850169D01*
X130270822Y-90822512D01*
X130244273Y-90791873D01*
X130241894Y-90787991D01*
X130241334Y-90787220D01*
X130116206Y-90614996D01*
X129965004Y-90463794D01*
X129792009Y-90338106D01*
X129601483Y-90241027D01*
X129601480Y-90241026D01*
X129398117Y-90174951D01*
X129280997Y-90156401D01*
X129186916Y-90141500D01*
X128973084Y-90141500D01*
X128902684Y-90152650D01*
X128761882Y-90174951D01*
X128558519Y-90241026D01*
X128558516Y-90241027D01*
X128367990Y-90338106D01*
X128194993Y-90463796D01*
X128043796Y-90614993D01*
X127918105Y-90787991D01*
X127915727Y-90791873D01*
X127863914Y-90838748D01*
X127794984Y-90850169D01*
X127730822Y-90822512D01*
X127704273Y-90791873D01*
X127701894Y-90787991D01*
X127701334Y-90787220D01*
X127576206Y-90614996D01*
X127425004Y-90463794D01*
X127252009Y-90338106D01*
X127061483Y-90241027D01*
X127061480Y-90241026D01*
X126858117Y-90174951D01*
X126740997Y-90156401D01*
X126646916Y-90141500D01*
X126433084Y-90141500D01*
X126362684Y-90152650D01*
X126221882Y-90174951D01*
X126018519Y-90241026D01*
X126018516Y-90241027D01*
X125827990Y-90338106D01*
X125654997Y-90463793D01*
X125543211Y-90575579D01*
X125481888Y-90609063D01*
X125412196Y-90604079D01*
X125356263Y-90562207D01*
X125339348Y-90531230D01*
X125293354Y-90407913D01*
X125293350Y-90407906D01*
X125207190Y-90292812D01*
X125207187Y-90292809D01*
X125092093Y-90206649D01*
X125092086Y-90206645D01*
X124957379Y-90156403D01*
X124957372Y-90156401D01*
X124897844Y-90150000D01*
X124250000Y-90150000D01*
X124250000Y-91066988D01*
X124192993Y-91034075D01*
X124065826Y-91000000D01*
X123934174Y-91000000D01*
X123807007Y-91034075D01*
X123750000Y-91066988D01*
X123750000Y-90150000D01*
X123102155Y-90150000D01*
X123042627Y-90156401D01*
X123042620Y-90156403D01*
X122907913Y-90206645D01*
X122907906Y-90206649D01*
X122792812Y-90292809D01*
X122792809Y-90292812D01*
X122706649Y-90407906D01*
X122706645Y-90407913D01*
X122656403Y-90542620D01*
X122656401Y-90542627D01*
X122650000Y-90602155D01*
X100075500Y-90602155D01*
X100075500Y-80893084D01*
X102141500Y-80893084D01*
X102141500Y-81106915D01*
X102174951Y-81318117D01*
X102241026Y-81521480D01*
X102241027Y-81521483D01*
X102338106Y-81712009D01*
X102463794Y-81885004D01*
X102614996Y-82036206D01*
X102787991Y-82161894D01*
X102791873Y-82164273D01*
X102838748Y-82216086D01*
X102850169Y-82285016D01*
X102822512Y-82349178D01*
X102791873Y-82375727D01*
X102787991Y-82378105D01*
X102614993Y-82503796D01*
X102463796Y-82654993D01*
X102338106Y-82827990D01*
X102241027Y-83018516D01*
X102241026Y-83018519D01*
X102174951Y-83221882D01*
X102141500Y-83433084D01*
X102141500Y-83646915D01*
X102174951Y-83858117D01*
X102241026Y-84061480D01*
X102241027Y-84061483D01*
X102338106Y-84252009D01*
X102463794Y-84425004D01*
X102614996Y-84576206D01*
X102787991Y-84701894D01*
X102881438Y-84749507D01*
X102978516Y-84798972D01*
X102978519Y-84798973D01*
X103080200Y-84832010D01*
X103181884Y-84865049D01*
X103393084Y-84898500D01*
X103393085Y-84898500D01*
X103606915Y-84898500D01*
X103606916Y-84898500D01*
X103818116Y-84865049D01*
X104021483Y-84798972D01*
X104212009Y-84701894D01*
X104385004Y-84576206D01*
X104536206Y-84425004D01*
X104661894Y-84252009D01*
X104758972Y-84061483D01*
X104825049Y-83858116D01*
X104858500Y-83646916D01*
X104858500Y-83433084D01*
X104825049Y-83221884D01*
X104758972Y-83018517D01*
X104758972Y-83018516D01*
X104661893Y-82827990D01*
X104536206Y-82654996D01*
X104385004Y-82503794D01*
X104212009Y-82378106D01*
X104212005Y-82378103D01*
X104208132Y-82375730D01*
X104161254Y-82323920D01*
X104149829Y-82254991D01*
X104177483Y-82190827D01*
X104208132Y-82164270D01*
X104212005Y-82161896D01*
X104212004Y-82161896D01*
X104212009Y-82161894D01*
X104385004Y-82036206D01*
X104536206Y-81885004D01*
X104661894Y-81712009D01*
X104758972Y-81521483D01*
X104825049Y-81318116D01*
X104858500Y-81106916D01*
X104858500Y-80893084D01*
X104825049Y-80681884D01*
X104758972Y-80478517D01*
X104758972Y-80478516D01*
X104661893Y-80287990D01*
X104536206Y-80114996D01*
X104424421Y-80003211D01*
X104390936Y-79941888D01*
X104395920Y-79872196D01*
X104437792Y-79816263D01*
X104468770Y-79799348D01*
X104592084Y-79753355D01*
X104592093Y-79753350D01*
X104707187Y-79667190D01*
X104707190Y-79667187D01*
X104793350Y-79552093D01*
X104793354Y-79552086D01*
X104843596Y-79417379D01*
X104843598Y-79417372D01*
X104849999Y-79357844D01*
X104850000Y-79357827D01*
X104850000Y-78710000D01*
X103933012Y-78710000D01*
X103965925Y-78652993D01*
X104000000Y-78525826D01*
X104000000Y-78394174D01*
X103965925Y-78267007D01*
X103933012Y-78210000D01*
X104850000Y-78210000D01*
X104850000Y-77562172D01*
X104849999Y-77562155D01*
X104843598Y-77502627D01*
X104843596Y-77502620D01*
X104793354Y-77367913D01*
X104793350Y-77367906D01*
X104707190Y-77252812D01*
X104707187Y-77252809D01*
X104592093Y-77166649D01*
X104592086Y-77166645D01*
X104457379Y-77116403D01*
X104457372Y-77116401D01*
X104397844Y-77110000D01*
X103750000Y-77110000D01*
X103750000Y-78026988D01*
X103692993Y-77994075D01*
X103565826Y-77960000D01*
X103434174Y-77960000D01*
X103307007Y-77994075D01*
X103250000Y-78026988D01*
X103250000Y-77110000D01*
X102602155Y-77110000D01*
X102542627Y-77116401D01*
X102542620Y-77116403D01*
X102407913Y-77166645D01*
X102407906Y-77166649D01*
X102292812Y-77252809D01*
X102292809Y-77252812D01*
X102206649Y-77367906D01*
X102206645Y-77367913D01*
X102156403Y-77502620D01*
X102156401Y-77502627D01*
X102150000Y-77562155D01*
X102150000Y-78210000D01*
X103066988Y-78210000D01*
X103034075Y-78267007D01*
X103000000Y-78394174D01*
X103000000Y-78525826D01*
X103034075Y-78652993D01*
X103066988Y-78710000D01*
X102150000Y-78710000D01*
X102150000Y-79357844D01*
X102156401Y-79417372D01*
X102156403Y-79417379D01*
X102206645Y-79552086D01*
X102206649Y-79552093D01*
X102292809Y-79667187D01*
X102292812Y-79667190D01*
X102407906Y-79753350D01*
X102407913Y-79753354D01*
X102531230Y-79799348D01*
X102587164Y-79841219D01*
X102611581Y-79906683D01*
X102596730Y-79974956D01*
X102575579Y-80003211D01*
X102463793Y-80114997D01*
X102338106Y-80287990D01*
X102241027Y-80478516D01*
X102241026Y-80478519D01*
X102174951Y-80681882D01*
X102141500Y-80893084D01*
X100075500Y-80893084D01*
X100075500Y-72893084D01*
X101141500Y-72893084D01*
X101141500Y-73106915D01*
X101174951Y-73318117D01*
X101241026Y-73521480D01*
X101241027Y-73521483D01*
X101312245Y-73661254D01*
X101338106Y-73712009D01*
X101463794Y-73885004D01*
X101614996Y-74036206D01*
X101787991Y-74161894D01*
X101876883Y-74207187D01*
X101978516Y-74258972D01*
X101978519Y-74258973D01*
X102080200Y-74292010D01*
X102181884Y-74325049D01*
X102393084Y-74358500D01*
X102393085Y-74358500D01*
X102606915Y-74358500D01*
X102606916Y-74358500D01*
X102818116Y-74325049D01*
X103021483Y-74258972D01*
X103212009Y-74161894D01*
X103385004Y-74036206D01*
X103536206Y-73885004D01*
X103661894Y-73712009D01*
X103661896Y-73712004D01*
X103664270Y-73708132D01*
X103716080Y-73661254D01*
X103785009Y-73649829D01*
X103849173Y-73677483D01*
X103875730Y-73708132D01*
X103878103Y-73712005D01*
X103878106Y-73712009D01*
X104003794Y-73885004D01*
X104154996Y-74036206D01*
X104327991Y-74161894D01*
X104416883Y-74207187D01*
X104518516Y-74258972D01*
X104518519Y-74258973D01*
X104620200Y-74292010D01*
X104721884Y-74325049D01*
X104933084Y-74358500D01*
X104933085Y-74358500D01*
X105146915Y-74358500D01*
X105146916Y-74358500D01*
X105358116Y-74325049D01*
X105561483Y-74258972D01*
X105752009Y-74161894D01*
X105925004Y-74036206D01*
X106076206Y-73885004D01*
X106201894Y-73712009D01*
X106201896Y-73712004D01*
X106204270Y-73708132D01*
X106256080Y-73661254D01*
X106325009Y-73649829D01*
X106389173Y-73677483D01*
X106415730Y-73708132D01*
X106418103Y-73712005D01*
X106418106Y-73712009D01*
X106543794Y-73885004D01*
X106694996Y-74036206D01*
X106867991Y-74161894D01*
X106956883Y-74207187D01*
X107058516Y-74258972D01*
X107058519Y-74258973D01*
X107160200Y-74292010D01*
X107261884Y-74325049D01*
X107473084Y-74358500D01*
X107473085Y-74358500D01*
X107686915Y-74358500D01*
X107686916Y-74358500D01*
X107898116Y-74325049D01*
X108101483Y-74258972D01*
X108292009Y-74161894D01*
X108465004Y-74036206D01*
X108616206Y-73885004D01*
X108741894Y-73712009D01*
X108741896Y-73712004D01*
X108744270Y-73708132D01*
X108796080Y-73661254D01*
X108865009Y-73649829D01*
X108929173Y-73677483D01*
X108955730Y-73708132D01*
X108958103Y-73712005D01*
X108958106Y-73712009D01*
X109083794Y-73885004D01*
X109234996Y-74036206D01*
X109407991Y-74161894D01*
X109496883Y-74207187D01*
X109598516Y-74258972D01*
X109598519Y-74258973D01*
X109700200Y-74292010D01*
X109801884Y-74325049D01*
X110013084Y-74358500D01*
X110013085Y-74358500D01*
X110226915Y-74358500D01*
X110226916Y-74358500D01*
X110438116Y-74325049D01*
X110641483Y-74258972D01*
X110832009Y-74161894D01*
X111005004Y-74036206D01*
X111156206Y-73885004D01*
X111281894Y-73712009D01*
X111281896Y-73712004D01*
X111284270Y-73708132D01*
X111336080Y-73661254D01*
X111405009Y-73649829D01*
X111469173Y-73677483D01*
X111495730Y-73708132D01*
X111498103Y-73712005D01*
X111498106Y-73712009D01*
X111623794Y-73885004D01*
X111774996Y-74036206D01*
X111947991Y-74161894D01*
X112036883Y-74207187D01*
X112138516Y-74258972D01*
X112138519Y-74258973D01*
X112240200Y-74292010D01*
X112341884Y-74325049D01*
X112553084Y-74358500D01*
X112553085Y-74358500D01*
X112766915Y-74358500D01*
X112766916Y-74358500D01*
X112978116Y-74325049D01*
X113181483Y-74258972D01*
X113372009Y-74161894D01*
X113545004Y-74036206D01*
X113696206Y-73885004D01*
X113821894Y-73712009D01*
X113821896Y-73712004D01*
X113824270Y-73708132D01*
X113876080Y-73661254D01*
X113945009Y-73649829D01*
X114009173Y-73677483D01*
X114035730Y-73708132D01*
X114038103Y-73712005D01*
X114038106Y-73712009D01*
X114163794Y-73885004D01*
X114314996Y-74036206D01*
X114487991Y-74161894D01*
X114576883Y-74207187D01*
X114678516Y-74258972D01*
X114678519Y-74258973D01*
X114780200Y-74292010D01*
X114881884Y-74325049D01*
X115093084Y-74358500D01*
X115093085Y-74358500D01*
X115306915Y-74358500D01*
X115306916Y-74358500D01*
X115518116Y-74325049D01*
X115721483Y-74258972D01*
X115912009Y-74161894D01*
X116085004Y-74036206D01*
X116196791Y-73924418D01*
X116258110Y-73890936D01*
X116327802Y-73895920D01*
X116383736Y-73937791D01*
X116400651Y-73968769D01*
X116446645Y-74092086D01*
X116446649Y-74092093D01*
X116532809Y-74207187D01*
X116532812Y-74207190D01*
X116647906Y-74293350D01*
X116647913Y-74293354D01*
X116782620Y-74343596D01*
X116782627Y-74343598D01*
X116842155Y-74349999D01*
X116842172Y-74350000D01*
X117490000Y-74350000D01*
X117490000Y-73433012D01*
X117547007Y-73465925D01*
X117674174Y-73500000D01*
X117805826Y-73500000D01*
X117932993Y-73465925D01*
X117990000Y-73433012D01*
X117990000Y-74350000D01*
X118637828Y-74350000D01*
X118637844Y-74349999D01*
X118697372Y-74343598D01*
X118697379Y-74343596D01*
X118832086Y-74293354D01*
X118832093Y-74293350D01*
X118947187Y-74207190D01*
X118947190Y-74207187D01*
X119033350Y-74092093D01*
X119033354Y-74092086D01*
X119083596Y-73957379D01*
X119083598Y-73957372D01*
X119089999Y-73897844D01*
X119090000Y-73897827D01*
X119090000Y-73250000D01*
X118173012Y-73250000D01*
X118205925Y-73192993D01*
X118240000Y-73065826D01*
X118240000Y-72934174D01*
X118205925Y-72807007D01*
X118173012Y-72750000D01*
X119090000Y-72750000D01*
X119090000Y-72102172D01*
X119089999Y-72102155D01*
X119083598Y-72042627D01*
X119083596Y-72042620D01*
X119033354Y-71907913D01*
X119033350Y-71907906D01*
X118947190Y-71792812D01*
X118947187Y-71792809D01*
X118832093Y-71706649D01*
X118832086Y-71706645D01*
X118697379Y-71656403D01*
X118697372Y-71656401D01*
X118637844Y-71650000D01*
X117990000Y-71650000D01*
X117990000Y-72566988D01*
X117932993Y-72534075D01*
X117805826Y-72500000D01*
X117674174Y-72500000D01*
X117547007Y-72534075D01*
X117490000Y-72566988D01*
X117490000Y-71650000D01*
X116842155Y-71650000D01*
X116782627Y-71656401D01*
X116782620Y-71656403D01*
X116647913Y-71706645D01*
X116647906Y-71706649D01*
X116532812Y-71792809D01*
X116532809Y-71792812D01*
X116446649Y-71907906D01*
X116446645Y-71907913D01*
X116400651Y-72031230D01*
X116358779Y-72087164D01*
X116293315Y-72111581D01*
X116225042Y-72096729D01*
X116196788Y-72075578D01*
X116085006Y-71963796D01*
X116085004Y-71963794D01*
X115912009Y-71838106D01*
X115721483Y-71741027D01*
X115721480Y-71741026D01*
X115518117Y-71674951D01*
X115400997Y-71656401D01*
X115306916Y-71641500D01*
X115093084Y-71641500D01*
X115022684Y-71652650D01*
X114881882Y-71674951D01*
X114678519Y-71741026D01*
X114678516Y-71741027D01*
X114487990Y-71838106D01*
X114314993Y-71963796D01*
X114163796Y-72114993D01*
X114038105Y-72287991D01*
X114035727Y-72291873D01*
X113983914Y-72338748D01*
X113914984Y-72350169D01*
X113850822Y-72322512D01*
X113824273Y-72291873D01*
X113821894Y-72287991D01*
X113821893Y-72287990D01*
X113696206Y-72114996D01*
X113545004Y-71963794D01*
X113372009Y-71838106D01*
X113181483Y-71741027D01*
X113181480Y-71741026D01*
X112978117Y-71674951D01*
X112860997Y-71656401D01*
X112766916Y-71641500D01*
X112553084Y-71641500D01*
X112482684Y-71652650D01*
X112341882Y-71674951D01*
X112138519Y-71741026D01*
X112138516Y-71741027D01*
X111947990Y-71838106D01*
X111774993Y-71963796D01*
X111623796Y-72114993D01*
X111498105Y-72287991D01*
X111495727Y-72291873D01*
X111443914Y-72338748D01*
X111374984Y-72350169D01*
X111310822Y-72322512D01*
X111284273Y-72291873D01*
X111281894Y-72287991D01*
X111281893Y-72287990D01*
X111156206Y-72114996D01*
X111005004Y-71963794D01*
X110832009Y-71838106D01*
X110641483Y-71741027D01*
X110641480Y-71741026D01*
X110438117Y-71674951D01*
X110320997Y-71656401D01*
X110226916Y-71641500D01*
X110013084Y-71641500D01*
X109942684Y-71652650D01*
X109801882Y-71674951D01*
X109598519Y-71741026D01*
X109598516Y-71741027D01*
X109407990Y-71838106D01*
X109234993Y-71963796D01*
X109083796Y-72114993D01*
X108958105Y-72287991D01*
X108955727Y-72291873D01*
X108903914Y-72338748D01*
X108834984Y-72350169D01*
X108770822Y-72322512D01*
X108744273Y-72291873D01*
X108741894Y-72287991D01*
X108741893Y-72287990D01*
X108616206Y-72114996D01*
X108465004Y-71963794D01*
X108292009Y-71838106D01*
X108101483Y-71741027D01*
X108101480Y-71741026D01*
X107898117Y-71674951D01*
X107780997Y-71656401D01*
X107686916Y-71641500D01*
X107473084Y-71641500D01*
X107402684Y-71652650D01*
X107261882Y-71674951D01*
X107058519Y-71741026D01*
X107058516Y-71741027D01*
X106867990Y-71838106D01*
X106694993Y-71963796D01*
X106543796Y-72114993D01*
X106418105Y-72287991D01*
X106415727Y-72291873D01*
X106363914Y-72338748D01*
X106294984Y-72350169D01*
X106230822Y-72322512D01*
X106204273Y-72291873D01*
X106201894Y-72287991D01*
X106201893Y-72287990D01*
X106076206Y-72114996D01*
X105925004Y-71963794D01*
X105752009Y-71838106D01*
X105561483Y-71741027D01*
X105561480Y-71741026D01*
X105358117Y-71674951D01*
X105240997Y-71656401D01*
X105146916Y-71641500D01*
X104933084Y-71641500D01*
X104862684Y-71652650D01*
X104721882Y-71674951D01*
X104518519Y-71741026D01*
X104518516Y-71741027D01*
X104327990Y-71838106D01*
X104154993Y-71963796D01*
X104003796Y-72114993D01*
X103878105Y-72287991D01*
X103875727Y-72291873D01*
X103823914Y-72338748D01*
X103754984Y-72350169D01*
X103690822Y-72322512D01*
X103664273Y-72291873D01*
X103661894Y-72287991D01*
X103661893Y-72287990D01*
X103536206Y-72114996D01*
X103385004Y-71963794D01*
X103212009Y-71838106D01*
X103021483Y-71741027D01*
X103021480Y-71741026D01*
X102818117Y-71674951D01*
X102700997Y-71656401D01*
X102606916Y-71641500D01*
X102393084Y-71641500D01*
X102322684Y-71652650D01*
X102181882Y-71674951D01*
X101978519Y-71741026D01*
X101978516Y-71741027D01*
X101787990Y-71838106D01*
X101614993Y-71963796D01*
X101463796Y-72114993D01*
X101338106Y-72287990D01*
X101241027Y-72478516D01*
X101241026Y-72478519D01*
X101174951Y-72681882D01*
X101141500Y-72893084D01*
X100075500Y-72893084D01*
X100075500Y-61299149D01*
X123651500Y-61299149D01*
X123651500Y-61520850D01*
X123686182Y-61739824D01*
X123754693Y-61950680D01*
X123829867Y-62098215D01*
X123855343Y-62148215D01*
X123985657Y-62327576D01*
X123985659Y-62327578D01*
X124034077Y-62375996D01*
X124067562Y-62437319D01*
X124062578Y-62507011D01*
X124020706Y-62562944D01*
X123989731Y-62579858D01*
X123917915Y-62606644D01*
X123917906Y-62606649D01*
X123802812Y-62692809D01*
X123802809Y-62692812D01*
X123716649Y-62807906D01*
X123716645Y-62807913D01*
X123666403Y-62942620D01*
X123666401Y-62942627D01*
X123660000Y-63002155D01*
X123660000Y-63700000D01*
X124684722Y-63700000D01*
X124640667Y-63776306D01*
X124610000Y-63890756D01*
X124610000Y-64009244D01*
X124640667Y-64123694D01*
X124684722Y-64200000D01*
X123660000Y-64200000D01*
X123660000Y-64897844D01*
X123666401Y-64957372D01*
X123666403Y-64957379D01*
X123716645Y-65092086D01*
X123716649Y-65092093D01*
X123802809Y-65207187D01*
X123802812Y-65207190D01*
X123917906Y-65293350D01*
X123917913Y-65293354D01*
X124052620Y-65343596D01*
X124052627Y-65343598D01*
X124112155Y-65349999D01*
X124112172Y-65350000D01*
X124810000Y-65350000D01*
X124810000Y-64325277D01*
X124886306Y-64369333D01*
X125000756Y-64400000D01*
X125119244Y-64400000D01*
X125233694Y-64369333D01*
X125310000Y-64325277D01*
X125310000Y-65350000D01*
X126007828Y-65350000D01*
X126007844Y-65349999D01*
X126067372Y-65343598D01*
X126067379Y-65343596D01*
X126202086Y-65293354D01*
X126202093Y-65293350D01*
X126317187Y-65207190D01*
X126317190Y-65207187D01*
X126403350Y-65092093D01*
X126403354Y-65092086D01*
X126453596Y-64957379D01*
X126453598Y-64957372D01*
X126459999Y-64897844D01*
X126460000Y-64897827D01*
X126460000Y-64200000D01*
X125435278Y-64200000D01*
X125479333Y-64123694D01*
X125510000Y-64009244D01*
X125510000Y-63890756D01*
X125479333Y-63776306D01*
X125435278Y-63700000D01*
X126460000Y-63700000D01*
X126460000Y-63002172D01*
X126459999Y-63002155D01*
X126453598Y-62942627D01*
X126453596Y-62942620D01*
X126403354Y-62807913D01*
X126403350Y-62807906D01*
X126317190Y-62692812D01*
X126317187Y-62692809D01*
X126202093Y-62606649D01*
X126202087Y-62606646D01*
X126130269Y-62579859D01*
X126074336Y-62537987D01*
X126049919Y-62472522D01*
X126064771Y-62404250D01*
X126085920Y-62375998D01*
X126134343Y-62327576D01*
X126264657Y-62148215D01*
X126365308Y-61950676D01*
X126433818Y-61739824D01*
X126468500Y-61520851D01*
X126468500Y-61299149D01*
X126460581Y-61249149D01*
X130591500Y-61249149D01*
X130591500Y-61470851D01*
X130626182Y-61689824D01*
X130694693Y-61900680D01*
X130795343Y-62098215D01*
X130925657Y-62277576D01*
X130925659Y-62277578D01*
X130974077Y-62325996D01*
X131007562Y-62387319D01*
X131002578Y-62457011D01*
X130960706Y-62512944D01*
X130929731Y-62529858D01*
X130857915Y-62556644D01*
X130857906Y-62556649D01*
X130742812Y-62642809D01*
X130742809Y-62642812D01*
X130656649Y-62757906D01*
X130656645Y-62757913D01*
X130606403Y-62892620D01*
X130606401Y-62892627D01*
X130600000Y-62952155D01*
X130600000Y-63650000D01*
X131624722Y-63650000D01*
X131580667Y-63726306D01*
X131550000Y-63840756D01*
X131550000Y-63959244D01*
X131580667Y-64073694D01*
X131624722Y-64150000D01*
X130600000Y-64150000D01*
X130600000Y-64847844D01*
X130606401Y-64907372D01*
X130606403Y-64907379D01*
X130656645Y-65042086D01*
X130656649Y-65042093D01*
X130742809Y-65157187D01*
X130742812Y-65157190D01*
X130857906Y-65243350D01*
X130857913Y-65243354D01*
X130992620Y-65293596D01*
X130992627Y-65293598D01*
X131052155Y-65299999D01*
X131052172Y-65300000D01*
X131750000Y-65300000D01*
X131750000Y-64275277D01*
X131826306Y-64319333D01*
X131940756Y-64350000D01*
X132059244Y-64350000D01*
X132173694Y-64319333D01*
X132250000Y-64275277D01*
X132250000Y-65300000D01*
X132947828Y-65300000D01*
X132947844Y-65299999D01*
X133007372Y-65293598D01*
X133007379Y-65293596D01*
X133142086Y-65243354D01*
X133142093Y-65243350D01*
X133257187Y-65157190D01*
X133257190Y-65157187D01*
X133343350Y-65042093D01*
X133343354Y-65042086D01*
X133393596Y-64907379D01*
X133393598Y-64907372D01*
X133399999Y-64847844D01*
X133400000Y-64847827D01*
X133400000Y-64150000D01*
X132375278Y-64150000D01*
X132419333Y-64073694D01*
X132450000Y-63959244D01*
X132450000Y-63840756D01*
X132419333Y-63726306D01*
X132375278Y-63650000D01*
X133400000Y-63650000D01*
X133400000Y-62952172D01*
X133399999Y-62952155D01*
X133393598Y-62892627D01*
X133393596Y-62892620D01*
X133343354Y-62757913D01*
X133343350Y-62757906D01*
X133257190Y-62642812D01*
X133257187Y-62642809D01*
X133142093Y-62556649D01*
X133142087Y-62556646D01*
X133070269Y-62529859D01*
X133014336Y-62487987D01*
X132989919Y-62422522D01*
X133004771Y-62354250D01*
X133025920Y-62325998D01*
X133074343Y-62277576D01*
X133204657Y-62098215D01*
X133305308Y-61900676D01*
X133373818Y-61689824D01*
X133408500Y-61470851D01*
X133408500Y-61349149D01*
X138091500Y-61349149D01*
X138091500Y-61570850D01*
X138126182Y-61789824D01*
X138194693Y-62000680D01*
X138269867Y-62148215D01*
X138295343Y-62198215D01*
X138425657Y-62377576D01*
X138425659Y-62377578D01*
X138474077Y-62425996D01*
X138507562Y-62487319D01*
X138502578Y-62557011D01*
X138460706Y-62612944D01*
X138429731Y-62629858D01*
X138357915Y-62656644D01*
X138357906Y-62656649D01*
X138242812Y-62742809D01*
X138242809Y-62742812D01*
X138156649Y-62857906D01*
X138156645Y-62857913D01*
X138106403Y-62992620D01*
X138106401Y-62992627D01*
X138100000Y-63052155D01*
X138100000Y-63750000D01*
X139124722Y-63750000D01*
X139080667Y-63826306D01*
X139050000Y-63940756D01*
X139050000Y-64059244D01*
X139080667Y-64173694D01*
X139124722Y-64250000D01*
X138100000Y-64250000D01*
X138100000Y-64947844D01*
X138106401Y-65007372D01*
X138106403Y-65007379D01*
X138156645Y-65142086D01*
X138156649Y-65142093D01*
X138242809Y-65257187D01*
X138242812Y-65257190D01*
X138357906Y-65343350D01*
X138357913Y-65343354D01*
X138492620Y-65393596D01*
X138492627Y-65393598D01*
X138552155Y-65399999D01*
X138552172Y-65400000D01*
X139250000Y-65400000D01*
X139250000Y-64375277D01*
X139326306Y-64419333D01*
X139440756Y-64450000D01*
X139559244Y-64450000D01*
X139673694Y-64419333D01*
X139750000Y-64375277D01*
X139750000Y-65400000D01*
X140447828Y-65400000D01*
X140447844Y-65399999D01*
X140507372Y-65393598D01*
X140507379Y-65393596D01*
X140642086Y-65343354D01*
X140642093Y-65343350D01*
X140757187Y-65257190D01*
X140757190Y-65257187D01*
X140843350Y-65142093D01*
X140843354Y-65142086D01*
X140893596Y-65007379D01*
X140893598Y-65007372D01*
X140899999Y-64947844D01*
X140900000Y-64947827D01*
X140900000Y-64250000D01*
X139875278Y-64250000D01*
X139919333Y-64173694D01*
X139950000Y-64059244D01*
X139950000Y-63940756D01*
X139919333Y-63826306D01*
X139875278Y-63750000D01*
X140900000Y-63750000D01*
X140900000Y-63052172D01*
X140899999Y-63052155D01*
X140893598Y-62992627D01*
X140893596Y-62992620D01*
X140843354Y-62857913D01*
X140843350Y-62857906D01*
X140757190Y-62742812D01*
X140757187Y-62742809D01*
X140642093Y-62656649D01*
X140642087Y-62656646D01*
X140570269Y-62629859D01*
X140514336Y-62587987D01*
X140489919Y-62522522D01*
X140504771Y-62454250D01*
X140525920Y-62425998D01*
X140574343Y-62377576D01*
X140704657Y-62198215D01*
X140805308Y-62000676D01*
X140873818Y-61789824D01*
X140908500Y-61570851D01*
X140908500Y-61349149D01*
X145591500Y-61349149D01*
X145591500Y-61570850D01*
X145626182Y-61789824D01*
X145694693Y-62000680D01*
X145769867Y-62148215D01*
X145795343Y-62198215D01*
X145925657Y-62377576D01*
X145925659Y-62377578D01*
X145974077Y-62425996D01*
X146007562Y-62487319D01*
X146002578Y-62557011D01*
X145960706Y-62612944D01*
X145929731Y-62629858D01*
X145857915Y-62656644D01*
X145857906Y-62656649D01*
X145742812Y-62742809D01*
X145742809Y-62742812D01*
X145656649Y-62857906D01*
X145656645Y-62857913D01*
X145606403Y-62992620D01*
X145606401Y-62992627D01*
X145600000Y-63052155D01*
X145600000Y-63750000D01*
X146624722Y-63750000D01*
X146580667Y-63826306D01*
X146550000Y-63940756D01*
X146550000Y-64059244D01*
X146580667Y-64173694D01*
X146624722Y-64250000D01*
X145600000Y-64250000D01*
X145600000Y-64947844D01*
X145606401Y-65007372D01*
X145606403Y-65007379D01*
X145656645Y-65142086D01*
X145656649Y-65142093D01*
X145742809Y-65257187D01*
X145742812Y-65257190D01*
X145857906Y-65343350D01*
X145857913Y-65343354D01*
X145992620Y-65393596D01*
X145992627Y-65393598D01*
X146052155Y-65399999D01*
X146052172Y-65400000D01*
X146750000Y-65400000D01*
X146750000Y-64375277D01*
X146826306Y-64419333D01*
X146940756Y-64450000D01*
X147059244Y-64450000D01*
X147173694Y-64419333D01*
X147250000Y-64375277D01*
X147250000Y-65400000D01*
X147947828Y-65400000D01*
X147947844Y-65399999D01*
X148007372Y-65393598D01*
X148007379Y-65393596D01*
X148142086Y-65343354D01*
X148142093Y-65343350D01*
X148257187Y-65257190D01*
X148257190Y-65257187D01*
X148343350Y-65142093D01*
X148343354Y-65142086D01*
X148393596Y-65007379D01*
X148393598Y-65007372D01*
X148399999Y-64947844D01*
X148400000Y-64947827D01*
X148400000Y-64250000D01*
X147375278Y-64250000D01*
X147419333Y-64173694D01*
X147450000Y-64059244D01*
X147450000Y-63940756D01*
X147419333Y-63826306D01*
X147375278Y-63750000D01*
X148400000Y-63750000D01*
X148400000Y-63052172D01*
X148399999Y-63052155D01*
X148393598Y-62992627D01*
X148393596Y-62992620D01*
X148343354Y-62857913D01*
X148343350Y-62857906D01*
X148257190Y-62742812D01*
X148257187Y-62742809D01*
X148142093Y-62656649D01*
X148142087Y-62656646D01*
X148070269Y-62629859D01*
X148014336Y-62587987D01*
X147989919Y-62522522D01*
X148004771Y-62454250D01*
X148025920Y-62425998D01*
X148074343Y-62377576D01*
X148204657Y-62198215D01*
X148305308Y-62000676D01*
X148373818Y-61789824D01*
X148408500Y-61570851D01*
X148408500Y-61349149D01*
X153241500Y-61349149D01*
X153241500Y-61570850D01*
X153276182Y-61789824D01*
X153344693Y-62000680D01*
X153419867Y-62148215D01*
X153445343Y-62198215D01*
X153575657Y-62377576D01*
X153575659Y-62377578D01*
X153624077Y-62425996D01*
X153657562Y-62487319D01*
X153652578Y-62557011D01*
X153610706Y-62612944D01*
X153579731Y-62629858D01*
X153507915Y-62656644D01*
X153507906Y-62656649D01*
X153392812Y-62742809D01*
X153392809Y-62742812D01*
X153306649Y-62857906D01*
X153306645Y-62857913D01*
X153256403Y-62992620D01*
X153256401Y-62992627D01*
X153250000Y-63052155D01*
X153250000Y-63750000D01*
X154274722Y-63750000D01*
X154230667Y-63826306D01*
X154200000Y-63940756D01*
X154200000Y-64059244D01*
X154230667Y-64173694D01*
X154274722Y-64250000D01*
X153250000Y-64250000D01*
X153250000Y-64947844D01*
X153256401Y-65007372D01*
X153256403Y-65007379D01*
X153306645Y-65142086D01*
X153306649Y-65142093D01*
X153392809Y-65257187D01*
X153392812Y-65257190D01*
X153507906Y-65343350D01*
X153507913Y-65343354D01*
X153642620Y-65393596D01*
X153642627Y-65393598D01*
X153702155Y-65399999D01*
X153702172Y-65400000D01*
X154400000Y-65400000D01*
X154400000Y-64375277D01*
X154476306Y-64419333D01*
X154590756Y-64450000D01*
X154709244Y-64450000D01*
X154823694Y-64419333D01*
X154900000Y-64375277D01*
X154900000Y-65400000D01*
X155597828Y-65400000D01*
X155597844Y-65399999D01*
X155657372Y-65393598D01*
X155657379Y-65393596D01*
X155792086Y-65343354D01*
X155792093Y-65343350D01*
X155907187Y-65257190D01*
X155907190Y-65257187D01*
X155993350Y-65142093D01*
X155993354Y-65142086D01*
X156043596Y-65007379D01*
X156043598Y-65007372D01*
X156049999Y-64947844D01*
X156050000Y-64947827D01*
X156050000Y-64250000D01*
X155025278Y-64250000D01*
X155069333Y-64173694D01*
X155100000Y-64059244D01*
X155100000Y-63940756D01*
X155069333Y-63826306D01*
X155025278Y-63750000D01*
X156050000Y-63750000D01*
X156050000Y-63052172D01*
X156049999Y-63052155D01*
X156043598Y-62992627D01*
X156043596Y-62992620D01*
X155993354Y-62857913D01*
X155993350Y-62857906D01*
X155907190Y-62742812D01*
X155907187Y-62742809D01*
X155792093Y-62656649D01*
X155792087Y-62656646D01*
X155720269Y-62629859D01*
X155664336Y-62587987D01*
X155639919Y-62522522D01*
X155654771Y-62454250D01*
X155675920Y-62425998D01*
X155724343Y-62377576D01*
X155854657Y-62198215D01*
X155955308Y-62000676D01*
X156023818Y-61789824D01*
X156058500Y-61570851D01*
X156058500Y-61349149D01*
X160591500Y-61349149D01*
X160591500Y-61570850D01*
X160626182Y-61789824D01*
X160694693Y-62000680D01*
X160769867Y-62148215D01*
X160795343Y-62198215D01*
X160925657Y-62377576D01*
X160925659Y-62377578D01*
X160974077Y-62425996D01*
X161007562Y-62487319D01*
X161002578Y-62557011D01*
X160960706Y-62612944D01*
X160929731Y-62629858D01*
X160857915Y-62656644D01*
X160857906Y-62656649D01*
X160742812Y-62742809D01*
X160742809Y-62742812D01*
X160656649Y-62857906D01*
X160656645Y-62857913D01*
X160606403Y-62992620D01*
X160606401Y-62992627D01*
X160600000Y-63052155D01*
X160600000Y-63750000D01*
X161624722Y-63750000D01*
X161580667Y-63826306D01*
X161550000Y-63940756D01*
X161550000Y-64059244D01*
X161580667Y-64173694D01*
X161624722Y-64250000D01*
X160600000Y-64250000D01*
X160600000Y-64947844D01*
X160606401Y-65007372D01*
X160606403Y-65007379D01*
X160656645Y-65142086D01*
X160656649Y-65142093D01*
X160742809Y-65257187D01*
X160742812Y-65257190D01*
X160857906Y-65343350D01*
X160857913Y-65343354D01*
X160992620Y-65393596D01*
X160992627Y-65393598D01*
X161052155Y-65399999D01*
X161052172Y-65400000D01*
X161750000Y-65400000D01*
X161750000Y-64375277D01*
X161826306Y-64419333D01*
X161940756Y-64450000D01*
X162059244Y-64450000D01*
X162173694Y-64419333D01*
X162250000Y-64375277D01*
X162250000Y-65400000D01*
X162947828Y-65400000D01*
X162947844Y-65399999D01*
X163007372Y-65393598D01*
X163007379Y-65393596D01*
X163142086Y-65343354D01*
X163142093Y-65343350D01*
X163257187Y-65257190D01*
X163257190Y-65257187D01*
X163343350Y-65142093D01*
X163343354Y-65142086D01*
X163393596Y-65007379D01*
X163393598Y-65007372D01*
X163399999Y-64947844D01*
X163400000Y-64947827D01*
X163400000Y-64250000D01*
X162375278Y-64250000D01*
X162419333Y-64173694D01*
X162450000Y-64059244D01*
X162450000Y-63940756D01*
X162419333Y-63826306D01*
X162375278Y-63750000D01*
X163400000Y-63750000D01*
X163400000Y-63052172D01*
X163399999Y-63052155D01*
X163393598Y-62992627D01*
X163393596Y-62992620D01*
X163343354Y-62857913D01*
X163343350Y-62857906D01*
X163257190Y-62742812D01*
X163257187Y-62742809D01*
X163142093Y-62656649D01*
X163142087Y-62656646D01*
X163070269Y-62629859D01*
X163014336Y-62587987D01*
X162989919Y-62522522D01*
X163004771Y-62454250D01*
X163025920Y-62425998D01*
X163074343Y-62377576D01*
X163204657Y-62198215D01*
X163305308Y-62000676D01*
X163373818Y-61789824D01*
X163408500Y-61570851D01*
X163408500Y-61349149D01*
X163373818Y-61130176D01*
X163305308Y-60919324D01*
X163305306Y-60919321D01*
X163305306Y-60919319D01*
X163204656Y-60721784D01*
X163074343Y-60542424D01*
X162917576Y-60385657D01*
X162738215Y-60255343D01*
X162540680Y-60154693D01*
X162329824Y-60086182D01*
X162110851Y-60051500D01*
X161889149Y-60051500D01*
X161779662Y-60068841D01*
X161670175Y-60086182D01*
X161459319Y-60154693D01*
X161261784Y-60255343D01*
X161159452Y-60329692D01*
X161082424Y-60385657D01*
X161082422Y-60385659D01*
X161082421Y-60385659D01*
X160925659Y-60542421D01*
X160925659Y-60542422D01*
X160925657Y-60542424D01*
X160869692Y-60619452D01*
X160795343Y-60721784D01*
X160694693Y-60919319D01*
X160626182Y-61130175D01*
X160591500Y-61349149D01*
X156058500Y-61349149D01*
X156023818Y-61130176D01*
X155955308Y-60919324D01*
X155955306Y-60919321D01*
X155955306Y-60919319D01*
X155854656Y-60721784D01*
X155724343Y-60542424D01*
X155567576Y-60385657D01*
X155388215Y-60255343D01*
X155190680Y-60154693D01*
X154979824Y-60086182D01*
X154760851Y-60051500D01*
X154539149Y-60051500D01*
X154429662Y-60068841D01*
X154320175Y-60086182D01*
X154109319Y-60154693D01*
X153911784Y-60255343D01*
X153809452Y-60329692D01*
X153732424Y-60385657D01*
X153732422Y-60385659D01*
X153732421Y-60385659D01*
X153575659Y-60542421D01*
X153575659Y-60542422D01*
X153575657Y-60542424D01*
X153519692Y-60619452D01*
X153445343Y-60721784D01*
X153344693Y-60919319D01*
X153276182Y-61130175D01*
X153241500Y-61349149D01*
X148408500Y-61349149D01*
X148373818Y-61130176D01*
X148305308Y-60919324D01*
X148305306Y-60919321D01*
X148305306Y-60919319D01*
X148204656Y-60721784D01*
X148074343Y-60542424D01*
X147917576Y-60385657D01*
X147738215Y-60255343D01*
X147540680Y-60154693D01*
X147329824Y-60086182D01*
X147110851Y-60051500D01*
X146889149Y-60051500D01*
X146779662Y-60068841D01*
X146670175Y-60086182D01*
X146459319Y-60154693D01*
X146261784Y-60255343D01*
X146159452Y-60329692D01*
X146082424Y-60385657D01*
X146082422Y-60385659D01*
X146082421Y-60385659D01*
X145925659Y-60542421D01*
X145925659Y-60542422D01*
X145925657Y-60542424D01*
X145869692Y-60619452D01*
X145795343Y-60721784D01*
X145694693Y-60919319D01*
X145626182Y-61130175D01*
X145591500Y-61349149D01*
X140908500Y-61349149D01*
X140873818Y-61130176D01*
X140805308Y-60919324D01*
X140805306Y-60919321D01*
X140805306Y-60919319D01*
X140704656Y-60721784D01*
X140574343Y-60542424D01*
X140417576Y-60385657D01*
X140238215Y-60255343D01*
X140040680Y-60154693D01*
X139829824Y-60086182D01*
X139610851Y-60051500D01*
X139389149Y-60051500D01*
X139279662Y-60068841D01*
X139170175Y-60086182D01*
X138959319Y-60154693D01*
X138761784Y-60255343D01*
X138659452Y-60329692D01*
X138582424Y-60385657D01*
X138582422Y-60385659D01*
X138582421Y-60385659D01*
X138425659Y-60542421D01*
X138425659Y-60542422D01*
X138425657Y-60542424D01*
X138369692Y-60619452D01*
X138295343Y-60721784D01*
X138194693Y-60919319D01*
X138126182Y-61130175D01*
X138091500Y-61349149D01*
X133408500Y-61349149D01*
X133408500Y-61249149D01*
X133373818Y-61030176D01*
X133305308Y-60819324D01*
X133305306Y-60819321D01*
X133305306Y-60819319D01*
X133230133Y-60671785D01*
X133204657Y-60621785D01*
X133074343Y-60442424D01*
X132917576Y-60285657D01*
X132738215Y-60155343D01*
X132736937Y-60154692D01*
X132540680Y-60054693D01*
X132329824Y-59986182D01*
X132110851Y-59951500D01*
X131889149Y-59951500D01*
X131779662Y-59968841D01*
X131670175Y-59986182D01*
X131459319Y-60054693D01*
X131261784Y-60155343D01*
X131192966Y-60205343D01*
X131082424Y-60285657D01*
X131082422Y-60285659D01*
X131082421Y-60285659D01*
X130925659Y-60442421D01*
X130925659Y-60442422D01*
X130925657Y-60442424D01*
X130889332Y-60492421D01*
X130795343Y-60621784D01*
X130694693Y-60819319D01*
X130626182Y-61030175D01*
X130591500Y-61249149D01*
X126460581Y-61249149D01*
X126433818Y-61080176D01*
X126365308Y-60869324D01*
X126365306Y-60869321D01*
X126365306Y-60869319D01*
X126290133Y-60721785D01*
X126264657Y-60671785D01*
X126134343Y-60492424D01*
X125977576Y-60335657D01*
X125798215Y-60205343D01*
X125600680Y-60104693D01*
X125389824Y-60036182D01*
X125170851Y-60001500D01*
X124949149Y-60001500D01*
X124839662Y-60018841D01*
X124730175Y-60036182D01*
X124519319Y-60104693D01*
X124321784Y-60205343D01*
X124252966Y-60255343D01*
X124142424Y-60335657D01*
X124142422Y-60335659D01*
X124142421Y-60335659D01*
X123985659Y-60492421D01*
X123985659Y-60492422D01*
X123985657Y-60492424D01*
X123949332Y-60542421D01*
X123855343Y-60671784D01*
X123754693Y-60869319D01*
X123686182Y-61080175D01*
X123651500Y-61299149D01*
X100075500Y-61299149D01*
X100075500Y-54904883D01*
X123791500Y-54904883D01*
X123791500Y-55095116D01*
X123821256Y-55282991D01*
X123880040Y-55463907D01*
X123966398Y-55633392D01*
X124078208Y-55787285D01*
X124078210Y-55787287D01*
X124153242Y-55862319D01*
X124186727Y-55923642D01*
X124181743Y-55993334D01*
X124153242Y-56037681D01*
X124078210Y-56112712D01*
X124078210Y-56112713D01*
X124078208Y-56112715D01*
X124060069Y-56137681D01*
X123966398Y-56266607D01*
X123880040Y-56436092D01*
X123821256Y-56617008D01*
X123791500Y-56804883D01*
X123791500Y-56995116D01*
X123821256Y-57182991D01*
X123880040Y-57363907D01*
X123966398Y-57533392D01*
X124078208Y-57687285D01*
X124212715Y-57821792D01*
X124366608Y-57933602D01*
X124446683Y-57974402D01*
X124536092Y-58019959D01*
X124536094Y-58019959D01*
X124536097Y-58019961D01*
X124578077Y-58033601D01*
X124717008Y-58078743D01*
X124904884Y-58108500D01*
X124904889Y-58108500D01*
X125095116Y-58108500D01*
X125282991Y-58078743D01*
X125463903Y-58019961D01*
X125633392Y-57933602D01*
X125787285Y-57821792D01*
X125921792Y-57687285D01*
X126033602Y-57533392D01*
X126119961Y-57363903D01*
X126178743Y-57182991D01*
X126192662Y-57095111D01*
X126208500Y-56995116D01*
X126208500Y-56804883D01*
X126178743Y-56617008D01*
X126119959Y-56436092D01*
X126033601Y-56266607D01*
X125994446Y-56212715D01*
X125921792Y-56112715D01*
X125846758Y-56037681D01*
X125813273Y-55976358D01*
X125818257Y-55906666D01*
X125846758Y-55862319D01*
X125921792Y-55787285D01*
X126033602Y-55633392D01*
X126119961Y-55463903D01*
X126178743Y-55282991D01*
X126192662Y-55195111D01*
X126208500Y-55095116D01*
X126208500Y-54904883D01*
X130291500Y-54904883D01*
X130291500Y-55095116D01*
X130321256Y-55282991D01*
X130380040Y-55463907D01*
X130466398Y-55633392D01*
X130578208Y-55787285D01*
X130578210Y-55787287D01*
X130653242Y-55862319D01*
X130686727Y-55923642D01*
X130681743Y-55993334D01*
X130653242Y-56037681D01*
X130578210Y-56112712D01*
X130578210Y-56112713D01*
X130578208Y-56112715D01*
X130560069Y-56137681D01*
X130466398Y-56266607D01*
X130380040Y-56436092D01*
X130321256Y-56617008D01*
X130291500Y-56804883D01*
X130291500Y-56995116D01*
X130321256Y-57182991D01*
X130380040Y-57363907D01*
X130466398Y-57533392D01*
X130578208Y-57687285D01*
X130712715Y-57821792D01*
X130866608Y-57933602D01*
X130946683Y-57974402D01*
X131036092Y-58019959D01*
X131036094Y-58019959D01*
X131036097Y-58019961D01*
X131078077Y-58033601D01*
X131217008Y-58078743D01*
X131404884Y-58108500D01*
X131404889Y-58108500D01*
X131595116Y-58108500D01*
X131782991Y-58078743D01*
X131963903Y-58019961D01*
X132133392Y-57933602D01*
X132287285Y-57821792D01*
X132421792Y-57687285D01*
X132533602Y-57533392D01*
X132619961Y-57363903D01*
X132678743Y-57182991D01*
X132692662Y-57095111D01*
X132708500Y-56995116D01*
X132708500Y-56804883D01*
X132678743Y-56617008D01*
X132619959Y-56436092D01*
X132533601Y-56266607D01*
X132494446Y-56212715D01*
X132421792Y-56112715D01*
X132346758Y-56037681D01*
X132313273Y-55976358D01*
X132318257Y-55906666D01*
X132346758Y-55862319D01*
X132421792Y-55787285D01*
X132533602Y-55633392D01*
X132619961Y-55463903D01*
X132678743Y-55282991D01*
X132692662Y-55195111D01*
X132708500Y-55095116D01*
X132708500Y-54904883D01*
X137791500Y-54904883D01*
X137791500Y-55095116D01*
X137821256Y-55282991D01*
X137880040Y-55463907D01*
X137966398Y-55633392D01*
X138078208Y-55787285D01*
X138078210Y-55787287D01*
X138153242Y-55862319D01*
X138186727Y-55923642D01*
X138181743Y-55993334D01*
X138153242Y-56037681D01*
X138078210Y-56112712D01*
X138078210Y-56112713D01*
X138078208Y-56112715D01*
X138060069Y-56137681D01*
X137966398Y-56266607D01*
X137880040Y-56436092D01*
X137821256Y-56617008D01*
X137791500Y-56804883D01*
X137791500Y-56995116D01*
X137821256Y-57182991D01*
X137880040Y-57363907D01*
X137966398Y-57533392D01*
X138078208Y-57687285D01*
X138212715Y-57821792D01*
X138366608Y-57933602D01*
X138446683Y-57974402D01*
X138536092Y-58019959D01*
X138536094Y-58019959D01*
X138536097Y-58019961D01*
X138578077Y-58033601D01*
X138717008Y-58078743D01*
X138904884Y-58108500D01*
X138904889Y-58108500D01*
X139095116Y-58108500D01*
X139282991Y-58078743D01*
X139463903Y-58019961D01*
X139633392Y-57933602D01*
X139787285Y-57821792D01*
X139921792Y-57687285D01*
X140033602Y-57533392D01*
X140119961Y-57363903D01*
X140178743Y-57182991D01*
X140192662Y-57095111D01*
X140208500Y-56995116D01*
X140208500Y-56804883D01*
X140178743Y-56617008D01*
X140119959Y-56436092D01*
X140033601Y-56266607D01*
X139994446Y-56212715D01*
X139921792Y-56112715D01*
X139846758Y-56037681D01*
X139813273Y-55976358D01*
X139818257Y-55906666D01*
X139846758Y-55862319D01*
X139921792Y-55787285D01*
X140033602Y-55633392D01*
X140119961Y-55463903D01*
X140178743Y-55282991D01*
X140192662Y-55195111D01*
X140208500Y-55095116D01*
X140208500Y-55004883D01*
X145791500Y-55004883D01*
X145791500Y-55195116D01*
X145821256Y-55382991D01*
X145880040Y-55563907D01*
X145915445Y-55633392D01*
X145966398Y-55733392D01*
X146078208Y-55887285D01*
X146078210Y-55887287D01*
X146153242Y-55962319D01*
X146186727Y-56023642D01*
X146181743Y-56093334D01*
X146153242Y-56137681D01*
X146078210Y-56212712D01*
X146078210Y-56212713D01*
X146078208Y-56212715D01*
X146039053Y-56266607D01*
X145966398Y-56366607D01*
X145880040Y-56536092D01*
X145821256Y-56717008D01*
X145791500Y-56904883D01*
X145791500Y-57095116D01*
X145821256Y-57282991D01*
X145880040Y-57463907D01*
X145915445Y-57533392D01*
X145966398Y-57633392D01*
X146078208Y-57787285D01*
X146212715Y-57921792D01*
X146366608Y-58033602D01*
X146446683Y-58074402D01*
X146536092Y-58119959D01*
X146536094Y-58119959D01*
X146536097Y-58119961D01*
X146633070Y-58151469D01*
X146717008Y-58178743D01*
X146904884Y-58208500D01*
X146904889Y-58208500D01*
X147095116Y-58208500D01*
X147282991Y-58178743D01*
X147463903Y-58119961D01*
X147633392Y-58033602D01*
X147787285Y-57921792D01*
X147921792Y-57787285D01*
X148033602Y-57633392D01*
X148119961Y-57463903D01*
X148178743Y-57282991D01*
X148208500Y-57095116D01*
X148208500Y-56904883D01*
X148178743Y-56717008D01*
X148119959Y-56536092D01*
X148033601Y-56366607D01*
X147921792Y-56212715D01*
X147846758Y-56137681D01*
X147813273Y-56076358D01*
X147818257Y-56006666D01*
X147846758Y-55962319D01*
X147859077Y-55950000D01*
X147921792Y-55887285D01*
X148033602Y-55733392D01*
X148119961Y-55563903D01*
X148178743Y-55382991D01*
X148208500Y-55195116D01*
X148208500Y-55004883D01*
X153291500Y-55004883D01*
X153291500Y-55195116D01*
X153321256Y-55382991D01*
X153380040Y-55563907D01*
X153415445Y-55633392D01*
X153466398Y-55733392D01*
X153578208Y-55887285D01*
X153578210Y-55887287D01*
X153653242Y-55962319D01*
X153686727Y-56023642D01*
X153681743Y-56093334D01*
X153653242Y-56137681D01*
X153578210Y-56212712D01*
X153578210Y-56212713D01*
X153578208Y-56212715D01*
X153539053Y-56266607D01*
X153466398Y-56366607D01*
X153380040Y-56536092D01*
X153321256Y-56717008D01*
X153291500Y-56904883D01*
X153291500Y-57095116D01*
X153321256Y-57282991D01*
X153380040Y-57463907D01*
X153415445Y-57533392D01*
X153466398Y-57633392D01*
X153578208Y-57787285D01*
X153712715Y-57921792D01*
X153866608Y-58033602D01*
X153946683Y-58074402D01*
X154036092Y-58119959D01*
X154036094Y-58119959D01*
X154036097Y-58119961D01*
X154133070Y-58151469D01*
X154217008Y-58178743D01*
X154404884Y-58208500D01*
X154404889Y-58208500D01*
X154595116Y-58208500D01*
X154782991Y-58178743D01*
X154963903Y-58119961D01*
X155133392Y-58033602D01*
X155287285Y-57921792D01*
X155421792Y-57787285D01*
X155533602Y-57633392D01*
X155619961Y-57463903D01*
X155678743Y-57282991D01*
X155708500Y-57095116D01*
X155708500Y-56904883D01*
X155678743Y-56717008D01*
X155619959Y-56536092D01*
X155533601Y-56366607D01*
X155421792Y-56212715D01*
X155346758Y-56137681D01*
X155313273Y-56076358D01*
X155318257Y-56006666D01*
X155346758Y-55962319D01*
X155359077Y-55950000D01*
X155421792Y-55887285D01*
X155533602Y-55733392D01*
X155619961Y-55563903D01*
X155678743Y-55382991D01*
X155708500Y-55195116D01*
X155708500Y-55004883D01*
X155694963Y-54919415D01*
X155692661Y-54904883D01*
X159791500Y-54904883D01*
X159791500Y-55095116D01*
X159821256Y-55282991D01*
X159880040Y-55463907D01*
X159966398Y-55633392D01*
X160078208Y-55787285D01*
X160078210Y-55787287D01*
X160153242Y-55862319D01*
X160186727Y-55923642D01*
X160181743Y-55993334D01*
X160153242Y-56037681D01*
X160078210Y-56112712D01*
X160078210Y-56112713D01*
X160078208Y-56112715D01*
X160060069Y-56137681D01*
X159966398Y-56266607D01*
X159880040Y-56436092D01*
X159821256Y-56617008D01*
X159791500Y-56804883D01*
X159791500Y-56995116D01*
X159821256Y-57182991D01*
X159880040Y-57363907D01*
X159966398Y-57533392D01*
X160078208Y-57687285D01*
X160212715Y-57821792D01*
X160366608Y-57933602D01*
X160446683Y-57974402D01*
X160536092Y-58019959D01*
X160536094Y-58019959D01*
X160536097Y-58019961D01*
X160578077Y-58033601D01*
X160717008Y-58078743D01*
X160904884Y-58108500D01*
X160904889Y-58108500D01*
X161095116Y-58108500D01*
X161282991Y-58078743D01*
X161463903Y-58019961D01*
X161633392Y-57933602D01*
X161787285Y-57821792D01*
X161921792Y-57687285D01*
X162033602Y-57533392D01*
X162119961Y-57363903D01*
X162178743Y-57182991D01*
X162192662Y-57095111D01*
X162208500Y-56995116D01*
X162208500Y-56804883D01*
X162178743Y-56617008D01*
X162119959Y-56436092D01*
X162033601Y-56266607D01*
X161994446Y-56212715D01*
X161921792Y-56112715D01*
X161846758Y-56037681D01*
X161813273Y-55976358D01*
X161818257Y-55906666D01*
X161846758Y-55862319D01*
X161921792Y-55787285D01*
X162033602Y-55633392D01*
X162119961Y-55463903D01*
X162178743Y-55282991D01*
X162192662Y-55195111D01*
X162208500Y-55095116D01*
X162208500Y-54904883D01*
X162178743Y-54717008D01*
X162119959Y-54536092D01*
X162033601Y-54366607D01*
X161994446Y-54312715D01*
X161921792Y-54212715D01*
X161787285Y-54078208D01*
X161633392Y-53966398D01*
X161463907Y-53880040D01*
X161282991Y-53821256D01*
X161095116Y-53791500D01*
X161095111Y-53791500D01*
X160904889Y-53791500D01*
X160904884Y-53791500D01*
X160717008Y-53821256D01*
X160536092Y-53880040D01*
X160366607Y-53966398D01*
X160347831Y-53980040D01*
X160212715Y-54078208D01*
X160212713Y-54078210D01*
X160212712Y-54078210D01*
X160078210Y-54212712D01*
X160078210Y-54212713D01*
X160078208Y-54212715D01*
X160030189Y-54278806D01*
X159966398Y-54366607D01*
X159880040Y-54536092D01*
X159821256Y-54717008D01*
X159791500Y-54904883D01*
X155692661Y-54904883D01*
X155678743Y-54817008D01*
X155619959Y-54636092D01*
X155533601Y-54466607D01*
X155421792Y-54312715D01*
X155287285Y-54178208D01*
X155133392Y-54066398D01*
X154963907Y-53980040D01*
X154782991Y-53921256D01*
X154595116Y-53891500D01*
X154595111Y-53891500D01*
X154404889Y-53891500D01*
X154404884Y-53891500D01*
X154217008Y-53921256D01*
X154036092Y-53980040D01*
X153866607Y-54066398D01*
X153778806Y-54130189D01*
X153712715Y-54178208D01*
X153712713Y-54178210D01*
X153712712Y-54178210D01*
X153578210Y-54312712D01*
X153578210Y-54312713D01*
X153578208Y-54312715D01*
X153539053Y-54366607D01*
X153466398Y-54466607D01*
X153380040Y-54636092D01*
X153321256Y-54817008D01*
X153291500Y-55004883D01*
X148208500Y-55004883D01*
X148178743Y-54817008D01*
X148119959Y-54636092D01*
X148033601Y-54466607D01*
X147921792Y-54312715D01*
X147787285Y-54178208D01*
X147633392Y-54066398D01*
X147463907Y-53980040D01*
X147282991Y-53921256D01*
X147095116Y-53891500D01*
X147095111Y-53891500D01*
X146904889Y-53891500D01*
X146904884Y-53891500D01*
X146717008Y-53921256D01*
X146536092Y-53980040D01*
X146366607Y-54066398D01*
X146278806Y-54130189D01*
X146212715Y-54178208D01*
X146212713Y-54178210D01*
X146212712Y-54178210D01*
X146078210Y-54312712D01*
X146078210Y-54312713D01*
X146078208Y-54312715D01*
X146039053Y-54366607D01*
X145966398Y-54466607D01*
X145880040Y-54636092D01*
X145821256Y-54817008D01*
X145791500Y-55004883D01*
X140208500Y-55004883D01*
X140208500Y-54904883D01*
X140178743Y-54717008D01*
X140119959Y-54536092D01*
X140033601Y-54366607D01*
X139994446Y-54312715D01*
X139921792Y-54212715D01*
X139787285Y-54078208D01*
X139633392Y-53966398D01*
X139463907Y-53880040D01*
X139282991Y-53821256D01*
X139095116Y-53791500D01*
X139095111Y-53791500D01*
X138904889Y-53791500D01*
X138904884Y-53791500D01*
X138717008Y-53821256D01*
X138536092Y-53880040D01*
X138366607Y-53966398D01*
X138347831Y-53980040D01*
X138212715Y-54078208D01*
X138212713Y-54078210D01*
X138212712Y-54078210D01*
X138078210Y-54212712D01*
X138078210Y-54212713D01*
X138078208Y-54212715D01*
X138030189Y-54278806D01*
X137966398Y-54366607D01*
X137880040Y-54536092D01*
X137821256Y-54717008D01*
X137791500Y-54904883D01*
X132708500Y-54904883D01*
X132678743Y-54717008D01*
X132619959Y-54536092D01*
X132533601Y-54366607D01*
X132494446Y-54312715D01*
X132421792Y-54212715D01*
X132287285Y-54078208D01*
X132133392Y-53966398D01*
X131963907Y-53880040D01*
X131782991Y-53821256D01*
X131595116Y-53791500D01*
X131595111Y-53791500D01*
X131404889Y-53791500D01*
X131404884Y-53791500D01*
X131217008Y-53821256D01*
X131036092Y-53880040D01*
X130866607Y-53966398D01*
X130847831Y-53980040D01*
X130712715Y-54078208D01*
X130712713Y-54078210D01*
X130712712Y-54078210D01*
X130578210Y-54212712D01*
X130578210Y-54212713D01*
X130578208Y-54212715D01*
X130530189Y-54278806D01*
X130466398Y-54366607D01*
X130380040Y-54536092D01*
X130321256Y-54717008D01*
X130291500Y-54904883D01*
X126208500Y-54904883D01*
X126178743Y-54717008D01*
X126119959Y-54536092D01*
X126033601Y-54366607D01*
X125994446Y-54312715D01*
X125921792Y-54212715D01*
X125787285Y-54078208D01*
X125633392Y-53966398D01*
X125463907Y-53880040D01*
X125282991Y-53821256D01*
X125095116Y-53791500D01*
X125095111Y-53791500D01*
X124904889Y-53791500D01*
X124904884Y-53791500D01*
X124717008Y-53821256D01*
X124536092Y-53880040D01*
X124366607Y-53966398D01*
X124347831Y-53980040D01*
X124212715Y-54078208D01*
X124212713Y-54078210D01*
X124212712Y-54078210D01*
X124078210Y-54212712D01*
X124078210Y-54212713D01*
X124078208Y-54212715D01*
X124030189Y-54278806D01*
X123966398Y-54366607D01*
X123880040Y-54536092D01*
X123821256Y-54717008D01*
X123791500Y-54904883D01*
X100075500Y-54904883D01*
X100075500Y-48301345D01*
X117437500Y-48301345D01*
X117437500Y-50098654D01*
X117444011Y-50159202D01*
X117444011Y-50159204D01*
X117495111Y-50296204D01*
X117582739Y-50413261D01*
X117699796Y-50500889D01*
X117836799Y-50551989D01*
X117864050Y-50554918D01*
X117897345Y-50558499D01*
X117897362Y-50558500D01*
X119694638Y-50558500D01*
X119694654Y-50558499D01*
X119721692Y-50555591D01*
X119755201Y-50551989D01*
X119892204Y-50500889D01*
X120009261Y-50413261D01*
X120096889Y-50296204D01*
X120141957Y-50175371D01*
X120183827Y-50119442D01*
X120249291Y-50095025D01*
X120317564Y-50109877D01*
X120345818Y-50131028D01*
X120450996Y-50236206D01*
X120623991Y-50361894D01*
X120717438Y-50409507D01*
X120814516Y-50458972D01*
X120814519Y-50458973D01*
X120916200Y-50492010D01*
X121017884Y-50525049D01*
X121229084Y-50558500D01*
X121229085Y-50558500D01*
X121442915Y-50558500D01*
X121442916Y-50558500D01*
X121654116Y-50525049D01*
X121857483Y-50458972D01*
X122048009Y-50361894D01*
X122221004Y-50236206D01*
X122372206Y-50085004D01*
X122497894Y-49912009D01*
X122497896Y-49912004D01*
X122500270Y-49908132D01*
X122552080Y-49861254D01*
X122621009Y-49849829D01*
X122685173Y-49877483D01*
X122711730Y-49908132D01*
X122714103Y-49912005D01*
X122714105Y-49912008D01*
X122714106Y-49912009D01*
X122839794Y-50085004D01*
X122990996Y-50236206D01*
X123163991Y-50361894D01*
X123257438Y-50409507D01*
X123354516Y-50458972D01*
X123354519Y-50458973D01*
X123456200Y-50492010D01*
X123557884Y-50525049D01*
X123769084Y-50558500D01*
X123769085Y-50558500D01*
X123982915Y-50558500D01*
X123982916Y-50558500D01*
X124194116Y-50525049D01*
X124397483Y-50458972D01*
X124588009Y-50361894D01*
X124761004Y-50236206D01*
X124912206Y-50085004D01*
X125037894Y-49912009D01*
X125040283Y-49907319D01*
X125088254Y-49856522D01*
X125156074Y-49839724D01*
X125222210Y-49862258D01*
X125258201Y-49903788D01*
X125258832Y-49903402D01*
X125261164Y-49907207D01*
X125261251Y-49907308D01*
X125261376Y-49907554D01*
X125386272Y-50079459D01*
X125386276Y-50079464D01*
X125536535Y-50229723D01*
X125536540Y-50229727D01*
X125708442Y-50354620D01*
X125897782Y-50451095D01*
X126099871Y-50516757D01*
X126166000Y-50527231D01*
X126166000Y-49633012D01*
X126223007Y-49665925D01*
X126350174Y-49700000D01*
X126481826Y-49700000D01*
X126608993Y-49665925D01*
X126666000Y-49633012D01*
X126666000Y-50527230D01*
X126732126Y-50516757D01*
X126732129Y-50516757D01*
X126934217Y-50451095D01*
X127123557Y-50354620D01*
X127295459Y-50229727D01*
X127295464Y-50229723D01*
X127445723Y-50079464D01*
X127445727Y-50079459D01*
X127570619Y-49907560D01*
X127570738Y-49907327D01*
X127570808Y-49907252D01*
X127573168Y-49903402D01*
X127573976Y-49903897D01*
X127618707Y-49856526D01*
X127686526Y-49839723D01*
X127752663Y-49862254D01*
X127791712Y-49907311D01*
X127794105Y-49912008D01*
X127836002Y-49969674D01*
X127919794Y-50085004D01*
X128070996Y-50236206D01*
X128243991Y-50361894D01*
X128337438Y-50409507D01*
X128434516Y-50458972D01*
X128434519Y-50458973D01*
X128536200Y-50492010D01*
X128637884Y-50525049D01*
X128849084Y-50558500D01*
X128849085Y-50558500D01*
X129062915Y-50558500D01*
X129062916Y-50558500D01*
X129274116Y-50525049D01*
X129477483Y-50458972D01*
X129668009Y-50361894D01*
X129841004Y-50236206D01*
X129992206Y-50085004D01*
X130117894Y-49912009D01*
X130117896Y-49912004D01*
X130120270Y-49908132D01*
X130172080Y-49861254D01*
X130241009Y-49849829D01*
X130305173Y-49877483D01*
X130331730Y-49908132D01*
X130334103Y-49912005D01*
X130334105Y-49912008D01*
X130334106Y-49912009D01*
X130459794Y-50085004D01*
X130610996Y-50236206D01*
X130783991Y-50361894D01*
X130877438Y-50409507D01*
X130974516Y-50458972D01*
X130974519Y-50458973D01*
X131076200Y-50492010D01*
X131177884Y-50525049D01*
X131389084Y-50558500D01*
X131389085Y-50558500D01*
X131602915Y-50558500D01*
X131602916Y-50558500D01*
X131814116Y-50525049D01*
X132017483Y-50458972D01*
X132208009Y-50361894D01*
X132381004Y-50236206D01*
X132532206Y-50085004D01*
X132657894Y-49912009D01*
X132657896Y-49912004D01*
X132660270Y-49908132D01*
X132712080Y-49861254D01*
X132781009Y-49849829D01*
X132845173Y-49877483D01*
X132871730Y-49908132D01*
X132874103Y-49912005D01*
X132874105Y-49912008D01*
X132874106Y-49912009D01*
X132999794Y-50085004D01*
X133150996Y-50236206D01*
X133323991Y-50361894D01*
X133417438Y-50409507D01*
X133514516Y-50458972D01*
X133514519Y-50458973D01*
X133616200Y-50492010D01*
X133717884Y-50525049D01*
X133929084Y-50558500D01*
X133929085Y-50558500D01*
X134142915Y-50558500D01*
X134142916Y-50558500D01*
X134354116Y-50525049D01*
X134557483Y-50458972D01*
X134748009Y-50361894D01*
X134921004Y-50236206D01*
X135072206Y-50085004D01*
X135197894Y-49912009D01*
X135197896Y-49912004D01*
X135200270Y-49908132D01*
X135252080Y-49861254D01*
X135321009Y-49849829D01*
X135385173Y-49877483D01*
X135411730Y-49908132D01*
X135414103Y-49912005D01*
X135414105Y-49912008D01*
X135414106Y-49912009D01*
X135539794Y-50085004D01*
X135690996Y-50236206D01*
X135863991Y-50361894D01*
X135957438Y-50409507D01*
X136054516Y-50458972D01*
X136054519Y-50458973D01*
X136156200Y-50492010D01*
X136257884Y-50525049D01*
X136469084Y-50558500D01*
X136469085Y-50558500D01*
X136682915Y-50558500D01*
X136682916Y-50558500D01*
X136894116Y-50525049D01*
X137097483Y-50458972D01*
X137288009Y-50361894D01*
X137461004Y-50236206D01*
X137612206Y-50085004D01*
X137737894Y-49912009D01*
X137737896Y-49912004D01*
X137740270Y-49908132D01*
X137792080Y-49861254D01*
X137861009Y-49849829D01*
X137925173Y-49877483D01*
X137951730Y-49908132D01*
X137954103Y-49912005D01*
X137954105Y-49912008D01*
X137954106Y-49912009D01*
X138079794Y-50085004D01*
X138230996Y-50236206D01*
X138403991Y-50361894D01*
X138497438Y-50409507D01*
X138594516Y-50458972D01*
X138594519Y-50458973D01*
X138696200Y-50492010D01*
X138797884Y-50525049D01*
X139009084Y-50558500D01*
X139009085Y-50558500D01*
X139222915Y-50558500D01*
X139222916Y-50558500D01*
X139434116Y-50525049D01*
X139637483Y-50458972D01*
X139828009Y-50361894D01*
X140001004Y-50236206D01*
X140152206Y-50085004D01*
X140277894Y-49912009D01*
X140277896Y-49912004D01*
X140280270Y-49908132D01*
X140332080Y-49861254D01*
X140401009Y-49849829D01*
X140465173Y-49877483D01*
X140491730Y-49908132D01*
X140494103Y-49912005D01*
X140494105Y-49912008D01*
X140494106Y-49912009D01*
X140619794Y-50085004D01*
X140770996Y-50236206D01*
X140943991Y-50361894D01*
X141037438Y-50409507D01*
X141134516Y-50458972D01*
X141134519Y-50458973D01*
X141236200Y-50492010D01*
X141337884Y-50525049D01*
X141549084Y-50558500D01*
X141549085Y-50558500D01*
X141762915Y-50558500D01*
X141762916Y-50558500D01*
X141974116Y-50525049D01*
X142177483Y-50458972D01*
X142368009Y-50361894D01*
X142541004Y-50236206D01*
X142692206Y-50085004D01*
X142817894Y-49912009D01*
X142914972Y-49721483D01*
X142981049Y-49518116D01*
X143014500Y-49306916D01*
X143014500Y-49093084D01*
X142981049Y-48881884D01*
X142914972Y-48678517D01*
X142914972Y-48678516D01*
X142881354Y-48612539D01*
X142817894Y-48487991D01*
X142692206Y-48314996D01*
X142678555Y-48301345D01*
X144361500Y-48301345D01*
X144361500Y-50098654D01*
X144368011Y-50159202D01*
X144368011Y-50159204D01*
X144419111Y-50296204D01*
X144506739Y-50413261D01*
X144623796Y-50500889D01*
X144760799Y-50551989D01*
X144788050Y-50554918D01*
X144821345Y-50558499D01*
X144821362Y-50558500D01*
X146618638Y-50558500D01*
X146618654Y-50558499D01*
X146645692Y-50555591D01*
X146679201Y-50551989D01*
X146816204Y-50500889D01*
X146933261Y-50413261D01*
X147020889Y-50296204D01*
X147065957Y-50175371D01*
X147107827Y-50119442D01*
X147173291Y-50095025D01*
X147241564Y-50109877D01*
X147269818Y-50131028D01*
X147374996Y-50236206D01*
X147547991Y-50361894D01*
X147641438Y-50409507D01*
X147738516Y-50458972D01*
X147738519Y-50458973D01*
X147840200Y-50492010D01*
X147941884Y-50525049D01*
X148153084Y-50558500D01*
X148153085Y-50558500D01*
X148366915Y-50558500D01*
X148366916Y-50558500D01*
X148578116Y-50525049D01*
X148781483Y-50458972D01*
X148972009Y-50361894D01*
X149145004Y-50236206D01*
X149296206Y-50085004D01*
X149421894Y-49912009D01*
X149421896Y-49912004D01*
X149424270Y-49908132D01*
X149476080Y-49861254D01*
X149545009Y-49849829D01*
X149609173Y-49877483D01*
X149635730Y-49908132D01*
X149638103Y-49912005D01*
X149638105Y-49912008D01*
X149638106Y-49912009D01*
X149763794Y-50085004D01*
X149914996Y-50236206D01*
X150087991Y-50361894D01*
X150181438Y-50409507D01*
X150278516Y-50458972D01*
X150278519Y-50458973D01*
X150380200Y-50492010D01*
X150481884Y-50525049D01*
X150693084Y-50558500D01*
X150693085Y-50558500D01*
X150906915Y-50558500D01*
X150906916Y-50558500D01*
X151118116Y-50525049D01*
X151321483Y-50458972D01*
X151512009Y-50361894D01*
X151685004Y-50236206D01*
X151836206Y-50085004D01*
X151961894Y-49912009D01*
X151961896Y-49912004D01*
X151964270Y-49908132D01*
X152016080Y-49861254D01*
X152085009Y-49849829D01*
X152149173Y-49877483D01*
X152175730Y-49908132D01*
X152178103Y-49912005D01*
X152178105Y-49912008D01*
X152178106Y-49912009D01*
X152303794Y-50085004D01*
X152454996Y-50236206D01*
X152627991Y-50361894D01*
X152721438Y-50409507D01*
X152818516Y-50458972D01*
X152818519Y-50458973D01*
X152920200Y-50492010D01*
X153021884Y-50525049D01*
X153233084Y-50558500D01*
X153233085Y-50558500D01*
X153446915Y-50558500D01*
X153446916Y-50558500D01*
X153658116Y-50525049D01*
X153861483Y-50458972D01*
X154052009Y-50361894D01*
X154225004Y-50236206D01*
X154376206Y-50085004D01*
X154501894Y-49912009D01*
X154501896Y-49912004D01*
X154504270Y-49908132D01*
X154556080Y-49861254D01*
X154625009Y-49849829D01*
X154689173Y-49877483D01*
X154715730Y-49908132D01*
X154718103Y-49912005D01*
X154718105Y-49912008D01*
X154718106Y-49912009D01*
X154843794Y-50085004D01*
X154994996Y-50236206D01*
X155167991Y-50361894D01*
X155261438Y-50409507D01*
X155358516Y-50458972D01*
X155358519Y-50458973D01*
X155460200Y-50492010D01*
X155561884Y-50525049D01*
X155773084Y-50558500D01*
X155773085Y-50558500D01*
X155986915Y-50558500D01*
X155986916Y-50558500D01*
X156198116Y-50525049D01*
X156401483Y-50458972D01*
X156592009Y-50361894D01*
X156765004Y-50236206D01*
X156916206Y-50085004D01*
X157041894Y-49912009D01*
X157041896Y-49912004D01*
X157044270Y-49908132D01*
X157096080Y-49861254D01*
X157165009Y-49849829D01*
X157229173Y-49877483D01*
X157255730Y-49908132D01*
X157258103Y-49912005D01*
X157258105Y-49912008D01*
X157258106Y-49912009D01*
X157383794Y-50085004D01*
X157534996Y-50236206D01*
X157707991Y-50361894D01*
X157801438Y-50409507D01*
X157898516Y-50458972D01*
X157898519Y-50458973D01*
X158000200Y-50492010D01*
X158101884Y-50525049D01*
X158313084Y-50558500D01*
X158313085Y-50558500D01*
X158526915Y-50558500D01*
X158526916Y-50558500D01*
X158738116Y-50525049D01*
X158941483Y-50458972D01*
X159132009Y-50361894D01*
X159305004Y-50236206D01*
X159456206Y-50085004D01*
X159581894Y-49912009D01*
X159581896Y-49912004D01*
X159584270Y-49908132D01*
X159636080Y-49861254D01*
X159705009Y-49849829D01*
X159769173Y-49877483D01*
X159795730Y-49908132D01*
X159798103Y-49912005D01*
X159798105Y-49912008D01*
X159798106Y-49912009D01*
X159923794Y-50085004D01*
X160074996Y-50236206D01*
X160247991Y-50361894D01*
X160341438Y-50409507D01*
X160438516Y-50458972D01*
X160438519Y-50458973D01*
X160540200Y-50492010D01*
X160641884Y-50525049D01*
X160853084Y-50558500D01*
X160853085Y-50558500D01*
X161066915Y-50558500D01*
X161066916Y-50558500D01*
X161278116Y-50525049D01*
X161481483Y-50458972D01*
X161672009Y-50361894D01*
X161845004Y-50236206D01*
X161996206Y-50085004D01*
X162121894Y-49912009D01*
X162121896Y-49912004D01*
X162124270Y-49908132D01*
X162176080Y-49861254D01*
X162245009Y-49849829D01*
X162309173Y-49877483D01*
X162335730Y-49908132D01*
X162338103Y-49912005D01*
X162338105Y-49912008D01*
X162338106Y-49912009D01*
X162463794Y-50085004D01*
X162614996Y-50236206D01*
X162787991Y-50361894D01*
X162881438Y-50409507D01*
X162978516Y-50458972D01*
X162978519Y-50458973D01*
X163080200Y-50492010D01*
X163181884Y-50525049D01*
X163393084Y-50558500D01*
X163393085Y-50558500D01*
X163606915Y-50558500D01*
X163606916Y-50558500D01*
X163818116Y-50525049D01*
X164021483Y-50458972D01*
X164212009Y-50361894D01*
X164385004Y-50236206D01*
X164536206Y-50085004D01*
X164661894Y-49912009D01*
X164758972Y-49721483D01*
X164825049Y-49518116D01*
X164858500Y-49306916D01*
X164858500Y-49093084D01*
X164825049Y-48881884D01*
X164758972Y-48678517D01*
X164758972Y-48678516D01*
X164709507Y-48581438D01*
X164661894Y-48487991D01*
X164536206Y-48314996D01*
X164385004Y-48163794D01*
X164212009Y-48038106D01*
X164021483Y-47941027D01*
X164021480Y-47941026D01*
X163818117Y-47874951D01*
X163712516Y-47858225D01*
X163606916Y-47841500D01*
X163393084Y-47841500D01*
X163322684Y-47852650D01*
X163181882Y-47874951D01*
X162978519Y-47941026D01*
X162978516Y-47941027D01*
X162787990Y-48038106D01*
X162614993Y-48163796D01*
X162463796Y-48314993D01*
X162338105Y-48487991D01*
X162335727Y-48491873D01*
X162283914Y-48538748D01*
X162214984Y-48550169D01*
X162150822Y-48522512D01*
X162124273Y-48491873D01*
X162121894Y-48487991D01*
X162121891Y-48487987D01*
X161996206Y-48314996D01*
X161845004Y-48163794D01*
X161672009Y-48038106D01*
X161481483Y-47941027D01*
X161481480Y-47941026D01*
X161278117Y-47874951D01*
X161172516Y-47858225D01*
X161066916Y-47841500D01*
X160853084Y-47841500D01*
X160782684Y-47852650D01*
X160641882Y-47874951D01*
X160438519Y-47941026D01*
X160438516Y-47941027D01*
X160247990Y-48038106D01*
X160074993Y-48163796D01*
X159923796Y-48314993D01*
X159798105Y-48487991D01*
X159795727Y-48491873D01*
X159743914Y-48538748D01*
X159674984Y-48550169D01*
X159610822Y-48522512D01*
X159584273Y-48491873D01*
X159581894Y-48487991D01*
X159581891Y-48487987D01*
X159456206Y-48314996D01*
X159305004Y-48163794D01*
X159132009Y-48038106D01*
X158941483Y-47941027D01*
X158941480Y-47941026D01*
X158738117Y-47874951D01*
X158632516Y-47858225D01*
X158526916Y-47841500D01*
X158313084Y-47841500D01*
X158242684Y-47852650D01*
X158101882Y-47874951D01*
X157898519Y-47941026D01*
X157898516Y-47941027D01*
X157707990Y-48038106D01*
X157534993Y-48163796D01*
X157383796Y-48314993D01*
X157258105Y-48487991D01*
X157255727Y-48491873D01*
X157203914Y-48538748D01*
X157134984Y-48550169D01*
X157070822Y-48522512D01*
X157044273Y-48491873D01*
X157041894Y-48487991D01*
X157041891Y-48487987D01*
X156916206Y-48314996D01*
X156765004Y-48163794D01*
X156592009Y-48038106D01*
X156401483Y-47941027D01*
X156401480Y-47941026D01*
X156198117Y-47874951D01*
X156092516Y-47858225D01*
X155986916Y-47841500D01*
X155773084Y-47841500D01*
X155702684Y-47852650D01*
X155561882Y-47874951D01*
X155358519Y-47941026D01*
X155358516Y-47941027D01*
X155167990Y-48038106D01*
X154994993Y-48163796D01*
X154843796Y-48314993D01*
X154718105Y-48487991D01*
X154715727Y-48491873D01*
X154663914Y-48538748D01*
X154594984Y-48550169D01*
X154530822Y-48522512D01*
X154504273Y-48491873D01*
X154501894Y-48487991D01*
X154501891Y-48487987D01*
X154376206Y-48314996D01*
X154225004Y-48163794D01*
X154052009Y-48038106D01*
X153861483Y-47941027D01*
X153861480Y-47941026D01*
X153658117Y-47874951D01*
X153552516Y-47858225D01*
X153446916Y-47841500D01*
X153233084Y-47841500D01*
X153162684Y-47852650D01*
X153021882Y-47874951D01*
X152818519Y-47941026D01*
X152818516Y-47941027D01*
X152627990Y-48038106D01*
X152454993Y-48163796D01*
X152303796Y-48314993D01*
X152178105Y-48487991D01*
X152175727Y-48491873D01*
X152123914Y-48538748D01*
X152054984Y-48550169D01*
X151990822Y-48522512D01*
X151964273Y-48491873D01*
X151961894Y-48487991D01*
X151961891Y-48487987D01*
X151836206Y-48314996D01*
X151685004Y-48163794D01*
X151512009Y-48038106D01*
X151321483Y-47941027D01*
X151321480Y-47941026D01*
X151118117Y-47874951D01*
X151012516Y-47858225D01*
X150906916Y-47841500D01*
X150693084Y-47841500D01*
X150622684Y-47852650D01*
X150481882Y-47874951D01*
X150278519Y-47941026D01*
X150278516Y-47941027D01*
X150087990Y-48038106D01*
X149914993Y-48163796D01*
X149763796Y-48314993D01*
X149638105Y-48487991D01*
X149635727Y-48491873D01*
X149583914Y-48538748D01*
X149514984Y-48550169D01*
X149450822Y-48522512D01*
X149424273Y-48491873D01*
X149421894Y-48487991D01*
X149421891Y-48487987D01*
X149296206Y-48314996D01*
X149145004Y-48163794D01*
X148972009Y-48038106D01*
X148781483Y-47941027D01*
X148781480Y-47941026D01*
X148578117Y-47874951D01*
X148472516Y-47858225D01*
X148366916Y-47841500D01*
X148153084Y-47841500D01*
X148082684Y-47852650D01*
X147941882Y-47874951D01*
X147738519Y-47941026D01*
X147738516Y-47941027D01*
X147547990Y-48038106D01*
X147374997Y-48163793D01*
X147269818Y-48268972D01*
X147208495Y-48302456D01*
X147138803Y-48297472D01*
X147082870Y-48255600D01*
X147065958Y-48224629D01*
X147020889Y-48103796D01*
X146933261Y-47986739D01*
X146816204Y-47899111D01*
X146679203Y-47848011D01*
X146618654Y-47841500D01*
X146618638Y-47841500D01*
X144821362Y-47841500D01*
X144821345Y-47841500D01*
X144760797Y-47848011D01*
X144760795Y-47848011D01*
X144623795Y-47899111D01*
X144506739Y-47986739D01*
X144419111Y-48103795D01*
X144368011Y-48240795D01*
X144368011Y-48240797D01*
X144361500Y-48301345D01*
X142678555Y-48301345D01*
X142541004Y-48163794D01*
X142368009Y-48038106D01*
X142177483Y-47941027D01*
X142177480Y-47941026D01*
X141974117Y-47874951D01*
X141868516Y-47858225D01*
X141762916Y-47841500D01*
X141549084Y-47841500D01*
X141478684Y-47852650D01*
X141337882Y-47874951D01*
X141134519Y-47941026D01*
X141134516Y-47941027D01*
X140943990Y-48038106D01*
X140770993Y-48163796D01*
X140619796Y-48314993D01*
X140494105Y-48487991D01*
X140491727Y-48491873D01*
X140439914Y-48538748D01*
X140370984Y-48550169D01*
X140306822Y-48522512D01*
X140280273Y-48491873D01*
X140277894Y-48487991D01*
X140277891Y-48487987D01*
X140152206Y-48314996D01*
X140001004Y-48163794D01*
X139828009Y-48038106D01*
X139637483Y-47941027D01*
X139637480Y-47941026D01*
X139434117Y-47874951D01*
X139328516Y-47858225D01*
X139222916Y-47841500D01*
X139009084Y-47841500D01*
X138938684Y-47852650D01*
X138797882Y-47874951D01*
X138594519Y-47941026D01*
X138594516Y-47941027D01*
X138403990Y-48038106D01*
X138230993Y-48163796D01*
X138079796Y-48314993D01*
X137954105Y-48487991D01*
X137951727Y-48491873D01*
X137899914Y-48538748D01*
X137830984Y-48550169D01*
X137766822Y-48522512D01*
X137740273Y-48491873D01*
X137737894Y-48487991D01*
X137737891Y-48487987D01*
X137612206Y-48314996D01*
X137461004Y-48163794D01*
X137288009Y-48038106D01*
X137097483Y-47941027D01*
X137097480Y-47941026D01*
X136894117Y-47874951D01*
X136788516Y-47858225D01*
X136682916Y-47841500D01*
X136469084Y-47841500D01*
X136398684Y-47852650D01*
X136257882Y-47874951D01*
X136054519Y-47941026D01*
X136054516Y-47941027D01*
X135863990Y-48038106D01*
X135690993Y-48163796D01*
X135539796Y-48314993D01*
X135414105Y-48487991D01*
X135411727Y-48491873D01*
X135359914Y-48538748D01*
X135290984Y-48550169D01*
X135226822Y-48522512D01*
X135200273Y-48491873D01*
X135197894Y-48487991D01*
X135197891Y-48487987D01*
X135072206Y-48314996D01*
X134921004Y-48163794D01*
X134748009Y-48038106D01*
X134557483Y-47941027D01*
X134557480Y-47941026D01*
X134354117Y-47874951D01*
X134248516Y-47858225D01*
X134142916Y-47841500D01*
X133929084Y-47841500D01*
X133858684Y-47852650D01*
X133717882Y-47874951D01*
X133514519Y-47941026D01*
X133514516Y-47941027D01*
X133323990Y-48038106D01*
X133150993Y-48163796D01*
X132999796Y-48314993D01*
X132874105Y-48487991D01*
X132871727Y-48491873D01*
X132819914Y-48538748D01*
X132750984Y-48550169D01*
X132686822Y-48522512D01*
X132660273Y-48491873D01*
X132657894Y-48487991D01*
X132657891Y-48487987D01*
X132532206Y-48314996D01*
X132381004Y-48163794D01*
X132208009Y-48038106D01*
X132017483Y-47941027D01*
X132017480Y-47941026D01*
X131814117Y-47874951D01*
X131708516Y-47858225D01*
X131602916Y-47841500D01*
X131389084Y-47841500D01*
X131318684Y-47852650D01*
X131177882Y-47874951D01*
X130974519Y-47941026D01*
X130974516Y-47941027D01*
X130783990Y-48038106D01*
X130610993Y-48163796D01*
X130459796Y-48314993D01*
X130334105Y-48487991D01*
X130331727Y-48491873D01*
X130279914Y-48538748D01*
X130210984Y-48550169D01*
X130146822Y-48522512D01*
X130120273Y-48491873D01*
X130117894Y-48487991D01*
X130117891Y-48487987D01*
X129992206Y-48314996D01*
X129841004Y-48163794D01*
X129668009Y-48038106D01*
X129477483Y-47941027D01*
X129477480Y-47941026D01*
X129274117Y-47874951D01*
X129168516Y-47858225D01*
X129062916Y-47841500D01*
X128849084Y-47841500D01*
X128778684Y-47852650D01*
X128637882Y-47874951D01*
X128434519Y-47941026D01*
X128434516Y-47941027D01*
X128243990Y-48038106D01*
X128070993Y-48163796D01*
X127919796Y-48314993D01*
X127794103Y-48487994D01*
X127791709Y-48492693D01*
X127743731Y-48543485D01*
X127675908Y-48560275D01*
X127609775Y-48537732D01*
X127573800Y-48496210D01*
X127573168Y-48496598D01*
X127570829Y-48492781D01*
X127570743Y-48492682D01*
X127570620Y-48492441D01*
X127445727Y-48320540D01*
X127445723Y-48320535D01*
X127295464Y-48170276D01*
X127295459Y-48170272D01*
X127123557Y-48045379D01*
X126934215Y-47948903D01*
X126732124Y-47883241D01*
X126666000Y-47872768D01*
X126666000Y-48766988D01*
X126608993Y-48734075D01*
X126481826Y-48700000D01*
X126350174Y-48700000D01*
X126223007Y-48734075D01*
X126166000Y-48766988D01*
X126166000Y-47872768D01*
X126165999Y-47872768D01*
X126099875Y-47883241D01*
X125897784Y-47948903D01*
X125708442Y-48045379D01*
X125536540Y-48170272D01*
X125536535Y-48170276D01*
X125386276Y-48320535D01*
X125386272Y-48320540D01*
X125261376Y-48492446D01*
X125261374Y-48492448D01*
X125261246Y-48492701D01*
X125261172Y-48492779D01*
X125258832Y-48496598D01*
X125258029Y-48496106D01*
X125213264Y-48543489D01*
X125145441Y-48560274D01*
X125079309Y-48537727D01*
X125040285Y-48492683D01*
X125037895Y-48487992D01*
X125006472Y-48444742D01*
X124912206Y-48314996D01*
X124761004Y-48163794D01*
X124588009Y-48038106D01*
X124397483Y-47941027D01*
X124397480Y-47941026D01*
X124194117Y-47874951D01*
X124088516Y-47858225D01*
X123982916Y-47841500D01*
X123769084Y-47841500D01*
X123698684Y-47852650D01*
X123557882Y-47874951D01*
X123354519Y-47941026D01*
X123354516Y-47941027D01*
X123163990Y-48038106D01*
X122990993Y-48163796D01*
X122839796Y-48314993D01*
X122714105Y-48487991D01*
X122711727Y-48491873D01*
X122659914Y-48538748D01*
X122590984Y-48550169D01*
X122526822Y-48522512D01*
X122500273Y-48491873D01*
X122497894Y-48487991D01*
X122497891Y-48487987D01*
X122372206Y-48314996D01*
X122221004Y-48163794D01*
X122048009Y-48038106D01*
X121857483Y-47941027D01*
X121857480Y-47941026D01*
X121654117Y-47874951D01*
X121548516Y-47858225D01*
X121442916Y-47841500D01*
X121229084Y-47841500D01*
X121158684Y-47852650D01*
X121017882Y-47874951D01*
X120814519Y-47941026D01*
X120814516Y-47941027D01*
X120623990Y-48038106D01*
X120450997Y-48163793D01*
X120345818Y-48268972D01*
X120284495Y-48302456D01*
X120214803Y-48297472D01*
X120158870Y-48255600D01*
X120141958Y-48224629D01*
X120096889Y-48103796D01*
X120009261Y-47986739D01*
X119892204Y-47899111D01*
X119755203Y-47848011D01*
X119694654Y-47841500D01*
X119694638Y-47841500D01*
X117897362Y-47841500D01*
X117897345Y-47841500D01*
X117836797Y-47848011D01*
X117836795Y-47848011D01*
X117699795Y-47899111D01*
X117582739Y-47986739D01*
X117495111Y-48103795D01*
X117444011Y-48240795D01*
X117444011Y-48240797D01*
X117437500Y-48301345D01*
X100075500Y-48301345D01*
X100075500Y-47428092D01*
X100076097Y-47415938D01*
X100087494Y-47300222D01*
X100092234Y-47276389D01*
X100124216Y-47170959D01*
X100133508Y-47148526D01*
X100185442Y-47051365D01*
X100198938Y-47031166D01*
X100268827Y-46946006D01*
X100286006Y-46928827D01*
X100371166Y-46858938D01*
X100391365Y-46845442D01*
X100488526Y-46793508D01*
X100510959Y-46784216D01*
X100616389Y-46752234D01*
X100640220Y-46747494D01*
X100755939Y-46736097D01*
X100768093Y-46735500D01*
X100786531Y-46735500D01*
X163484982Y-46735500D01*
X165803617Y-46735500D01*
X165870656Y-46755185D01*
G37*
G04 #@! TD.AperFunction*
M02*
