G04 #@! TF.GenerationSoftware,KiCad,Pcbnew,9.0.6*
G04 #@! TF.CreationDate,2026-03-12T17:34:17-06:00*
G04 #@! TF.ProjectId,Weather Balloon Arduino,57656174-6865-4722-9042-616c6c6f6f6e,rev?*
G04 #@! TF.SameCoordinates,Original*
G04 #@! TF.FileFunction,Soldermask,Top*
G04 #@! TF.FilePolarity,Negative*
%FSLAX46Y46*%
G04 Gerber Fmt 4.6, Leading zero omitted, Abs format (unit mm)*
G04 Created by KiCad (PCBNEW 9.0.6) date 2026-03-12 17:34:17*
%MOMM*%
%LPD*%
G01*
G04 APERTURE LIST*
%ADD10R,1.700000X1.700000*%
%ADD11O,1.700000X1.700000*%
%ADD12R,1.800000X1.800000*%
%ADD13C,1.800000*%
%ADD14C,1.400000*%
%ADD15C,1.700000*%
%ADD16R,1.500000X1.500000*%
%ADD17C,1.600000*%
G04 APERTURE END LIST*
D10*
X127940000Y-97460000D03*
D11*
X130480000Y-97460000D03*
X133020000Y-97460000D03*
X135560000Y-97460000D03*
X138100000Y-97460000D03*
X140640000Y-97460000D03*
X143180000Y-97460000D03*
X145720000Y-97460000D03*
D10*
X150800000Y-97460000D03*
D11*
X153340000Y-97460000D03*
X155880000Y-97460000D03*
X158420000Y-97460000D03*
X160960000Y-97460000D03*
X163500000Y-97460000D03*
D10*
X118796000Y-49200000D03*
D11*
X121336000Y-49200000D03*
X123876000Y-49200000D03*
X126416000Y-49200000D03*
X128956000Y-49200000D03*
X131496000Y-49200000D03*
X134036000Y-49200000D03*
X136576000Y-49200000D03*
X139116000Y-49200000D03*
X141656000Y-49200000D03*
D10*
X145720000Y-49200000D03*
D11*
X148260000Y-49200000D03*
X150800000Y-49200000D03*
X153340000Y-49200000D03*
X155880000Y-49200000D03*
X158420000Y-49200000D03*
X160960000Y-49200000D03*
X163500000Y-49200000D03*
D12*
X125060000Y-63950000D03*
D13*
X125060000Y-61410000D03*
D14*
X147000000Y-55100000D03*
X147000000Y-57000000D03*
X139000000Y-55000000D03*
X139000000Y-56900000D03*
X120000000Y-97000000D03*
X121900000Y-97000000D03*
D10*
X105300000Y-93975000D03*
D15*
X105300000Y-96515000D03*
D16*
X112650000Y-95500000D03*
D17*
X115190000Y-95500000D03*
X110110000Y-95500000D03*
D12*
X154650000Y-64000000D03*
D13*
X154650000Y-61460000D03*
D12*
X147000000Y-64000000D03*
D13*
X147000000Y-61460000D03*
D10*
X117740000Y-73000000D03*
D15*
X115200000Y-73000000D03*
X112660000Y-73000000D03*
X110120000Y-73000000D03*
X107580000Y-73000000D03*
X105040000Y-73000000D03*
X102500000Y-73000000D03*
D12*
X132000000Y-63900000D03*
D13*
X132000000Y-61360000D03*
D12*
X139500000Y-64000000D03*
D13*
X139500000Y-61460000D03*
D14*
X131500000Y-55000000D03*
X131500000Y-56900000D03*
X154500000Y-55100000D03*
X154500000Y-57000000D03*
X161000000Y-55000000D03*
X161000000Y-56900000D03*
D10*
X103500000Y-78460000D03*
D15*
X103500000Y-81000000D03*
X103500000Y-83540000D03*
D10*
X124000000Y-91500000D03*
D15*
X126540000Y-91500000D03*
X129080000Y-91500000D03*
X131620000Y-91500000D03*
X134160000Y-91500000D03*
X136700000Y-91500000D03*
X139240000Y-91500000D03*
X141780000Y-91500000D03*
X147500000Y-91500000D03*
X150000000Y-91500000D03*
D10*
X152500000Y-91500000D03*
D15*
X155120000Y-91500000D03*
X157660000Y-91500000D03*
X160200000Y-91500000D03*
X162740000Y-91500000D03*
D12*
X162000000Y-64000000D03*
D13*
X162000000Y-61460000D03*
D14*
X125000000Y-55000000D03*
X125000000Y-56900000D03*
M02*
